<svg width="3000" height="2000" viewBox="0 0 3000 2000" fill="none" xmlns="http://www.w3.org/2000/svg">
<g filter="url(#filter0_d_1365_282)">
<rect x="622" y="122" width="1755" height="1755" rx="220" fill="#38353F"/>
</g>
<path d="M1232.74 1514.26C1225.29 1511.37 1217.35 1511.73 1209.66 1510.29C1160.97 1500.91 1118.89 1478.43 1081.51 1446.34C1039.79 1410.51 1007.69 1366.87 980.163 1319.63C971.868 1305.44 962.852 1291.49 958.885 1275.15C953.114 1250.62 956 1226.58 961.89 1202.53C969.584 1170.8 981.726 1140.5 990.622 1109.24C997.114 1086.28 1003.85 1063.44 1015.27 1042.28C1024.16 1025.69 1035.22 1010.91 1052.17 1001.89C1079.82 986.983 1106.03 991.792 1130.68 1009.1C1151.71 1023.77 1167.46 1043.61 1182.37 1064.16C1207.25 1098.18 1229.13 1134.37 1253.18 1168.99C1271.21 1194.96 1289.6 1220.69 1313.29 1242.21C1320.74 1249.06 1329.76 1252.3 1339.37 1254.47C1343.58 1255.43 1346.23 1253.87 1348.15 1250.14C1351.88 1243.17 1353.44 1235.59 1354.16 1227.9C1355.84 1209.63 1353.92 1191.71 1347.31 1174.52C1345.26 1169.35 1342.14 1165.63 1337.21 1162.62C1313.29 1147.83 1289.84 1132.45 1270.85 1111.41C1259.19 1098.43 1250.41 1083.88 1249.33 1065.97C1246.93 1024.97 1280.23 999.005 1319.66 1010.91C1342.26 1017.76 1360.77 1031.58 1377.72 1047.33C1414.39 1081.11 1443.24 1120.42 1458.63 1168.51C1469.69 1203.01 1471.25 1237.64 1454.66 1270.82C1435.19 1309.65 1404.17 1334.53 1360.41 1340.78C1334.2 1344.51 1309.8 1336.94 1287.8 1322.87C1267.36 1309.89 1247.17 1296.42 1228.53 1280.68C1213.51 1268.05 1197.28 1257.35 1177.92 1252.54C1159.53 1248.1 1146.54 1253.99 1139.33 1271.54C1127.43 1300.39 1132.12 1328.28 1147.27 1354.49C1164.46 1383.94 1191.63 1399.21 1224.21 1405.82C1262.31 1413.52 1299.82 1408.59 1337.09 1399.33C1354.04 1395.12 1370.75 1389.71 1387.1 1383.7C1413.91 1373.84 1439.88 1389.83 1442.4 1418.32C1443.6 1432.03 1437.95 1443.57 1427.01 1452.23C1394.43 1477.95 1357.89 1495.74 1317.73 1506.2C1303.31 1510.05 1288.64 1512.82 1273.61 1513.54C1272.77 1513.54 1272.05 1513.78 1271.93 1514.74H1265.92C1257.15 1512.82 1248.37 1512.82 1239.59 1514.74H1232.38L1232.74 1514.26Z" fill="#924FFF"/>
<path d="M2077.32 1122.62C2074.91 1124.43 2076.23 1126.95 2076.23 1129.11C2075.39 1193.91 2069.38 1258.23 2055.92 1321.58C2051.47 1342.38 2034.04 1355 2012.52 1353.32C1993.16 1351.88 1978.26 1335.29 1976.81 1314.97C1972.49 1252.7 1968.04 1190.42 1960.46 1128.39C1953.25 1069.37 1943.75 1010.7 1926.68 953.596C1914.78 913.924 1899.51 875.575 1875.11 841.553C1849.62 806.089 1816.56 781.925 1772.8 773.991C1763.19 772.308 1753.57 771.226 1743.71 771.105C1712.46 770.865 1681.2 772.067 1649.94 769.903C1630.71 768.581 1611.59 766.177 1593.56 758.242C1558.34 742.734 1542.83 712.439 1551.24 674.811C1555.69 654.975 1564.35 636.822 1577.09 620.954C1596.45 597.03 1622.77 590.178 1652.35 592.221C1673.63 593.664 1694.42 598.713 1715.46 601.719C1742.39 605.566 1768.84 604.604 1795.41 598.713C1827.5 591.5 1859.36 591.38 1890.02 605.926C1915.02 617.708 1933.06 637.063 1947.84 659.664C1966.48 688.155 1979.7 719.532 1994.37 750.188C2017.45 798.515 2037.64 847.804 2050.63 899.859C2064.69 956.361 2072.75 1013.83 2075.27 1072.01C2075.87 1085.11 2076.23 1098.22 2076.23 1111.44C2076.23 1112.76 2075.15 1114.69 2077.32 1115.53V1122.74V1122.62Z" fill="#924FFF"/>
<path d="M1239.95 1514.65C1248.73 1512.73 1257.5 1512.73 1266.28 1514.65H1239.95Z" fill="#924FFF"/>
<path d="M1595.8 910.798C1570.91 911.279 1548.43 912.842 1526.07 909.836C1507.56 907.311 1490.37 901.781 1476.78 888.197C1448.77 860.186 1455.86 819.913 1491.81 803.083C1507.8 795.629 1524.87 792.744 1542.18 791.782C1617.32 787.695 1690.65 797.312 1761.34 823.88C1787.06 833.498 1810.99 846.481 1829.5 867.519C1853.91 895.169 1859.44 926.426 1845.01 960.568C1837.8 977.879 1833.47 996.032 1826.98 1013.58C1812.43 1053.26 1783.1 1072.85 1742.1 1077.3C1714.69 1080.18 1687.64 1076.7 1660.47 1074.41C1649.05 1073.45 1637.75 1073.57 1626.57 1075.86C1611.31 1078.98 1606.02 1083.79 1604.93 1099.18C1603.49 1119.26 1605.9 1138.01 1621.52 1153.64C1650.98 1182.85 1666.97 1219.28 1674.9 1259.55C1676.1 1265.56 1678.03 1271.45 1680.67 1276.98C1682.35 1280.59 1684.4 1281.91 1688.61 1280.71C1698.1 1277.94 1706.52 1273.13 1714.45 1267.48C1741.74 1248.25 1763.86 1223.84 1784.78 1198.12C1809.06 1168.3 1830.34 1136.33 1850.66 1103.75C1861.96 1085.47 1879.15 1077.78 1900.07 1081.15C1920.27 1084.39 1933.61 1096.53 1939.5 1116.37C1942.75 1127.31 1941.42 1138.01 1937.34 1148.47C1924.35 1181.77 1906.32 1212.42 1886.36 1242C1854.75 1289 1819.04 1332.88 1777.45 1371.59C1753.76 1393.59 1728.64 1413.67 1698.82 1427.13C1675.86 1437.59 1651.94 1442.76 1626.93 1435.67C1596.76 1427.13 1578.73 1405.73 1568.51 1377.48C1559.61 1352.84 1554.44 1326.99 1546.75 1301.99C1536.77 1268.93 1527.51 1235.51 1511.16 1204.85C1499.14 1182.25 1484.84 1160.85 1473.18 1138.01C1460.19 1112.4 1446.01 1087.16 1437.47 1059.51C1431.7 1040.87 1430.5 1021.88 1439.03 1003.61C1450.33 979.562 1470.89 969.224 1496.14 966.218C1523.43 962.972 1550.11 968.021 1576.68 972.83C1609.74 978.721 1642.56 986.535 1676.1 989.54C1687.76 990.622 1699.55 990.983 1711.21 988.819C1719.14 987.377 1720.22 986.054 1720.1 978.12C1719.74 961.409 1715.05 945.661 1708.44 930.393C1705.32 923.3 1698.7 920.055 1691.97 917.53C1675.86 911.519 1659.03 910.437 1642.08 910.077C1625.73 909.716 1609.38 910.077 1595.56 911.038L1595.8 910.798Z" fill="#924FFF"/>
<path d="M1376.52 805.135C1331.68 802.37 1287.44 796.72 1246.21 777.245C1207.86 759.212 1182.01 730.841 1172.88 688.284C1163.14 642.962 1176.84 604.973 1209.18 573.356C1248.25 535.247 1296.22 516.734 1350.32 516.012C1386.38 515.532 1417.16 528.996 1437.95 560.373C1446.37 572.996 1451.06 587.061 1452.74 602.088C1453.1 605.094 1454.42 607.257 1455.99 609.542C1479.79 645.727 1490.13 685.038 1482.44 728.076C1475.46 767.027 1445.89 794.917 1405.62 802.37C1396 804.174 1386.26 805.015 1376.52 805.135ZM1352.24 705.475C1359.57 705.235 1365.1 704.754 1370.51 703.191C1378.93 700.667 1381.21 697.781 1381.09 689.126C1380.85 678.546 1377 668.568 1375.32 658.109C1375.08 656.547 1373.76 655.946 1372.68 654.984C1365.58 648.612 1358.49 642.121 1351.28 635.869C1341.06 626.973 1330.96 617.957 1318.46 612.307C1308.96 607.979 1303.19 608.82 1295.74 615.913C1287.92 623.246 1282.15 631.902 1277.34 641.399C1271.45 653.181 1272.9 664.12 1281.67 673.978C1301.03 695.377 1326.27 703.191 1352.24 705.595V705.475Z" fill="#924FFF"/>
<path d="M1322.42 993.267C1272.53 995.191 1224.8 985.934 1180.2 963.814C1140.77 944.339 1101.34 946.383 1060.7 957.923C1032.09 966.098 1002.88 968.983 973.423 962.251C959.839 959.126 947.456 953.355 937.598 943.257C921.008 926.426 917.402 902.022 927.981 879.782C932.068 871.246 937.598 863.673 944.09 857.061C957.555 843.236 972.822 831.815 989.653 822.678C1012.61 810.296 1036.18 810.777 1059.5 821.957C1063.95 824.121 1068.4 826.285 1072.84 828.569C1097.01 841.432 1120.81 841.553 1144.97 828.208C1164.21 817.629 1183.44 806.689 1204.24 798.995C1218.43 793.826 1232.97 790.941 1248.12 794.187C1272.28 799.476 1289.12 819.673 1291.16 845.159C1292.24 858.022 1290.68 870.525 1288.39 883.028C1288.27 883.869 1288.03 884.591 1287.91 885.312C1285.63 899.978 1289.36 905.749 1303.78 909.476C1319.41 913.563 1335.28 912.962 1351.15 911.399C1360.16 910.437 1369.18 908.273 1378.44 910.558C1397.07 915.006 1409.81 931.115 1409.45 950.47C1409.09 968.983 1395.87 984.852 1377.6 988.459C1359.32 992.186 1340.81 992.065 1322.42 992.907V993.267Z" fill="#924FFF"/>
<defs>
<filter id="filter0_d_1365_282" x="622" y="122" width="1757" height="1757" filterUnits="userSpaceOnUse" color-interpolation-filters="sRGB">
<feFlood flood-opacity="0" result="BackgroundImageFix"/>
<feColorMatrix in="SourceAlpha" type="matrix" values="0 0 0 0 0 0 0 0 0 0 0 0 0 0 0 0 0 0 127 0" result="hardAlpha"/>
<feOffset dx="1" dy="1"/>
<feGaussianBlur stdDeviation="0.5"/>
<feComposite in2="hardAlpha" operator="out"/>
<feColorMatrix type="matrix" values="0 0 0 0 0 0 0 0 0 0 0 0 0 0 0 0 0 0 0.25 0"/>
<feBlend mode="normal" in2="BackgroundImageFix" result="effect1_dropShadow_1365_282"/>
<feBlend mode="normal" in="SourceGraphic" in2="effect1_dropShadow_1365_282" result="shape"/>
</filter>
</defs>
</svg>
