<svg width="202" height="202" viewBox="0 0 202 202" fill="none" xmlns="http://www.w3.org/2000/svg">
<g filter="url(#filter0_d_1201_748)">
<rect width="200" height="200" rx="59" fill="#38353F"/>
</g>
<path d="M69.5995 158.706C68.7501 158.377 67.8459 158.419 66.9691 158.254C61.4206 157.186 56.6256 154.624 52.3649 150.966C47.611 146.883 43.9531 141.91 40.8158 136.526C39.8705 134.909 38.843 133.32 38.3909 131.457C37.7333 128.662 38.0621 125.922 38.7334 123.182C39.6102 119.565 40.9939 116.113 42.0077 112.551C42.7475 109.934 43.5147 107.331 44.8162 104.92C45.83 103.029 47.0904 101.344 49.0221 100.317C52.1731 98.618 55.1597 99.166 57.9682 101.139C60.3657 102.81 62.1604 105.071 63.8592 107.413C66.6951 111.291 69.1885 115.414 71.9285 119.36C73.9835 122.319 76.0796 125.251 78.7785 127.703C79.6279 128.484 80.6554 128.854 81.7514 129.101C82.2309 129.21 82.5323 129.032 82.7515 128.607C83.1762 127.813 83.3543 126.95 83.4365 126.073C83.6283 123.99 83.4091 121.949 82.6556 119.99C82.4227 119.401 82.0665 118.976 81.5048 118.634C78.7785 116.949 76.107 115.195 73.9424 112.798C72.6135 111.318 71.6134 109.66 71.4901 107.619C71.2161 102.947 75.011 99.988 79.5046 101.344C82.0802 102.125 84.19 103.701 86.1217 105.495C90.3002 109.345 93.5882 113.825 95.3418 119.305C96.6022 123.237 96.7803 127.183 94.8897 130.964C92.6703 135.389 89.1357 138.225 84.1489 138.937C81.1623 139.362 78.3812 138.499 75.8741 136.896C73.5451 135.416 71.2435 133.882 69.12 132.087C67.4075 130.649 65.558 129.429 63.3523 128.881C61.2562 128.374 59.7766 129.046 58.9546 131.046C57.5983 134.334 58.1326 137.512 59.8588 140.499C61.8179 143.855 64.9141 145.595 68.6268 146.349C72.9697 147.226 77.2441 146.664 81.4911 145.609C83.4228 145.13 85.3271 144.513 87.1903 143.828C90.2454 142.705 93.2046 144.527 93.4923 147.774C93.6293 149.335 92.9854 150.651 91.7387 151.637C88.026 154.569 83.8612 156.596 79.2854 157.788C77.6414 158.227 75.97 158.542 74.2575 158.624C74.1616 158.624 74.0794 158.651 74.0657 158.761H73.3807C72.3806 158.542 71.3805 158.542 70.3804 158.761H69.5584L69.5995 158.706Z" fill="#924FFF"/>
<path d="M165.787 114.031C165.513 114.236 165.664 114.524 165.664 114.77C165.568 122.155 164.883 129.484 163.348 136.704C162.841 139.074 160.855 140.513 158.403 140.321C156.197 140.156 154.498 138.266 154.334 135.951C153.841 128.854 153.334 121.757 152.471 114.688C151.649 107.961 150.566 101.276 148.621 94.7684C147.265 90.2474 145.525 85.8771 142.744 82C139.839 77.9585 136.072 75.2048 131.085 74.3006C129.989 74.1088 128.893 73.9855 127.769 73.9718C124.207 73.9444 120.645 74.0814 117.083 73.8348C114.891 73.6841 112.713 73.4101 110.658 72.5059C106.644 70.7386 104.877 67.2862 105.836 62.9981C106.343 60.7376 107.329 58.6689 108.781 56.8605C110.987 54.1342 113.987 53.3533 117.357 53.5862C119.782 53.7506 122.152 54.326 124.55 54.6685C127.619 55.1069 130.633 54.9973 133.66 54.326C137.318 53.504 140.949 53.4903 144.442 55.148C147.292 56.4906 149.347 58.6963 151.032 61.2719C153.156 64.5188 154.663 68.0945 156.334 71.588C158.964 77.0954 161.266 82.7124 162.746 88.6445C164.348 95.0835 165.266 101.632 165.554 108.263C165.623 109.756 165.664 111.249 165.664 112.756C165.664 112.907 165.54 113.126 165.787 113.222V114.044V114.031Z" fill="#924FFF"/>
<path d="M70.4219 158.706C71.422 158.487 72.4221 158.487 73.4222 158.706H70.4219Z" fill="#924FFF"/>
<path d="M110.974 89.8911C108.138 89.9459 105.576 90.124 103.028 89.7815C100.918 89.4938 98.9586 88.8636 97.4105 87.3155C94.2184 84.1234 95.0267 79.5339 99.123 77.6159C100.945 76.7665 102.891 76.4377 104.863 76.3281C113.426 75.8623 121.783 76.9583 129.838 79.986C132.77 81.082 135.497 82.5616 137.606 84.9591C140.387 88.1101 141.018 91.6721 139.374 95.5629C138.552 97.5357 138.058 99.6044 137.319 101.605C135.661 106.126 132.318 108.359 127.646 108.866C124.523 109.194 121.44 108.797 118.344 108.537C117.043 108.427 115.755 108.441 114.481 108.701C112.741 109.057 112.138 109.605 112.015 111.359C111.85 113.647 112.124 115.784 113.905 117.565C117.262 120.894 119.084 125.045 119.988 129.635C120.125 130.32 120.344 130.991 120.646 131.621C120.838 132.032 121.07 132.183 121.55 132.046C122.632 131.731 123.591 131.183 124.495 130.539C127.605 128.347 130.126 125.566 132.51 122.634C135.277 119.236 137.702 115.592 140.018 111.88C141.305 109.797 143.264 108.92 145.648 109.304C147.95 109.674 149.471 111.058 150.142 113.318C150.512 114.565 150.361 115.784 149.895 116.976C148.416 120.771 146.361 124.264 144.086 127.635C140.483 132.991 136.414 137.992 131.674 142.403C128.975 144.91 126.112 147.198 122.714 148.733C120.098 149.924 117.371 150.514 114.522 149.705C111.083 148.733 109.028 146.294 107.864 143.074C106.85 140.266 106.261 137.32 105.384 134.471C104.247 130.703 103.192 126.895 101.329 123.401C99.9587 120.826 98.3284 118.387 96.9995 115.784C95.5199 112.866 93.9033 109.989 92.9306 106.838C92.273 104.714 92.136 102.55 93.1087 100.467C94.3965 97.7275 96.7392 96.5493 99.6162 96.2068C102.726 95.8369 105.768 96.4123 108.795 96.9603C112.563 97.6316 116.303 98.5221 120.125 98.8646C121.454 98.9879 122.797 99.029 124.126 98.7824C125.03 98.618 125.153 98.4673 125.139 97.5631C125.098 95.6588 124.564 93.8641 123.81 92.1242C123.454 91.3159 122.701 90.946 121.934 90.6583C120.098 89.9733 118.18 89.85 116.248 89.8089C114.385 89.7678 112.522 89.8089 110.946 89.9185L110.974 89.8911Z" fill="#924FFF"/>
<path d="M85.9844 77.8352C80.8743 77.5201 75.8327 76.8762 71.1336 74.6568C66.7633 72.6018 63.8178 69.3686 62.7766 64.5188C61.6669 59.3539 63.2287 55.0247 66.914 51.4216C71.3665 47.0787 76.8328 44.9689 82.9978 44.8867C87.1078 44.8319 90.615 46.3663 92.9851 49.942C93.9441 51.3805 94.4784 52.9834 94.6702 54.6959C94.7113 55.0384 94.862 55.285 95.0401 55.5453C97.7527 59.669 98.9309 64.1489 98.0541 69.0535C97.2595 73.4923 93.8893 76.6707 89.2998 77.5201C88.2038 77.7256 87.0941 77.8215 85.9844 77.8352ZM83.217 66.4779C84.0527 66.4505 84.6829 66.3957 85.2994 66.2176C86.2584 65.9299 86.5187 65.6011 86.505 64.6147C86.4776 63.4091 86.0392 62.272 85.8474 61.0801C85.82 60.902 85.6693 60.8335 85.546 60.7239C84.7377 59.9978 83.9294 59.258 83.1074 58.5456C81.9429 57.5318 80.7921 56.5043 79.3673 55.8604C78.285 55.3672 77.6274 55.4631 76.778 56.2714C75.8875 57.1071 75.2299 58.0935 74.6819 59.1758C74.0106 60.5184 74.175 61.7651 75.1751 62.8885C77.3808 65.3271 80.2578 66.2176 83.217 66.4916V66.4779Z" fill="#924FFF"/>
<path d="M79.8344 99.2892C74.1489 99.5084 68.71 98.4535 63.6273 95.9327C59.1337 93.7133 54.6401 93.9462 50.0095 95.2614C46.7489 96.193 43.4198 96.5218 40.0633 95.7546C38.5152 95.3984 37.1041 94.7408 35.9807 93.59C34.0901 91.672 33.6791 88.8909 34.8847 86.3564C35.3505 85.3837 35.9807 84.5206 36.7205 83.7671C38.2549 82.1916 39.9948 80.8901 41.9128 79.8489C44.5295 78.4378 47.2147 78.4926 49.8725 79.7667C50.3794 80.0133 50.8863 80.2599 51.3932 80.5202C54.1469 81.9861 56.8595 81.9998 59.6132 80.4791C61.8052 79.2735 63.9972 78.0268 66.3673 77.15C67.9839 76.5609 69.6416 76.2321 71.3678 76.602C74.1215 77.2048 76.0395 79.5064 76.2724 82.4108C76.3957 83.8767 76.2176 85.3015 75.9573 86.7263C75.9436 86.8222 75.9162 86.9044 75.9025 86.9866C75.6422 88.658 76.0669 89.3156 77.7109 89.7403C79.4919 90.2061 81.3003 90.1376 83.1087 89.9595C84.1362 89.8499 85.1637 89.6033 86.2186 89.8636C88.3421 90.3705 89.7943 92.2063 89.7532 94.412C89.7121 96.5218 88.2051 98.3302 86.1227 98.7412C84.0403 99.1659 81.9305 99.1522 79.8344 99.2481V99.2892Z" fill="#924FFF"/>
<defs>
<filter id="filter0_d_1201_748" x="0" y="0" width="202" height="202" filterUnits="userSpaceOnUse" color-interpolation-filters="sRGB">
<feFlood flood-opacity="0" result="BackgroundImageFix"/>
<feColorMatrix in="SourceAlpha" type="matrix" values="0 0 0 0 0 0 0 0 0 0 0 0 0 0 0 0 0 0 127 0" result="hardAlpha"/>
<feOffset dx="1" dy="1"/>
<feGaussianBlur stdDeviation="0.5"/>
<feComposite in2="hardAlpha" operator="out"/>
<feColorMatrix type="matrix" values="0 0 0 0 0 0 0 0 0 0 0 0 0 0 0 0 0 0 0.25 0"/>
<feBlend mode="normal" in2="BackgroundImageFix" result="effect1_dropShadow_1201_748"/>
<feBlend mode="normal" in="SourceGraphic" in2="effect1_dropShadow_1201_748" result="shape"/>
</filter>
</defs>
</svg>
