<svg width="3000" height="2500" viewBox="0 0 3000 2500" fill="none" xmlns="http://www.w3.org/2000/svg">
<g filter="url(#filter0_d_1205_863)">
<rect x="622" y="372" width="1755" height="1755" rx="220" fill="#D9D9D9"/>
</g>
<path d="M1232.74 1764.26C1225.29 1761.37 1217.35 1761.73 1209.66 1760.29C1160.97 1750.91 1118.89 1728.43 1081.51 1696.34C1039.79 1660.51 1007.69 1616.87 980.163 1569.63C971.868 1555.44 962.852 1541.49 958.885 1525.15C953.114 1500.62 956 1476.58 961.89 1452.53C969.584 1420.8 981.726 1390.5 990.622 1359.24C997.114 1336.28 1003.85 1313.44 1015.27 1292.28C1024.16 1275.69 1035.22 1260.91 1052.17 1251.89C1079.82 1236.98 1106.03 1241.79 1130.68 1259.1C1151.71 1273.77 1167.46 1293.61 1182.37 1314.16C1207.25 1348.18 1229.13 1384.37 1253.18 1418.99C1271.21 1444.96 1289.6 1470.69 1313.29 1492.21C1320.74 1499.06 1329.76 1502.3 1339.37 1504.47C1343.58 1505.43 1346.23 1503.87 1348.15 1500.14C1351.88 1493.17 1353.44 1485.59 1354.16 1477.9C1355.84 1459.63 1353.92 1441.71 1347.31 1424.52C1345.26 1419.35 1342.14 1415.63 1337.21 1412.62C1313.29 1397.83 1289.84 1382.45 1270.85 1361.41C1259.19 1348.43 1250.41 1333.88 1249.33 1315.97C1246.93 1274.97 1280.23 1249 1319.66 1260.91C1342.26 1267.76 1360.77 1281.58 1377.72 1297.33C1414.39 1331.11 1443.24 1370.42 1458.63 1418.51C1469.69 1453.01 1471.25 1487.64 1454.66 1520.82C1435.19 1559.65 1404.17 1584.53 1360.41 1590.78C1334.2 1594.51 1309.8 1586.94 1287.8 1572.87C1267.36 1559.89 1247.17 1546.42 1228.53 1530.68C1213.51 1518.05 1197.28 1507.35 1177.92 1502.54C1159.53 1498.1 1146.54 1503.99 1139.33 1521.54C1127.43 1550.39 1132.12 1578.28 1147.27 1604.49C1164.46 1633.94 1191.63 1649.21 1224.21 1655.82C1262.31 1663.52 1299.82 1658.59 1337.09 1649.33C1354.04 1645.12 1370.75 1639.71 1387.1 1633.7C1413.91 1623.84 1439.88 1639.83 1442.4 1668.32C1443.6 1682.03 1437.95 1693.57 1427.01 1702.23C1394.43 1727.95 1357.89 1745.74 1317.73 1756.2C1303.31 1760.05 1288.64 1762.82 1273.61 1763.54C1272.77 1763.54 1272.05 1763.78 1271.93 1764.74H1265.92C1257.15 1762.82 1248.37 1762.82 1239.59 1764.74H1232.38L1232.74 1764.26Z" fill="white"/>
<path d="M2077.32 1372.62C2074.91 1374.43 2076.23 1376.95 2076.23 1379.11C2075.39 1443.91 2069.38 1508.23 2055.92 1571.58C2051.47 1592.38 2034.04 1605 2012.52 1603.32C1993.16 1601.88 1978.26 1585.29 1976.81 1564.97C1972.49 1502.7 1968.04 1440.42 1960.46 1378.39C1953.25 1319.37 1943.75 1260.7 1926.68 1203.6C1914.78 1163.92 1899.51 1125.57 1875.11 1091.55C1849.62 1056.09 1816.56 1031.93 1772.8 1023.99C1763.19 1022.31 1753.57 1021.23 1743.71 1021.11C1712.46 1020.87 1681.2 1022.07 1649.94 1019.9C1630.71 1018.58 1611.59 1016.18 1593.56 1008.24C1558.34 992.734 1542.83 962.439 1551.24 924.811C1555.69 904.975 1564.35 886.822 1577.09 870.954C1596.45 847.03 1622.77 840.178 1652.35 842.221C1673.63 843.664 1694.42 848.713 1715.46 851.719C1742.39 855.566 1768.84 854.604 1795.41 848.713C1827.5 841.5 1859.36 841.38 1890.02 855.926C1915.02 867.708 1933.06 887.063 1947.84 909.664C1966.48 938.155 1979.7 969.532 1994.37 1000.19C2017.45 1048.52 2037.64 1097.8 2050.63 1149.86C2064.69 1206.36 2072.75 1263.83 2075.27 1322.01C2075.87 1335.11 2076.23 1348.22 2076.23 1361.44C2076.23 1362.76 2075.15 1364.69 2077.32 1365.53V1372.74V1372.62Z" fill="white"/>
<path d="M1239.95 1764.65C1248.73 1762.73 1257.5 1762.73 1266.28 1764.65H1239.95Z" fill="white"/>
<path d="M1595.8 1160.8C1570.91 1161.28 1548.43 1162.84 1526.07 1159.84C1507.56 1157.31 1490.37 1151.78 1476.78 1138.2C1448.77 1110.19 1455.86 1069.91 1491.81 1053.08C1507.8 1045.63 1524.87 1042.74 1542.18 1041.78C1617.32 1037.69 1690.65 1047.31 1761.34 1073.88C1787.06 1083.5 1810.99 1096.48 1829.5 1117.52C1853.91 1145.17 1859.44 1176.43 1845.01 1210.57C1837.8 1227.88 1833.47 1246.03 1826.98 1263.58C1812.43 1303.26 1783.1 1322.85 1742.1 1327.3C1714.69 1330.18 1687.64 1326.7 1660.47 1324.41C1649.05 1323.45 1637.75 1323.57 1626.57 1325.86C1611.31 1328.98 1606.02 1333.79 1604.93 1349.18C1603.49 1369.26 1605.9 1388.01 1621.52 1403.64C1650.98 1432.85 1666.97 1469.28 1674.9 1509.55C1676.1 1515.56 1678.03 1521.45 1680.67 1526.98C1682.35 1530.59 1684.4 1531.91 1688.61 1530.71C1698.1 1527.94 1706.52 1523.13 1714.45 1517.48C1741.74 1498.25 1763.86 1473.84 1784.78 1448.12C1809.06 1418.3 1830.34 1386.33 1850.66 1353.75C1861.96 1335.47 1879.15 1327.78 1900.07 1331.15C1920.27 1334.39 1933.61 1346.53 1939.5 1366.37C1942.75 1377.31 1941.42 1388.01 1937.34 1398.47C1924.35 1431.77 1906.32 1462.42 1886.36 1492C1854.75 1539 1819.04 1582.88 1777.45 1621.59C1753.76 1643.59 1728.64 1663.67 1698.82 1677.13C1675.86 1687.59 1651.94 1692.76 1626.93 1685.67C1596.76 1677.13 1578.73 1655.73 1568.51 1627.48C1559.61 1602.84 1554.44 1576.99 1546.75 1551.99C1536.77 1518.93 1527.51 1485.51 1511.16 1454.85C1499.14 1432.25 1484.84 1410.85 1473.18 1388.01C1460.19 1362.4 1446.01 1337.16 1437.47 1309.51C1431.7 1290.87 1430.5 1271.88 1439.03 1253.61C1450.33 1229.56 1470.89 1219.22 1496.14 1216.22C1523.43 1212.97 1550.11 1218.02 1576.68 1222.83C1609.74 1228.72 1642.56 1236.54 1676.1 1239.54C1687.76 1240.62 1699.55 1240.98 1711.21 1238.82C1719.14 1237.38 1720.22 1236.05 1720.1 1228.12C1719.74 1211.41 1715.05 1195.66 1708.44 1180.39C1705.32 1173.3 1698.7 1170.05 1691.97 1167.53C1675.86 1161.52 1659.03 1160.44 1642.08 1160.08C1625.73 1159.72 1609.38 1160.08 1595.56 1161.04L1595.8 1160.8Z" fill="white"/>
<path d="M1376.52 1055.14C1331.68 1052.37 1287.44 1046.72 1246.21 1027.25C1207.86 1009.21 1182.01 980.841 1172.88 938.284C1163.14 892.962 1176.84 854.973 1209.18 823.356C1248.25 785.247 1296.22 766.734 1350.32 766.012C1386.38 765.532 1417.16 778.996 1437.95 810.373C1446.37 822.996 1451.06 837.061 1452.74 852.088C1453.1 855.094 1454.42 857.257 1455.99 859.542C1479.79 895.727 1490.13 935.038 1482.44 978.076C1475.46 1017.03 1445.89 1044.92 1405.62 1052.37C1396 1054.17 1386.26 1055.02 1376.52 1055.14ZM1352.24 955.475C1359.57 955.235 1365.1 954.754 1370.51 953.191C1378.93 950.667 1381.21 947.781 1381.09 939.126C1380.85 928.546 1377 918.568 1375.32 908.109C1375.08 906.547 1373.76 905.946 1372.68 904.984C1365.58 898.612 1358.49 892.121 1351.28 885.869C1341.06 876.973 1330.96 867.957 1318.46 862.307C1308.96 857.979 1303.19 858.82 1295.74 865.913C1287.92 873.246 1282.15 881.902 1277.34 891.399C1271.45 903.181 1272.9 914.12 1281.67 923.978C1301.03 945.377 1326.27 953.191 1352.24 955.595V955.475Z" fill="white"/>
<path d="M1322.42 1243.27C1272.53 1245.19 1224.8 1235.93 1180.2 1213.81C1140.77 1194.34 1101.34 1196.38 1060.7 1207.92C1032.09 1216.1 1002.88 1218.98 973.423 1212.25C959.839 1209.13 947.456 1203.36 937.598 1193.26C921.008 1176.43 917.402 1152.02 927.981 1129.78C932.068 1121.25 937.598 1113.67 944.09 1107.06C957.555 1093.24 972.822 1081.81 989.653 1072.68C1012.61 1060.3 1036.18 1060.78 1059.5 1071.96C1063.95 1074.12 1068.4 1076.28 1072.84 1078.57C1097.01 1091.43 1120.81 1091.55 1144.97 1078.21C1164.21 1067.63 1183.44 1056.69 1204.24 1049C1218.43 1043.83 1232.97 1040.94 1248.12 1044.19C1272.28 1049.48 1289.12 1069.67 1291.16 1095.16C1292.24 1108.02 1290.68 1120.53 1288.39 1133.03C1288.27 1133.87 1288.03 1134.59 1287.91 1135.31C1285.63 1149.98 1289.36 1155.75 1303.78 1159.48C1319.41 1163.56 1335.28 1162.96 1351.15 1161.4C1360.16 1160.44 1369.18 1158.27 1378.44 1160.56C1397.07 1165.01 1409.81 1181.11 1409.45 1200.47C1409.09 1218.98 1395.87 1234.85 1377.6 1238.46C1359.32 1242.19 1340.81 1242.07 1322.42 1242.91V1243.27Z" fill="white"/>
<line x1="250" y1="368" x2="2750" y2="368" stroke="#F9F4FF" stroke-width="8"/>
<line x1="250" y1="2123" x2="2750" y2="2123" stroke="#F9F4FF" stroke-width="8"/>
<path d="M250 1765H2750" stroke="#F9F4FF" stroke-width="8" stroke-dasharray="16 16"/>
<path d="M250 766H2750" stroke="#F9F4FF" stroke-width="8" stroke-dasharray="16 16"/>
<line x1="618" y1="2500" x2="618" y2="6.84777e-08" stroke="#F9F4FF" stroke-width="8"/>
<path d="M2377 2500L2377 -2.97775e-05" stroke="#F9F4FF" stroke-width="8"/>
<path d="M2077 2500L2077 0" stroke="#F9F4FF" stroke-width="8" stroke-dasharray="16 16"/>
<path d="M922 2500L922 0" stroke="#F9F4FF" stroke-width="8" stroke-dasharray="16 16"/>
<defs>
<filter id="filter0_d_1205_863" x="622" y="372" width="1757" height="1757" filterUnits="userSpaceOnUse" color-interpolation-filters="sRGB">
<feFlood flood-opacity="0" result="BackgroundImageFix"/>
<feColorMatrix in="SourceAlpha" type="matrix" values="0 0 0 0 0 0 0 0 0 0 0 0 0 0 0 0 0 0 127 0" result="hardAlpha"/>
<feOffset dx="1" dy="1"/>
<feGaussianBlur stdDeviation="0.5"/>
<feComposite in2="hardAlpha" operator="out"/>
<feColorMatrix type="matrix" values="0 0 0 0 0 0 0 0 0 0 0 0 0 0 0 0 0 0 0.25 0"/>
<feBlend mode="normal" in2="BackgroundImageFix" result="effect1_dropShadow_1205_863"/>
<feBlend mode="normal" in="SourceGraphic" in2="effect1_dropShadow_1205_863" result="shape"/>
</filter>
</defs>
</svg>
