<svg width="611" height="522" viewBox="0 0 611 522" fill="none" xmlns="http://www.w3.org/2000/svg">
<path d="M0 0H540C578.66 0 610 31.3495 610 70.021V130.039H0V0Z" fill="#924FFF"/>
<path d="M0 261.078H541C579.66 261.078 611 292.428 611 331.099V391.117H0V261.078Z" fill="#F74C94"/>
<path d="M306 391.182H0V521.221H306V391.182Z" fill="#48454B"/>
<path d="M305 391.182H541C579.66 391.182 611 422.533 611 461.203V521.221H305V391.182Z" fill="#38353F"/>
<path d="M0 131.039H541C579.66 131.039 611 162.389 611 201.06V261.078H0V131.039Z" fill="#FFE040"/>
<path d="M25.1875 29.2194H21.8867L21.2617 33.0096H19.582L20.207 29.2194H18.1758L18.4297 27.5588H20.4805L21.0078 24.3156H18.9961L19.25 22.6354H21.291L21.9062 18.8648H23.5859L22.9707 22.6354H26.2715L26.8867 18.8648H28.5469L27.9316 22.6354H29.9922L29.7188 24.3156H27.6582L27.1309 27.5588H29.1719L28.8789 29.2194H26.8574L26.2422 33.0096H24.5625L25.1875 29.2194ZM25.4609 27.5588L25.9883 24.3156H22.6875L22.1602 27.5588H25.4609ZM36.2227 18.6694C37.1732 18.6694 38.0488 18.8843 38.8496 19.3141C39.6569 19.7375 40.3145 20.4538 40.8223 21.4632C41.3366 22.4661 41.5938 23.7881 41.5938 25.4293C41.5938 27.0638 41.3691 28.464 40.9199 29.6297C40.4772 30.7955 39.8392 31.6843 39.0059 32.2965C38.179 32.9022 37.1992 33.205 36.0664 33.205C35.2135 33.205 34.4453 33.0422 33.7617 32.7165C33.0846 32.3844 32.5312 31.9253 32.1016 31.3392C31.6784 30.7466 31.4115 30.0661 31.3008 29.2976H33.4297C33.5794 29.9163 33.8822 30.4112 34.3379 30.7824C34.8001 31.1471 35.3763 31.3294 36.0664 31.3294C36.7891 31.3294 37.4076 31.1276 37.9219 30.7237C38.4427 30.3135 38.8398 29.7241 39.1133 28.9557C39.3932 28.1807 39.5365 27.2592 39.543 26.1912H39.3672C38.9831 26.7904 38.472 27.2592 37.834 27.5978C37.2025 27.9365 36.5091 28.1059 35.7539 28.1059C34.9141 28.1059 34.1458 27.9072 33.4492 27.51C32.7526 27.1127 32.1992 26.5591 31.7891 25.8493C31.3854 25.1395 31.1836 24.3416 31.1836 23.456C31.1836 22.5638 31.3919 21.753 31.8086 21.0236C32.2318 20.2942 32.8242 19.7211 33.5859 19.3043C34.3542 18.8811 35.2331 18.6694 36.2227 18.6694ZM36.2617 20.4668C35.7018 20.4668 35.194 20.6003 34.7383 20.8673C34.2826 21.1278 33.9245 21.486 33.6641 21.9418C33.4036 22.3912 33.2734 22.8829 33.2734 23.417C33.2734 23.9574 33.4004 24.4524 33.6543 24.9017C33.9082 25.3511 34.2598 25.706 34.709 25.9665C35.1582 26.2205 35.6628 26.3474 36.2227 26.3474C36.776 26.3474 37.2839 26.2107 37.7461 25.9372C38.2083 25.6636 38.5729 25.3022 38.8398 24.8529C39.1133 24.397 39.25 23.9118 39.25 23.3974C39.25 22.8894 39.1198 22.4108 38.8594 21.9614C38.6055 21.5121 38.2474 21.1506 37.7852 20.8771C37.3294 20.6036 36.8216 20.4668 36.2617 20.4668ZM43.8594 31.4467L48.7617 26.5038C49.3542 25.8786 49.8066 25.3771 50.1191 24.9994C50.4316 24.6217 50.6693 24.2537 50.832 23.8956C51.0013 23.5309 51.0859 23.1499 51.0859 22.7527C51.0859 22.2968 50.972 21.8963 50.7441 21.5511C50.5163 21.206 50.2038 20.9389 49.8066 20.7501C49.4095 20.5612 48.9635 20.4668 48.4688 20.4668C47.9544 20.4668 47.502 20.571 47.1113 20.7794C46.7207 20.9878 46.418 21.2808 46.2031 21.6585C45.9948 22.0362 45.8906 22.4726 45.8906 22.9675H43.8594C43.8529 22.121 44.0482 21.372 44.4453 20.7207C44.8424 20.0696 45.3958 19.5648 46.1055 19.2067C46.8151 18.8485 47.6159 18.6694 48.5078 18.6694C49.4062 18.6694 50.2038 18.8452 50.9004 19.1969C51.6035 19.5421 52.1504 20.0207 52.541 20.6329C52.9316 21.245 53.1302 21.9321 53.1367 22.694C53.1302 23.2346 53.026 23.7556 52.8242 24.257C52.6224 24.752 52.2773 25.3055 51.7891 25.9177C51.3008 26.5233 50.6107 27.2657 49.7188 28.1449L46.8477 31.0559V31.1732H53.3711V33.0096H43.8594V31.4467ZM55.1289 28.5161L61.3789 18.8648H64.0352V28.438H65.9688V30.2549H64.0352V33.0096H62.0039V30.2549H55.1289V28.5161ZM62.0039 28.438V21.4242H61.8477L57.3945 28.3207V28.438H62.0039ZM68.332 18.8648H77.1016V20.7207H70.4805V24.9994H76.4766V26.8359H70.4805V33.0096H68.332V18.8648ZM79.5039 18.8648H88.2734V20.7207H81.6523V24.9994H87.6484V26.8359H81.6523V33.0096H79.5039V18.8648ZM90.6758 18.8648H99.4453V20.7207H92.8242V24.9994H98.8203V26.8359H92.8242V33.0096H90.6758V18.8648Z" fill="white"/>
<path d="M24.5625 169.051L25.1875 165.261H21.8867L21.2617 169.051H19.582L20.207 165.261H18.1758L18.4297 163.6H20.4805L21.0078 160.357H18.9961L19.25 158.677H21.3008L21.9062 154.905H23.5859L22.9805 158.677H26.2812L26.8867 154.905H28.5469L27.9414 158.677H29.9922L29.7188 160.357H27.668L27.1406 163.6H29.1719L28.8789 165.261H26.8672L26.2422 169.051H24.5625ZM22.1602 163.6H25.4609L25.9883 160.357H22.6875L22.1602 163.6ZM31.5938 169.051V154.905H40.3633V156.762H33.7422V161.04H39.7383V162.877H33.7422V169.051H31.5938ZM42.7656 169.051V154.905H51.5352V156.762H44.9141V161.04H50.9102V162.877H44.9141V169.051H42.7656ZM53.9375 169.051V154.905H62.8047V156.762H56.0859V161.04H62.3359V162.877H56.0859V167.195H62.8828V169.051H53.9375ZM70.168 169.246C66.8867 169.246 64.9727 166.609 64.9727 161.979C64.9727 157.387 66.9258 154.71 70.168 154.71C73.4102 154.71 75.3633 157.387 75.3633 161.979C75.3633 166.609 73.4297 169.246 70.168 169.246ZM70.168 167.39C72.082 167.39 73.2148 165.515 73.2148 161.979C73.2148 158.462 72.0625 156.527 70.168 156.527C68.2734 156.527 67.1211 158.462 67.1211 161.979C67.1211 165.515 68.2539 167.39 70.168 167.39ZM77.2773 166.296V164.557L83.5273 154.905H86.1836V164.479H88.1172V166.296H86.1836V169.051H84.1523V166.296H77.2773ZM79.543 164.479H84.1523V157.465H83.9961L79.543 164.361V164.479ZM95.207 169.246C91.9258 169.246 90.0117 166.609 90.0117 161.979C90.0117 157.387 91.9648 154.71 95.207 154.71C98.4492 154.71 100.402 157.387 100.402 161.979C100.402 166.609 98.4688 169.246 95.207 169.246ZM95.207 167.39C97.1211 167.39 98.2539 165.515 98.2539 161.979C98.2539 158.462 97.1016 156.527 95.207 156.527C93.3125 156.527 92.1602 158.462 92.1602 161.979C92.1602 165.515 93.293 167.39 95.207 167.39Z" fill="black"/>
<path d="M24.5625 298.089L25.1875 294.299H21.8867L21.2617 298.089H19.582L20.207 294.299H18.1758L18.4297 292.639H20.4805L21.0078 289.396H18.9961L19.25 287.715H21.3008L21.9062 283.944H23.5859L22.9805 287.715H26.2812L26.8867 283.944H28.5469L27.9414 287.715H29.9922L29.7188 289.396H27.668L27.1406 292.639H29.1719L28.8789 294.299H26.8672L26.2422 298.089H24.5625ZM22.1602 292.639H25.4609L25.9883 289.396H22.6875L22.1602 292.639ZM31.5938 298.089V283.944H40.3633V285.801H33.7422V290.079H39.7383V291.915H33.7422V298.089H31.5938ZM43.0586 298.089L49.3672 285.898V285.781H42.082V283.944H51.5938V285.859L45.3047 298.089H43.0586ZM52.3164 295.334V293.596L58.5664 283.944H61.2227V293.518H63.1562V295.334H61.2227V298.089H59.1914V295.334H52.3164ZM54.582 293.518H59.1914V286.504H59.0352L54.582 293.4V293.518ZM75.0898 288.555C74.7383 286.738 73.2344 285.722 71.4375 285.722C68.9961 285.722 67.1797 287.598 67.1797 291.017C67.1797 294.455 69.0156 296.312 71.4375 296.312C73.2148 296.312 74.7188 295.315 75.0898 293.518L77.2578 293.537C76.8086 296.331 74.5234 298.284 71.418 298.284C67.7266 298.284 65.0508 295.529 65.0508 291.017C65.0508 286.484 67.7461 283.749 71.418 283.749C74.4062 283.749 76.7695 285.507 77.2578 288.555H75.0898ZM84.25 283.749C86.8477 283.769 89.582 285.331 89.582 290.509C89.582 295.471 87.4531 298.284 84.0547 298.284C81.457 298.284 79.6211 296.683 79.2891 294.377H81.418C81.7109 295.568 82.6289 296.409 84.0547 296.409C86.2422 296.409 87.5117 294.494 87.5312 291.271H87.3555C86.5938 292.463 85.2656 293.186 83.7422 293.186C81.2031 293.186 79.1719 291.251 79.1719 288.535C79.1719 285.84 81.1836 283.73 84.25 283.749ZM84.25 285.546C82.5312 285.546 81.2617 286.875 81.2617 288.496C81.2617 290.138 82.4922 291.427 84.2109 291.427C85.9102 291.427 87.2383 290.04 87.2383 288.477C87.2383 286.953 85.9883 285.546 84.25 285.546ZM91.5352 295.334V293.596L97.7852 283.944H100.441V293.518H102.375V295.334H100.441V298.089H98.4102V295.334H91.5352ZM93.8008 293.518H98.4102V286.504H98.2539L93.8008 293.4V293.518Z" fill="white"/>
<path d="M24.5625 427.128L25.1875 423.338H21.8867L21.2617 427.128H19.582L20.207 423.338H18.1758L18.4297 421.678H20.4805L21.0078 418.435H18.9961L19.25 416.754H21.3008L21.9062 412.983H23.5859L22.9805 416.754H26.2812L26.8867 412.983H28.5469L27.9414 416.754H29.9922L29.7188 418.435H27.668L27.1406 421.678H29.1719L28.8789 423.338H26.8672L26.2422 427.128H24.5625ZM22.1602 421.678H25.4609L25.9883 418.435H22.6875L22.1602 421.678ZM31.0859 424.374V422.635L37.3359 412.983H39.9922V422.557H41.9258V424.374H39.9922V427.128H37.9609V424.374H31.0859ZM33.3516 422.557H37.9609V415.543H37.8047L33.3516 422.439V422.557ZM49.0352 427.323C45.9688 427.323 43.8203 425.663 43.8398 423.357C43.8203 421.541 45.1289 420.056 46.7891 419.802V419.724C45.3438 419.392 44.3672 418.103 44.3672 416.559C44.3672 414.391 46.3398 412.788 49.0352 412.788C51.7109 412.788 53.6641 414.391 53.6836 416.559C53.6641 418.103 52.6875 419.392 51.2617 419.724V419.802C52.9023 420.056 54.2109 421.541 54.2305 423.357C54.2109 425.663 52.0625 427.323 49.0352 427.323ZM49.0352 425.546C50.8711 425.546 52.043 424.589 52.043 423.201C52.043 421.736 50.7734 420.681 49.0352 420.681C47.2773 420.681 45.9883 421.736 46.0273 423.201C45.9883 424.589 47.1602 425.546 49.0352 425.546ZM49.0352 418.981C50.5195 418.981 51.5742 418.083 51.5742 416.754C51.5742 415.445 50.5391 414.547 49.0352 414.547C47.4727 414.547 46.457 415.426 46.457 416.754C46.457 418.083 47.5312 418.981 49.0352 418.981ZM56.1445 424.374V422.635L62.3945 412.983H65.0508V422.557H66.9844V424.374H65.0508V427.128H63.0195V424.374H56.1445ZM58.4102 422.557H63.0195V415.543H62.8633L58.4102 422.439V422.557ZM73.957 427.323C71.2812 427.323 69.2695 425.683 69.1719 423.436H71.2617C71.3789 424.648 72.5312 425.526 73.957 425.526C75.6758 425.526 76.9062 424.276 76.9062 422.596C76.9062 420.877 75.6367 419.626 73.8594 419.606C72.7266 419.606 71.8672 419.978 71.3789 420.857H69.3477L70.2656 412.983H78.2734V414.82H72.043L71.5742 418.786H71.7109C72.2969 418.22 73.293 417.829 74.3672 417.829C77.0234 417.829 78.9961 419.802 78.9961 422.537C78.9961 425.331 76.9062 427.323 73.957 427.323ZM80.9688 424.374V422.635L87.2188 412.983H89.875V422.557H91.8086V424.374H89.875V427.128H87.8438V424.374H80.9688ZM83.2344 422.557H87.8438V415.543H87.6875L83.2344 422.439V422.557ZM94.1719 427.128V412.983H99.3477C102.355 412.983 103.82 414.605 103.82 416.695C103.82 418.454 102.746 419.353 101.438 419.685V419.821C102.844 419.899 104.367 421.131 104.367 423.318C104.367 425.487 102.883 427.128 99.582 427.128H94.1719ZM99.3867 425.292C101.418 425.292 102.238 424.394 102.238 423.221C102.238 421.873 101.164 420.778 99.4648 420.778H96.3203V425.292H99.3867ZM99.1719 419.099C100.598 419.099 101.711 418.22 101.711 416.871C101.711 415.699 100.91 414.82 99.2109 414.82H96.3203V419.099H99.1719Z" fill="white"/>
<path d="M336.562 427.128L337.188 423.338H333.887L333.262 427.128H331.582L332.207 423.338H330.176L330.43 421.678H332.48L333.008 418.435H330.996L331.25 416.754H333.301L333.906 412.983H335.586L334.98 416.754H338.281L338.887 412.983H340.547L339.941 416.754H341.992L341.719 418.435H339.668L339.141 421.678H341.172L340.879 423.338H338.867L338.242 427.128H336.562ZM334.16 421.678H337.461L337.988 418.435H334.688L334.16 421.678ZM348.418 427.323C345.488 427.323 343.398 425.741 343.32 423.436H345.508C345.586 424.687 346.816 425.468 348.398 425.468C350.098 425.468 351.348 424.53 351.348 423.162C351.348 421.775 350.176 420.759 348.164 420.759H346.953V419.001H348.164C349.766 419.001 350.898 418.103 350.898 416.754C350.898 415.465 349.941 414.586 348.438 414.586C347.012 414.586 345.762 415.367 345.703 416.656H343.633C343.691 414.352 345.82 412.788 348.457 412.788C351.23 412.788 352.988 414.547 352.969 416.637C352.988 418.239 351.992 419.411 350.469 419.782V419.88C352.402 420.153 353.516 421.443 353.516 423.24C353.516 425.605 351.348 427.323 348.418 427.323ZM360.82 427.323C357.754 427.323 355.605 425.663 355.625 423.357C355.605 421.541 356.914 420.056 358.574 419.802V419.724C357.129 419.392 356.152 418.103 356.152 416.559C356.152 414.391 358.125 412.788 360.82 412.788C363.496 412.788 365.449 414.391 365.469 416.559C365.449 418.103 364.473 419.392 363.047 419.724V419.802C364.688 420.056 365.996 421.541 366.016 423.357C365.996 425.663 363.848 427.323 360.82 427.323ZM360.82 425.546C362.656 425.546 363.828 424.589 363.828 423.201C363.828 421.736 362.559 420.681 360.82 420.681C359.062 420.681 357.773 421.736 357.812 423.201C357.773 424.589 358.945 425.546 360.82 425.546ZM360.82 418.981C362.305 418.981 363.359 418.083 363.359 416.754C363.359 415.445 362.324 414.547 360.82 414.547C359.258 414.547 358.242 415.426 358.242 416.754C358.242 418.083 359.316 418.981 360.82 418.981ZM373.262 427.323C370.332 427.323 368.242 425.741 368.164 423.436H370.352C370.43 424.687 371.66 425.468 373.242 425.468C374.941 425.468 376.191 424.53 376.191 423.162C376.191 421.775 375.02 420.759 373.008 420.759H371.797V419.001H373.008C374.609 419.001 375.742 418.103 375.742 416.754C375.742 415.465 374.785 414.586 373.281 414.586C371.855 414.586 370.605 415.367 370.547 416.656H368.477C368.535 414.352 370.664 412.788 373.301 412.788C376.074 412.788 377.832 414.547 377.812 416.637C377.832 418.239 376.836 419.411 375.312 419.782V419.88C377.246 420.153 378.359 421.443 378.359 423.24C378.359 425.605 376.191 427.323 373.262 427.323ZM385.527 427.323C382.852 427.323 380.84 425.683 380.742 423.436H382.832C382.949 424.648 384.102 425.526 385.527 425.526C387.246 425.526 388.477 424.276 388.477 422.596C388.477 420.877 387.207 419.626 385.43 419.606C384.297 419.606 383.438 419.978 382.949 420.857H380.918L381.836 412.983H389.844V414.82H383.613L383.145 418.786H383.281C383.867 418.22 384.863 417.829 385.938 417.829C388.594 417.829 390.566 419.802 390.566 422.537C390.566 425.331 388.477 427.323 385.527 427.323ZM397.871 427.323C394.941 427.323 392.852 425.741 392.773 423.436H394.961C395.039 424.687 396.27 425.468 397.852 425.468C399.551 425.468 400.801 424.53 400.801 423.162C400.801 421.775 399.629 420.759 397.617 420.759H396.406V419.001H397.617C399.219 419.001 400.352 418.103 400.352 416.754C400.352 415.465 399.395 414.586 397.891 414.586C396.465 414.586 395.215 415.367 395.156 416.656H393.086C393.145 414.352 395.273 412.788 397.91 412.788C400.684 412.788 402.441 414.547 402.422 416.637C402.441 418.239 401.445 419.411 399.922 419.782V419.88C401.855 420.153 402.969 421.443 402.969 423.24C402.969 425.605 400.801 427.323 397.871 427.323ZM405.527 427.128V412.983H414.297V414.84H407.676V419.118H413.672V420.955H407.676V427.128H405.527Z" fill="white"/>
</svg>
