<svg width="1440" height="869" viewBox="0 0 1440 869" fill="none" xmlns="http://www.w3.org/2000/svg">
<path d="M662.211 87.3652C667.931 97.9415 673.758 99.992 678.291 99.992C688.112 99.992 691.889 95.6751 691.889 89.7394C691.889 75.4938 652.606 81.8612 652.606 53.262C652.606 39.1242 663.722 30.2747 680.018 30.2747C689.191 30.2747 701.386 35.8866 706.89 50.2402L692.537 55.5283C688.759 46.0312 683.579 44.1965 680.018 44.1965C672.571 44.1965 668.902 48.2976 668.902 53.262C668.902 67.3997 708.185 63.1907 708.185 89.7394C708.185 103.985 696.961 113.914 678.291 113.914C666.096 113.914 655.951 106.575 648.936 94.9197L662.211 87.3652ZM753.321 113.698C732.816 113.698 720.621 99.7762 720.621 79.9186V31.138H737.025V79.7027C737.025 91.1424 741.989 98.3732 753.321 98.3732C764.653 98.3732 769.617 91.1424 769.617 79.7027V31.138H786.021V79.9186C786.021 99.7762 773.826 113.698 753.321 113.698ZM800.822 31.138H817.226V112.943H800.822V31.138ZM889.64 31.138V45.1678H868.272V112.943H851.868V45.1678H830.068V31.138H889.64Z" fill="#F74C94"/>
<path d="M660.562 219.684H665.195V246.538H660.562V219.684ZM642.62 238.187C647.253 236.151 648.846 231.606 648.846 227.858V227.534H643.623V223.934H648.846V220.363H653.479V223.934H658.614V227.534H653.479V227.858C653.479 231.4 655.132 235.797 659.765 237.774L657.345 241.285C654.394 240.105 652.417 237.774 651.237 234.97C650.086 237.951 648.079 240.459 645.04 241.728L642.62 238.187ZM687.357 219.684H691.725V246.538H687.357V233.406H685.793V245.417H681.514V220.038H685.793V229.747H687.357V219.684ZM669.179 240.135V222.252H679.98V240.135H669.179ZM673.458 236.534H675.701V225.852H673.458V236.534ZM711.29 219.684H715.894V228.154H718.992V231.901H715.894V240.666H711.29V219.684ZM693.909 234.823C695.709 234.823 697.745 234.823 699.9 234.764V233.465C697.185 232.993 695.473 231.547 695.473 229.511C695.473 226.914 698.159 225.35 702.172 225.35C706.215 225.35 708.871 226.914 708.871 229.511C708.871 231.547 707.218 232.964 704.503 233.465V234.557C706.48 234.41 708.487 234.233 710.346 233.967L710.7 237.095C705.152 238.128 698.955 238.246 694.44 238.305L693.909 234.823ZM694.588 224.848V221.602H699.9V219.566H704.503V221.602H709.756V224.848H694.588ZM697.48 246.155V239.338H702.142V242.495H716.779V246.155H697.48ZM699.87 229.511C699.87 230.308 700.696 230.603 702.172 230.603C703.677 230.603 704.503 230.308 704.503 229.511C704.503 228.685 703.677 228.39 702.172 228.39C700.696 228.39 699.87 228.685 699.87 229.511ZM720.528 222.163H735.43V225.97H730.443V226.442C730.443 230.396 732.036 235.147 736.729 237.272L734.22 240.902C731.299 239.603 729.351 237.184 728.2 234.292C727.079 237.508 725.072 240.194 722.033 241.581L719.436 237.951C724.187 235.738 725.81 230.75 725.81 226.442V225.97H720.528V222.163ZM736.729 246.568V219.714H741.362V229.629H744.991V233.406H741.362V246.568H736.729ZM753.786 221.189C757.947 221.189 761.193 224.052 761.193 227.918C761.193 231.075 759.098 233.524 756.117 234.38V237.597C757.976 237.508 759.835 237.361 761.576 237.125L761.931 240.43C756.412 241.522 750.569 241.492 746.172 241.463L745.641 237.774C747.412 237.774 749.418 237.774 751.543 237.744V234.41C748.504 233.583 746.349 231.105 746.349 227.918C746.349 224.052 749.596 221.189 753.786 221.189ZM750.864 227.918C750.864 229.806 752.104 230.78 753.786 230.78C755.438 230.78 756.678 229.806 756.678 227.918C756.678 226.029 755.438 225.085 753.786 225.085C752.104 225.085 750.864 226.029 750.864 227.918ZM762.816 246.538V219.684H767.419V229.895H770.577V233.701H767.419V246.538H762.816ZM778.53 239.869H788.327V235.384H780.92V221.278H785.494V225.055H795.763V221.278H800.337V235.384H792.96V239.869H802.816V243.587H778.53V239.869ZM785.494 231.754H795.763V228.626H785.494V231.754ZM805.266 222.694H814.09V219.861H818.723V222.694H827.576V226.324H805.266V222.694ZM804.322 244.059V240.371H814.09V237.656C809.722 237.184 807.096 235.324 807.096 232.433C807.096 229.098 810.667 227.121 816.362 227.121C822.057 227.121 825.628 229.098 825.628 232.433C825.628 235.295 823.031 237.154 818.723 237.656V240.371H828.608V244.059H804.322ZM811.817 232.433C811.817 233.731 813.293 234.203 816.362 234.203C819.431 234.203 820.906 233.731 820.906 232.433C820.906 231.164 819.431 230.662 816.362 230.662C813.293 230.662 811.817 231.164 811.817 232.433ZM830.498 222.163H845.4V225.97H840.413V226.442C840.413 230.396 842.007 235.147 846.699 237.272L844.19 240.902C841.269 239.603 839.321 237.184 838.17 234.292C837.049 237.508 835.042 240.194 832.003 241.581L829.406 237.951C834.157 235.738 835.78 230.75 835.78 226.442V225.97H830.498V222.163ZM846.699 246.568V219.714H851.332V229.629H854.961V233.406H851.332V246.568H846.699ZM855.906 231.518H880.193V234.793H855.906V231.518ZM858.533 238.777V235.708H877.39V242.436H863.136V243.351H878.068V246.42H858.562V239.603H872.845V238.777H858.533ZM858.828 223.048V219.979H877.331V226.737H863.402V227.622H877.832V230.691H858.857V223.904H872.786V223.048H858.828ZM897.117 220.658C901.248 220.658 904.258 223.078 904.258 226.531C904.258 229.895 901.248 232.374 897.117 232.374C893.015 232.374 889.975 229.895 889.975 226.531C889.975 223.078 893.015 220.658 897.117 220.658ZM888.618 233.583C893.133 233.583 899.684 233.554 905.261 232.669L905.556 236.033C903.579 236.446 901.543 236.711 899.536 236.889V245.741H894.903V237.184C892.808 237.272 890.861 237.302 889.119 237.302L888.618 233.583ZM894.402 226.531C894.402 227.947 895.553 228.626 897.117 228.626C898.71 228.626 899.861 227.947 899.861 226.531C899.861 225.055 898.71 224.376 897.117 224.376C895.553 224.376 894.402 225.055 894.402 226.531ZM906.589 246.538V219.684H911.193V246.538H906.589ZM930.936 219.714H935.569V227.563H938.903V231.341H935.569V239.751H930.936V219.714ZM914.233 225.822V222.252H919.81V219.655H924.414V222.252H929.991V225.822H914.233ZM915.443 231.783C915.443 228.685 918.246 226.531 922.142 226.531C926.037 226.531 928.84 228.685 928.84 231.783C928.84 234.911 926.037 237.066 922.142 237.066C918.246 237.066 915.443 234.911 915.443 231.783ZM917.922 246.155V238.275H922.555V242.495H936.395V246.155H917.922ZM919.869 231.783C919.869 233.023 920.814 233.583 922.142 233.583C923.44 233.583 924.384 233.023 924.384 231.783C924.384 230.544 923.44 229.983 922.142 229.983C920.814 229.983 919.869 230.544 919.869 231.783ZM960.43 227.711H965.004V219.655H969.608V246.627H965.004V231.4H960.43V227.711ZM946.266 237.597C951.164 235.413 952.699 230.19 952.699 225.026V221.602H957.332V225.026C957.332 230.219 958.66 235.147 963.411 237.213L960.666 240.872C957.863 239.544 956.063 237.243 955.001 234.351C953.879 237.42 952.02 239.899 949.128 241.285L946.266 237.597ZM990.472 219.655H995.105V246.627H990.472V219.655ZM973.858 240.459V221.72H978.432V227.947H982.799V221.72H987.374V240.459H973.858ZM978.432 236.8H982.799V231.518H978.432V236.8ZM1008 221.071H1012.96V222.93C1012.96 226.501 1015.29 230.75 1022.14 231.842L1020.19 235.679C1015.32 234.793 1012.16 232.374 1010.45 229.245C1008.74 232.344 1005.58 234.793 1000.74 235.679L998.794 231.842C1005.58 230.75 1008 226.383 1008 222.93V221.071ZM998.47 243.44V239.692H1022.76V243.44H998.47ZM1043.19 219.92C1049.42 219.92 1053.08 221.484 1053.08 224.435C1053.08 227.003 1050.27 228.567 1045.43 228.891V230.16H1055.32V233.76H1031.03V230.16H1040.8V228.891C1036.05 228.508 1033.31 226.973 1033.31 224.435C1033.31 221.484 1036.97 219.92 1043.19 219.92ZM1033.72 238.157V234.764H1052.46V242.141H1038.29V243.027H1053.14V246.45H1033.75V238.984H1047.91V238.157H1033.72ZM1038.12 224.435C1038.12 225.38 1039.59 225.645 1043.19 225.645C1046.79 225.645 1048.27 225.38 1048.27 224.435C1048.27 223.55 1046.79 223.225 1043.19 223.225C1039.59 223.225 1038.12 223.55 1038.12 224.435ZM1074.74 219.655H1079.37V246.627H1074.74V219.655ZM1058.18 225.498V221.838H1071.02V232.669H1062.9V236.741C1066.74 236.682 1069.87 236.475 1073.23 235.885L1073.71 239.574C1069.63 240.341 1065.71 240.489 1060.66 240.489H1058.21V229.039H1066.3V225.498H1058.18Z" fill="#F9F4FF"/>
<path d="M1116.3 236.766C1117.41 238.832 1118.55 239.232 1119.44 239.232C1121.35 239.232 1122.09 238.389 1122.09 237.23C1122.09 234.448 1114.42 235.691 1114.42 230.105C1114.42 227.344 1116.59 225.616 1119.77 225.616C1121.56 225.616 1123.95 226.712 1125.02 229.515L1122.22 230.548C1121.48 228.693 1120.47 228.335 1119.77 228.335C1118.32 228.335 1117.6 229.136 1117.6 230.105C1117.6 232.867 1125.27 232.045 1125.27 237.23C1125.27 240.012 1123.08 241.951 1119.44 241.951C1117.05 241.951 1115.07 240.518 1113.7 238.242L1116.3 236.766ZM1134.09 241.909C1130.09 241.909 1127.7 239.19 1127.7 235.312V225.784H1130.91V235.27C1130.91 237.504 1131.88 238.916 1134.09 238.916C1136.3 238.916 1137.27 237.504 1137.27 235.27V225.784H1140.48V235.312C1140.48 239.19 1138.1 241.909 1134.09 241.909ZM1143.37 225.784H1146.57V241.762H1143.37V225.784ZM1160.72 225.784V228.524H1156.54V241.762H1153.34V228.524H1149.08V225.784H1160.72ZM1180.95 225.784V241.762H1177.74V234.932H1171.29V241.762H1168.09V225.784H1171.29V232.192H1177.74V225.784H1180.95ZM1188.56 241.804C1185.56 241.804 1183.46 239.654 1183.46 236.576C1183.46 233.478 1185.56 231.307 1188.56 231.307C1191.89 231.307 1192.96 234.047 1193 234.131C1193.64 235.375 1193.47 237.272 1193.47 237.651H1186.45C1186.72 238.6 1187.69 239.169 1188.58 239.169C1189.69 239.169 1190.26 238.705 1190.47 238.284L1193.11 239.274C1192.62 240.476 1191.15 241.804 1188.56 241.804ZM1186.47 235.775H1190.54C1190.29 234.637 1189.63 233.921 1188.56 233.921C1187.5 233.921 1186.72 234.574 1186.47 235.775ZM1205.91 231.328L1201.36 241.804H1198.73L1194.3 231.328H1197.78L1200.03 237.525L1202.39 231.328H1205.91ZM1211.27 241.825C1208.37 241.825 1206.51 239.654 1206.51 236.576C1206.51 233.499 1208.37 231.328 1211.27 231.328C1212.14 231.328 1213.3 231.644 1214.01 232.614V231.307H1217.22V241.804H1214.01V240.56C1213.3 241.509 1212.14 241.825 1211.27 241.825ZM1209.71 236.576C1209.71 238.263 1210.47 239.232 1211.78 239.232C1213.02 239.232 1213.99 238.115 1214.01 236.576C1213.99 235.038 1213.02 233.921 1211.78 233.921C1210.47 233.921 1209.71 234.89 1209.71 236.576ZM1224.13 245.977H1220.63L1223.05 240.434L1218.86 231.328H1222.4L1224.72 236.956L1226.99 231.328H1230.49L1226.59 240.328L1224.13 245.977ZM1245.9 233.499C1247.34 234.3 1248.35 235.818 1248.35 237.146C1248.35 239.78 1246.05 241.635 1242.76 241.635C1239.47 241.635 1237.18 239.654 1237.18 236.829H1240.38C1240.38 237.989 1241.37 238.811 1242.76 238.811C1244.24 238.811 1245.29 237.989 1245.29 236.829C1245.29 235.628 1244.26 234.785 1242.8 234.785H1241.75V232.255H1242.85C1244.15 232.255 1245.06 231.497 1245.06 230.422C1245.06 229.431 1244.18 228.735 1242.91 228.735C1241.73 228.735 1240.89 229.431 1240.89 230.422H1237.68C1237.68 227.766 1239.83 225.911 1242.91 225.911C1245.95 225.911 1248.1 227.639 1248.1 230.105C1248.1 231.328 1247.19 232.74 1245.9 233.499ZM1253.71 235.101L1250.53 234.764L1251.1 226.037H1260.12V228.82H1254.17L1253.98 231.349C1254.55 231.18 1255.14 231.075 1255.69 231.075C1259.08 231.075 1261.47 233.267 1261.47 236.408C1261.47 239.527 1259.08 241.72 1255.69 241.72C1253.01 241.72 1250.69 239.949 1250.08 237.441L1253.2 236.682C1253.48 237.883 1254.51 238.726 1255.69 238.726C1257.21 238.726 1258.26 237.778 1258.26 236.408C1258.26 235.038 1257.21 234.068 1255.69 234.068C1255.12 234.068 1254.3 234.49 1253.71 235.101ZM1269.39 239.169C1270.68 239.169 1271.44 238.199 1271.44 236.513C1271.44 234.827 1270.68 233.857 1269.39 233.857C1268.09 233.857 1267.1 234.974 1267.1 236.513C1267.1 238.052 1268.09 239.169 1269.39 239.169ZM1263.89 246.167V231.286H1267.1V232.656C1268.06 231.412 1269.58 231.265 1269.86 231.265C1272.77 231.265 1274.64 233.436 1274.64 236.513C1274.64 239.612 1272.77 241.783 1269.86 241.783C1269.58 241.783 1268.06 241.741 1267.1 240.392V246.167H1263.89ZM1287.39 231.328L1283.55 236.598L1287.26 241.804H1283.36L1281.53 239L1279.76 241.804H1275.84L1279.46 236.598L1275.65 231.328H1279.63L1281.53 234.3L1283.41 231.328H1287.39Z" fill="#F9F4FF"/>
<path d="M661.624 290.068H664.545V316.184H661.624V290.068ZM643.387 309.013C647.4 307.154 649.968 302.757 649.968 298.39V296.796H644.184V294.494H649.938V290.57H652.86V294.494H658.585V296.796H652.86V298.39C652.86 302.551 655.486 306.8 659.529 308.541L657.935 310.784C654.955 309.485 652.653 306.77 651.473 303.524C650.292 306.977 647.99 309.839 644.98 311.226L643.387 309.013ZM688.361 290.068H691.105V316.184H688.361V302.639H685.321V314.915H682.577V290.599H685.321V300.278H688.361V290.068ZM669.74 309.367V292.96H679.803V309.367H669.74ZM672.425 307.095H677.088V295.232H672.425V307.095ZM712.146 290.068H715.038V298.95H718.697V301.341H715.038V310.489H712.146V290.068ZM694.44 305.384C696.417 305.384 698.719 305.354 701.139 305.295V303.465C698.218 303.141 696.388 301.724 696.388 299.541C696.388 297.032 698.837 295.527 702.555 295.527C706.274 295.527 708.753 297.032 708.753 299.541C708.753 301.695 706.923 303.111 704.031 303.465V305.147C706.333 305 708.635 304.793 710.759 304.469L710.995 306.505C705.477 307.508 699.28 307.626 694.794 307.656L694.44 305.384ZM695.09 294.583V292.458H701.139V289.95H704.031V292.458H710.021V294.583H695.09ZM698.218 315.653V309.161H701.139V313.292H715.953V315.653H698.218ZM699.132 299.541C699.132 300.809 700.431 301.547 702.555 301.547C704.68 301.547 706.008 300.809 706.008 299.541C706.008 298.272 704.68 297.534 702.555 297.534C700.431 297.534 699.132 298.272 699.132 299.541ZM720.911 292.665H735.106V295.085H729.528V297.711C729.528 301.754 732.155 306.416 736.109 308.275L734.486 310.577C731.564 309.161 729.292 306.269 728.141 302.905C726.931 306.564 724.6 309.721 721.62 311.197L719.967 308.925C723.892 307.007 726.666 302.078 726.666 297.711V295.085H720.911V292.665ZM737.732 316.184V290.068H740.653V300.396H744.726V302.816H740.653V316.184H737.732ZM753.992 291.691C758.006 291.691 760.957 294.288 760.957 297.947C760.957 301.164 758.714 303.524 755.468 304.085V308.157C757.711 308.039 759.953 307.892 762.049 307.597L762.285 309.721C756.825 310.666 750.835 310.725 746.349 310.695L745.936 308.334C747.913 308.334 750.215 308.334 752.576 308.275V304.085C749.271 303.554 746.999 301.193 746.999 297.947C746.999 294.288 749.95 291.691 753.992 291.691ZM749.832 297.947C749.832 300.219 751.573 301.724 753.992 301.724C756.383 301.724 758.124 300.219 758.124 297.947C758.124 295.645 756.383 294.17 753.992 294.17C751.573 294.17 749.832 295.645 749.832 297.947ZM763.583 316.184V290.068H766.475V300.632H770.37V303.052H766.475V316.184H763.583ZM778.825 310.577H789.183V305.265H781.51V291.838H784.373V296.235H796.885V291.838H799.747V305.265H792.045V310.577H802.492V312.968H778.825V310.577ZM784.373 302.934H796.885V298.567H784.373V302.934ZM805.738 293.639H814.945V290.422H817.867V293.639H827.044V295.999H805.738V293.639ZM804.617 313.263V310.902H814.945V307.479C810.46 307.184 807.716 305.384 807.716 302.492C807.716 299.364 811.05 297.504 816.391 297.504C821.733 297.504 825.038 299.364 825.038 302.492C825.038 305.384 822.323 307.184 817.867 307.479V310.902H828.284V313.263H804.617ZM810.667 302.492C810.667 304.292 812.762 305.265 816.391 305.265C819.992 305.265 822.087 304.292 822.087 302.492C822.087 300.75 819.992 299.747 816.391 299.747C812.762 299.747 810.667 300.75 810.667 302.492ZM830.881 292.665H845.076V295.085H839.498V297.711C839.498 301.754 842.125 306.416 846.079 308.275L844.456 310.577C841.534 309.161 839.262 306.269 838.111 302.905C836.901 306.564 834.57 309.721 831.59 311.197L829.937 308.925C833.862 307.007 836.636 302.078 836.636 297.711V295.085H830.881V292.665ZM847.702 316.184V290.068H850.623V300.396H854.696V302.816H850.623V316.184H847.702ZM856.202 302.078H879.868V304.203H856.202V302.078ZM858.946 308.039V306.003H876.947V311.817H861.867V313.853H877.744V315.919H859.005V309.899H874.114V308.039H858.946ZM859.152 292.753V290.717H876.858V296.442H862.044V298.331H877.36V300.396H859.212V294.524H873.996V292.753H859.152ZM897.264 291.219C901.189 291.219 903.992 293.432 903.992 296.678C903.992 299.865 901.189 302.108 897.264 302.108C893.369 302.108 890.536 299.865 890.536 296.678C890.536 293.432 893.369 291.219 897.264 291.219ZM888.765 304.056C893.487 304.056 900.068 304.026 905.733 303.141L905.911 305.295C903.579 305.738 901.189 306.003 898.828 306.18V315.387H895.936V306.328C893.487 306.446 891.156 306.475 889.119 306.475L888.765 304.056ZM893.339 296.678C893.339 298.537 894.992 299.718 897.264 299.718C899.566 299.718 901.218 298.537 901.218 296.678C901.218 294.789 899.566 293.609 897.264 293.609C894.992 293.609 893.339 294.789 893.339 296.678ZM907.445 316.214V290.068H910.337V316.214H907.445ZM932.057 290.097H934.949V298.419H938.667V300.839H934.949V309.633H932.057V290.097ZM914.646 295.38V293.078H920.873V290.068H923.794V293.078H930.021V295.38H914.646ZM916.033 301.577C916.033 298.596 918.6 296.649 922.319 296.649C926.066 296.649 928.663 298.596 928.663 301.577C928.663 304.528 926.066 306.505 922.319 306.505C918.6 306.505 916.033 304.528 916.033 301.577ZM918.482 315.653V308.098H921.374V313.292H936.07V315.653H918.482ZM918.807 301.577C918.807 303.229 920.224 304.262 922.319 304.262C924.443 304.262 925.86 303.229 925.86 301.577C925.86 299.895 924.443 298.862 922.319 298.862C920.224 298.862 918.807 299.895 918.807 301.577ZM960.253 298.685H965.919V290.038H968.782V316.214H965.919V301.016H960.253V298.685ZM947.003 308.453C951.046 306.475 953.643 301.459 953.643 296.56V292.222H956.565V296.56C956.565 301.37 959.073 306.151 963.086 307.98L961.375 310.312C958.424 308.866 956.269 305.974 955.119 302.462C953.968 306.151 951.754 309.249 948.803 310.754L947.003 308.453ZM991.534 290.038H994.426V316.214H991.534V290.038ZM974.36 309.987V292.222H977.252V298.891H984.009V292.222H986.872V309.987H974.36ZM977.252 307.656H984.009V301.193H977.252V307.656ZM1008.95 291.72H1012.01V293.698C1012.01 297.918 1016.29 301.931 1021.4 302.846L1020.1 305.236C1015.88 304.321 1012.16 301.636 1010.48 298.006C1008.77 301.606 1005.05 304.321 1000.86 305.236L999.591 302.846C1004.64 301.901 1008.95 297.888 1008.95 293.698V291.72ZM998.765 312.761V310.4H1022.43V312.761H998.765ZM1043.16 290.363C1048.98 290.363 1052.46 291.957 1052.46 294.848C1052.46 297.504 1049.54 299.068 1044.58 299.334V301.105H1054.94V303.436H1031.36V301.105H1041.66V299.334C1036.73 299.068 1033.87 297.475 1033.87 294.848C1033.87 291.957 1037.32 290.363 1043.16 290.363ZM1034.13 307.508V305.295H1051.99V311.522H1037.05V313.735H1052.72V315.948H1034.22V309.456H1049.12V307.508H1034.13ZM1036.85 294.848C1036.85 296.383 1039.09 297.18 1043.16 297.18C1047.21 297.18 1049.45 296.383 1049.45 294.848C1049.45 293.343 1047.21 292.517 1043.16 292.517C1039.09 292.517 1036.85 293.343 1036.85 294.848ZM1075.77 290.038H1078.66V316.214H1075.77V290.038ZM1058.57 294.76V292.429H1070.73V302.049H1061.55V307.597C1065.71 307.567 1069.34 307.42 1073.56 306.711L1073.85 309.043C1069.31 309.839 1065.41 309.987 1060.84 309.987H1058.63V299.688H1067.8V294.76H1058.57Z" fill="#F9F4FF"/>
<path d="M1115.66 307.209C1116.53 308.916 1117.83 309.907 1119.31 309.928C1121.33 309.949 1122.53 308.937 1122.53 307.356C1122.53 303.625 1114.67 305.227 1114.67 299.831C1114.67 297.323 1116.78 295.848 1119.58 295.89C1121.65 295.911 1123.44 297.028 1124.26 299.347L1122.45 300C1121.97 298.44 1120.83 297.639 1119.56 297.618C1117.85 297.618 1116.67 298.461 1116.67 299.852C1116.67 303.52 1124.52 302.066 1124.52 307.377C1124.52 309.949 1122.49 311.72 1119.29 311.656C1117.03 311.635 1115.26 310.349 1114 308.136L1115.66 307.209ZM1133.26 311.635C1129.57 311.635 1127.42 309.064 1127.42 305.417V296.058H1129.4V305.417C1129.4 308.031 1130.73 309.823 1133.26 309.823C1135.79 309.823 1137.1 308.031 1137.1 305.417V296.058H1139.1V305.417C1139.1 309.064 1136.95 311.635 1133.26 311.635ZM1142.41 296.058H1144.39V311.488H1142.41V296.058ZM1158.38 296.058V297.808H1153.93V311.488H1151.93V297.808H1147.48V296.058H1158.38ZM1167.84 307.209C1168.71 308.916 1170.02 309.907 1171.49 309.928C1173.51 309.949 1174.72 308.937 1174.72 307.356C1174.72 303.625 1166.85 305.227 1166.85 299.831C1166.85 297.323 1168.96 295.848 1171.76 295.89C1173.83 295.911 1175.62 297.028 1176.44 299.347L1174.63 300C1174.15 298.44 1173.01 297.639 1171.74 297.618C1170.04 297.618 1168.86 298.461 1168.86 299.852C1168.86 303.52 1176.7 302.066 1176.7 307.377C1176.7 309.949 1174.67 311.72 1171.47 311.656C1169.21 311.635 1167.44 310.349 1166.18 308.136L1167.84 307.209ZM1183.9 311.572C1181.1 311.572 1179.12 309.506 1179.12 306.576C1179.12 303.647 1181.1 301.56 1183.9 301.56C1186.98 301.56 1187.95 304.068 1188.01 304.258C1188.62 305.733 1188.41 307.272 1188.41 307.377H1181.12C1181.37 308.832 1182.55 309.844 1183.9 309.844C1185.71 309.844 1186.41 308.748 1186.56 308.495L1188.14 309.253C1187.65 310.371 1186.26 311.572 1183.9 311.572ZM1181.12 305.754H1186.51C1186.32 304.384 1185.59 303.288 1183.9 303.288C1182.49 303.288 1181.37 304.3 1181.12 305.754ZM1203.51 305.712C1203.51 304.3 1202.68 303.33 1201.5 303.33C1200.15 303.33 1199.23 304.3 1199.23 305.586V311.509H1197.22V305.712C1197.22 304.3 1196.42 303.33 1195.26 303.33C1193.92 303.33 1192.97 304.469 1192.97 305.881V311.509H1190.96V301.56H1192.97V302.951C1193.56 302.15 1194.48 301.581 1195.41 301.581C1196.61 301.581 1197.81 302.34 1198.38 303.394C1199.06 302.34 1200.39 301.581 1201.61 301.581C1203.91 301.581 1205.51 303.267 1205.51 305.607V311.509H1203.51V305.712ZM1208.54 301.56H1210.55V311.488H1208.54V301.56ZM1208.37 297.766C1208.37 297.091 1208.86 296.606 1209.53 296.606C1210.21 296.606 1210.69 297.091 1210.69 297.766C1210.69 298.44 1210.21 298.925 1209.53 298.925C1208.86 298.925 1208.37 298.44 1208.37 297.766ZM1213.86 311.488V296.058H1218.85C1221.32 296.058 1223.07 297.787 1223.07 300.253C1223.07 301.223 1222.56 302.34 1221.78 303.12C1221.97 303.225 1222.16 303.33 1222.33 303.436C1223.49 304.216 1224.33 305.733 1224.33 307.124C1224.33 309.696 1222.58 311.488 1220.07 311.488H1213.86ZM1215.84 309.738H1219.93C1221.38 309.738 1222.37 308.684 1222.37 307.167C1222.37 305.523 1221.38 304.405 1219.93 304.405H1215.84V309.738ZM1215.84 302.656H1219C1220.26 302.593 1221.13 301.644 1221.13 300.316C1221.13 298.82 1220.16 297.808 1218.72 297.808H1215.84V302.656ZM1231.35 309.886C1232.99 309.886 1234.13 308.558 1234.13 306.576C1234.13 304.616 1232.99 303.288 1231.35 303.288C1229.68 303.288 1228.56 304.595 1228.56 306.576C1228.56 308.558 1229.68 309.886 1231.35 309.886ZM1226.56 306.576C1226.56 303.647 1228.54 301.56 1231.35 301.56C1234.15 301.56 1236.11 303.647 1236.11 306.576C1236.11 309.506 1234.15 311.614 1231.35 311.614C1228.54 311.614 1226.56 309.506 1226.56 306.576ZM1238.28 296.522H1240.28V311.488H1238.28V296.522ZM1247.16 311.614C1244.39 311.614 1242.41 309.527 1242.41 306.576C1242.41 303.625 1244.39 301.539 1247.16 301.539C1248.08 301.539 1249.33 301.96 1250.17 303.162V296.522H1252.17V311.509H1250.17V309.991C1249.31 311.15 1248.08 311.614 1247.16 311.614ZM1244.41 306.598C1244.41 308.579 1245.57 309.907 1247.28 309.907C1248.84 309.907 1250.17 308.452 1250.17 306.598C1250.17 304.764 1248.84 303.288 1247.28 303.288C1245.57 303.288 1244.41 304.616 1244.41 306.598ZM1267.71 303.52C1269.08 304.321 1269.9 305.818 1269.9 307.103C1269.9 309.696 1267.8 311.551 1264.78 311.551C1261.81 311.551 1259.7 309.675 1259.7 307.019H1261.7C1261.7 308.642 1262.97 309.78 1264.78 309.78C1266.64 309.78 1267.94 308.642 1267.94 307.019C1267.94 305.459 1266.66 304.363 1264.82 304.363H1263.73V302.656H1264.84C1266.53 302.656 1267.71 301.644 1267.71 300.232C1267.71 298.777 1266.57 297.766 1264.93 297.766C1263.28 297.766 1262.15 298.799 1262.15 300.253H1260.14C1260.14 297.745 1262.13 295.995 1264.93 295.995C1267.71 295.995 1269.67 297.724 1269.67 300.169C1269.67 301.328 1268.95 302.719 1267.71 303.52ZM1274.71 304.448L1272.71 304.174L1273.21 296.122H1281.22V297.871H1275.13L1274.88 301.939C1275.59 301.581 1276.42 301.37 1277.15 301.37C1280.27 301.37 1282.46 303.478 1282.46 306.471C1282.46 309.506 1280.27 311.635 1277.15 311.635C1274.71 311.635 1272.62 309.991 1272.07 307.673L1274.01 307.23C1274.35 308.705 1275.64 309.759 1277.15 309.759C1279.09 309.759 1280.46 308.389 1280.46 306.471C1280.46 304.595 1279.09 303.246 1277.15 303.246C1276.33 303.246 1275.32 303.752 1274.71 304.448ZM1290.15 309.886C1291.84 309.886 1292.98 308.537 1292.98 306.555C1292.98 304.595 1291.84 303.246 1290.15 303.246C1288.57 303.246 1287.26 304.743 1287.26 306.555C1287.26 308.389 1288.57 309.886 1290.15 309.886ZM1285.24 315.977V301.56H1287.24V303.141C1287.98 302.045 1289.35 301.56 1290.24 301.56C1293.02 301.56 1294.98 303.625 1294.98 306.555C1294.98 309.527 1293.02 311.593 1290.24 311.593C1289.33 311.593 1287.98 311.066 1287.24 310.012V315.977H1285.24ZM1306.02 301.56L1302.29 306.555L1305.97 311.509H1303.49L1301.13 308.221L1298.79 311.509H1296.3L1299.95 306.555L1296.24 301.56H1298.74L1301.13 304.932L1303.51 301.56H1306.02Z" fill="#F9F4FF"/>
<path d="M661.831 360.127H664.398V386.096H661.831V360.127ZM643.535 379.161C647.43 377.361 650.174 372.964 650.174 368.478V366.649H644.272V364.612H650.174V360.629H652.742V364.612H658.555V366.649H652.712V368.478C652.712 372.757 655.575 376.977 659.499 378.689L658.053 380.666C655.102 379.338 652.683 376.564 651.502 373.17C650.351 376.741 647.961 379.692 644.951 381.108L643.535 379.161ZM688.538 360.127H690.987V386.096H688.538V372.462H685.203V384.797H682.813V360.688H685.203V370.367H688.538V360.127ZM669.828 379.19V363.078H679.744V379.19H669.828ZM672.219 377.184H677.383V365.114H672.219V377.184ZM712.323 360.127H714.891V369.127H718.638V371.252H714.891V380.43H712.323V360.127ZM694.529 375.472C696.565 375.472 698.926 375.443 701.405 375.354V373.495C698.424 373.2 696.565 371.724 696.565 369.541C696.565 367.062 698.955 365.557 702.615 365.557C706.303 365.557 708.723 367.062 708.723 369.541C708.723 371.724 706.864 373.17 703.913 373.495V375.265C706.274 375.118 708.664 374.911 710.848 374.587L711.054 376.387C705.565 377.39 699.368 377.508 694.883 377.508L694.529 375.472ZM695.208 364.524V362.606H701.405V360.009H703.913V362.606H710.08V364.524H695.208ZM698.365 385.535V379.102H700.932V383.469H715.805V385.535H698.365ZM698.985 369.541C698.985 370.928 700.401 371.754 702.615 371.754C704.887 371.754 706.303 370.928 706.303 369.541C706.303 368.183 704.887 367.357 702.615 367.357C700.401 367.357 698.985 368.183 698.985 369.541ZM720.97 362.783H735.017V364.908H729.351V367.947C729.351 372.049 732.155 376.652 735.991 378.453L734.545 380.489C731.653 379.072 729.292 376.092 728.112 372.669C726.931 376.387 724.482 379.662 721.561 381.138L720.056 379.102C723.833 377.243 726.843 372.344 726.843 367.947V364.908H720.97V362.783ZM737.938 386.125V360.156H740.506V370.573H744.696V372.698H740.506V386.125H737.938ZM754.051 361.809C758.035 361.809 760.927 364.317 760.927 367.947C760.927 371.193 758.626 373.524 755.32 373.997V378.275C757.652 378.157 759.983 377.98 762.167 377.685L762.373 379.574C756.914 380.518 750.864 380.548 746.379 380.548L745.995 378.423C748.031 378.423 750.363 378.423 752.783 378.364V373.997C749.448 373.524 747.146 371.193 747.146 367.947C747.146 364.317 750.038 361.809 754.051 361.809ZM749.625 367.947C749.625 370.308 751.484 371.931 754.051 371.931C756.589 371.931 758.419 370.308 758.419 367.947C758.419 365.586 756.589 363.963 754.051 363.963C751.484 363.963 749.625 365.586 749.625 367.947ZM763.76 386.096V360.127H766.269V370.78H770.311V372.905H766.269V386.096H763.76ZM778.884 380.695H789.33V375.236H781.628V361.927H784.166V366.472H797.091V361.927H799.629V375.236H791.868V380.695H802.403V382.82H778.884V380.695ZM784.166 373.17H797.091V368.537H784.166V373.17ZM805.827 363.845H815.122V360.511H817.69V363.845H826.956V365.911H805.827V363.845ZM804.676 383.086V380.99H815.122V377.479C810.607 377.184 807.863 375.413 807.863 372.521C807.863 369.393 811.109 367.563 816.391 367.563C821.644 367.563 824.92 369.393 824.92 372.521C824.92 375.413 822.175 377.184 817.69 377.479V380.99H828.195V383.086H804.676ZM810.43 372.521C810.43 374.38 812.673 375.472 816.391 375.472C820.08 375.472 822.323 374.38 822.323 372.521C822.323 370.662 820.08 369.57 816.391 369.57C812.673 369.57 810.43 370.662 810.43 372.521ZM830.94 362.783H844.987V364.908H839.321V367.947C839.321 372.049 842.125 376.652 845.961 378.453L844.515 380.489C841.623 379.072 839.262 376.092 838.082 372.669C836.901 376.387 834.452 379.662 831.531 381.138L830.026 379.102C833.803 377.243 836.813 372.344 836.813 367.947V364.908H830.94V362.783ZM847.909 386.125V360.156H850.476V370.573H854.666V372.698H850.476V386.125H847.909ZM856.261 372.167H879.78V374.085H856.261V372.167ZM859.034 377.892V376.062H876.858V381.699H861.631V383.971H877.655V385.8H859.093V379.958H874.35V377.892H859.034ZM859.241 362.694V360.865H876.77V366.383H861.779V368.478H877.242V370.337H859.3V364.671H874.262V362.694H859.241ZM897.294 361.337C901.159 361.337 903.963 363.521 903.963 366.708C903.963 369.865 901.159 372.078 897.294 372.078C893.457 372.078 890.654 369.865 890.654 366.708C890.654 363.521 893.457 361.337 897.294 361.337ZM888.795 374.174C893.575 374.174 900.127 374.115 905.822 373.229L905.999 375.147C903.609 375.59 901.13 375.856 898.71 376.033V385.299H896.143V376.18C893.605 376.298 891.215 376.328 889.119 376.328L888.795 374.174ZM893.103 366.708C893.103 368.655 894.874 369.954 897.294 369.954C899.743 369.954 901.514 368.655 901.514 366.708C901.514 364.76 899.743 363.432 897.294 363.432C894.874 363.432 893.103 364.76 893.103 366.708ZM907.622 386.125V360.127H910.16V386.125H907.622ZM932.264 360.156H934.831V368.596H938.638V370.721H934.831V379.633H932.264V360.156ZM914.705 365.291V363.225H921.109V360.156H923.647V363.225H930.05V365.291H914.705ZM916.151 371.518C916.151 368.596 918.689 366.649 922.378 366.649C926.066 366.649 928.604 368.596 928.604 371.518C928.604 374.469 926.066 376.387 922.378 376.387C918.689 376.387 916.151 374.469 916.151 371.518ZM918.571 371.518C918.571 373.288 920.105 374.38 922.378 374.38C924.62 374.38 926.155 373.288 926.155 371.518C926.155 369.747 924.62 368.655 922.378 368.655C920.105 368.655 918.571 369.747 918.571 371.518ZM918.6 385.535V378.069H921.138V383.469H935.982V385.535H918.6ZM960.194 368.862H966.096V360.097H968.634V386.155H966.096V370.957H960.194V368.862ZM947.151 378.6C951.017 376.711 953.85 371.695 953.85 366.885V362.34H956.388V366.885C956.388 371.606 959.161 376.357 962.998 378.157L961.493 380.223C958.571 378.718 956.299 375.708 955.148 372.108C953.997 375.915 951.666 379.102 948.744 380.666L947.151 378.6ZM991.741 360.097H994.308V386.155H991.741V360.097ZM974.478 379.899V362.34H977.016V369.098H984.245V362.34H986.754V379.899H974.478ZM977.016 377.803H984.245V371.105H977.016V377.803ZM1009.15 361.868H1011.81V363.845C1011.81 368.183 1016.5 372.167 1021.25 373.023L1020.1 375.147C1016.06 374.262 1012.16 371.518 1010.48 367.829C1008.77 371.518 1004.87 374.262 1000.86 375.147L999.768 373.023C1004.43 372.137 1009.15 368.183 1009.15 363.845V361.868ZM998.824 382.643V380.518H1022.34V382.643H998.824ZM1043.13 360.452C1048.89 360.452 1052.31 362.045 1052.31 364.908C1052.31 367.593 1049.39 369.186 1044.4 369.393V371.311H1054.88V373.347H1031.42V371.311H1041.83V369.393C1036.88 369.157 1033.96 367.593 1033.96 364.908C1033.96 362.045 1037.41 360.452 1043.13 360.452ZM1034.22 377.361V375.384H1051.87V381.404H1036.79V383.853H1052.66V385.83H1034.31V379.544H1049.39V377.361H1034.22ZM1036.61 364.908C1036.61 366.59 1038.97 367.504 1043.13 367.504C1047.29 367.504 1049.68 366.59 1049.68 364.908C1049.68 363.284 1047.29 362.37 1043.13 362.37C1038.97 362.37 1036.61 363.284 1036.61 364.908ZM1075.98 360.097H1078.55V386.155H1075.98V360.097ZM1058.63 364.612V362.547H1070.67V371.901H1061.25V377.774C1065.5 377.774 1069.19 377.567 1073.62 376.859L1073.88 378.954C1069.25 379.721 1065.35 379.869 1060.87 379.869H1058.69V369.836H1068.1V364.612H1058.63Z" fill="#F9F4FF"/>
<path d="M1115.16 377.63C1115.94 379.169 1117.31 380.413 1119.01 380.434C1121.14 380.455 1122.62 379.296 1122.62 377.462C1122.62 373.288 1114.74 375.038 1114.74 369.726C1114.74 367.386 1116.74 365.974 1119.31 365.995C1121.31 366.016 1122.96 367.154 1123.61 369.157L1122.45 369.557C1122.03 368.124 1120.76 367.133 1119.29 367.112C1117.41 367.112 1116 368.103 1116 369.747C1116 374.047 1123.88 372.255 1123.88 377.483C1123.88 379.928 1121.92 381.593 1118.99 381.551C1116.91 381.53 1115.24 380.286 1114.06 378.221L1115.16 377.63ZM1132.52 381.53C1128.98 381.53 1126.91 379.043 1126.91 375.48V366.164H1128.17V375.501C1128.17 378.389 1129.71 380.413 1132.52 380.413C1135.32 380.413 1136.86 378.389 1136.86 375.501V366.164H1138.12V375.48C1138.12 379.043 1136.06 381.53 1132.52 381.53ZM1141.61 366.164H1142.87V381.382H1141.61V366.164ZM1156.73 366.164V367.281H1152.07V381.382H1150.8V367.281H1146.19V366.164H1156.73ZM1166.11 366.164V380.265H1173.51V381.382H1164.85V366.164H1166.11ZM1176.64 371.665H1177.9V381.382H1176.64V371.665ZM1176.43 367.955C1176.43 367.449 1176.76 367.112 1177.27 367.112C1177.78 367.112 1178.11 367.449 1178.11 367.955C1178.11 368.461 1177.78 368.799 1177.27 368.799C1176.76 368.799 1176.43 368.461 1176.43 367.955ZM1185.19 380.349C1187.05 380.349 1188.52 378.663 1188.52 376.598C1188.52 374.574 1187.05 372.824 1185.19 372.824C1183.27 372.824 1181.93 374.405 1181.93 376.598C1181.93 378.811 1183.27 380.349 1185.19 380.349ZM1180.66 376.598C1180.66 373.752 1182.54 371.686 1185.19 371.686C1186.58 371.686 1187.89 372.529 1188.52 373.71V371.665H1189.79V380.792C1189.79 383.68 1187.97 385.83 1185.17 385.83C1183.63 385.83 1182.33 385.219 1181.31 383.743L1182.35 383.09C1183.08 384.207 1184.01 384.692 1185.17 384.692C1187.24 384.692 1188.52 383.005 1188.52 380.75V379.422C1187.89 380.645 1186.54 381.509 1185.19 381.509C1182.54 381.509 1180.66 379.464 1180.66 376.598ZM1199.56 375.86C1199.56 374.089 1198.55 372.846 1197.11 372.846C1195.55 372.846 1194.25 374.363 1194.25 376.302V381.382H1192.98V366.585H1194.25V373.394C1194.77 372.487 1195.79 371.686 1197.11 371.686C1199.28 371.686 1200.82 373.436 1200.82 375.839V381.382H1199.56V375.86ZM1204.7 381.382V372.782H1202.91V371.665H1204.7V368.377H1205.96V371.665H1208.32V372.782H1205.96V381.382H1204.7ZM1222.78 373.52C1224.21 374.195 1225.14 375.67 1225.14 377.082C1225.14 379.675 1223.14 381.509 1220.29 381.509C1217.45 381.509 1215.47 379.675 1215.47 377.082H1216.73C1216.73 379.022 1218.21 380.392 1220.29 380.392C1222.4 380.392 1223.88 379.064 1223.88 377.167C1223.88 375.354 1222.4 374.089 1220.34 374.089H1219.47V372.93H1220.34C1222.28 372.93 1223.67 371.749 1223.67 370.063C1223.67 368.356 1222.32 367.133 1220.42 367.133C1218.48 367.133 1217.13 368.398 1217.13 370.169H1215.87C1215.87 367.724 1217.74 366.016 1220.42 366.016C1223.06 366.016 1224.93 367.724 1224.93 370.169C1224.93 371.391 1224.13 372.761 1222.78 373.52ZM1229.49 374.174L1228.23 373.963L1228.69 366.143H1236.24V367.281H1229.91L1229.6 372.487C1230.42 371.981 1231.41 371.665 1232.3 371.665C1235.22 371.665 1237.31 373.689 1237.31 376.555C1237.31 379.506 1235.22 381.572 1232.3 381.572C1229.98 381.572 1228 380.012 1227.47 377.82L1228.71 377.525C1229.09 379.211 1230.55 380.371 1232.3 380.371C1234.49 380.371 1236.05 378.79 1236.05 376.555C1236.05 374.384 1234.49 372.846 1232.3 372.846C1231.33 372.846 1230.17 373.394 1229.49 374.174ZM1244.82 380.392C1246.78 380.392 1248.13 378.811 1248.13 376.576C1248.13 374.384 1246.78 372.803 1244.82 372.803C1243.05 372.803 1241.51 374.532 1241.51 376.576C1241.51 378.663 1243.05 380.392 1244.82 380.392ZM1240.22 385.851V371.665H1241.49V373.689C1242.16 372.466 1243.55 371.686 1244.84 371.686C1247.52 371.686 1249.39 373.71 1249.39 376.576C1249.39 379.485 1247.52 381.53 1244.84 381.53C1243.45 381.53 1242.1 380.602 1241.49 379.506V385.851H1240.22ZM1259.41 371.665L1255.78 376.555L1259.41 381.382H1257.83L1255.11 377.673L1252.39 381.382H1250.79L1254.41 376.555L1250.79 371.665H1252.39L1255.11 375.459L1257.83 371.665H1259.41Z" fill="#F9F4FF"/>
<path d="M662.303 430.304H664.103V455.948H662.303V430.304ZM643.859 449.544C647.489 447.833 650.676 443.465 650.676 438.714V436.324H644.508V434.878H650.646V430.717H652.476V434.878H658.555V436.324H652.446V438.714C652.446 443.259 655.722 447.42 659.381 449.013L658.319 450.459C655.427 449.072 652.771 446.18 651.591 442.58C650.469 446.387 647.843 449.426 644.921 450.902L643.859 449.544ZM688.98 430.304H690.721V455.948H688.98V442.108H684.996V454.591H683.285V430.924H684.996V440.603H688.98V430.304ZM670.065 448.866V433.403H679.685V448.866H670.065ZM671.747 447.42H678.003V434.848H671.747V447.42ZM712.707 430.304H714.507V439.482H718.491V440.987H714.507V450.371H712.707V430.304ZM694.765 445.738C696.86 445.738 699.339 445.708 701.936 445.62V443.465C698.896 443.229 696.949 441.813 696.949 439.541C696.949 437.121 699.28 435.616 702.792 435.616C706.333 435.616 708.664 437.121 708.664 439.541C708.664 441.813 706.716 443.229 703.706 443.465V445.531C706.185 445.384 708.723 445.177 711.025 444.793L711.172 446.121C705.713 447.125 699.516 447.243 695.03 447.243L694.765 445.738ZM695.414 434.406V432.989H701.936V430.186H703.706V432.989H710.199V434.406H695.414ZM698.66 439.541C698.66 441.134 700.283 442.167 702.792 442.167C705.329 442.167 706.982 441.134 706.982 439.541C706.982 437.977 705.329 436.973 702.792 436.973C700.283 436.973 698.66 437.977 698.66 439.541ZM698.69 455.328V449.013H700.46V453.823H715.422V455.328H698.69ZM721.147 432.989H734.869V434.524H728.938V438.508C728.938 442.669 732.214 447.213 735.725 448.895L734.663 450.341C731.83 448.895 729.233 445.708 728.112 442.167C726.961 446.003 724.187 449.456 721.383 450.961L720.292 449.544C723.715 447.803 727.226 442.934 727.226 438.508V434.524H721.147V432.989ZM738.381 455.948V430.304H740.181V440.898H744.578V442.433H740.181V455.948H738.381ZM754.14 432.016C758.035 432.016 760.809 434.435 760.809 437.947C760.809 441.223 758.448 443.495 755.025 443.849V448.512C757.534 448.394 760.042 448.216 762.373 447.892L762.521 449.249C757.091 450.135 750.982 450.223 746.438 450.223L746.143 448.689C748.268 448.689 750.717 448.659 753.255 448.571V443.849C749.773 443.495 747.412 441.223 747.412 437.947C747.412 434.435 750.186 432.016 754.14 432.016ZM749.153 437.947C749.153 440.514 751.248 442.344 754.14 442.344C757.002 442.344 759.068 440.514 759.068 437.947C759.068 435.409 757.002 433.55 754.14 433.55C751.248 433.55 749.153 435.409 749.153 437.947ZM764.114 455.948V430.304H765.855V441.105H770.223V442.61H765.855V455.948H764.114ZM779.031 451.02H789.714V445.177H781.894V432.163H783.664V437.003H797.593V432.163H799.364V445.177H791.484V451.02H802.256V452.554H779.031V451.02ZM783.664 443.701H797.593V438.508H783.664V443.701ZM806.033 434.258H815.506V430.747H817.306V434.258H826.72V435.763H806.033V434.258ZM804.824 452.731V451.226H815.506V447.361C810.932 447.184 808.129 445.443 808.129 442.551C808.129 439.511 811.286 437.74 816.391 437.74C821.497 437.74 824.654 439.511 824.654 442.551C824.654 445.443 821.88 447.154 817.306 447.361V451.226H828.048V452.731H804.824ZM809.899 442.551C809.899 444.646 812.437 445.944 816.391 445.944C820.346 445.944 822.854 444.646 822.854 442.551C822.854 440.455 820.346 439.157 816.391 439.157C812.437 439.157 809.899 440.455 809.899 442.551ZM831.117 432.989H844.84V434.524H838.908V438.508C838.908 442.669 842.184 447.213 845.695 448.895L844.633 450.341C841.8 448.895 839.203 445.708 838.082 442.167C836.931 446.003 834.157 449.456 831.354 450.961L830.262 449.544C833.685 447.803 837.197 442.934 837.197 438.508V434.524H831.117V432.989ZM848.351 455.948V430.304H850.151V440.898H854.548V442.433H850.151V455.948H848.351ZM856.379 442.403H879.632V443.819H856.379V442.403ZM859.212 447.567V446.21H876.652V451.433H861.041V454.177H877.508V455.594H859.3V450.105H874.911V447.567H859.212ZM859.389 432.547V431.189H876.563V436.235H861.189V438.803H877.035V440.19H859.448V434.937H874.793V432.547H859.389ZM897.353 431.602C901.159 431.602 903.845 433.668 903.845 436.767C903.845 439.865 901.159 441.96 897.353 441.96C893.605 441.96 890.92 439.865 890.92 436.767C890.92 433.668 893.605 431.602 897.353 431.602ZM888.854 444.38C893.723 444.38 900.304 444.321 906.029 443.436L906.147 444.823C903.609 445.265 900.953 445.531 898.386 445.708V455.151H896.615V445.797C893.9 445.915 891.333 445.944 889.119 445.944L888.854 444.38ZM892.631 436.767C892.631 438.921 894.608 440.426 897.353 440.426C900.127 440.426 902.104 438.921 902.104 436.767C902.104 434.642 900.127 433.078 897.353 433.078C894.608 433.078 892.631 434.642 892.631 436.767ZM908.006 455.978V430.304H909.776V455.978H908.006ZM932.765 430.333H934.565V438.98H938.52V440.514H934.565V449.574H932.765V430.333ZM914.882 435.085V433.609H921.581V430.333H923.381V433.609H930.05V435.085H914.882ZM916.417 441.429C916.417 438.537 918.837 436.708 922.466 436.708C926.066 436.708 928.516 438.537 928.516 441.429C928.516 444.292 926.066 446.121 922.466 446.121C918.837 446.121 916.417 444.292 916.417 441.429ZM918.099 441.429C918.099 443.377 919.84 444.705 922.466 444.705C925.063 444.705 926.804 443.377 926.804 441.429C926.804 439.482 925.063 438.154 922.466 438.154C919.84 438.154 918.099 439.482 918.099 441.429ZM918.866 455.328V448.01H920.607V453.823H935.834V455.328H918.866ZM960.106 439.304H966.509V430.274H968.25V455.978H966.509V440.78H960.106V439.304ZM947.476 448.984C950.958 447.184 954.263 442.255 954.263 437.563V432.606H956.033V437.563C956.033 442.137 959.368 446.8 962.85 448.512L961.817 449.958C958.925 448.453 956.299 445.177 955.178 441.429C954.086 445.384 951.459 448.836 948.597 450.43L947.476 448.984ZM992.213 430.274H993.984V455.978H992.213V430.274ZM974.684 449.692V432.547H976.484V439.511H984.777V432.547H986.547V449.692H974.684ZM976.484 448.187H984.777V440.957H976.484V448.187ZM1009.57 432.163H1011.4V434.17C1011.4 438.832 1016.97 442.698 1020.93 443.465L1020.04 444.941C1016.53 444.056 1012.1 441.252 1010.51 437.327C1008.89 441.252 1004.49 444.056 1000.92 444.941L1000.12 443.465C1004.02 442.669 1009.57 438.832 1009.57 434.17V432.163ZM998.972 452.318V450.843H1022.2V452.318H998.972ZM1043.13 430.658C1048.68 430.658 1052.04 432.252 1052.04 435.085C1052.04 437.829 1049.03 439.423 1044.02 439.6V441.724H1054.7V443.2H1031.56V441.724H1042.22V439.57C1037.2 439.423 1034.22 437.829 1034.22 435.085C1034.22 432.252 1037.56 430.658 1043.13 430.658ZM1034.43 447.066V445.62H1051.66V451.138H1036.26V454.177H1052.49V455.623H1034.52V449.751H1049.92V447.066H1034.43ZM1036.05 435.085C1036.05 437.032 1038.77 438.183 1043.13 438.183C1047.5 438.183 1050.22 437.032 1050.22 435.085C1050.22 433.196 1047.5 432.045 1043.13 432.045C1038.77 432.045 1036.05 433.196 1036.05 435.085ZM1076.45 430.274H1078.22V455.978H1076.45V430.274ZM1058.8 434.288V432.812H1070.55V441.636H1060.66V448.157H1060.93C1065.15 448.157 1069.01 447.98 1073.76 447.243L1073.94 448.718C1069.1 449.515 1065.24 449.662 1060.93 449.662H1058.86V440.131H1068.75V434.288H1058.8Z" fill="#F9F4FF"/>
<path d="M1114.63 448.094C1115.49 449.654 1116.86 450.876 1118.55 450.876C1120.78 450.876 1122.45 449.57 1122.45 447.546C1122.45 443.225 1114.65 445.059 1114.65 439.726C1114.65 437.492 1116.53 435.995 1118.91 435.995C1120.62 435.995 1122.37 437.154 1122.96 438.904L1122.24 439.157C1121.75 437.702 1120.36 436.67 1118.91 436.67C1116.93 436.67 1115.41 437.934 1115.41 439.726C1115.41 444.532 1123.21 442.593 1123.21 447.546C1123.21 449.928 1121.25 451.551 1118.55 451.551C1116.72 451.551 1115.01 450.286 1113.98 448.474L1114.63 448.094ZM1131.73 451.53C1128.21 451.53 1126.17 449.064 1126.17 445.544V436.164H1126.93V445.544C1126.93 448.663 1128.66 450.855 1131.73 450.855C1134.81 450.855 1136.54 448.663 1136.54 445.544V436.164H1137.3V445.544C1137.3 449.064 1135.25 451.53 1131.73 451.53ZM1140.8 436.164H1141.56V451.382H1140.8V436.164ZM1155.24 436.164V436.838H1150.39V451.382H1149.63V436.838H1144.85V436.164H1155.24ZM1173.35 436.164V436.838H1168.51V451.382H1167.75V436.838H1162.96V436.164H1173.35ZM1182.68 445.691C1182.68 443.773 1181.56 442.445 1180.02 442.445C1178.25 442.445 1176.88 444.005 1176.88 446.26V451.382H1176.12V436.585H1176.88V443.773C1177.3 442.782 1178.34 441.749 1180.02 441.749C1182.03 441.749 1183.44 443.415 1183.44 445.797V451.382H1182.68V445.691ZM1186.62 441.665H1187.38V451.382H1186.62V441.665ZM1186.39 438.229C1186.39 437.85 1186.64 437.597 1187.02 437.597C1187.4 437.597 1187.65 437.85 1187.65 438.229C1187.65 438.609 1187.4 438.862 1187.02 438.862C1186.64 438.862 1186.39 438.609 1186.39 438.229ZM1197.21 445.312C1197.21 443.583 1196.09 442.361 1194.49 442.361C1192.64 442.361 1191.35 443.647 1191.35 445.059V451.382H1190.57V441.665H1191.35V443.141C1191.77 442.276 1193.04 441.665 1194.49 441.665C1196.54 441.665 1197.99 443.035 1197.99 444.974V451.382H1197.21V445.312ZM1211.94 443.499C1213.54 443.921 1214.84 445.375 1214.84 447.061C1214.84 449.675 1212.91 451.53 1210.12 451.53C1207.34 451.53 1205.4 449.675 1205.4 447.061H1206.16C1206.16 449.296 1207.8 450.855 1210.12 450.855C1212.44 450.855 1214.09 449.401 1214.09 447.314C1214.09 445.291 1212.46 443.857 1210.16 443.857H1209.81V443.162H1210.14C1212.34 443.162 1213.87 441.813 1213.87 439.916C1213.87 437.998 1212.38 436.648 1210.23 436.648C1208.08 436.648 1206.56 438.103 1206.56 440.148H1205.8C1205.8 437.702 1207.64 435.974 1210.23 435.974C1212.82 435.974 1214.63 437.702 1214.63 440.148C1214.63 441.518 1213.52 442.909 1211.94 443.499ZM1218.72 444.131L1217.96 443.984L1218.38 436.164H1225.82V436.838H1219.14L1218.78 443.077C1219.64 442.403 1220.8 441.981 1221.81 441.981C1224.62 441.981 1226.58 443.921 1226.58 446.682C1226.58 449.527 1224.62 451.53 1221.81 451.53C1219.56 451.53 1217.62 450.033 1217.11 447.883L1217.87 447.715C1218.27 449.527 1219.9 450.813 1221.81 450.813C1224.17 450.813 1225.82 449.106 1225.82 446.682C1225.82 444.342 1224.17 442.698 1221.81 442.698C1220.76 442.698 1219.47 443.288 1218.72 444.131ZM1233.93 450.834C1236.1 450.834 1237.59 449.085 1237.59 446.598C1237.59 444.131 1236.1 442.403 1233.93 442.403C1232.01 442.403 1230.28 444.3 1230.28 446.598C1230.28 448.937 1232.01 450.834 1233.93 450.834ZM1229.48 455.767V441.665H1230.26V444.174C1230.89 442.867 1232.32 441.728 1233.95 441.728C1236.54 441.728 1238.37 443.731 1238.37 446.598C1238.37 449.485 1236.54 451.509 1233.95 451.509C1232.05 451.509 1230.76 450.118 1230.26 449.043V455.767H1229.48ZM1247.7 441.665L1244.2 446.598L1247.7 451.382H1246.75L1243.76 447.209L1240.72 451.382H1239.77L1243.32 446.598L1239.77 441.665H1240.72L1243.76 445.986L1246.75 441.665H1247.7Z" fill="#F9F4FF"/>
<path d="M0 0H540C578.66 0 610 31.3401 610 70V130H0V0Z" fill="#924FFF"/>
<path d="M0 261H541C579.66 261 611 292.34 611 331V391H0V261Z" fill="#F74C94"/>
<rect y="391.065" width="306" height="130" fill="#48454B"/>
<path d="M305 391.065H541C579.66 391.065 611 422.406 611 461.065V521.065H305V391.065Z" fill="#38353F"/>
<path d="M0 131H541C579.66 131 611 162.34 611 201V261H0V131Z" fill="#FFE040"/>
<path d="M407.222 761.91C409.324 761.91 410.823 763.208 410.823 765.078C410.823 766.964 409.324 768.246 407.222 768.246C405.105 768.246 403.606 766.964 403.606 765.078C403.606 763.208 405.105 761.91 407.222 761.91ZM402.911 770.487C405.383 770.487 408.814 770.487 411.766 770.024L411.859 770.874C408.814 771.461 405.491 771.476 403.065 771.476L402.911 770.487ZM404.734 765.078C404.734 766.345 405.785 767.242 407.222 767.242C408.644 767.242 409.695 766.345 409.695 765.078C409.695 763.795 408.644 762.914 407.222 762.914C405.785 762.914 404.734 763.795 404.734 765.078ZM412.662 774.459V760.905H413.822V774.459H412.662ZM416.356 771.785H419.818V769.174H417.902V765.032H425.938V762.868H417.871V761.925H427.082V765.959H419.046V768.215H427.391V769.174H425.274V771.785H428.612V772.744H416.356V771.785ZM420.962 771.785H424.146V769.174H420.962V771.785Z" fill="white"/>
<g clip-path="url(#clip0_1316_419)">
<path d="M430.274 706.654H423.757V704.485C423.757 702.759 423.07 701.104 421.848 699.883C420.626 698.663 418.968 697.977 417.24 697.977H412.895C411.167 697.977 409.509 698.663 408.287 699.883C407.065 701.104 406.378 702.759 406.378 704.485V706.654H399.862C396.982 706.658 394.221 707.802 392.185 709.835C390.149 711.868 389.003 714.625 389 717.501V734.856C389.003 737.731 390.149 740.488 392.185 742.521C394.221 744.555 396.982 745.699 399.862 745.702H430.274C433.153 745.699 435.914 744.555 437.95 742.521C439.986 740.488 441.132 737.731 441.135 734.856V717.501C441.132 714.625 439.986 711.868 437.95 709.835C435.914 707.802 433.153 706.658 430.274 706.654ZM410.723 704.485C410.723 703.91 410.952 703.358 411.359 702.951C411.767 702.544 412.319 702.316 412.895 702.316H417.24C417.816 702.316 418.369 702.544 418.776 702.951C419.183 703.358 419.412 703.91 419.412 704.485V706.654H410.723V704.485ZM421.585 728.348H417.24V732.686C417.24 733.262 417.011 733.813 416.604 734.22C416.196 734.627 415.644 734.856 415.068 734.856C414.492 734.856 413.939 734.627 413.532 734.22C413.124 733.813 412.895 733.262 412.895 732.686V728.348H408.551C407.975 728.348 407.422 728.119 407.015 727.712C406.607 727.305 406.378 726.754 406.378 726.178C406.378 725.603 406.607 725.051 407.015 724.644C407.422 724.237 407.975 724.009 408.551 724.009H412.895V719.67C412.895 719.095 413.124 718.543 413.532 718.136C413.939 717.729 414.492 717.501 415.068 717.501C415.644 717.501 416.196 717.729 416.604 718.136C417.011 718.543 417.24 719.095 417.24 719.67V724.009H421.585C422.161 724.009 422.713 724.237 423.121 724.644C423.528 725.051 423.757 725.603 423.757 726.178C423.757 726.754 423.528 727.305 423.121 727.712C422.713 728.119 422.161 728.348 421.585 728.348Z" fill="white"/>
</g>
<path d="M539.19 763.713C539.19 767.592 537.799 771.178 533.054 773.573L532.405 772.661C534.878 771.425 536.408 769.849 537.243 768.01L532.637 768.442L532.436 767.438L537.598 767.098C537.861 766.325 538 765.506 538.046 764.656H533.116V763.713H539.19ZM539.143 768.705V767.731H542.312V762.291H543.455V775.814H542.312V768.705H539.143ZM545.898 770.142H558.153V771.101H555.016V775.922H553.841V771.101H550.194V775.922H549.035V771.101H545.898V770.142ZM547.474 768.303V763.049H556.546V768.303H547.474ZM548.602 767.361H555.418V763.991H548.602V767.361ZM569.296 762.291H570.44V775.814H569.296V762.291ZM560.271 772.306V763.62H561.43V771.301C563.47 771.301 565.587 771.147 567.859 770.668L568.014 771.657C565.649 772.136 563.516 772.306 561.383 772.306H560.271ZM573.794 763.528H580.285V764.501H574.922V767.33H579.806V768.257H574.922V771.564C577.426 771.564 579.172 771.502 581.228 771.147L581.351 772.09C579.234 772.461 577.441 772.538 574.845 772.538H573.794V763.528ZM582.82 775.814V762.291H583.979V775.814H582.82Z" fill="white"/>
<g clip-path="url(#clip1_1316_419)">
<path d="M565.591 716.702H565.748C569.341 716.702 572.265 713.782 572.265 710.194V703.686C572.265 700.098 569.341 697.178 565.748 697.178H552.714C549.121 697.178 546.197 700.098 546.197 703.686V710.194C546.197 713.782 549.121 716.702 552.714 716.702H553.153L557.137 720.209C557.767 720.765 558.555 721.042 559.344 721.042C560.122 721.042 560.899 720.769 561.512 720.227L565.591 716.704V716.702ZM545.111 736.226C549.303 736.226 552.714 732.82 552.714 728.633C552.714 724.446 549.303 721.04 545.111 721.04C540.918 721.04 537.508 724.446 537.508 728.633C537.508 732.82 540.918 736.226 545.111 736.226ZM565.748 728.633C565.748 732.82 569.158 736.226 573.351 736.226C577.543 736.226 580.954 732.82 580.954 728.633C580.954 724.446 577.543 721.04 573.351 721.04C569.158 721.04 565.748 724.446 565.748 728.633ZM545.111 738.395C539.824 738.395 535.079 741.575 533.3 746.311C533.05 746.977 533.144 747.723 533.548 748.309C533.956 748.894 534.621 749.241 535.333 749.241H554.884C555.597 749.241 556.264 748.892 556.67 748.309C557.076 747.723 557.167 746.977 556.917 746.311C555.14 741.575 550.394 738.395 545.107 738.395H545.111ZM585.162 746.311C583.385 741.575 578.638 738.395 573.351 738.395C568.063 738.395 563.319 741.575 561.54 746.311C561.29 746.977 561.384 747.723 561.788 748.309C562.196 748.894 562.861 749.241 563.573 749.241H583.124C583.837 749.241 584.503 748.892 584.91 748.309C585.316 747.723 585.407 746.977 585.157 746.311H585.162Z" fill="white"/>
</g>
<path d="M697.019 775.821H706.215V779.669H697.019V775.821ZM695.505 774.755V773.827H701.038V772.746C698.611 772.668 697.267 772.004 697.267 770.845C697.267 769.593 698.828 768.928 701.61 768.928C704.391 768.928 705.952 769.593 705.952 770.845C705.952 772.004 704.608 772.668 702.197 772.746V773.827H707.714V774.755H695.505ZM696.154 768.372V767.46H701.038V766.116H702.197V767.46H707.003V768.372H696.154ZM698.148 778.773H705.087V776.702H698.148V778.773ZM698.488 770.845C698.488 771.54 699.616 771.942 701.61 771.942C703.603 771.942 704.731 771.54 704.731 770.845C704.731 770.149 703.603 769.747 701.61 769.747C699.616 769.747 698.488 770.149 698.488 770.845Z" fill="white"/>
<g clip-path="url(#clip2_1316_419)">
<path d="M701.812 730.352C698.213 730.352 695.295 733.265 695.295 736.86V749.875H708.329V736.86C708.329 733.265 705.411 730.352 701.812 730.352Z" fill="white"/>
<path d="M712.671 736.86V749.876H721.361C724.96 749.876 727.877 746.962 727.877 743.368V723.581C727.878 722.454 727.439 721.371 726.654 720.562L708.194 700.632C704.937 697.113 699.44 696.896 695.915 700.149C695.748 700.304 695.587 700.465 695.432 700.632L677.004 720.555C676.196 721.368 675.742 722.468 675.742 723.614V743.368C675.742 746.962 678.66 749.876 682.259 749.876H690.948V736.86C690.989 730.944 695.771 726.114 701.546 725.975C707.513 725.831 712.626 730.744 712.671 736.86Z" fill="white"/>
<path d="M701.812 730.352C698.213 730.352 695.295 733.265 695.295 736.86V749.875H708.329V736.86C708.329 733.265 705.411 730.352 701.812 730.352Z" fill="white"/>
</g>
<path d="M818.632 772.033H824.164V770.379H820.27V765.357H821.413V766.918H828.09V765.357H829.249V770.379H825.308V772.033H830.841V772.991H818.632V772.033ZM819.992 775.309V774.367H829.326V778.555H828.183V775.309H819.992ZM821.413 769.452H828.09V767.829H821.413V769.452ZM832.557 766.423H840.114V767.397H836.899V769.22C836.899 771.523 838.599 773.841 840.547 774.691L839.882 775.619C838.337 774.892 836.961 773.316 836.328 771.446C835.709 773.439 834.349 775.17 832.804 775.943L832.139 775.031C834.04 774.104 835.74 771.554 835.74 769.22V767.397H832.557V766.423ZM841.999 778.555V765.032H843.159V778.555H841.999ZM850.083 765.619L846.853 778.169H845.74L848.985 765.619H850.083ZM861.59 765.017H862.749V778.57H861.59V765.017ZM852.209 770.781C852.209 767.907 853.631 766.083 855.64 766.083C857.633 766.083 859.055 767.907 859.055 770.781C859.055 773.656 857.633 775.495 855.64 775.495C853.631 775.495 852.209 773.656 852.209 770.781ZM853.337 770.781C853.337 772.991 854.28 774.459 855.64 774.459C856.984 774.459 857.943 772.991 857.943 770.781C857.943 768.571 856.984 767.118 855.64 767.118C854.28 767.118 853.337 768.571 853.337 770.781ZM875.499 765.032H876.612V775.294H875.499V765.032ZM865.856 772.713V766.114H866.938V768.417H869.967V766.114H871.064V768.973H872.934V765.295H874.047V774.908H872.934V769.916H871.064V772.713H865.856ZM866.938 771.77H869.967V769.344H866.938V771.77ZM867.818 778.246V773.903H868.978V777.288H877.014V778.246H867.818ZM880.322 766.207H889.44V767.149H881.496V769.22H889.146V770.163H881.496V772.342H889.579V773.3H880.322V766.207ZM878.73 776.778V775.819H890.985V776.778H878.73Z" fill="white"/>
<g clip-path="url(#clip3_1316_419)">
<path d="M841.773 710.13C841.773 706.584 845.149 702.729 848.471 701.133C848.08 700.744 847.705 700.318 847.383 699.86C846.589 698.735 847.487 697.178 848.865 697.178H853.872C855.329 697.178 856.124 698.831 855.26 700.002C854.962 700.407 854.625 700.786 854.275 701.133C857.596 702.731 860.968 706.584 860.968 710.128C860.968 713.557 858.338 716.345 855.102 716.345H847.637C844.401 716.345 841.771 713.555 841.771 710.128L841.773 710.13ZM882.617 715.668C881.519 714.669 880.087 714.151 878.611 714.224C877.125 714.292 875.755 714.935 874.785 716.002L867.231 723.961C867.299 724.409 867.37 724.856 867.37 725.32C867.37 729.757 864.053 733.576 859.654 734.202L850.584 735.471C849.418 735.637 848.338 734.828 848.172 733.665C848.006 732.5 848.816 731.422 849.981 731.256L858.859 730.015C860.855 729.729 862.587 728.298 862.997 726.326C863.628 723.291 861.312 720.607 858.381 720.607H841.771C837.061 720.607 833.24 724.422 833.24 729.126V739.776C833.24 744.481 837.061 748.295 841.773 748.295H850.864C856.847 748.295 862.553 745.786 866.593 741.382L883.023 723.472C885.045 721.21 884.861 717.706 882.619 715.666L882.617 715.668Z" fill="white"/>
</g>
<path d="M983.444 763.39H989.61V772.107H983.444V763.39ZM984.572 771.164H988.482V764.333H984.572V771.164ZM992.099 775.553V762.03H993.258V767.47H995.499V768.444H993.258V775.553H992.099ZM1006.26 762.015H1007.41V775.568H1006.26V762.015ZM996.875 767.779C996.875 764.905 998.296 763.081 1000.31 763.081C1002.3 763.081 1003.72 764.905 1003.72 767.779C1003.72 770.654 1002.3 772.493 1000.31 772.493C998.296 772.493 996.875 770.654 996.875 767.779ZM998.003 767.779C998.003 769.989 998.945 771.458 1000.31 771.458C1001.65 771.458 1002.61 769.989 1002.61 767.779C1002.61 765.569 1001.65 764.117 1000.31 764.117C998.945 764.117 998.003 765.569 998.003 767.779ZM1020.29 762.03H1021.4V775.553H1020.29V762.03ZM1009.73 771.21C1010.15 771.21 1010.63 771.21 1011.16 771.195V764.719H1010.01V763.761H1016.19V764.719H1015.03V771.04C1015.54 770.994 1016.04 770.947 1016.49 770.886L1016.58 771.751C1014.45 772.138 1011.63 772.199 1009.87 772.199L1009.73 771.21ZM1012.22 771.179C1012.79 771.164 1013.38 771.133 1013.97 771.102V764.719H1012.22V771.179ZM1015.78 768.227V767.207H1017.68V762.37H1018.77V774.827H1017.68V768.227H1015.78ZM1033.27 762.015H1034.43V775.568H1033.27V762.015ZM1023.89 767.779C1023.89 764.905 1025.31 763.081 1027.32 763.081C1029.31 763.081 1030.74 764.905 1030.74 767.779C1030.74 770.654 1029.31 772.493 1027.32 772.493C1025.31 772.493 1023.89 770.654 1023.89 767.779ZM1025.02 767.779C1025.02 769.989 1025.96 771.458 1027.32 771.458C1028.67 771.458 1029.62 769.989 1029.62 767.779C1029.62 765.569 1028.67 764.117 1027.32 764.117C1025.96 764.117 1025.02 765.569 1025.02 767.779ZM1037.32 763.421H1044.88V764.395H1041.66V766.218C1041.66 768.521 1043.36 770.839 1045.31 771.689L1044.65 772.617C1043.1 771.89 1041.73 770.314 1041.09 768.444C1040.47 770.437 1039.11 772.168 1037.57 772.941L1036.9 772.029C1038.8 771.102 1040.5 768.552 1040.5 766.218V764.395H1037.32V763.421ZM1046.76 775.553V762.03H1047.92V775.553H1046.76Z" fill="white"/>
<g clip-path="url(#clip4_1316_419)">
<path d="M1014.98 721.578C1022.18 721.578 1028.01 715.75 1028.01 708.562C1028.01 701.373 1022.18 695.546 1014.98 695.546C1007.78 695.546 1001.95 701.373 1001.95 708.562C1001.95 715.75 1007.78 721.578 1014.98 721.578Z" fill="white"/>
<path d="M1014.98 725.917C1004.19 725.929 995.442 734.663 995.43 745.44C995.43 746.638 996.402 747.61 997.602 747.61H1032.36C1033.56 747.61 1034.53 746.638 1034.53 745.44C1034.52 734.663 1025.77 725.928 1014.98 725.917Z" fill="white"/>
</g>
<path d="M407.222 642.735C409.324 642.735 410.823 644.033 410.823 645.903C410.823 647.788 409.324 649.071 407.222 649.071C405.105 649.071 403.606 647.788 403.606 645.903C403.606 644.033 405.105 642.735 407.222 642.735ZM402.911 651.312C405.383 651.312 408.814 651.312 411.766 650.848L411.859 651.698C408.814 652.286 405.491 652.301 403.065 652.301L402.911 651.312ZM404.734 645.903C404.734 647.17 405.785 648.066 407.222 648.066C408.644 648.066 409.695 647.17 409.695 645.903C409.695 644.62 408.644 643.739 407.222 643.739C405.785 643.739 404.734 644.62 404.734 645.903ZM412.662 655.284V641.73H413.822V655.284H412.662ZM416.356 652.61H419.818V649.998H417.902V645.856H425.938V643.693H417.871V642.75H427.082V646.784H419.046V649.04H427.391V649.998H425.274V652.61H428.612V653.568H416.356V652.61ZM420.962 652.61H424.146V649.998H420.962V652.61Z" fill="white"/>
<g clip-path="url(#clip5_1316_419)">
<path d="M430.274 586.107H423.757V583.938C423.757 582.212 423.07 580.557 421.848 579.336C420.626 578.116 418.968 577.43 417.24 577.43H412.895C411.167 577.43 409.509 578.116 408.287 579.336C407.065 580.557 406.378 582.212 406.378 583.938V586.107H399.862C396.982 586.111 394.221 587.255 392.185 589.288C390.149 591.322 389.003 594.078 389 596.954V614.309C389.003 617.184 390.149 619.941 392.185 621.975C394.221 624.008 396.982 625.152 399.862 625.155H430.274C433.153 625.152 435.914 624.008 437.95 621.975C439.986 619.941 441.132 617.184 441.135 614.309V596.954C441.132 594.078 439.986 591.322 437.95 589.288C435.914 587.255 433.153 586.111 430.274 586.107ZM410.723 583.938C410.723 583.363 410.952 582.811 411.359 582.404C411.767 581.997 412.319 581.769 412.895 581.769H417.24C417.816 581.769 418.369 581.997 418.776 582.404C419.183 582.811 419.412 583.363 419.412 583.938V586.107H410.723V583.938ZM436.791 614.309C436.791 616.035 436.104 617.69 434.882 618.91C433.66 620.131 432.002 620.817 430.274 620.817H399.862C398.133 620.817 396.476 620.131 395.253 618.91C394.031 617.69 393.345 616.035 393.345 614.309V596.954C393.345 595.228 394.031 593.573 395.253 592.352C396.476 591.132 398.133 590.446 399.862 590.446H430.274C432.002 590.446 433.66 591.132 434.882 592.352C436.104 593.573 436.791 595.228 436.791 596.954V614.309ZM423.757 605.631C423.757 606.207 423.528 606.758 423.121 607.165C422.713 607.572 422.161 607.801 421.585 607.801H417.24V612.139C417.24 612.715 417.011 613.266 416.604 613.673C416.196 614.08 415.644 614.309 415.068 614.309C414.492 614.309 413.939 614.08 413.532 613.673C413.124 613.266 412.895 612.715 412.895 612.139V607.801H408.551C407.975 607.801 407.422 607.572 407.015 607.165C406.607 606.758 406.378 606.207 406.378 605.631C406.378 605.056 406.607 604.504 407.015 604.097C407.422 603.691 407.975 603.462 408.551 603.462H412.895V599.123C412.895 598.548 413.124 597.996 413.532 597.589C413.939 597.183 414.492 596.954 415.068 596.954C415.644 596.954 416.196 597.183 416.604 597.589C417.011 597.996 417.24 598.548 417.24 599.123V603.462H421.585C422.161 603.462 422.713 603.691 423.121 604.097C423.528 604.504 423.757 605.056 423.757 605.631Z" fill="white"/>
</g>
<path d="M539.19 643.168C539.19 647.047 537.799 650.632 533.054 653.028L532.405 652.116C534.878 650.88 536.408 649.303 537.243 647.464L532.637 647.897L532.436 646.892L537.598 646.552C537.861 645.78 538 644.961 538.046 644.111H533.116V643.168H539.19ZM539.143 648.16V647.186H542.312V641.746H543.455V655.269H542.312V648.16H539.143ZM545.898 649.597H558.153V650.555H555.016V655.377H553.841V650.555H550.194V655.377H549.035V650.555H545.898V649.597ZM547.474 647.758V642.503H556.546V647.758H547.474ZM548.602 646.815H555.418V643.446H548.602V646.815ZM569.296 641.746H570.44V655.269H569.296V641.746ZM560.271 651.761V643.075H561.43V650.756C563.47 650.756 565.587 650.601 567.859 650.122L568.014 651.112C565.649 651.591 563.516 651.761 561.383 651.761H560.271ZM573.794 642.982H580.285V643.956H574.922V646.784H579.806V647.711H574.922V651.019C577.426 651.019 579.172 650.957 581.228 650.601L581.351 651.544C579.234 651.915 577.441 651.992 574.845 651.992H573.794V642.982ZM582.82 655.269V641.746H583.979V655.269H582.82Z" fill="white"/>
<g clip-path="url(#clip6_1316_419)">
<path d="M565.589 594.786H565.746C569.339 594.786 572.263 591.866 572.263 588.278V581.77C572.263 578.182 569.339 575.262 565.746 575.262H552.712C549.119 575.262 546.195 578.182 546.195 581.77V588.278C546.195 591.866 549.119 594.786 552.712 594.786H553.151L557.135 598.293C557.765 598.849 558.553 599.126 559.342 599.126C560.119 599.126 560.897 598.853 561.51 598.311L565.589 594.788V594.786ZM559.34 594.447L555.408 590.989C555.01 590.64 554.5 590.447 553.972 590.447H552.712C551.513 590.447 550.54 589.473 550.54 588.278V581.77C550.54 580.574 551.513 579.6 552.712 579.6H565.746C566.945 579.6 567.918 580.574 567.918 581.77V588.278C567.918 589.473 566.945 590.447 565.746 590.447H564.781C564.26 590.447 563.754 590.634 563.361 590.976L559.34 594.449V594.447ZM545.109 614.309C549.301 614.309 552.712 610.904 552.712 606.717C552.712 602.53 549.301 599.124 545.109 599.124C540.916 599.124 537.506 602.53 537.506 606.717C537.506 610.904 540.916 614.309 545.109 614.309ZM545.109 603.463C546.905 603.463 548.367 604.923 548.367 606.717C548.367 608.511 546.905 609.971 545.109 609.971C543.312 609.971 541.85 608.511 541.85 606.717C541.85 604.923 543.312 603.463 545.109 603.463ZM565.746 606.717C565.746 610.904 569.156 614.309 573.349 614.309C577.541 614.309 580.952 610.904 580.952 606.717C580.952 602.53 577.541 599.124 573.349 599.124C569.156 599.124 565.746 602.53 565.746 606.717ZM573.349 603.463C575.145 603.463 576.607 604.923 576.607 606.717C576.607 608.511 575.145 609.971 573.349 609.971C571.552 609.971 570.09 608.511 570.09 606.717C570.09 604.923 571.552 603.463 573.349 603.463ZM556.92 624.395C557.339 625.516 556.772 626.768 555.649 627.189C555.397 627.282 555.141 627.328 554.884 627.328C554.007 627.328 553.177 626.79 552.849 625.92C551.704 622.87 548.593 620.82 545.109 620.82C541.624 620.82 538.514 622.87 537.369 625.92C536.948 627.043 535.694 627.603 534.571 627.189C533.448 626.768 532.881 625.516 533.3 624.395C535.077 619.659 539.824 616.479 545.111 616.479C550.398 616.479 555.141 619.659 556.92 624.395ZM583.889 627.189C583.637 627.282 583.381 627.328 583.124 627.328C582.247 627.328 581.417 626.79 581.089 625.92C579.944 622.87 576.833 620.82 573.349 620.82C569.864 620.82 566.754 622.87 565.609 625.92C565.187 627.043 563.934 627.603 562.811 627.189C561.688 626.768 561.121 625.516 561.54 624.395C563.317 619.659 568.064 616.479 573.351 616.479C578.638 616.479 583.383 619.659 585.162 624.395C585.581 625.516 585.014 626.768 583.891 627.189H583.889Z" fill="white"/>
</g>
<path d="M697.019 653.256H706.215V657.104H697.019V653.256ZM695.505 652.189V651.262H701.038V650.18C698.611 650.103 697.267 649.438 697.267 648.279C697.267 647.027 698.828 646.363 701.61 646.363C704.391 646.363 705.952 647.027 705.952 648.279C705.952 649.438 704.608 650.103 702.197 650.18V651.262H707.714V652.189H695.505ZM696.154 645.806V644.895H701.038V643.55H702.197V644.895H707.003V645.806H696.154ZM698.148 656.207H705.087V654.137H698.148V656.207ZM698.488 648.279C698.488 648.975 699.616 649.377 701.61 649.377C703.603 649.377 704.731 648.975 704.731 648.279C704.731 647.584 703.603 647.182 701.61 647.182C699.616 647.182 698.488 647.584 698.488 648.279Z" fill="white"/>
<g clip-path="url(#clip7_1316_419)">
<path d="M725.97 594.934L709.493 578.477C707.454 576.447 704.692 575.307 701.812 575.307C698.932 575.307 696.17 576.447 694.131 578.477L677.654 594.934C677.046 595.536 676.565 596.253 676.237 597.043C675.909 597.833 675.742 598.68 675.744 599.535V620.831C675.744 622.557 676.431 624.213 677.653 625.433C678.875 626.654 680.533 627.339 682.261 627.339H721.363C723.091 627.339 724.749 626.654 725.971 625.433C727.193 624.213 727.879 622.557 727.879 620.831V599.535C727.882 598.68 727.714 597.833 727.387 597.043C727.059 596.253 726.577 595.536 725.97 594.934ZM708.329 623.001H695.295V614.466C695.295 612.74 695.981 611.085 697.204 609.865C698.426 608.644 700.083 607.958 701.812 607.958C703.54 607.958 705.198 608.644 706.42 609.865C707.642 611.085 708.329 612.74 708.329 614.466V623.001ZM723.535 620.831C723.535 621.407 723.306 621.958 722.899 622.365C722.491 622.772 721.939 623.001 721.363 623.001H712.673V614.466C712.673 611.59 711.529 608.831 709.492 606.797C707.455 604.763 704.692 603.62 701.812 603.62C698.931 603.62 696.168 604.763 694.132 606.797C692.095 608.831 690.95 611.59 690.95 614.466V623.001H682.261C681.685 623.001 681.132 622.772 680.725 622.365C680.318 621.958 680.089 621.407 680.089 620.831V599.535C680.091 598.96 680.319 598.409 680.725 598.001L697.202 581.551C698.427 580.334 700.084 579.651 701.812 579.651C703.54 579.651 705.197 580.334 706.421 581.551L722.898 598.008C723.303 598.414 723.531 598.962 723.535 599.535V620.831Z" fill="white"/>
</g>
<path d="M818.632 650.117H824.164V648.463H820.27V643.441H821.413V645.002H828.09V643.441H829.249V648.463H825.308V650.117H830.841V651.075H818.632V650.117ZM819.992 653.393V652.451H829.326V656.639H828.183V653.393H819.992ZM821.413 647.536H828.09V645.913H821.413V647.536ZM832.557 644.507H840.114V645.481H836.899V647.304C836.899 649.607 838.599 651.925 840.547 652.775L839.882 653.703C838.337 652.976 836.961 651.4 836.328 649.53C835.709 651.523 834.349 653.254 832.804 654.027L832.139 653.115C834.04 652.188 835.74 649.638 835.74 647.304V645.481H832.557V644.507ZM841.999 656.639V643.116H843.159V656.639H841.999ZM850.083 643.703L846.853 656.253H845.74L848.985 643.703H850.083ZM861.59 643.101H862.749V656.654H861.59V643.101ZM852.209 648.865C852.209 645.991 853.631 644.167 855.64 644.167C857.633 644.167 859.055 645.991 859.055 648.865C859.055 651.74 857.633 653.579 855.64 653.579C853.631 653.579 852.209 651.74 852.209 648.865ZM853.337 648.865C853.337 651.075 854.28 652.543 855.64 652.543C856.984 652.543 857.943 651.075 857.943 648.865C857.943 646.655 856.984 645.202 855.64 645.202C854.28 645.202 853.337 646.655 853.337 648.865ZM875.499 643.116H876.612V653.378H875.499V643.116ZM865.856 650.797V644.198H866.938V646.501H869.967V644.198H871.064V647.057H872.934V643.379H874.047V652.992H872.934V648H871.064V650.797H865.856ZM866.938 649.854H869.967V647.428H866.938V649.854ZM867.818 656.33V651.987H868.978V655.372H877.014V656.33H867.818ZM880.322 644.291H889.44V645.233H881.496V647.304H889.146V648.247H881.496V650.426H889.579V651.384H880.322V644.291ZM878.73 654.862V653.903H890.985V654.862H878.73Z" fill="white"/>
<g clip-path="url(#clip8_1316_419)">
<path d="M882.295 594.666C881.003 593.469 879.35 592.853 877.584 592.939C875.837 593.02 874.228 593.791 873.055 595.106L866.066 602.911C865.139 601.356 863.625 600.208 861.841 599.764C862.375 598.71 862.706 597.535 862.706 596.27C862.706 590.71 858.876 584.183 853.767 581.76C854.499 580.983 855.213 580.119 855.787 579.191C856.847 577.486 855.683 575.26 853.697 575.26H845.642C843.657 575.26 842.495 577.486 843.552 579.191C844.128 580.119 844.841 580.98 845.573 581.76C840.463 584.181 836.634 590.71 836.634 596.27C836.634 597.714 837.053 599.053 837.737 600.208C834.548 601.518 832.289 604.685 832.289 608.391V619.435C832.289 624.308 836.186 628.27 840.978 628.27H851.764C857.955 628.27 863.863 625.575 867.984 620.875L882.765 604.007C885.141 601.301 884.928 597.109 882.291 594.664L882.295 594.666ZM849.672 585.201C853.628 585.31 858.361 591.249 858.361 596.272C858.361 598.085 856.899 599.558 855.103 599.558H844.241C842.445 599.558 840.983 598.085 840.983 596.272C840.983 591.249 845.716 585.31 849.672 585.201ZM879.524 601.069L864.741 617.94C861.446 621.699 856.719 623.855 851.766 623.855H840.98C838.584 623.855 836.636 621.874 836.636 619.437V608.393C836.636 605.957 838.584 603.976 840.98 603.976H860.221C861.589 603.976 862.703 605.107 862.703 606.498C862.703 607.744 861.787 608.82 860.575 608.996L849.363 610.624C848.175 610.797 847.35 611.914 847.519 613.122C847.689 614.328 848.788 615.159 849.978 614.995L861.189 613.368C863.742 612.996 865.812 611.185 866.651 608.822L876.267 598.076C876.661 597.635 877.201 597.378 877.786 597.35C878.374 597.334 878.933 597.531 879.367 597.928C880.251 598.75 880.323 600.157 879.524 601.067V601.069Z" fill="white"/>
</g>
<path d="M983.444 642.844H989.61V651.561H983.444V642.844ZM984.572 650.618H988.482V643.787H984.572V650.618ZM992.099 655.007V641.484H993.258V646.924H995.499V647.898H993.258V655.007H992.099ZM1006.26 641.469H1007.41V655.023H1006.26V641.469ZM996.875 647.233C996.875 644.359 998.296 642.535 1000.31 642.535C1002.3 642.535 1003.72 644.359 1003.72 647.233C1003.72 650.108 1002.3 651.947 1000.31 651.947C998.296 651.947 996.875 650.108 996.875 647.233ZM998.003 647.233C998.003 649.443 998.945 650.912 1000.31 650.912C1001.65 650.912 1002.61 649.443 1002.61 647.233C1002.61 645.023 1001.65 643.571 1000.31 643.571C998.945 643.571 998.003 645.023 998.003 647.233ZM1020.29 641.484H1021.4V655.007H1020.29V641.484ZM1009.73 650.664C1010.15 650.664 1010.63 650.664 1011.16 650.649V644.173H1010.01V643.215H1016.19V644.173H1015.03V650.494C1015.54 650.448 1016.04 650.402 1016.49 650.34L1016.58 651.205C1014.45 651.592 1011.63 651.653 1009.87 651.653L1009.73 650.664ZM1012.22 650.633C1012.79 650.618 1013.38 650.587 1013.97 650.556V644.173H1012.22V650.633ZM1015.78 647.682V646.662H1017.68V641.824H1018.77V654.281H1017.68V647.682H1015.78ZM1033.27 641.469H1034.43V655.023H1033.27V641.469ZM1023.89 647.233C1023.89 644.359 1025.31 642.535 1027.32 642.535C1029.31 642.535 1030.74 644.359 1030.74 647.233C1030.74 650.108 1029.31 651.947 1027.32 651.947C1025.31 651.947 1023.89 650.108 1023.89 647.233ZM1025.02 647.233C1025.02 649.443 1025.96 650.912 1027.32 650.912C1028.67 650.912 1029.62 649.443 1029.62 647.233C1029.62 645.023 1028.67 643.571 1027.32 643.571C1025.96 643.571 1025.02 645.023 1025.02 647.233ZM1037.32 642.875H1044.88V643.849H1041.66V645.672C1041.66 647.975 1043.36 650.293 1045.31 651.143L1044.65 652.071C1043.1 651.344 1041.73 649.768 1041.09 647.898C1040.47 649.892 1039.11 651.623 1037.57 652.395L1036.9 651.483C1038.8 650.556 1040.5 648.006 1040.5 645.672V643.849H1037.32V642.875ZM1046.76 655.007V641.484H1047.92V655.007H1046.76Z" fill="white"/>
<g clip-path="url(#clip9_1316_419)">
<path d="M1014.98 601.481C1017.56 601.481 1020.08 600.704 1022.22 599.249C1024.36 597.794 1026.03 595.727 1027.02 593.307C1028.01 590.888 1028.27 588.226 1027.76 585.657C1027.26 583.089 1026.02 580.73 1024.2 578.878C1022.37 577.026 1020.05 575.765 1017.52 575.254C1014.99 574.744 1012.37 575.006 1009.99 576.008C1007.61 577.01 1005.57 578.707 1004.14 580.884C1002.71 583.062 1001.95 585.622 1001.95 588.24C1001.95 591.751 1003.32 595.117 1005.77 597.599C1008.21 600.081 1011.52 601.477 1014.98 601.481ZM1014.98 579.413C1016.7 579.413 1018.38 579.931 1019.81 580.901C1021.24 581.871 1022.35 583.25 1023.01 584.862C1023.66 586.475 1023.84 588.25 1023.5 589.962C1023.17 591.675 1022.34 593.247 1021.12 594.482C1019.91 595.716 1018.36 596.557 1016.67 596.898C1014.99 597.238 1013.24 597.063 1011.65 596.395C1010.07 595.727 1008.71 594.596 1007.75 593.144C1006.8 591.693 1006.29 589.986 1006.29 588.24C1006.29 585.899 1007.21 583.654 1008.83 581.999C1010.46 580.343 1012.67 579.413 1014.98 579.413Z" fill="white"/>
<path d="M1014.98 605.894C1009.8 605.899 1004.83 607.994 1001.16 611.717C997.495 615.44 995.433 620.489 995.428 625.754C995.428 626.339 995.657 626.901 996.064 627.314C996.471 627.728 997.024 627.961 997.6 627.961C998.176 627.961 998.729 627.728 999.136 627.314C999.543 626.901 999.772 626.339 999.772 625.754C999.772 621.657 1001.37 617.728 1004.23 614.831C1007.08 611.934 1010.95 610.307 1014.98 610.307C1019.01 610.307 1022.88 611.934 1025.73 614.831C1028.58 617.728 1030.18 621.657 1030.18 625.754C1030.18 626.339 1030.41 626.901 1030.82 627.314C1031.23 627.728 1031.78 627.961 1032.36 627.961C1032.93 627.961 1033.49 627.728 1033.89 627.314C1034.3 626.901 1034.53 626.339 1034.53 625.754C1034.52 620.489 1032.46 615.44 1028.8 611.717C1025.13 607.994 1020.16 605.899 1014.98 605.894Z" fill="white"/>
</g>
<path d="M25.1875 29.2109H21.8867L21.2617 33H19.582L20.207 29.2109H18.1758L18.4297 27.5508H20.4805L21.0078 24.3086H18.9961L19.25 22.6289H21.291L21.9062 18.8594H23.5859L22.9707 22.6289H26.2715L26.8867 18.8594H28.5469L27.9316 22.6289H29.9922L29.7188 24.3086H27.6582L27.1309 27.5508H29.1719L28.8789 29.2109H26.8574L26.2422 33H24.5625L25.1875 29.2109ZM25.4609 27.5508L25.9883 24.3086H22.6875L22.1602 27.5508H25.4609ZM36.2227 18.6641C37.1732 18.6641 38.0488 18.8789 38.8496 19.3086C39.6569 19.7318 40.3145 20.4479 40.8223 21.457C41.3366 22.4596 41.5938 23.7812 41.5938 25.4219C41.5938 27.056 41.3691 28.4557 40.9199 29.6211C40.4772 30.7865 39.8392 31.6751 39.0059 32.2871C38.179 32.8926 37.1992 33.1953 36.0664 33.1953C35.2135 33.1953 34.4453 33.0326 33.7617 32.707C33.0846 32.375 32.5312 31.916 32.1016 31.3301C31.6784 30.7376 31.4115 30.0573 31.3008 29.2891H33.4297C33.5794 29.9076 33.8822 30.4023 34.3379 30.7734C34.8001 31.138 35.3763 31.3203 36.0664 31.3203C36.7891 31.3203 37.4076 31.1185 37.9219 30.7148C38.4427 30.3047 38.8398 29.7155 39.1133 28.9473C39.3932 28.1725 39.5365 27.2513 39.543 26.1836H39.3672C38.9831 26.7826 38.472 27.2513 37.834 27.5898C37.2025 27.9284 36.5091 28.0977 35.7539 28.0977C34.9141 28.0977 34.1458 27.8991 33.4492 27.502C32.7526 27.1048 32.1992 26.5514 31.7891 25.8418C31.3854 25.1322 31.1836 24.3346 31.1836 23.4492C31.1836 22.5573 31.3919 21.7467 31.8086 21.0176C32.2318 20.2884 32.8242 19.7155 33.5859 19.2988C34.3542 18.8757 35.2331 18.6641 36.2227 18.6641ZM36.2617 20.4609C35.7018 20.4609 35.194 20.5944 34.7383 20.8613C34.2826 21.1217 33.9245 21.4798 33.6641 21.9355C33.4036 22.3848 33.2734 22.8763 33.2734 23.4102C33.2734 23.9505 33.4004 24.4453 33.6543 24.8945C33.9082 25.3438 34.2598 25.6986 34.709 25.959C35.1582 26.2129 35.6628 26.3398 36.2227 26.3398C36.776 26.3398 37.2839 26.2031 37.7461 25.9297C38.2083 25.6562 38.5729 25.2949 38.8398 24.8457C39.1133 24.39 39.25 23.9049 39.25 23.3906C39.25 22.8828 39.1198 22.4043 38.8594 21.9551C38.6055 21.5059 38.2474 21.1445 37.7852 20.8711C37.3294 20.5977 36.8216 20.4609 36.2617 20.4609ZM43.8594 31.4375L48.7617 26.4961C49.3542 25.8711 49.8066 25.3698 50.1191 24.9922C50.4316 24.6146 50.6693 24.2467 50.832 23.8887C51.0013 23.5241 51.0859 23.1432 51.0859 22.7461C51.0859 22.2904 50.972 21.89 50.7441 21.5449C50.5163 21.1999 50.2038 20.9329 49.8066 20.7441C49.4095 20.5553 48.9635 20.4609 48.4688 20.4609C47.9544 20.4609 47.502 20.5651 47.1113 20.7734C46.7207 20.9818 46.418 21.2747 46.2031 21.6523C45.9948 22.0299 45.8906 22.4661 45.8906 22.9609H43.8594C43.8529 22.1146 44.0482 21.3659 44.4453 20.7148C44.8424 20.0638 45.3958 19.5592 46.1055 19.2012C46.8151 18.8431 47.6159 18.6641 48.5078 18.6641C49.4062 18.6641 50.2038 18.8398 50.9004 19.1914C51.6035 19.5365 52.1504 20.015 52.541 20.627C52.9316 21.2389 53.1302 21.9258 53.1367 22.6875C53.1302 23.2279 53.026 23.7487 52.8242 24.25C52.6224 24.7448 52.2773 25.2982 51.7891 25.9102C51.3008 26.5156 50.6107 27.2578 49.7188 28.1367L46.8477 31.0469V31.1641H53.3711V33H43.8594V31.4375ZM55.1289 28.5078L61.3789 18.8594H64.0352V28.4297H65.9688V30.2461H64.0352V33H62.0039V30.2461H55.1289V28.5078ZM62.0039 28.4297V21.418H61.8477L57.3945 28.3125V28.4297H62.0039ZM68.332 18.8594H77.1016V20.7148H70.4805V24.9922H76.4766V26.8281H70.4805V33H68.332V18.8594ZM79.5039 18.8594H88.2734V20.7148H81.6523V24.9922H87.6484V26.8281H81.6523V33H79.5039V18.8594ZM90.6758 18.8594H99.4453V20.7148H92.8242V24.9922H98.8203V26.8281H92.8242V33H90.6758V18.8594Z" fill="white"/>
<path d="M24.5625 169L25.1875 165.211H21.8867L21.2617 169H19.582L20.207 165.211H18.1758L18.4297 163.551H20.4805L21.0078 160.309H18.9961L19.25 158.629H21.3008L21.9062 154.859H23.5859L22.9805 158.629H26.2812L26.8867 154.859H28.5469L27.9414 158.629H29.9922L29.7188 160.309H27.668L27.1406 163.551H29.1719L28.8789 165.211H26.8672L26.2422 169H24.5625ZM22.1602 163.551H25.4609L25.9883 160.309H22.6875L22.1602 163.551ZM31.5938 169V154.859H40.3633V156.715H33.7422V160.992H39.7383V162.828H33.7422V169H31.5938ZM42.7656 169V154.859H51.5352V156.715H44.9141V160.992H50.9102V162.828H44.9141V169H42.7656ZM53.9375 169V154.859H62.8047V156.715H56.0859V160.992H62.3359V162.828H56.0859V167.145H62.8828V169H53.9375ZM70.168 169.195C66.8867 169.195 64.9727 166.559 64.9727 161.93C64.9727 157.34 66.9258 154.664 70.168 154.664C73.4102 154.664 75.3633 157.34 75.3633 161.93C75.3633 166.559 73.4297 169.195 70.168 169.195ZM70.168 167.34C72.082 167.34 73.2148 165.465 73.2148 161.93C73.2148 158.414 72.0625 156.48 70.168 156.48C68.2734 156.48 67.1211 158.414 67.1211 161.93C67.1211 165.465 68.2539 167.34 70.168 167.34ZM77.2773 166.246V164.508L83.5273 154.859H86.1836V164.43H88.1172V166.246H86.1836V169H84.1523V166.246H77.2773ZM79.543 164.43H84.1523V157.418H83.9961L79.543 164.312V164.43ZM95.207 169.195C91.9258 169.195 90.0117 166.559 90.0117 161.93C90.0117 157.34 91.9648 154.664 95.207 154.664C98.4492 154.664 100.402 157.34 100.402 161.93C100.402 166.559 98.4688 169.195 95.207 169.195ZM95.207 167.34C97.1211 167.34 98.2539 165.465 98.2539 161.93C98.2539 158.414 97.1016 156.48 95.207 156.48C93.3125 156.48 92.1602 158.414 92.1602 161.93C92.1602 165.465 93.293 167.34 95.207 167.34Z" fill="black"/>
<path d="M24.5625 298L25.1875 294.211H21.8867L21.2617 298H19.582L20.207 294.211H18.1758L18.4297 292.551H20.4805L21.0078 289.309H18.9961L19.25 287.629H21.3008L21.9062 283.859H23.5859L22.9805 287.629H26.2812L26.8867 283.859H28.5469L27.9414 287.629H29.9922L29.7188 289.309H27.668L27.1406 292.551H29.1719L28.8789 294.211H26.8672L26.2422 298H24.5625ZM22.1602 292.551H25.4609L25.9883 289.309H22.6875L22.1602 292.551ZM31.5938 298V283.859H40.3633V285.715H33.7422V289.992H39.7383V291.828H33.7422V298H31.5938ZM43.0586 298L49.3672 285.812V285.695H42.082V283.859H51.5938V285.773L45.3047 298H43.0586ZM52.3164 295.246V293.508L58.5664 283.859H61.2227V293.43H63.1562V295.246H61.2227V298H59.1914V295.246H52.3164ZM54.582 293.43H59.1914V286.418H59.0352L54.582 293.312V293.43ZM75.0898 288.469C74.7383 286.652 73.2344 285.637 71.4375 285.637C68.9961 285.637 67.1797 287.512 67.1797 290.93C67.1797 294.367 69.0156 296.223 71.4375 296.223C73.2148 296.223 74.7188 295.227 75.0898 293.43L77.2578 293.449C76.8086 296.242 74.5234 298.195 71.418 298.195C67.7266 298.195 65.0508 295.441 65.0508 290.93C65.0508 286.398 67.7461 283.664 71.418 283.664C74.4062 283.664 76.7695 285.422 77.2578 288.469H75.0898ZM84.25 283.664C86.8477 283.684 89.582 285.246 89.582 290.422C89.582 295.383 87.4531 298.195 84.0547 298.195C81.457 298.195 79.6211 296.594 79.2891 294.289H81.418C81.7109 295.48 82.6289 296.32 84.0547 296.32C86.2422 296.32 87.5117 294.406 87.5312 291.184H87.3555C86.5938 292.375 85.2656 293.098 83.7422 293.098C81.2031 293.098 79.1719 291.164 79.1719 288.449C79.1719 285.754 81.1836 283.645 84.25 283.664ZM84.25 285.461C82.5312 285.461 81.2617 286.789 81.2617 288.41C81.2617 290.051 82.4922 291.34 84.2109 291.34C85.9102 291.34 87.2383 289.953 87.2383 288.391C87.2383 286.867 85.9883 285.461 84.25 285.461ZM91.5352 295.246V293.508L97.7852 283.859H100.441V293.43H102.375V295.246H100.441V298H98.4102V295.246H91.5352ZM93.8008 293.43H98.4102V286.418H98.2539L93.8008 293.312V293.43Z" fill="white"/>
<path d="M24.5625 427L25.1875 423.211H21.8867L21.2617 427H19.582L20.207 423.211H18.1758L18.4297 421.551H20.4805L21.0078 418.309H18.9961L19.25 416.629H21.3008L21.9062 412.859H23.5859L22.9805 416.629H26.2812L26.8867 412.859H28.5469L27.9414 416.629H29.9922L29.7188 418.309H27.668L27.1406 421.551H29.1719L28.8789 423.211H26.8672L26.2422 427H24.5625ZM22.1602 421.551H25.4609L25.9883 418.309H22.6875L22.1602 421.551ZM31.0859 424.246V422.508L37.3359 412.859H39.9922V422.43H41.9258V424.246H39.9922V427H37.9609V424.246H31.0859ZM33.3516 422.43H37.9609V415.418H37.8047L33.3516 422.312V422.43ZM49.0352 427.195C45.9688 427.195 43.8203 425.535 43.8398 423.23C43.8203 421.414 45.1289 419.93 46.7891 419.676V419.598C45.3438 419.266 44.3672 417.977 44.3672 416.434C44.3672 414.266 46.3398 412.664 49.0352 412.664C51.7109 412.664 53.6641 414.266 53.6836 416.434C53.6641 417.977 52.6875 419.266 51.2617 419.598V419.676C52.9023 419.93 54.2109 421.414 54.2305 423.23C54.2109 425.535 52.0625 427.195 49.0352 427.195ZM49.0352 425.418C50.8711 425.418 52.043 424.461 52.043 423.074C52.043 421.609 50.7734 420.555 49.0352 420.555C47.2773 420.555 45.9883 421.609 46.0273 423.074C45.9883 424.461 47.1602 425.418 49.0352 425.418ZM49.0352 418.855C50.5195 418.855 51.5742 417.957 51.5742 416.629C51.5742 415.32 50.5391 414.422 49.0352 414.422C47.4727 414.422 46.457 415.301 46.457 416.629C46.457 417.957 47.5312 418.855 49.0352 418.855ZM56.1445 424.246V422.508L62.3945 412.859H65.0508V422.43H66.9844V424.246H65.0508V427H63.0195V424.246H56.1445ZM58.4102 422.43H63.0195V415.418H62.8633L58.4102 422.312V422.43ZM73.957 427.195C71.2812 427.195 69.2695 425.555 69.1719 423.309H71.2617C71.3789 424.52 72.5312 425.398 73.957 425.398C75.6758 425.398 76.9062 424.148 76.9062 422.469C76.9062 420.75 75.6367 419.5 73.8594 419.48C72.7266 419.48 71.8672 419.852 71.3789 420.73H69.3477L70.2656 412.859H78.2734V414.695H72.043L71.5742 418.66H71.7109C72.2969 418.094 73.293 417.703 74.3672 417.703C77.0234 417.703 78.9961 419.676 78.9961 422.41C78.9961 425.203 76.9062 427.195 73.957 427.195ZM80.9688 424.246V422.508L87.2188 412.859H89.875V422.43H91.8086V424.246H89.875V427H87.8438V424.246H80.9688ZM83.2344 422.43H87.8438V415.418H87.6875L83.2344 422.312V422.43ZM94.1719 427V412.859H99.3477C102.355 412.859 103.82 414.48 103.82 416.57C103.82 418.328 102.746 419.227 101.438 419.559V419.695C102.844 419.773 104.367 421.004 104.367 423.191C104.367 425.359 102.883 427 99.582 427H94.1719ZM99.3867 425.164C101.418 425.164 102.238 424.266 102.238 423.094C102.238 421.746 101.164 420.652 99.4648 420.652H96.3203V425.164H99.3867ZM99.1719 418.973C100.598 418.973 101.711 418.094 101.711 416.746C101.711 415.574 100.91 414.695 99.2109 414.695H96.3203V418.973H99.1719Z" fill="white"/>
<path d="M336.562 427L337.188 423.211H333.887L333.262 427H331.582L332.207 423.211H330.176L330.43 421.551H332.48L333.008 418.309H330.996L331.25 416.629H333.301L333.906 412.859H335.586L334.98 416.629H338.281L338.887 412.859H340.547L339.941 416.629H341.992L341.719 418.309H339.668L339.141 421.551H341.172L340.879 423.211H338.867L338.242 427H336.562ZM334.16 421.551H337.461L337.988 418.309H334.688L334.16 421.551ZM348.418 427.195C345.488 427.195 343.398 425.613 343.32 423.309H345.508C345.586 424.559 346.816 425.34 348.398 425.34C350.098 425.34 351.348 424.402 351.348 423.035C351.348 421.648 350.176 420.633 348.164 420.633H346.953V418.875H348.164C349.766 418.875 350.898 417.977 350.898 416.629C350.898 415.34 349.941 414.461 348.438 414.461C347.012 414.461 345.762 415.242 345.703 416.531H343.633C343.691 414.227 345.82 412.664 348.457 412.664C351.23 412.664 352.988 414.422 352.969 416.512C352.988 418.113 351.992 419.285 350.469 419.656V419.754C352.402 420.027 353.516 421.316 353.516 423.113C353.516 425.477 351.348 427.195 348.418 427.195ZM360.82 427.195C357.754 427.195 355.605 425.535 355.625 423.23C355.605 421.414 356.914 419.93 358.574 419.676V419.598C357.129 419.266 356.152 417.977 356.152 416.434C356.152 414.266 358.125 412.664 360.82 412.664C363.496 412.664 365.449 414.266 365.469 416.434C365.449 417.977 364.473 419.266 363.047 419.598V419.676C364.688 419.93 365.996 421.414 366.016 423.23C365.996 425.535 363.848 427.195 360.82 427.195ZM360.82 425.418C362.656 425.418 363.828 424.461 363.828 423.074C363.828 421.609 362.559 420.555 360.82 420.555C359.062 420.555 357.773 421.609 357.812 423.074C357.773 424.461 358.945 425.418 360.82 425.418ZM360.82 418.855C362.305 418.855 363.359 417.957 363.359 416.629C363.359 415.32 362.324 414.422 360.82 414.422C359.258 414.422 358.242 415.301 358.242 416.629C358.242 417.957 359.316 418.855 360.82 418.855ZM373.262 427.195C370.332 427.195 368.242 425.613 368.164 423.309H370.352C370.43 424.559 371.66 425.34 373.242 425.34C374.941 425.34 376.191 424.402 376.191 423.035C376.191 421.648 375.02 420.633 373.008 420.633H371.797V418.875H373.008C374.609 418.875 375.742 417.977 375.742 416.629C375.742 415.34 374.785 414.461 373.281 414.461C371.855 414.461 370.605 415.242 370.547 416.531H368.477C368.535 414.227 370.664 412.664 373.301 412.664C376.074 412.664 377.832 414.422 377.812 416.512C377.832 418.113 376.836 419.285 375.312 419.656V419.754C377.246 420.027 378.359 421.316 378.359 423.113C378.359 425.477 376.191 427.195 373.262 427.195ZM385.527 427.195C382.852 427.195 380.84 425.555 380.742 423.309H382.832C382.949 424.52 384.102 425.398 385.527 425.398C387.246 425.398 388.477 424.148 388.477 422.469C388.477 420.75 387.207 419.5 385.43 419.48C384.297 419.48 383.438 419.852 382.949 420.73H380.918L381.836 412.859H389.844V414.695H383.613L383.145 418.66H383.281C383.867 418.094 384.863 417.703 385.938 417.703C388.594 417.703 390.566 419.676 390.566 422.41C390.566 425.203 388.477 427.195 385.527 427.195ZM397.871 427.195C394.941 427.195 392.852 425.613 392.773 423.309H394.961C395.039 424.559 396.27 425.34 397.852 425.34C399.551 425.34 400.801 424.402 400.801 423.035C400.801 421.648 399.629 420.633 397.617 420.633H396.406V418.875H397.617C399.219 418.875 400.352 417.977 400.352 416.629C400.352 415.34 399.395 414.461 397.891 414.461C396.465 414.461 395.215 415.242 395.156 416.531H393.086C393.145 414.227 395.273 412.664 397.91 412.664C400.684 412.664 402.441 414.422 402.422 416.512C402.441 418.113 401.445 419.285 399.922 419.656V419.754C401.855 420.027 402.969 421.316 402.969 423.113C402.969 425.477 400.801 427.195 397.871 427.195ZM405.527 427V412.859H414.297V414.715H407.676V418.992H413.672V420.828H407.676V427H405.527Z" fill="white"/>
<defs>
<clipPath id="clip0_1316_419">
<rect width="52.1353" height="52.0637" fill="white" transform="translate(389 695.808)"/>
</clipPath>
<clipPath id="clip1_1316_419">
<rect width="52.1353" height="52.0637" fill="white" transform="translate(533.162 695.808)"/>
</clipPath>
<clipPath id="clip2_1316_419">
<rect width="52.1353" height="52.0637" fill="white" transform="translate(675.744 697.828)"/>
</clipPath>
<clipPath id="clip3_1316_419">
<rect width="52.1353" height="53.0103" fill="white" transform="translate(832.293 697.178)"/>
</clipPath>
<clipPath id="clip4_1316_419">
<rect width="52.1353" height="52.0637" fill="white" transform="translate(988.912 695.546)"/>
</clipPath>
<clipPath id="clip5_1316_419">
<rect width="52.1353" height="52.0637" fill="white" transform="translate(389 575.261)"/>
</clipPath>
<clipPath id="clip6_1316_419">
<rect width="52.1353" height="52.0637" fill="white" transform="translate(533.162 575.262)"/>
</clipPath>
<clipPath id="clip7_1316_419">
<rect width="52.1353" height="52.0637" fill="white" transform="translate(675.744 575.262)"/>
</clipPath>
<clipPath id="clip8_1316_419">
<rect width="52.1353" height="53.0103" fill="white" transform="translate(832.293 575.262)"/>
</clipPath>
<clipPath id="clip9_1316_419">
<rect width="52.1353" height="52.9614" fill="white" transform="translate(988.912 575)"/>
</clipPath>
</defs>
</svg>
