<svg width="4119" height="2049" viewBox="0 0 4119 2049" fill="none" xmlns="http://www.w3.org/2000/svg">
<rect x="29" y="1571" width="300" height="345" fill="#F9F4FF"/>
<circle cx="179" cy="1571" r="150" fill="#F9F4FF"/>
<path fill-rule="evenodd" clip-rule="evenodd" d="M329 1571C329 1488.16 261.843 1421 179 1421C96.1573 1421 29 1488.16 29 1571V1916H329V1571Z" fill="url(#paint0_linear_1163_526)"/>
<path fill-rule="evenodd" clip-rule="evenodd" d="M1079 1253C1079 1170.16 1011.84 1103 929 1103C846.157 1103 779 1170.16 779 1253V1916H1079V1253Z" fill="#D9D9D9"/>
<path fill-rule="evenodd" clip-rule="evenodd" d="M1829 929C1829 846.157 1761.84 779 1679 779C1596.16 779 1529 846.157 1529 929V1916H1829V929Z" fill="#D9D9D9"/>
<path fill-rule="evenodd" clip-rule="evenodd" d="M2579 628V1916H2279V628V626H2279.01C2280.08 544.079 2346.82 478 2429 478C2511.18 478 2577.92 544.079 2578.99 626H2579V628Z" fill="#D9D9D9"/>
<path fill-rule="evenodd" clip-rule="evenodd" d="M4078 328.308C4078 328.205 4078 328.103 4078 328C4078 245.157 4010.84 178 3928 178C3845.16 178 3778 245.157 3778 328C3778 328.103 3778 328.205 3778 328.308H3778V1916H4078V328.308H4078Z" fill="url(#paint1_linear_1163_526)"/>
<path fill-rule="evenodd" clip-rule="evenodd" d="M3329 522.887C3329 522.797 3329 522.707 3329 522.617C3329 449.927 3261.84 391 3179 391C3096.16 391 3029 449.927 3029 522.617C3029 522.707 3029 522.797 3029 522.887H3029V1916H3329V522.887H3329Z" fill="#D9D9D9"/>
<path d="M38.7164 1228.12V1315.36L25.9964 1315.24V1241.68L10.6364 1250.2L5.35641 1239.52L26.1164 1228.12H38.7164ZM86.1127 1305.88C96.0727 1305.88 103.033 1299.52 103.033 1290.4C103.033 1281.28 96.0727 1274.8 86.1127 1274.8C76.1527 1274.8 69.0727 1281.28 69.0727 1290.4C69.0727 1299.52 76.1527 1305.88 86.1127 1305.88ZM56.3527 1290.64C56.3527 1282.96 62.3527 1274.08 70.7527 1269.4C63.7927 1264.6 58.7527 1256.8 58.7527 1250.56C58.7527 1236.4 70.0327 1226.56 86.1127 1226.56C102.193 1226.56 113.473 1236.4 113.473 1250.56C113.473 1256.92 108.553 1264.72 101.473 1269.4C109.873 1274.2 115.873 1282.96 115.873 1290.64C115.873 1306 103.633 1316.8 86.1127 1316.8C68.7127 1316.8 56.3527 1306 56.3527 1290.64ZM71.5927 1250.56C71.5927 1258.36 77.5927 1263.88 86.1127 1263.88C94.7527 1263.88 100.753 1258.36 100.753 1250.56C100.753 1242.76 94.7527 1237.36 86.1127 1237.36C77.5927 1237.36 71.5927 1242.76 71.5927 1250.56ZM135.643 1302.88C139.963 1302.88 142.963 1306 142.963 1310.32C142.963 1314.76 139.963 1317.88 135.643 1317.88C131.203 1317.88 128.083 1314.76 128.083 1310.32C128.083 1306 131.203 1302.88 135.643 1302.88ZM212.481 1228V1281.76H223.521V1292.8H212.481V1315.36H199.761V1292.8H162.201L161.001 1281.76L200.361 1228H212.481ZM176.121 1281.76H199.761V1249.24L176.121 1281.76ZM259.538 1315.72L314.738 1227.4H327.818L272.378 1315.72H259.538ZM239.258 1249.96C239.258 1236.52 249.458 1225.96 262.658 1225.96C275.618 1225.96 285.938 1236.52 285.938 1249.96C285.938 1263.4 275.618 1273.96 262.658 1273.96C249.458 1273.96 239.258 1263.4 239.258 1249.96ZM251.258 1249.96C251.258 1256.68 256.178 1262.08 262.658 1262.08C269.018 1262.08 274.058 1256.68 274.058 1249.96C274.058 1243.24 269.018 1237.96 262.658 1237.96C256.178 1237.96 251.258 1243.24 251.258 1249.96ZM300.338 1292.44C300.338 1279 310.538 1268.44 323.738 1268.44C336.698 1268.44 347.018 1279 347.018 1292.44C347.018 1305.88 336.698 1316.56 323.738 1316.56C310.538 1316.56 300.338 1305.88 300.338 1292.44ZM312.338 1292.44C312.338 1299.16 317.258 1304.56 323.738 1304.56C330.098 1304.56 335.138 1299.16 335.138 1292.44C335.138 1285.72 330.098 1280.44 323.738 1280.44C317.258 1280.44 312.338 1285.72 312.338 1292.44Z" fill="#924FFF"/>
<path d="M67.5359 2038.9C82.0359 2024.9 102.536 2009.6 102.536 1997.1C102.536 1988.5 97.1359 1982.4 89.3359 1982.4C83.5359 1982.4 77.6359 1986.7 74.9359 1992.8L66.5359 1989.2C70.4359 1980.1 79.9359 1973.8 89.3359 1973.8C102.736 1973.8 112.036 1983.4 112.036 1997.1C112.036 2012.4 94.5359 2026.8 80.7359 2038.9H113.236V2047.2H68.5359L67.5359 2038.9ZM150.167 2039.5C160.467 2039.5 167.467 2027.8 167.467 2010.9C167.467 1993.9 160.467 1982.3 150.167 1982.3C139.867 1982.3 132.867 1993.9 132.867 2010.9C132.867 2027.8 139.867 2039.5 150.167 2039.5ZM123.367 2010.9C123.367 1989.2 134.467 1973.9 150.167 1973.9C165.867 1973.9 176.967 1989.2 176.967 2010.9C176.967 2032.6 165.867 2047.9 150.167 2047.9C134.467 2047.9 123.367 2032.6 123.367 2010.9ZM188.239 2038.9C202.739 2024.9 223.239 2009.6 223.239 1997.1C223.239 1988.5 217.839 1982.4 210.039 1982.4C204.239 1982.4 198.339 1986.7 195.639 1992.8L187.239 1989.2C191.139 1980.1 200.639 1973.8 210.039 1973.8C223.439 1973.8 232.739 1983.4 232.739 1997.1C232.739 2012.4 215.239 2026.8 201.439 2038.9H233.939V2047.2H189.239L188.239 2038.9ZM282.17 2009.7C288.67 2013.5 292.57 2020.6 292.57 2026.7C292.57 2039 282.57 2047.8 268.27 2047.8C254.17 2047.8 244.17 2038.9 244.17 2026.3H253.67C253.67 2034 259.67 2039.4 268.27 2039.4C277.07 2039.4 283.27 2034 283.27 2026.3C283.27 2018.9 277.17 2013.7 268.47 2013.7H263.27V2005.6H268.57C276.57 2005.6 282.17 2000.8 282.17 1994.1C282.17 1987.2 276.77 1982.4 268.97 1982.4C261.17 1982.4 255.77 1987.3 255.77 1994.2H246.27C246.27 1982.3 255.67 1974 268.97 1974C282.17 1974 291.47 1982.2 291.47 1993.8C291.47 1999.3 288.07 2005.9 282.17 2009.7Z" fill="#F9F4FF"/>
<path d="M814.216 2038.9C828.716 2024.9 849.216 2009.6 849.216 1997.1C849.216 1988.5 843.816 1982.4 836.016 1982.4C830.216 1982.4 824.316 1986.7 821.616 1992.8L813.216 1989.2C817.116 1980.1 826.616 1973.8 836.016 1973.8C849.416 1973.8 858.716 1983.4 858.716 1997.1C858.716 2012.4 841.216 2026.8 827.416 2038.9H859.916V2047.2H815.216L814.216 2038.9ZM896.847 2039.5C907.147 2039.5 914.147 2027.8 914.147 2010.9C914.147 1993.9 907.147 1982.3 896.847 1982.3C886.547 1982.3 879.547 1993.9 879.547 2010.9C879.547 2027.8 886.547 2039.5 896.847 2039.5ZM870.047 2010.9C870.047 1989.2 881.147 1973.9 896.847 1973.9C912.547 1973.9 923.647 1989.2 923.647 2010.9C923.647 2032.6 912.547 2047.9 896.847 2047.9C881.147 2047.9 870.047 2032.6 870.047 2010.9ZM971.819 2009.7C978.319 2013.5 982.219 2020.6 982.219 2026.7C982.219 2039 972.219 2047.8 957.919 2047.8C943.819 2047.8 933.819 2038.9 933.819 2026.3H943.319C943.319 2034 949.319 2039.4 957.919 2039.4C966.719 2039.4 972.919 2034 972.919 2026.3C972.919 2018.9 966.819 2013.7 958.119 2013.7H952.919V2005.6H958.219C966.219 2005.6 971.819 2000.8 971.819 1994.1C971.819 1987.2 966.419 1982.4 958.619 1982.4C950.819 1982.4 945.419 1987.3 945.419 1994.2H935.919C935.919 1982.3 945.319 1974 958.619 1974C971.819 1974 981.119 1982.2 981.119 1993.8C981.119 1999.3 977.719 2005.9 971.819 2009.7ZM1019.11 2039.5C1029.41 2039.5 1036.41 2027.8 1036.41 2010.9C1036.41 1993.9 1029.41 1982.3 1019.11 1982.3C1008.81 1982.3 1001.81 1993.9 1001.81 2010.9C1001.81 2027.8 1008.81 2039.5 1019.11 2039.5ZM992.313 2010.9C992.313 1989.2 1003.41 1973.9 1019.11 1973.9C1034.81 1973.9 1045.91 1989.2 1045.91 2010.9C1045.91 2032.6 1034.81 2047.9 1019.11 2047.9C1003.41 2047.9 992.313 2032.6 992.313 2010.9Z" fill="#F9F4FF"/>
<path d="M1562.6 2038.9C1577.1 2024.9 1597.6 2009.6 1597.6 1997.1C1597.6 1988.5 1592.2 1982.4 1584.4 1982.4C1578.6 1982.4 1572.7 1986.7 1570 1992.8L1561.6 1989.2C1565.5 1980.1 1575 1973.8 1584.4 1973.8C1597.8 1973.8 1607.1 1983.4 1607.1 1997.1C1607.1 2012.4 1589.6 2026.8 1575.8 2038.9H1608.3V2047.2H1563.6L1562.6 2038.9ZM1645.24 2039.5C1655.54 2039.5 1662.54 2027.8 1662.54 2010.9C1662.54 1993.9 1655.54 1982.3 1645.24 1982.3C1634.94 1982.3 1627.94 1993.9 1627.94 2010.9C1627.94 2027.8 1634.94 2039.5 1645.24 2039.5ZM1618.44 2010.9C1618.44 1989.2 1629.54 1973.9 1645.24 1973.9C1660.94 1973.9 1672.04 1989.2 1672.04 2010.9C1672.04 2032.6 1660.94 2047.9 1645.24 2047.9C1629.54 2047.9 1618.44 2032.6 1618.44 2010.9ZM1724.11 1974.6V2019.6H1733.81V2027.9H1724.11V2047.2H1714.61V2027.9H1683.21L1682.21 2019.6L1715.01 1974.6H1724.11ZM1693.61 2019.6H1714.61V1990.6L1693.61 2019.6ZM1770.72 2039.5C1781.02 2039.5 1788.02 2027.8 1788.02 2010.9C1788.02 1993.9 1781.02 1982.3 1770.72 1982.3C1760.42 1982.3 1753.42 1993.9 1753.42 2010.9C1753.42 2027.8 1760.42 2039.5 1770.72 2039.5ZM1743.92 2010.9C1743.92 1989.2 1755.02 1973.9 1770.72 1973.9C1786.42 1973.9 1797.52 1989.2 1797.52 2010.9C1797.52 2032.6 1786.42 2047.9 1770.72 2047.9C1755.02 2047.9 1743.92 2032.6 1743.92 2010.9Z" fill="#F9F4FF"/>
<path d="M2313.68 2038.9C2328.18 2024.9 2348.68 2009.6 2348.68 1997.1C2348.68 1988.5 2343.28 1982.4 2335.48 1982.4C2329.68 1982.4 2323.78 1986.7 2321.08 1992.8L2312.68 1989.2C2316.58 1980.1 2326.08 1973.8 2335.48 1973.8C2348.88 1973.8 2358.18 1983.4 2358.18 1997.1C2358.18 2012.4 2340.68 2026.8 2326.88 2038.9H2359.38V2047.2H2314.68L2313.68 2038.9ZM2396.31 2039.5C2406.61 2039.5 2413.61 2027.8 2413.61 2010.9C2413.61 1993.9 2406.61 1982.3 2396.31 1982.3C2386.01 1982.3 2379.01 1993.9 2379.01 2010.9C2379.01 2027.8 2386.01 2039.5 2396.31 2039.5ZM2369.51 2010.9C2369.51 1989.2 2380.61 1973.9 2396.31 1973.9C2412.01 1973.9 2423.11 1989.2 2423.11 2010.9C2423.11 2032.6 2412.01 2047.9 2396.31 2047.9C2380.61 2047.9 2369.51 2032.6 2369.51 2010.9ZM2445.88 2014.1L2436.38 2012.8L2438.78 1974.6H2476.78V1982.9H2447.88L2446.68 2002.2C2450.08 2000.5 2453.98 1999.5 2457.48 1999.5C2472.28 1999.5 2482.68 2009.5 2482.68 2023.7C2482.68 2038.1 2472.28 2048.2 2457.48 2048.2C2445.88 2048.2 2435.98 2040.4 2433.38 2029.4L2442.58 2027.3C2444.18 2034.3 2450.28 2039.3 2457.48 2039.3C2466.68 2039.3 2473.18 2032.8 2473.18 2023.7C2473.18 2014.8 2466.68 2008.4 2457.48 2008.4C2453.58 2008.4 2448.78 2010.8 2445.88 2014.1ZM2519.65 2039.5C2529.95 2039.5 2536.95 2027.8 2536.95 2010.9C2536.95 1993.9 2529.95 1982.3 2519.65 1982.3C2509.35 1982.3 2502.35 1993.9 2502.35 2010.9C2502.35 2027.8 2509.35 2039.5 2519.65 2039.5ZM2492.85 2010.9C2492.85 1989.2 2503.95 1973.9 2519.65 1973.9C2535.35 1973.9 2546.45 1989.2 2546.45 2010.9C2546.45 2032.6 2535.35 2047.9 2519.65 2047.9C2503.95 2047.9 2492.85 2032.6 2492.85 2010.9Z" fill="#F9F4FF"/>
<path d="M3062.68 2038.9C3077.18 2024.9 3097.68 2009.6 3097.68 1997.1C3097.68 1988.5 3092.28 1982.4 3084.48 1982.4C3078.68 1982.4 3072.78 1986.7 3070.08 1992.8L3061.68 1989.2C3065.58 1980.1 3075.08 1973.8 3084.48 1973.8C3097.88 1973.8 3107.18 1983.4 3107.18 1997.1C3107.18 2012.4 3089.68 2026.8 3075.88 2038.9H3108.38V2047.2H3063.68L3062.68 2038.9ZM3145.31 2039.5C3155.61 2039.5 3162.61 2027.8 3162.61 2010.9C3162.61 1993.9 3155.61 1982.3 3145.31 1982.3C3135.01 1982.3 3128.01 1993.9 3128.01 2010.9C3128.01 2027.8 3135.01 2039.5 3145.31 2039.5ZM3118.51 2010.9C3118.51 1989.2 3129.61 1973.9 3145.31 1973.9C3161.01 1973.9 3172.11 1989.2 3172.11 2010.9C3172.11 2032.6 3161.01 2047.9 3145.31 2047.9C3129.61 2047.9 3118.51 2032.6 3118.51 2010.9ZM3206.88 2039.6C3215.88 2039.6 3222.28 2033.1 3222.28 2023.9C3222.28 2014.6 3215.88 2008 3206.88 2008C3197.98 2008 3191.78 2014.6 3191.78 2023.9C3191.78 2033.1 3197.98 2039.6 3206.88 2039.6ZM3182.28 2023.9C3182.28 2018.7 3184.08 2014 3186.18 2010.2L3206.38 1974.5H3217.28L3202.58 2000.2C3203.98 1999.9 3205.58 1999.7 3207.18 1999.7C3221.58 1999.8 3231.78 2009.7 3231.78 2023.9C3231.78 2038 3221.58 2047.9 3206.98 2047.9C3192.48 2047.9 3182.28 2038 3182.28 2023.9ZM3268.65 2039.5C3278.95 2039.5 3285.95 2027.8 3285.95 2010.9C3285.95 1993.9 3278.95 1982.3 3268.65 1982.3C3258.35 1982.3 3251.35 1993.9 3251.35 2010.9C3251.35 2027.8 3258.35 2039.5 3268.65 2039.5ZM3241.85 2010.9C3241.85 1989.2 3252.95 1973.9 3268.65 1973.9C3284.35 1973.9 3295.45 1989.2 3295.45 2010.9C3295.45 2032.6 3284.35 2047.9 3268.65 2047.9C3252.95 2047.9 3241.85 2032.6 3241.85 2010.9Z" fill="#F9F4FF"/>
<path d="M3814.49 2038.9C3828.99 2024.9 3849.49 2009.6 3849.49 1997.1C3849.49 1988.5 3844.09 1982.4 3836.29 1982.4C3830.49 1982.4 3824.59 1986.7 3821.89 1992.8L3813.49 1989.2C3817.39 1980.1 3826.89 1973.8 3836.29 1973.8C3849.69 1973.8 3858.99 1983.4 3858.99 1997.1C3858.99 2012.4 3841.49 2026.8 3827.69 2038.9H3860.19V2047.2H3815.49L3814.49 2038.9ZM3897.12 2039.5C3907.42 2039.5 3914.42 2027.8 3914.42 2010.9C3914.42 1993.9 3907.42 1982.3 3897.12 1982.3C3886.82 1982.3 3879.82 1993.9 3879.82 2010.9C3879.82 2027.8 3886.82 2039.5 3897.12 2039.5ZM3870.32 2010.9C3870.32 1989.2 3881.42 1973.9 3897.12 1973.9C3912.82 1973.9 3923.92 1989.2 3923.92 2010.9C3923.92 2032.6 3912.82 2047.9 3897.12 2047.9C3881.42 2047.9 3870.32 2032.6 3870.32 2010.9ZM3951.19 2047.3H3940.89L3969.59 1982.7L3935.59 1982.8V1974.4H3978.89L3979.89 1982.7L3951.19 2047.3ZM4016.84 2039.5C4027.14 2039.5 4034.14 2027.8 4034.14 2010.9C4034.14 1993.9 4027.14 1982.3 4016.84 1982.3C4006.54 1982.3 3999.54 1993.9 3999.54 2010.9C3999.54 2027.8 4006.54 2039.5 4016.84 2039.5ZM3990.04 2010.9C3990.04 1989.2 4001.14 1973.9 4016.84 1973.9C4032.54 1973.9 4043.64 1989.2 4043.64 2010.9C4043.64 2032.6 4032.54 2047.9 4016.84 2047.9C4001.14 2047.9 3990.04 2032.6 3990.04 2010.9Z" fill="#F9F4FF"/>
<path d="M749.09 986.2C766.61 969.4 790.49 952.36 790.49 937.6C790.49 927.76 784.25 920.8 775.37 920.8C768.53 920.8 761.69 925.72 758.57 932.8L747.41 927.88C752.21 916.84 763.85 909.16 775.37 909.16C791.81 909.16 803.21 920.92 803.21 937.6C803.21 955.96 783.29 972.28 767.09 986.2H804.65V997.36H750.29L749.09 986.2ZM832.631 958.24L819.911 956.68L822.911 910H869.591V921.16H835.151L833.711 942.52C837.671 940.72 842.111 939.64 846.071 939.64C864.071 939.64 876.791 951.76 876.791 968.92C876.791 986.32 864.071 998.56 846.071 998.56C831.911 998.56 819.671 989.08 816.551 975.64L828.911 972.76C830.711 980.8 837.791 986.56 846.071 986.56C856.631 986.56 864.071 979.24 864.071 968.92C864.071 958.84 856.631 951.64 846.071 951.64C841.631 951.64 836.111 954.4 832.631 958.24ZM896.658 984.88C900.978 984.88 903.978 988 903.978 992.32C903.978 996.76 900.978 999.88 896.658 999.88C892.218 999.88 889.098 996.76 889.098 992.32C889.098 988 892.218 984.88 896.658 984.88ZM938.217 958.24L925.497 956.68L928.497 910H975.177V921.16H940.737L939.297 942.52C943.257 940.72 947.697 939.64 951.657 939.64C969.657 939.64 982.377 951.76 982.377 968.92C982.377 986.32 969.657 998.56 951.657 998.56C937.497 998.56 925.257 989.08 922.137 975.64L934.497 972.76C936.297 980.8 943.377 986.56 951.657 986.56C962.217 986.56 969.657 979.24 969.657 968.92C969.657 958.84 962.217 951.64 951.657 951.64C947.217 951.64 941.697 954.4 938.217 958.24ZM1018.44 997.72L1073.64 909.4H1086.72L1031.28 997.72H1018.44ZM998.164 931.96C998.164 918.52 1008.36 907.96 1021.56 907.96C1034.52 907.96 1044.84 918.52 1044.84 931.96C1044.84 945.4 1034.52 955.96 1021.56 955.96C1008.36 955.96 998.164 945.4 998.164 931.96ZM1010.16 931.96C1010.16 938.68 1015.08 944.08 1021.56 944.08C1027.92 944.08 1032.96 938.68 1032.96 931.96C1032.96 925.24 1027.92 919.96 1021.56 919.96C1015.08 919.96 1010.16 925.24 1010.16 931.96ZM1059.24 974.44C1059.24 961 1069.44 950.44 1082.64 950.44C1095.6 950.44 1105.92 961 1105.92 974.44C1105.92 987.88 1095.6 998.56 1082.64 998.56C1069.44 998.56 1059.24 987.88 1059.24 974.44ZM1071.24 974.44C1071.24 981.16 1076.16 986.56 1082.64 986.56C1089 986.56 1094.04 981.16 1094.04 974.44C1094.04 967.72 1089 962.44 1082.64 962.44C1076.16 962.44 1071.24 967.72 1071.24 974.44Z" fill="#F9F4FF"/>
<path d="M1540.74 628.24C1548.54 632.8 1553.46 641.32 1553.46 648.64C1553.46 663.52 1541.22 674.08 1523.82 674.08C1506.54 674.08 1494.3 663.28 1494.3 647.92H1507.02C1507.02 656.68 1513.98 662.8 1523.82 662.8C1533.9 662.8 1541.1 656.68 1541.1 647.92C1541.1 639.52 1534.02 633.52 1524.06 633.52H1517.82V622.84H1524.18C1533.3 622.84 1539.78 617.44 1539.78 609.76C1539.78 601.96 1533.54 596.56 1524.66 596.56C1515.78 596.56 1509.66 602.08 1509.66 609.88H1496.94C1496.94 595.36 1508.34 585.28 1524.66 585.28C1540.74 585.28 1552.14 595.12 1552.14 609.04C1552.14 615.76 1547.82 623.68 1540.74 628.24ZM1616.68 586V639.76H1627.72V650.8H1616.68V673.36H1603.96V650.8H1566.4L1565.2 639.76L1604.56 586H1616.68ZM1580.32 639.76H1603.96V607.24L1580.32 639.76ZM1647.54 660.88C1651.86 660.88 1654.86 664 1654.86 668.32C1654.86 672.76 1651.86 675.88 1647.54 675.88C1643.1 675.88 1639.98 672.76 1639.98 668.32C1639.98 664 1643.1 660.88 1647.54 660.88ZM1724.38 586V639.76H1735.42V650.8H1724.38V673.36H1711.66V650.8H1674.1L1672.9 639.76L1712.26 586H1724.38ZM1688.02 639.76H1711.66V607.24L1688.02 639.76ZM1771.43 673.72L1826.63 585.4H1839.71L1784.27 673.72H1771.43ZM1751.15 607.96C1751.15 594.52 1761.35 583.96 1774.55 583.96C1787.51 583.96 1797.83 594.52 1797.83 607.96C1797.83 621.4 1787.51 631.96 1774.55 631.96C1761.35 631.96 1751.15 621.4 1751.15 607.96ZM1763.15 607.96C1763.15 614.68 1768.07 620.08 1774.55 620.08C1780.91 620.08 1785.95 614.68 1785.95 607.96C1785.95 601.24 1780.91 595.96 1774.55 595.96C1768.07 595.96 1763.15 601.24 1763.15 607.96ZM1812.23 650.44C1812.23 637 1822.43 626.44 1835.63 626.44C1848.59 626.44 1858.91 637 1858.91 650.44C1858.91 663.88 1848.59 674.56 1835.63 674.56C1822.43 674.56 1812.23 663.88 1812.23 650.44ZM1824.23 650.44C1824.23 657.16 1829.15 662.56 1835.63 662.56C1841.99 662.56 1847.03 657.16 1847.03 650.44C1847.03 643.72 1841.99 638.44 1835.63 638.44C1829.15 638.44 1824.23 643.72 1824.23 650.44Z" fill="#F9F4FF"/>
<path d="M2304.69 304V357.76H2315.73V368.8H2304.69V391.36H2291.97V368.8H2254.41L2253.21 357.76L2292.57 304H2304.69ZM2268.33 357.76H2291.97V325.24L2268.33 357.76ZM2360.27 380.92C2372.27 380.92 2380.31 367.48 2380.31 347.68C2380.31 327.76 2372.27 314.32 2360.27 314.32C2348.27 314.32 2340.11 327.76 2340.11 347.68C2340.11 367.48 2348.27 380.92 2360.27 380.92ZM2327.39 347.68C2327.39 321.52 2340.95 303.16 2360.27 303.16C2379.47 303.16 2393.03 321.52 2393.03 347.68C2393.03 373.72 2379.47 392.2 2360.27 392.2C2340.95 392.2 2327.39 373.72 2327.39 347.68ZM2412.77 378.88C2417.09 378.88 2420.09 382 2420.09 386.32C2420.09 390.76 2417.09 393.88 2412.77 393.88C2408.33 393.88 2405.21 390.76 2405.21 386.32C2405.21 382 2408.33 378.88 2412.77 378.88ZM2470.65 304.12V391.36L2457.93 391.24V317.68L2442.57 326.2L2437.29 315.52L2458.05 304.12H2470.65ZM2512.53 391.72L2567.73 303.4H2580.81L2525.37 391.72H2512.53ZM2492.25 325.96C2492.25 312.52 2502.45 301.96 2515.65 301.96C2528.61 301.96 2538.93 312.52 2538.93 325.96C2538.93 339.4 2528.61 349.96 2515.65 349.96C2502.45 349.96 2492.25 339.4 2492.25 325.96ZM2504.25 325.96C2504.25 332.68 2509.17 338.08 2515.65 338.08C2522.01 338.08 2527.05 332.68 2527.05 325.96C2527.05 319.24 2522.01 313.96 2515.65 313.96C2509.17 313.96 2504.25 319.24 2504.25 325.96ZM2553.33 368.44C2553.33 355 2563.53 344.44 2576.73 344.44C2589.69 344.44 2600.01 355 2600.01 368.44C2600.01 381.88 2589.69 392.56 2576.73 392.56C2563.53 392.56 2553.33 381.88 2553.33 368.44ZM2565.33 368.44C2565.33 375.16 2570.25 380.56 2576.73 380.56C2583.09 380.56 2588.13 375.16 2588.13 368.44C2588.13 361.72 2583.09 356.44 2576.73 356.44C2570.25 356.44 2565.33 361.72 2565.33 368.44Z" fill="#F9F4FF"/>
<path d="M3046.81 154V207.76H3057.85V218.8H3046.81V241.36H3034.09V218.8H2996.53L2995.33 207.76L3034.69 154H3046.81ZM3010.45 207.76H3034.09V175.24L3010.45 207.76ZM3116.06 196.24C3123.86 200.8 3128.78 209.32 3128.78 216.64C3128.78 231.52 3116.54 242.08 3099.14 242.08C3081.86 242.08 3069.62 231.28 3069.62 215.92H3082.34C3082.34 224.68 3089.3 230.8 3099.14 230.8C3109.22 230.8 3116.42 224.68 3116.42 215.92C3116.42 207.52 3109.34 201.52 3099.38 201.52H3093.14V190.84H3099.5C3108.62 190.84 3115.1 185.44 3115.1 177.76C3115.1 169.96 3108.86 164.56 3099.98 164.56C3091.1 164.56 3084.98 170.08 3084.98 177.88H3072.26C3072.26 163.36 3083.66 153.28 3099.98 153.28C3116.06 153.28 3127.46 163.12 3127.46 177.04C3127.46 183.76 3123.14 191.68 3116.06 196.24ZM3148.56 228.88C3152.88 228.88 3155.88 232 3155.88 236.32C3155.88 240.76 3152.88 243.88 3148.56 243.88C3144.12 243.88 3141 240.76 3141 236.32C3141 232 3144.12 228.88 3148.56 228.88ZM3203.68 231.88C3213.64 231.88 3220.6 225.52 3220.6 216.4C3220.6 207.28 3213.64 200.8 3203.68 200.8C3193.72 200.8 3186.64 207.28 3186.64 216.4C3186.64 225.52 3193.72 231.88 3203.68 231.88ZM3173.92 216.64C3173.92 208.96 3179.92 200.08 3188.32 195.4C3181.36 190.6 3176.32 182.8 3176.32 176.56C3176.32 162.4 3187.6 152.56 3203.68 152.56C3219.76 152.56 3231.04 162.4 3231.04 176.56C3231.04 182.92 3226.12 190.72 3219.04 195.4C3227.44 200.2 3233.44 208.96 3233.44 216.64C3233.44 232 3221.2 242.8 3203.68 242.8C3186.28 242.8 3173.92 232 3173.92 216.64ZM3189.16 176.56C3189.16 184.36 3195.16 189.88 3203.68 189.88C3212.32 189.88 3218.32 184.36 3218.32 176.56C3218.32 168.76 3212.32 163.36 3203.68 163.36C3195.16 163.36 3189.16 168.76 3189.16 176.56ZM3269.41 241.72L3324.61 153.4H3337.69L3282.25 241.72H3269.41ZM3249.13 175.96C3249.13 162.52 3259.33 151.96 3272.53 151.96C3285.49 151.96 3295.81 162.52 3295.81 175.96C3295.81 189.4 3285.49 199.96 3272.53 199.96C3259.33 199.96 3249.13 189.4 3249.13 175.96ZM3261.13 175.96C3261.13 182.68 3266.05 188.08 3272.53 188.08C3278.89 188.08 3283.93 182.68 3283.93 175.96C3283.93 169.24 3278.89 163.96 3272.53 163.96C3266.05 163.96 3261.13 169.24 3261.13 175.96ZM3310.21 218.44C3310.21 205 3320.41 194.44 3333.61 194.44C3346.57 194.44 3356.89 205 3356.89 218.44C3356.89 231.88 3346.57 242.56 3333.61 242.56C3320.41 242.56 3310.21 231.88 3310.21 218.44ZM3322.21 218.44C3322.21 225.16 3327.13 230.56 3333.61 230.56C3339.97 230.56 3345.01 225.16 3345.01 218.44C3345.01 211.72 3339.97 206.44 3333.61 206.44C3327.13 206.44 3322.21 211.72 3322.21 218.44Z" fill="#F9F4FF"/>
<path d="M3794.64 3V56.76H3805.68V67.8H3794.64V90.36H3781.92V67.8H3744.36L3743.16 56.76L3782.52 3H3794.64ZM3758.28 56.76H3781.92V24.24L3758.28 56.76ZM3847.57 80.04C3857.89 80.04 3865.21 72.6 3865.21 62.16C3865.21 51.48 3857.89 44.04 3847.57 44.04C3837.37 44.04 3830.17 51.48 3830.17 62.16C3830.17 72.6 3837.37 80.04 3847.57 80.04ZM3817.45 62.16C3817.45 55.8 3819.73 50.16 3822.25 45.48L3846.25 2.75999H3860.89L3843.49 33.36C3844.93 33.12 3846.37 32.88 3847.93 32.88C3865.57 33 3877.93 45 3877.93 62.16C3877.93 79.2 3865.45 91.2 3847.69 91.2C3829.93 91.2 3817.45 79.2 3817.45 62.16ZM3897.68 77.88C3902 77.88 3905 81 3905 85.32C3905 89.76 3902 92.88 3897.68 92.88C3893.24 92.88 3890.12 89.76 3890.12 85.32C3890.12 81 3893.24 77.88 3897.68 77.88ZM3974.52 3V56.76H3985.56V67.8H3974.52V90.36H3961.8V67.8H3924.24L3923.04 56.76L3962.4 3H3974.52ZM3938.16 56.76H3961.8V24.24L3938.16 56.76ZM4021.58 90.72L4076.78 2.4H4089.86L4034.42 90.72H4021.58ZM4001.3 24.96C4001.3 11.52 4011.5 0.959995 4024.7 0.959995C4037.66 0.959995 4047.98 11.52 4047.98 24.96C4047.98 38.4 4037.66 48.96 4024.7 48.96C4011.5 48.96 4001.3 38.4 4001.3 24.96ZM4013.3 24.96C4013.3 31.68 4018.22 37.08 4024.7 37.08C4031.06 37.08 4036.1 31.68 4036.1 24.96C4036.1 18.24 4031.06 12.96 4024.7 12.96C4018.22 12.96 4013.3 18.24 4013.3 24.96ZM4062.38 67.44C4062.38 54 4072.58 43.44 4085.78 43.44C4098.74 43.44 4109.06 54 4109.06 67.44C4109.06 80.88 4098.74 91.56 4085.78 91.56C4072.58 91.56 4062.38 80.88 4062.38 67.44ZM4074.38 67.44C4074.38 74.16 4079.3 79.56 4085.78 79.56C4092.14 79.56 4097.18 74.16 4097.18 67.44C4097.18 60.72 4092.14 55.44 4085.78 55.44C4079.3 55.44 4074.38 60.72 4074.38 67.44Z" fill="#924FFF"/>
<defs>
<linearGradient id="paint0_linear_1163_526" x1="179" y1="1452.5" x2="179" y2="1888.5" gradientUnits="userSpaceOnUse">
<stop stop-color="#924FFF"/>
<stop offset="1" stop-color="#E6D7FF"/>
</linearGradient>
<linearGradient id="paint1_linear_1163_526" x1="3928" y1="288.6" x2="3928" y2="1819.44" gradientUnits="userSpaceOnUse">
<stop stop-color="#924FFF"/>
<stop offset="1" stop-color="#E6D7FF"/>
</linearGradient>
</defs>
</svg>
