<svg width="1677" height="716" viewBox="0 0 1677 716" fill="none" xmlns="http://www.w3.org/2000/svg">
<g filter="url(#filter0_d_1365_85)">
<rect x="756" y="86" width="160" height="60" rx="20" fill="#F8F7FF"/>
<rect x="758.5" y="88.5" width="155" height="55" rx="17.5" stroke="#6100FF" stroke-width="5"/>
</g>
<g filter="url(#filter1_d_1365_85)">
<rect x="1" y="6" width="160" height="60" rx="20" fill="#924FFF"/>
</g>
<path d="M47.8703 27.975V46H46.0703V30.025L43.2703 31.975L42.2703 30.6L46.0703 27.975H47.8703ZM63.0832 44.4C67.3332 44.4 70.3332 41.325 70.3332 36.975C70.3332 32.625 67.3332 29.55 63.0832 29.55H60.1832V44.4H63.0832ZM58.3832 46V27.95H63.0832C68.3582 27.95 72.0832 31.675 72.0832 36.975C72.0832 42.275 68.3582 46 63.0832 46H58.3832ZM80.0271 46.125C76.8021 46.125 74.5271 43.7 74.5271 40.3C74.5271 36.9 76.8021 34.475 80.0271 34.475C83.5771 34.475 84.6521 37.325 84.7521 37.625C85.4521 39.475 85.2021 41.125 85.2021 41.125H76.4021C76.7021 43.1 78.2021 44.5 80.0271 44.5C82.5021 44.5 83.3771 42.9 83.5271 42.675L84.9271 43.475C84.3521 44.75 82.7271 46.125 80.0271 46.125ZM76.4021 39.525L83.4271 39.5C83.2271 37.575 82.3271 36.1 80.0271 36.1C78.1771 36.1 76.7021 37.475 76.4021 39.525ZM93.8119 44.55C96.0119 44.55 97.5369 42.8 97.5369 40.3C97.5369 37.85 96.0119 36.075 93.8119 36.075C91.8119 36.075 90.1119 38.025 90.1119 40.3C90.1119 42.625 91.8119 44.55 93.8119 44.55ZM88.2869 51.35V34.475H90.0869V36.55C90.9119 35.175 92.5369 34.475 93.8369 34.475C97.0619 34.475 99.3369 36.9 99.3369 40.3C99.3369 43.75 97.0619 46.175 93.8369 46.175C92.5119 46.175 90.9119 45.35 90.0869 44.075V51.35H88.2869ZM103.086 46V36.075H101.011V34.475H103.086V30.5H104.886V34.475H107.611V36.075H104.886V46H103.086ZM118.06 39.55C118.06 37.525 116.935 36.1 115.31 36.1C113.56 36.1 112.06 37.9 112.06 40V46H110.26V28.45H112.06V36.325C112.71 35.275 113.91 34.475 115.31 34.475C117.96 34.475 119.86 36.575 119.86 39.45V46H118.06V39.55Z" fill="black"/>
<g filter="url(#filter2_d_1365_85)">
<rect x="1514" y="6" width="160" height="60" rx="20" fill="#924FFF"/>
</g>
<path d="M1588.22 25.95H1590.1V30.725H1593.37V32.275H1590.1V37.1H1588.22V25.95ZM1573.6 31.6C1573.6 28.75 1575.97 26.75 1579.2 26.75C1582.47 26.75 1584.85 28.75 1584.85 31.6C1584.85 34.475 1582.47 36.45 1579.2 36.45C1575.97 36.45 1573.6 34.475 1573.6 31.6ZM1575.42 31.6C1575.42 33.525 1577.02 34.925 1579.2 34.925C1581.42 34.925 1583.02 33.525 1583.02 31.6C1583.02 29.675 1581.42 28.275 1579.2 28.275C1577.02 28.275 1575.42 29.675 1575.42 31.6ZM1576.3 39.65V38.15H1590.1V43.45H1578.2V46H1590.9V47.525H1576.35V42.025H1588.25V39.65H1576.3ZM1611 25.95H1612.9V38.9H1611V25.95ZM1596.08 28.8V27.25H1605.98V33.175H1597.95V36.3C1601.85 36.3 1604.78 36.175 1608.28 35.6L1608.5 37.15C1604.88 37.725 1601.9 37.85 1597.88 37.85H1596.13V31.7H1604.15V28.8H1596.08ZM1598.83 47.525V40.15H1612.9V47.525H1598.83ZM1600.65 46H1611.05V41.65H1600.65V46Z" fill="black"/>
<g filter="url(#filter3_d_1365_85)">
<rect x="1016" y="1" width="160" height="60" rx="20" fill="#924FFF"/>
</g>
<path d="M1069.17 20.95H1071.05V42.825H1069.17V20.95ZM1053.4 37C1055.25 37 1057.37 37 1059.57 36.925V34.5C1056.97 34.225 1055.3 32.725 1055.3 30.525C1055.3 28.075 1057.37 26.475 1060.5 26.475C1063.62 26.475 1065.75 28.075 1065.75 30.525C1065.75 32.7 1064.05 34.2 1061.47 34.5V36.85C1063.6 36.75 1065.75 36.6 1067.75 36.325L1067.87 37.725C1063.02 38.55 1057.7 38.6 1053.67 38.6L1053.4 37ZM1053.87 25.175V23.65H1059.57V20.95H1061.47V23.65H1067.17V25.175H1053.87ZM1057.05 30.525C1057.05 32.075 1058.47 33.075 1060.5 33.075C1062.57 33.075 1063.97 32.075 1063.97 30.525C1063.97 28.95 1062.57 27.925 1060.5 27.925C1058.47 27.925 1057.05 28.95 1057.05 30.525ZM1091.1 20.95H1092.97V37.6H1091.1V35.275H1086.62V33.9H1091.1V20.95ZM1075 31.1C1079.05 31.1 1084.47 31.05 1089.15 30.475L1089.27 31.825C1087.32 32.15 1085.27 32.35 1083.27 32.45V36.8H1081.4V32.55C1079.2 32.65 1077.1 32.675 1075.27 32.675L1075 31.1ZM1076.75 25.65C1076.75 23.35 1078.92 21.85 1082.12 21.85C1085.32 21.85 1087.5 23.35 1087.5 25.65C1087.5 27.975 1085.32 29.45 1082.12 29.45C1078.92 29.45 1076.75 27.975 1076.75 25.65ZM1078.15 42.325V35.975H1080.02V40.775H1093.52V42.325H1078.15ZM1078.52 25.65C1078.52 27.1 1080.02 28.025 1082.12 28.025C1084.25 28.025 1085.7 27.1 1085.7 25.65C1085.7 24.2 1084.25 23.25 1082.12 23.25C1080.02 23.25 1078.52 24.2 1078.52 25.65ZM1111.9 20.925H1113.8V29.875H1117.33V31.45H1113.8V42.825H1111.9V20.925ZM1097.18 37.175C1102.8 34.35 1105.85 30.05 1106.28 24.85H1098.18V23.3H1108.18C1108.18 29.475 1105.28 35.1 1098.23 38.625L1097.18 37.175ZM1134.85 20.95H1136.73V32.675H1134.85V20.95ZM1119.35 27.025C1119.35 24.05 1121.73 22.025 1125.03 22.025C1128.33 22.025 1130.7 24.05 1130.7 27.025C1130.7 30 1128.33 32.05 1125.03 32.05C1121.73 32.05 1119.35 30 1119.35 27.025ZM1121.18 27.025C1121.18 29.05 1122.8 30.475 1125.03 30.475C1127.25 30.475 1128.88 29.05 1128.88 27.025C1128.88 25 1127.25 23.575 1125.03 23.575C1122.8 23.575 1121.18 25 1121.18 27.025ZM1122.7 42.525V33.8H1124.55V36.5H1134.88V33.8H1136.73V42.525H1122.7ZM1124.55 41H1134.88V38H1124.55V41Z" fill="black"/>
<g filter="url(#filter4_d_1365_85)">
<rect x="1514" y="91" width="160" height="60" rx="20" fill="#AE7CFE"/>
</g>
<path d="M1538.07 113.25C1538.07 119.525 1535.82 125.325 1528.14 129.2L1527.09 127.725C1531.09 125.725 1533.57 123.175 1534.92 120.2L1527.47 120.9L1527.14 119.275L1535.49 118.725C1535.92 117.475 1536.14 116.15 1536.22 114.775H1528.24V113.25H1538.07ZM1537.99 121.325V119.75H1543.12V110.95H1544.97V132.825H1543.12V121.325H1537.99ZM1548.92 123.65H1568.74V125.2H1563.67V133H1561.77V125.2H1555.87V133H1553.99V125.2H1548.92V123.65ZM1551.47 120.675V112.175H1566.14V120.675H1551.47ZM1553.29 119.15H1564.32V113.7H1553.29V119.15ZM1586.77 110.95H1588.62V132.825H1586.77V110.95ZM1572.17 127.15V113.1H1574.04V125.525C1577.34 125.525 1580.77 125.275 1584.44 124.5L1584.69 126.1C1580.87 126.875 1577.42 127.15 1573.97 127.15H1572.17ZM1594.04 112.95H1604.54V114.525H1595.87V119.1H1603.77V120.6H1595.87V125.95C1599.92 125.95 1602.74 125.85 1606.07 125.275L1606.27 126.8C1602.84 127.4 1599.94 127.525 1595.74 127.525H1594.04V112.95ZM1608.64 132.825V110.95H1610.52V132.825H1608.64ZM1635.31 110.95H1637.18V115.725H1640.46V117.275H1637.18V122.1H1635.31V110.95ZM1620.68 116.6C1620.68 113.75 1623.06 111.75 1626.28 111.75C1629.56 111.75 1631.93 113.75 1631.93 116.6C1631.93 119.475 1629.56 121.45 1626.28 121.45C1623.06 121.45 1620.68 119.475 1620.68 116.6ZM1622.51 116.6C1622.51 118.525 1624.11 119.925 1626.28 119.925C1628.51 119.925 1630.11 118.525 1630.11 116.6C1630.11 114.675 1628.51 113.275 1626.28 113.275C1624.11 113.275 1622.51 114.675 1622.51 116.6ZM1623.38 124.65V123.15H1637.18V128.45H1625.28V131H1637.98V132.525H1623.43V127.025H1635.33V124.65H1623.38ZM1658.08 110.95H1659.98V123.9H1658.08V110.95ZM1643.16 113.8V112.25H1653.06V118.175H1645.03V121.3C1648.93 121.3 1651.86 121.175 1655.36 120.6L1655.58 122.15C1651.96 122.725 1648.98 122.85 1644.96 122.85H1643.21V116.7H1651.23V113.8H1643.16ZM1645.91 132.525V125.15H1659.98V132.525H1645.91ZM1647.73 131H1658.13V126.65H1647.73V131Z" fill="black"/>
<g filter="url(#filter5_d_1365_85)">
<rect x="1514" y="176" width="160" height="60" rx="20" fill="#AE7CFE"/>
</g>
<path d="M1553.47 195.925H1555.34V217.85H1553.47V195.925ZM1538.29 205.25C1538.29 200.6 1540.59 197.65 1543.84 197.65C1547.07 197.65 1549.37 200.6 1549.37 205.25C1549.37 209.9 1547.07 212.875 1543.84 212.875C1540.59 212.875 1538.29 209.9 1538.29 205.25ZM1540.12 205.25C1540.12 208.825 1541.64 211.2 1543.84 211.2C1546.02 211.2 1547.57 208.825 1547.57 205.25C1547.57 201.675 1546.02 199.325 1543.84 199.325C1541.64 199.325 1540.12 201.675 1540.12 205.25ZM1575.97 195.95H1577.77V212.55H1575.97V195.95ZM1560.37 208.375V197.7H1562.12V201.425H1567.02V197.7H1568.79V202.325H1571.82V196.375H1573.62V211.925H1571.82V203.85H1568.79V208.375H1560.37ZM1562.12 206.85H1567.02V202.925H1562.12V206.85ZM1563.54 217.325V210.3H1565.42V215.775H1578.42V217.325H1563.54ZM1583.77 197.85H1598.52V199.375H1585.67V202.725H1598.04V204.25H1585.67V207.775H1598.74V209.325H1583.77V197.85ZM1581.19 214.95V213.4H1601.02V214.95H1581.19ZM1623.88 195.95H1625.76V200.725H1629.03V202.275H1625.76V207.1H1623.88V195.95ZM1609.26 201.6C1609.26 198.75 1611.63 196.75 1614.86 196.75C1618.13 196.75 1620.51 198.75 1620.51 201.6C1620.51 204.475 1618.13 206.45 1614.86 206.45C1611.63 206.45 1609.26 204.475 1609.26 201.6ZM1611.08 201.6C1611.08 203.525 1612.68 204.925 1614.86 204.925C1617.08 204.925 1618.68 203.525 1618.68 201.6C1618.68 199.675 1617.08 198.275 1614.86 198.275C1612.68 198.275 1611.08 199.675 1611.08 201.6ZM1611.96 209.65V208.15H1625.76V213.45H1613.86V216H1626.56V217.525H1612.01V212.025H1623.91V209.65H1611.96ZM1646.66 195.95H1648.56V208.9H1646.66V195.95ZM1631.73 198.8V197.25H1641.63V203.175H1633.61V206.3C1637.51 206.3 1640.43 206.175 1643.93 205.6L1644.16 207.15C1640.53 207.725 1637.56 207.85 1633.53 207.85H1631.78V201.7H1639.81V198.8H1631.73ZM1634.48 217.525V210.15H1648.56V217.525H1634.48ZM1636.31 216H1646.71V211.65H1636.31V216Z" fill="black"/>
<g filter="url(#filter6_d_1365_85)">
<rect x="1334" y="6" width="160" height="60" rx="20" fill="#924FFF"/>
</g>
<path d="M1404.32 27.375C1404.32 32.85 1400.42 36.775 1394.15 38.575L1393.37 37.1C1398.6 35.625 1401.92 32.7 1402.3 28.9H1394.5V27.375H1404.32ZM1397.02 47.5V39.375H1411.1V47.5H1397.02ZM1398.85 45.975H1409.25V40.9H1398.85V45.975ZM1404.35 33.2V31.625H1409.22V25.95H1411.1V38.45H1409.22V33.2H1404.35ZM1419.63 27.275H1421.43V30.25C1421.43 32.725 1423.1 35.25 1425.9 36.375L1424.9 37.825C1422.83 36.95 1421.33 35.325 1420.55 33.375C1419.75 35.5 1418.2 37.4 1416.05 38.375L1415.03 36.9C1417.88 35.625 1419.63 32.725 1419.63 30.25V27.275ZM1418.75 41.95V40.425H1433.4V47.825H1431.53V41.95H1418.75ZM1426.9 39.05V26.35H1428.68V31.7H1431.6V25.975H1433.4V39.175H1431.6V33.25H1428.68V39.05H1426.9Z" fill="black"/>
<g filter="url(#filter7_d_1365_85)">
<rect x="1016" y="86" width="160" height="60" rx="20" fill="#924FFF"/>
</g>
<path d="M1064.22 123.525H1073.17V119.325H1066.72V112.625H1079.72V109.1H1066.67V107.575H1081.57V114.125H1068.57V117.8H1082.07V119.325H1075.02V123.525H1084.05V125.075H1064.22V123.525ZM1088.25 108.275H1103.17V110.425C1103.17 113.175 1103.17 116.325 1102.35 121.075L1100.45 120.9C1101.32 116.4 1101.32 113.125 1101.32 110.425V109.825H1088.25V108.275ZM1086.07 124.6V123.025H1105.85V124.6H1086.07ZM1123.93 105.975H1125.83V121.95H1123.93V105.975ZM1108.43 112.875C1108.43 109.7 1110.88 107.5 1114.1 107.5C1117.35 107.5 1119.78 109.7 1119.78 112.875C1119.78 116 1117.35 118.225 1114.1 118.225C1110.88 118.225 1108.43 116 1108.43 112.875ZM1110.25 112.875C1110.25 115.025 1111.93 116.575 1114.1 116.575C1116.3 116.575 1117.98 115.025 1117.98 112.875C1117.98 110.675 1116.3 109.125 1114.1 109.125C1111.93 109.125 1110.25 110.675 1110.25 112.875ZM1111.85 127.325V120.325H1113.7V125.775H1126.5V127.325H1111.85Z" fill="black"/>
<g filter="url(#filter8_d_1365_85)">
<rect x="756" y="227" width="160" height="60" rx="20" fill="#924FFF"/>
</g>
<path d="M802.168 249.5H810.443V255.225H813.793V247.45H815.568V267.7H813.793V256.775H810.443V262.9H802.168V249.5ZM803.918 261.425H808.693V251H803.918V261.425ZM818.093 268.825V246.95H819.893V268.825H818.093ZM839.194 246.975H841.094V262.95H839.194V246.975ZM823.694 253.875C823.694 250.7 826.144 248.5 829.369 248.5C832.619 248.5 835.044 250.7 835.044 253.875C835.044 257 832.619 259.225 829.369 259.225C826.144 259.225 823.694 257 823.694 253.875ZM825.519 253.875C825.519 256.025 827.194 257.575 829.369 257.575C831.569 257.575 833.244 256.025 833.244 253.875C833.244 251.675 831.569 250.125 829.369 250.125C827.194 250.125 825.519 251.675 825.519 253.875ZM827.119 268.325V261.325H828.969V266.775H841.769V268.325H827.119ZM853.256 262.3H868.131V268.525H853.256V262.3ZM850.806 260.575V259.075H859.756V257.325C855.831 257.2 853.656 256.125 853.656 254.25C853.656 252.225 856.181 251.15 860.681 251.15C865.181 251.15 867.706 252.225 867.706 254.25C867.706 256.125 865.531 257.2 861.631 257.325V259.075H870.556V260.575H850.806ZM851.856 250.25V248.775H859.756V246.6H861.631V248.775H869.406V250.25H851.856ZM855.081 267.075H866.306V263.725H855.081V267.075ZM855.631 254.25C855.631 255.375 857.456 256.025 860.681 256.025C863.906 256.025 865.731 255.375 865.731 254.25C865.731 253.125 863.906 252.475 860.681 252.475C857.456 252.475 855.631 253.125 855.631 254.25Z" fill="black"/>
<g filter="url(#filter9_d_1365_85)">
<rect x="951" y="227" width="160" height="60" rx="20" fill="#924FFF"/>
</g>
<path d="M999.299 249.25C999.299 255.525 997.049 261.325 989.374 265.2L988.324 263.725C992.324 261.725 994.799 259.175 996.149 256.2L988.699 256.9L988.374 255.275L996.724 254.725C997.149 253.475 997.374 252.15 997.449 250.775H989.474V249.25H999.299ZM999.224 257.325V255.75H1004.35V246.95H1006.2V268.825H1004.35V257.325H999.224ZM1010.15 259.65H1029.97V261.2H1024.9V269H1023V261.2H1017.1V269H1015.22V261.2H1010.15V259.65ZM1012.7 256.675V248.175H1027.37V256.675H1012.7ZM1014.52 255.15H1025.55V249.7H1014.52V255.15ZM1048 246.95H1049.85V268.825H1048V246.95ZM1033.4 263.15V249.1H1035.28V261.525C1038.58 261.525 1042 261.275 1045.68 260.5L1045.93 262.1C1042.1 262.875 1038.65 263.15 1035.2 263.15H1033.4ZM1055.28 248.95H1065.78V250.525H1057.1V255.1H1065V256.6H1057.1V261.95C1061.15 261.95 1063.98 261.85 1067.3 261.275L1067.5 262.8C1064.08 263.4 1061.18 263.525 1056.98 263.525H1055.28V248.95ZM1069.88 268.825V246.95H1071.75V268.825H1069.88Z" fill="black"/>
<g filter="url(#filter10_d_1365_85)">
<rect x="561" y="228" width="160" height="60" rx="20" fill="#924FFF"/>
</g>
<path d="M582.466 259.275H591.416V256.6H585.116V248.475H586.966V251H597.766V248.475H599.641V256.6H593.266V259.275H602.216V260.825H582.466V259.275ZM584.666 264.575V263.05H599.766V269.825H597.916V264.575H584.666ZM586.966 255.1H597.766V252.475H586.966V255.1ZM604.992 250.2H617.217V251.775H612.017V254.725C612.017 258.45 614.767 262.2 617.917 263.575L616.842 265.075C614.342 263.9 612.117 261.35 611.092 258.325C610.092 261.55 607.892 264.35 605.392 265.6L604.317 264.125C607.392 262.625 610.142 258.5 610.142 254.725V251.775H604.992V250.2ZM620.267 269.825V247.95H622.142V269.825H620.267ZM633.342 248.9L628.117 269.2H626.317L631.567 248.9H633.342ZM651.957 247.925H653.832V269.85H651.957V247.925ZM636.782 257.25C636.782 252.6 639.082 249.65 642.332 249.65C645.557 249.65 647.857 252.6 647.857 257.25C647.857 261.9 645.557 264.875 642.332 264.875C639.082 264.875 636.782 261.9 636.782 257.25ZM638.607 257.25C638.607 260.825 640.132 263.2 642.332 263.2C644.507 263.2 646.057 260.825 646.057 257.25C646.057 253.675 644.507 251.325 642.332 251.325C640.132 251.325 638.607 253.675 638.607 257.25ZM674.458 247.95H676.258V264.55H674.458V247.95ZM658.858 260.375V249.7H660.608V253.425H665.508V249.7H667.283V254.325H670.308V248.375H672.108V263.925H670.308V255.85H667.283V260.375H658.858ZM660.608 258.85H665.508V254.925H660.608V258.85ZM662.033 269.325V262.3H663.908V267.775H676.908V269.325H662.033ZM682.258 249.85H697.008V251.375H684.158V254.725H696.533V256.25H684.158V259.775H697.233V261.325H682.258V249.85ZM679.683 266.95V265.4H699.508V266.95H679.683Z" fill="black"/>
<g filter="url(#filter11_d_1365_85)">
<rect x="1146" y="227" width="160" height="60" rx="20" fill="#924FFF"/>
</g>
<path d="M1173.3 249.15H1183.27V263.25H1173.3V249.15ZM1175.12 261.725H1181.45V250.675H1175.12V261.725ZM1187.3 268.825V246.95H1189.17V255.75H1192.8V257.325H1189.17V268.825H1187.3ZM1210.2 246.925H1212.07V268.85H1210.2V246.925ZM1195.02 256.25C1195.02 251.6 1197.32 248.65 1200.57 248.65C1203.8 248.65 1206.1 251.6 1206.1 256.25C1206.1 260.9 1203.8 263.875 1200.57 263.875C1197.32 263.875 1195.02 260.9 1195.02 256.25ZM1196.85 256.25C1196.85 259.825 1198.37 262.2 1200.57 262.2C1202.75 262.2 1204.3 259.825 1204.3 256.25C1204.3 252.675 1202.75 250.325 1200.57 250.325C1198.37 250.325 1196.85 252.675 1196.85 256.25ZM1232.9 246.95H1234.7V268.825H1232.9V246.95ZM1215.82 261.8C1216.5 261.8 1217.27 261.8 1218.12 261.775V251.3H1216.27V249.75H1226.27V251.3H1224.4V261.525C1225.22 261.45 1226.02 261.375 1226.75 261.275L1226.9 262.675C1223.45 263.3 1218.9 263.4 1216.05 263.4L1215.82 261.8ZM1219.85 261.75C1220.77 261.725 1221.72 261.675 1222.67 261.625V251.3H1219.85V261.75ZM1225.6 256.975V255.325H1228.67V247.5H1230.45V267.65H1228.67V256.975H1225.6ZM1253.9 246.925H1255.78V268.85H1253.9V246.925ZM1238.73 256.25C1238.73 251.6 1241.03 248.65 1244.28 248.65C1247.5 248.65 1249.8 251.6 1249.8 256.25C1249.8 260.9 1247.5 263.875 1244.28 263.875C1241.03 263.875 1238.73 260.9 1238.73 256.25ZM1240.55 256.25C1240.55 259.825 1242.08 262.2 1244.28 262.2C1246.45 262.2 1248 259.825 1248 256.25C1248 252.675 1246.45 250.325 1244.28 250.325C1242.08 250.325 1240.55 252.675 1240.55 256.25ZM1260.45 249.2H1272.68V250.775H1267.48V253.725C1267.48 257.45 1270.23 261.2 1273.38 262.575L1272.3 264.075C1269.8 262.9 1267.58 260.35 1266.55 257.325C1265.55 260.55 1263.35 263.35 1260.85 264.6L1259.78 263.125C1262.85 261.625 1265.6 257.5 1265.6 253.725V250.775H1260.45V249.2ZM1275.73 268.825V246.95H1277.6V268.825H1275.73Z" fill="black"/>
<g filter="url(#filter12_d_1365_85)">
<rect x="366" y="228" width="160" height="60" rx="20" fill="#924FFF"/>
</g>
<path d="M432.224 249.55C435.624 249.55 438.049 251.65 438.049 254.675C438.049 257.725 435.624 259.8 432.224 259.8C428.799 259.8 426.374 257.725 426.374 254.675C426.374 251.65 428.799 249.55 432.224 249.55ZM425.249 263.425C429.249 263.425 434.799 263.425 439.574 262.675L439.724 264.05C434.799 265 429.424 265.025 425.499 265.025L425.249 263.425ZM428.199 254.675C428.199 256.725 429.899 258.175 432.224 258.175C434.524 258.175 436.224 256.725 436.224 254.675C436.224 252.6 434.524 251.175 432.224 251.175C429.899 251.175 428.199 252.6 428.199 254.675ZM441.024 269.85V247.925H442.899V269.85H441.024ZM447 265.525H452.6V261.3H449.5V254.6H462.5V251.1H449.45V249.575H464.35V256.1H451.35V259.75H464.85V261.3H461.425V265.525H466.825V267.075H447V265.525ZM454.45 265.525H459.6V261.3H454.45V265.525Z" fill="black"/>
<path d="M824.024 106.15C828.899 106.15 831.799 107.5 831.799 109.925C831.799 112.2 829.324 113.55 825.099 113.725V115.35H833.974V117.075H814.099V115.35H822.924V113.725C818.724 113.525 816.249 112.2 816.249 109.925C816.249 107.5 819.174 106.15 824.024 106.15ZM816.474 120.475V118.8H831.424V123.9H818.649V125.975H832.099V127.65H816.549V122.325H829.324V120.475H816.474ZM818.499 109.925C818.499 111.35 820.499 112.125 824.024 112.125C827.549 112.125 829.574 111.35 829.574 109.925C829.574 108.55 827.549 107.775 824.024 107.775C820.499 107.775 818.499 108.55 818.499 109.925ZM851.85 105.85H854.025V127.925H851.85V105.85ZM837.15 109.675V107.925H847.35V115.85H839.375V120.825C842.975 120.825 846.1 120.65 849.85 120.05L850.075 121.825C846.15 122.475 842.85 122.6 839.05 122.6H837.2V114.1H845.175V109.675H837.15Z" fill="black"/>
<g filter="url(#filter13_d_1365_85)">
<rect x="1" y="86" width="160" height="60" rx="20" fill="#AE7CFE"/>
</g>
<path d="M39.7382 124.425C43.3132 120.95 48.7382 116.575 48.7382 113.3C48.7382 110.975 47.2632 109.325 45.1382 109.325C43.6132 109.325 42.0382 110.475 41.3132 112.125L39.6632 111.425C40.6132 109.25 42.8882 107.725 45.1382 107.725C48.3132 107.725 50.5382 110.025 50.5382 113.3C50.5382 117.1 45.6882 121.175 42.1882 124.425H50.8382V126.025H39.9882L39.7382 124.425ZM64.8903 124.4C69.1403 124.4 72.1403 121.325 72.1403 116.975C72.1403 112.625 69.1403 109.55 64.8903 109.55H61.9903V124.4H64.8903ZM60.1903 126V107.95H64.8903C70.1653 107.95 73.8903 111.675 73.8903 116.975C73.8903 122.275 70.1653 126 64.8903 126H60.1903ZM81.8343 126.125C78.6093 126.125 76.3343 123.7 76.3343 120.3C76.3343 116.9 78.6093 114.475 81.8343 114.475C85.3843 114.475 86.4593 117.325 86.5593 117.625C87.2593 119.475 87.0093 121.125 87.0093 121.125H78.2093C78.5093 123.1 80.0093 124.5 81.8343 124.5C84.3093 124.5 85.1843 122.9 85.3343 122.675L86.7343 123.475C86.1593 124.75 84.5343 126.125 81.8343 126.125ZM78.2093 119.525L85.2343 119.5C85.0343 117.575 84.1343 116.1 81.8343 116.1C79.9843 116.1 78.5093 117.475 78.2093 119.525ZM95.619 124.55C97.819 124.55 99.344 122.8 99.344 120.3C99.344 117.85 97.819 116.075 95.619 116.075C93.619 116.075 91.919 118.025 91.919 120.3C91.919 122.625 93.619 124.55 95.619 124.55ZM90.094 131.35V114.475H91.894V116.55C92.719 115.175 94.344 114.475 95.644 114.475C98.869 114.475 101.144 116.9 101.144 120.3C101.144 123.75 98.869 126.175 95.644 126.175C94.319 126.175 92.719 125.35 91.894 124.075V131.35H90.094ZM104.893 126V116.075H102.818V114.475H104.893V110.5H106.693V114.475H109.418V116.075H106.693V126H104.893ZM119.867 119.55C119.867 117.525 118.742 116.1 117.117 116.1C115.367 116.1 113.867 117.9 113.867 120V126H112.067V108.45H113.867V116.325C114.517 115.275 115.717 114.475 117.117 114.475C119.767 114.475 121.667 116.575 121.667 119.45V126H119.867V119.55Z" fill="black"/>
<g filter="url(#filter14_d_1365_85)">
<rect x="366" y="313" width="160" height="60" rx="20" fill="#AE7CFE"/>
</g>
<path d="M401.493 334.3H403.368V337.85H409.493V334.3H411.343V336.55H416.493V332.95H418.368V346.2H416.493V342.6H411.343V344.55H401.493V334.3ZM403.368 343.05H409.493V339.35H403.368V343.05ZM403.918 350.725C403.918 348.175 406.693 346.65 411.193 346.65C415.693 346.65 418.468 348.175 418.468 350.725C418.468 353.3 415.693 354.775 411.193 354.775C406.693 354.775 403.918 353.3 403.918 350.725ZM405.793 350.725C405.793 352.325 407.843 353.3 411.193 353.3C414.543 353.3 416.593 352.325 416.593 350.725C416.593 349.1 414.543 348.125 411.193 348.125C407.843 348.125 405.793 349.1 405.793 350.725ZM411.343 341.05H416.493V338.075H411.343V341.05ZM438.219 332.95H440.094V349.6H438.219V347.275H433.744V345.9H438.219V332.95ZM422.119 343.1C426.169 343.1 431.594 343.05 436.269 342.475L436.394 343.825C434.444 344.15 432.394 344.35 430.394 344.45V348.8H428.519V344.55C426.319 344.65 424.219 344.675 422.394 344.675L422.119 343.1ZM423.869 337.65C423.869 335.35 426.044 333.85 429.244 333.85C432.444 333.85 434.619 335.35 434.619 337.65C434.619 339.975 432.444 341.45 429.244 341.45C426.044 341.45 423.869 339.975 423.869 337.65ZM425.269 354.325V347.975H427.144V352.775H440.644V354.325H425.269ZM425.644 337.65C425.644 339.1 427.144 340.025 429.244 340.025C431.369 340.025 432.819 339.1 432.819 337.65C432.819 336.2 431.369 335.25 429.244 335.25C427.144 335.25 425.644 336.2 425.644 337.65ZM450.506 335.525H455.431V332.85H457.281V335.525H462.181V337.075H457.281V337.5C457.281 340.175 459.481 342.575 462.656 343.5L461.781 344.975C459.281 344.2 457.331 342.55 456.381 340.45C455.456 342.775 453.406 344.55 450.831 345.4L449.931 343.925C453.131 342.95 455.431 340.425 455.431 337.5V337.075H450.506V335.525ZM452.081 353.3C455.581 352.725 458.781 350.775 459.081 348.425H452.956V346.875H467.231V348.425H461.081C461.381 350.725 464.606 352.725 468.056 353.325L467.331 354.75C464.206 354.2 461.331 352.6 460.081 350.425C458.856 352.625 455.956 354.175 452.806 354.75L452.081 353.3ZM464.956 345.675V332.95H466.831V338.4H470.106V339.95H466.831V345.675H464.956ZM487.756 332.95H489.631V354.825H487.756V332.95ZM472.006 349.2C477.906 346.375 480.881 342.1 481.281 336.85H472.981V335.3H483.181C483.181 341.6 480.281 347.15 473.006 350.7L472.006 349.2Z" fill="black"/>
<g filter="url(#filter15_d_1365_85)">
<rect x="366" y="398" width="160" height="60" rx="20" fill="#AE7CFE"/>
</g>
<path d="M403.812 417.95H405.612V439.825H403.812V428.475H400.612V438.675H398.862V418.45H400.612V426.9H403.812V417.95ZM388.212 434.125V420.625H390.062V432.475C392.212 432.45 394.562 432.3 397.237 431.775L397.462 433.425C394.462 434 391.962 434.125 389.587 434.125H388.212ZM429.749 417.95H431.624V425.625H434.899V427.2H431.624V435.05H429.749V417.95ZM414.624 430.975C416.374 430.975 418.399 430.95 420.549 430.875V429.175C418.024 428.95 416.399 427.725 416.399 425.85C416.399 423.775 418.399 422.5 421.449 422.5C424.499 422.5 426.524 423.775 426.524 425.85C426.524 427.725 424.924 428.95 422.399 429.175V430.8C424.449 430.675 426.524 430.5 428.424 430.2L428.574 431.55C423.924 432.4 418.674 432.5 414.874 432.5L414.624 430.975ZM415.174 421.55V420.125H420.549V417.85H422.399V420.125H427.749V421.55H415.174ZM417.899 439.325V433.925H419.774V437.775H432.399V439.325H417.899ZM418.174 425.85C418.174 427.1 419.449 427.875 421.449 427.875C423.474 427.875 424.749 427.1 424.749 425.85C424.749 424.625 423.474 423.85 421.449 423.85C419.449 423.85 418.174 424.625 418.174 425.85ZM437 420.2H448.775V421.775H443.875V424.725C443.875 428.2 446.425 432.1 449.55 433.575L448.475 435.075C446.025 433.85 443.95 431.25 442.975 428.325C441.975 431.5 439.775 434.325 437.35 435.6L436.25 434.125C439.3 432.6 442.05 428.45 442.05 424.725V421.775H437V420.2ZM451.475 439.825V417.95H453.35V426.85H456.975V428.425H453.35V439.825H451.475ZM465.412 419.65H476.212V420.8C476.212 422.2 476.212 424.375 475.637 427.275L473.787 427.075C474.337 424.45 474.387 422.575 474.387 421.2H465.412V419.65ZM464.062 429.325C465.462 429.325 467.087 429.325 468.762 429.275V424.5H470.612V429.225C473.037 429.125 475.537 428.95 477.787 428.625L477.912 430C473.387 430.775 468.137 430.875 464.287 430.875L464.062 429.325ZM467.437 439.325V432.925H469.287V437.775H481.862V439.325H467.437ZM479.287 434.425V417.95H481.162V425.125H484.362V426.675H481.162V434.425H479.287ZM502.063 417.925H503.938V439.85H502.063V417.925ZM487.263 421.55V420.025H497.338V427.75H489.188V432.975C492.813 432.975 496.038 432.825 499.938 432.2L500.138 433.725C496.138 434.4 492.838 434.525 489.113 434.525H487.313V426.2H495.463V421.55H487.263Z" fill="black"/>
<g filter="url(#filter16_d_1365_85)">
<rect x="561" y="313" width="160" height="60" rx="20" fill="#AE7CFE"/>
</g>
<path d="M598.299 344.275H607.249V341.6H600.949V333.475H602.799V336H613.599V333.475H615.474V341.6H609.099V344.275H618.049V345.825H598.299V344.275ZM600.499 349.575V348.05H615.599V354.825H613.749V349.575H600.499ZM602.799 340.1H613.599V337.475H602.799V340.1ZM620.824 335.2H633.049V336.775H627.849V339.725C627.849 343.45 630.599 347.2 633.749 348.575L632.674 350.075C630.174 348.9 627.949 346.35 626.924 343.325C625.924 346.55 623.724 349.35 621.224 350.6L620.149 349.125C623.224 347.625 625.974 343.5 625.974 339.725V336.775H620.824V335.2ZM636.099 354.825V332.95H637.974V354.825H636.099ZM653.625 338.675H658.075V332.95H659.95V345.975H658.075V340.225H653.625V338.675ZM642.1 344.275C645.3 343.1 647.625 340.15 647.625 336.975V336.125H642.675V334.575H654.35V336.125H649.5V336.975C649.5 339.825 651.7 342.55 654.85 343.65L653.875 345.15C651.425 344.25 649.525 342.4 648.6 340.125C647.675 342.725 645.625 344.775 643.05 345.775L642.1 344.275ZM645.5 350.75C645.5 348.2 648.25 346.675 652.775 346.675C657.275 346.675 660.025 348.2 660.025 350.75C660.025 353.325 657.275 354.8 652.775 354.8C648.25 354.8 645.5 353.325 645.5 350.75ZM647.375 350.75C647.375 352.35 649.425 353.325 652.775 353.325C656.1 353.325 658.175 352.35 658.175 350.75C658.175 349.125 656.1 348.15 652.775 348.15C649.425 348.15 647.375 349.125 647.375 350.75ZM663.851 350.425H672.801V345.65H666.226V334.5H668.076V338.45H679.426V334.5H681.276V345.65H674.651V350.425H683.676V352H663.851V350.425ZM668.076 344.125H679.426V340H668.076V344.125Z" fill="black"/>
<g filter="url(#filter17_d_1365_85)">
<rect x="561" y="398" width="160" height="60" rx="20" fill="#AE7CFE"/>
</g>
<path d="M625.199 417.925H627.074V439.85H625.199V417.925ZM610.024 427.25C610.024 422.6 612.324 419.65 615.574 419.65C618.799 419.65 621.099 422.6 621.099 427.25C621.099 431.9 618.799 434.875 615.574 434.875C612.324 434.875 610.024 431.9 610.024 427.25ZM611.849 427.25C611.849 430.825 613.374 433.2 615.574 433.2C617.749 433.2 619.299 430.825 619.299 427.25C619.299 423.675 617.749 421.325 615.574 421.325C613.374 421.325 611.849 423.675 611.849 427.25ZM647.7 417.95H649.5V434.55H647.7V417.95ZM632.1 430.375V419.7H633.85V423.425H638.75V419.7H640.525V424.325H643.55V418.375H645.35V433.925H643.55V425.85H640.525V430.375H632.1ZM633.85 428.85H638.75V424.925H633.85V428.85ZM635.275 439.325V432.3H637.15V437.775H650.15V439.325H635.275ZM655.5 419.85H670.25V421.375H657.4V424.725H669.775V426.25H657.4V429.775H670.475V431.325H655.5V419.85ZM652.925 436.95V435.4H672.75V436.95H652.925Z" fill="black"/>
<g filter="url(#filter18_d_1365_85)">
<rect x="951" y="312" width="160" height="60" rx="20" fill="#AE7CFE"/>
</g>
<path d="M990.493 331.95H992.368V343.3H990.493V331.95ZM974.668 341.575C977.893 340.425 980.243 337.5 980.243 334.25V332.6H982.118V334.25C982.118 337.35 984.493 340.1 987.693 341.175L986.768 342.65C984.218 341.75 982.193 339.875 981.218 337.475C980.268 340.05 978.218 342.075 975.593 343.075L974.668 341.575ZM978.293 345.925V344.425H992.368V349.6H980.168V352.05H993.143V353.575H978.343V348.2H990.518V345.925H978.293ZM1005.27 339.75H1007.14V342.9H1016.09V344.425H996.343V342.9H1005.27V339.75ZM997.468 339.3C1001.24 338.925 1004.92 337 1005.02 334.5H998.168V333H1014.32V334.5H1007.44C1007.54 337 1011.22 338.925 1014.99 339.3L1014.32 340.8C1010.79 340.35 1007.44 338.775 1006.24 336.375C1005.04 338.8 1001.69 340.35 998.143 340.8L997.468 339.3ZM998.743 350.025C998.743 347.625 1001.52 346.275 1006.22 346.275C1010.89 346.275 1013.69 347.625 1013.69 350.025C1013.69 352.45 1010.89 353.775 1006.22 353.775C1001.52 353.775 998.743 352.45 998.743 350.025ZM1000.62 350.025C1000.62 351.5 1002.72 352.325 1006.22 352.325C1009.72 352.325 1011.79 351.5 1011.79 350.025C1011.79 348.575 1009.72 347.75 1006.22 347.75C1002.72 347.75 1000.62 348.575 1000.62 350.025ZM1040.71 331.95H1042.51V353.825H1040.71V331.95ZM1023.98 347.725C1028.71 344.9 1031.08 340.9 1031.43 336.3H1024.88V334.75H1033.31C1033.31 336.9 1032.96 339 1032.21 340.95H1036.16V332.525H1037.93V352.675H1036.16V342.475H1031.53C1030.21 345.025 1028.11 347.3 1025.08 349.1L1023.98 347.725ZM1051.58 333.875H1053.46V337.85C1053.46 341.85 1056.18 345.875 1059.33 347.35L1058.21 348.85C1055.73 347.625 1053.58 345 1052.56 341.85C1051.56 345.175 1049.38 347.975 1046.83 349.25L1045.68 347.7C1048.86 346.175 1051.58 342 1051.58 337.85V333.875ZM1061.76 353.85V331.925H1063.63V353.85H1061.76ZM1068.33 334H1080.06V335.55H1077.81V342.875C1078.93 342.8 1080.06 342.7 1081.11 342.575L1081.23 344C1076.88 344.65 1071.73 344.775 1067.98 344.775L1067.76 343.2C1068.63 343.2 1069.56 343.175 1070.56 343.175V335.55H1068.33V334ZM1071.06 353.325V346.525H1072.91V351.775H1085.63V353.325H1071.06ZM1072.38 343.125C1073.56 343.1 1074.78 343.05 1076.01 343V335.55H1072.38V343.125ZM1082.73 348.05V331.975H1084.61V338.65H1087.88V340.225H1084.61V348.05H1082.73Z" fill="black"/>
<g filter="url(#filter19_d_1365_85)">
<rect x="951" y="397" width="160" height="60" rx="20" fill="#AE7CFE"/>
</g>
<path d="M990.493 416.95H992.368V428.3H990.493V416.95ZM974.793 426.825C978.043 425.775 980.368 423.05 980.368 420.05V419.75H975.318V418.2H987.293V419.75H982.268V420.05C982.268 422.875 984.643 425.425 987.843 426.4L986.943 427.85C984.393 427.025 982.343 425.3 981.368 423.025C980.443 425.5 978.343 427.4 975.693 428.3L974.793 426.825ZM978.293 430.875V429.4H992.368V434.55H980.168V437.075H993.143V438.575H978.368V433.175H990.518V430.875H978.293ZM996.318 428.2H1016.14V429.725H1007.32V434.225H1005.42V429.725H996.318V428.2ZM998.868 438.35V432.075H1000.74V436.8H1013.94V438.35H998.868ZM998.893 425.625V418H1013.57V425.625H998.893ZM1000.72 424.1H1011.72V419.5H1000.72V424.1ZM1040.71 416.95H1042.51V438.825H1040.71V416.95ZM1023.98 432.725C1028.71 429.9 1031.08 425.9 1031.43 421.3H1024.88V419.75H1033.31C1033.31 421.9 1032.96 424 1032.21 425.95H1036.16V417.525H1037.93V437.675H1036.16V427.475H1031.53C1030.21 430.025 1028.11 432.3 1025.08 434.1L1023.98 432.725ZM1051.58 418.875H1053.46V422.85C1053.46 426.85 1056.18 430.875 1059.33 432.35L1058.21 433.85C1055.73 432.625 1053.58 430 1052.56 426.85C1051.56 430.175 1049.38 432.975 1046.83 434.25L1045.68 432.7C1048.86 431.175 1051.58 427 1051.58 422.85V418.875ZM1061.76 438.85V416.925H1063.63V438.85H1061.76ZM1068.33 419H1080.06V420.55H1077.81V427.875C1078.93 427.8 1080.06 427.7 1081.11 427.575L1081.23 429C1076.88 429.65 1071.73 429.775 1067.98 429.775L1067.76 428.2C1068.63 428.2 1069.56 428.175 1070.56 428.175V420.55H1068.33V419ZM1071.06 438.325V431.525H1072.91V436.775H1085.63V438.325H1071.06ZM1072.38 428.125C1073.56 428.1 1074.78 428.05 1076.01 428V420.55H1072.38V428.125ZM1082.73 433.05V416.975H1084.61V423.65H1087.88V425.225H1084.61V433.05H1082.73Z" fill="black"/>
<g filter="url(#filter20_d_1365_85)">
<rect x="951" y="482" width="160" height="60" rx="20" fill="#AE7CFE"/>
</g>
<path d="M974.918 504.2H986.693V505.775H981.793V508.725C981.793 512.2 984.343 516.1 987.468 517.575L986.393 519.075C983.943 517.85 981.868 515.25 980.893 512.325C979.893 515.5 977.693 518.325 975.268 519.6L974.168 518.125C977.218 516.6 979.968 512.45 979.968 508.725V505.775H974.918V504.2ZM989.393 523.825V501.95H991.268V510.85H994.893V512.425H991.268V523.825H989.393ZM996.343 514.425H1016.17V516H1010.92V523.825H1009.02V516H1003.42V523.825H1001.49V516H996.343V514.425ZM998.568 507.6C998.568 504.675 1001.64 502.875 1006.19 502.875C1010.77 502.875 1013.82 504.675 1013.82 507.6C1013.82 510.525 1010.77 512.35 1006.19 512.35C1001.64 512.35 998.568 510.525 998.568 507.6ZM1000.49 507.6C1000.49 509.575 1002.79 510.825 1006.19 510.825C1009.59 510.825 1011.92 509.575 1011.92 507.6C1011.92 505.65 1009.59 504.375 1006.19 504.375C1002.79 504.375 1000.49 505.65 1000.49 507.6ZM1040.71 501.95H1042.51V523.825H1040.71V501.95ZM1023.98 517.725C1028.71 514.9 1031.08 510.9 1031.43 506.3H1024.88V504.75H1033.31C1033.31 506.9 1032.96 509 1032.21 510.95H1036.16V502.525H1037.93V522.675H1036.16V512.475H1031.53C1030.21 515.025 1028.11 517.3 1025.08 519.1L1023.98 517.725ZM1051.58 503.875H1053.46V507.85C1053.46 511.85 1056.18 515.875 1059.33 517.35L1058.21 518.85C1055.73 517.625 1053.58 515 1052.56 511.85C1051.56 515.175 1049.38 517.975 1046.83 519.25L1045.68 517.7C1048.86 516.175 1051.58 512 1051.58 507.85V503.875ZM1061.76 523.85V501.925H1063.63V523.85H1061.76ZM1068.33 504H1080.06V505.55H1077.81V512.875C1078.93 512.8 1080.06 512.7 1081.11 512.575L1081.23 514C1076.88 514.65 1071.73 514.775 1067.98 514.775L1067.76 513.2C1068.63 513.2 1069.56 513.175 1070.56 513.175V505.55H1068.33V504ZM1071.06 523.325V516.525H1072.91V521.775H1085.63V523.325H1071.06ZM1072.38 513.125C1073.56 513.1 1074.78 513.05 1076.01 513V505.55H1072.38V513.125ZM1082.73 518.05V501.975H1084.61V508.65H1087.88V510.225H1084.61V518.05H1082.73Z" fill="black"/>
<g filter="url(#filter21_d_1365_85)">
<rect x="1146" y="312" width="160" height="60" rx="20" fill="#AE7CFE"/>
</g>
<path d="M1183.81 331.95H1185.61V353.825H1183.81V342.475H1180.61V352.675H1178.86V332.45H1180.61V340.9H1183.81V331.95ZM1168.21 348.125V334.625H1170.06V346.475C1172.21 346.45 1174.56 346.3 1177.24 345.775L1177.46 347.425C1174.46 348 1171.96 348.125 1169.59 348.125H1168.21ZM1206.35 337.675H1210.8V331.95H1212.67V344.975H1210.8V339.225H1206.35V337.675ZM1194.82 343.275C1198.02 342.1 1200.35 339.15 1200.35 335.975V335.125H1195.4V333.575H1207.07V335.125H1202.22V335.975C1202.22 338.825 1204.42 341.55 1207.57 342.65L1206.6 344.15C1204.15 343.25 1202.25 341.4 1201.32 339.125C1200.4 341.725 1198.35 343.775 1195.77 344.775L1194.82 343.275ZM1198.22 349.75C1198.22 347.2 1200.97 345.675 1205.5 345.675C1210 345.675 1212.75 347.2 1212.75 349.75C1212.75 352.325 1210 353.8 1205.5 353.8C1200.97 353.8 1198.22 352.325 1198.22 349.75ZM1200.1 349.75C1200.1 351.35 1202.15 352.325 1205.5 352.325C1208.82 352.325 1210.9 351.35 1210.9 349.75C1210.9 348.125 1208.82 347.15 1205.5 347.15C1202.15 347.15 1200.1 348.125 1200.1 349.75ZM1216.57 349.425H1225.52V344.65H1218.95V333.5H1220.8V337.45H1232.15V333.5H1234V344.65H1227.37V349.425H1236.4V351H1216.57V349.425ZM1220.8 343.125H1232.15V339H1220.8V343.125ZM1245.41 333.65H1256.21V334.8C1256.21 336.2 1256.21 338.375 1255.64 341.275L1253.79 341.075C1254.34 338.45 1254.39 336.575 1254.39 335.2H1245.41V333.65ZM1244.06 343.325C1245.46 343.325 1247.09 343.325 1248.76 343.275V338.5H1250.61V343.225C1253.04 343.125 1255.54 342.95 1257.79 342.625L1257.91 344C1253.39 344.775 1248.14 344.875 1244.29 344.875L1244.06 343.325ZM1247.44 353.325V346.925H1249.29V351.775H1261.86V353.325H1247.44ZM1259.29 348.425V331.95H1261.16V339.125H1264.36V340.675H1261.16V348.425H1259.29ZM1282.06 331.925H1283.94V353.85H1282.06V331.925ZM1267.26 335.55V334.025H1277.34V341.75H1269.19V346.975C1272.81 346.975 1276.04 346.825 1279.94 346.2L1280.14 347.725C1276.14 348.4 1272.84 348.525 1269.11 348.525H1267.31V340.2H1275.46V335.55H1267.26Z" fill="black"/>
<g filter="url(#filter22_d_1365_85)">
<rect x="1146" y="397" width="160" height="60" rx="20" fill="#AE7CFE"/>
</g>
<path d="M1171.21 416.95H1173.09V424.625H1176.36V426.2H1173.09V434.05H1171.21V416.95ZM1156.09 429.975C1157.84 429.975 1159.86 429.95 1162.01 429.875V428.175C1159.49 427.95 1157.86 426.725 1157.86 424.85C1157.86 422.775 1159.86 421.5 1162.91 421.5C1165.96 421.5 1167.99 422.775 1167.99 424.85C1167.99 426.725 1166.39 427.95 1163.86 428.175V429.8C1165.91 429.675 1167.99 429.5 1169.89 429.2L1170.04 430.55C1165.39 431.4 1160.14 431.5 1156.34 431.5L1156.09 429.975ZM1156.64 420.55V419.125H1162.01V416.85H1163.86V419.125H1169.21V420.55H1156.64ZM1159.36 438.325V432.925H1161.24V436.775H1173.86V438.325H1159.36ZM1159.64 424.85C1159.64 426.1 1160.91 426.875 1162.91 426.875C1164.94 426.875 1166.21 426.1 1166.21 424.85C1166.21 423.625 1164.94 422.85 1162.91 422.85C1160.91 422.85 1159.64 423.625 1159.64 424.85ZM1178.46 419.2H1190.24V420.775H1185.34V423.725C1185.34 427.2 1187.89 431.1 1191.01 432.575L1189.94 434.075C1187.49 432.85 1185.41 430.25 1184.44 427.325C1183.44 430.5 1181.24 433.325 1178.81 434.6L1177.71 433.125C1180.76 431.6 1183.51 427.45 1183.51 423.725V420.775H1178.46V419.2ZM1192.94 438.825V416.95H1194.81V425.85H1198.44V427.425H1194.81V438.825H1192.94ZM1217.27 422.675H1221.72V416.95H1223.6V429.975H1221.72V424.225H1217.27V422.675ZM1205.75 428.275C1208.95 427.1 1211.27 424.15 1211.27 420.975V420.125H1206.32V418.575H1218V420.125H1213.15V420.975C1213.15 423.825 1215.35 426.55 1218.5 427.65L1217.52 429.15C1215.07 428.25 1213.17 426.4 1212.25 424.125C1211.32 426.725 1209.27 428.775 1206.7 429.775L1205.75 428.275ZM1209.15 434.75C1209.15 432.2 1211.9 430.675 1216.42 430.675C1220.92 430.675 1223.67 432.2 1223.67 434.75C1223.67 437.325 1220.92 438.8 1216.42 438.8C1211.9 438.8 1209.15 437.325 1209.15 434.75ZM1211.02 434.75C1211.02 436.35 1213.07 437.325 1216.42 437.325C1219.75 437.325 1221.82 436.35 1221.82 434.75C1221.82 433.125 1219.75 432.15 1216.42 432.15C1213.07 432.15 1211.02 433.125 1211.02 434.75ZM1227.5 434.425H1236.45V429.65H1229.88V418.5H1231.73V422.45H1243.08V418.5H1244.93V429.65H1238.3V434.425H1247.33V436H1227.5V434.425ZM1231.73 428.125H1243.08V424H1231.73V428.125ZM1256.34 418.65H1267.14V419.8C1267.14 421.2 1267.14 423.375 1266.56 426.275L1264.71 426.075C1265.26 423.45 1265.31 421.575 1265.31 420.2H1256.34V418.65ZM1254.99 428.325C1256.39 428.325 1258.01 428.325 1259.69 428.275V423.5H1261.54V428.225C1263.96 428.125 1266.46 427.95 1268.71 427.625L1268.84 429C1264.31 429.775 1259.06 429.875 1255.21 429.875L1254.99 428.325ZM1258.36 438.325V431.925H1260.21V436.775H1272.79V438.325H1258.36ZM1270.21 433.425V416.95H1272.09V424.125H1275.29V425.675H1272.09V433.425H1270.21ZM1292.99 416.925H1294.86V438.85H1292.99V416.925ZM1278.19 420.55V419.025H1288.26V426.75H1280.11V431.975C1283.74 431.975 1286.96 431.825 1290.86 431.2L1291.06 432.725C1287.06 433.4 1283.76 433.525 1280.04 433.525H1278.24V425.2H1286.39V420.55H1278.19Z" fill="black"/>
<g filter="url(#filter23_d_1365_85)">
<rect x="1146" y="482" width="160" height="60" rx="20" fill="#AE7CFE"/>
</g>
<path d="M1199.32 501.95H1201.2V523.825H1199.32V501.95ZM1183.57 518.2C1189.47 515.375 1192.45 511.1 1192.85 505.85H1184.55V504.3H1194.75C1194.75 510.6 1191.85 516.15 1184.57 519.7L1183.57 518.2ZM1221.17 501.95H1223.05V523.825H1221.17V501.95ZM1205.42 518.2C1211.32 515.375 1214.3 511.1 1214.7 505.85H1206.4V504.3H1216.6C1216.6 510.6 1213.7 516.15 1206.42 519.7L1205.42 518.2ZM1228.23 503.65H1239.03V504.8C1239.03 506.2 1239.03 508.375 1238.45 511.275L1236.6 511.075C1237.15 508.45 1237.2 506.575 1237.2 505.2H1228.23V503.65ZM1226.88 513.325C1228.28 513.325 1229.9 513.325 1231.58 513.275V508.5H1233.43V513.225C1235.85 513.125 1238.35 512.95 1240.6 512.625L1240.73 514C1236.2 514.775 1230.95 514.875 1227.1 514.875L1226.88 513.325ZM1230.25 523.325V516.925H1232.1V521.775H1244.68V523.325H1230.25ZM1242.1 518.425V501.95H1243.98V509.125H1247.18V510.675H1243.98V518.425H1242.1ZM1264.88 501.925H1266.75V523.85H1264.88V501.925ZM1250.08 505.55V504.025H1260.15V511.75H1252V516.975C1255.63 516.975 1258.85 516.825 1262.75 516.2L1262.95 517.725C1258.95 518.4 1255.65 518.525 1251.93 518.525H1250.13V510.2H1258.28V505.55H1250.08Z" fill="black"/>
<g filter="url(#filter24_d_1365_85)">
<rect x="1146" y="567" width="160" height="60" rx="20" fill="#AE7CFE"/>
</g>
<path d="M1216.37 591H1221.22V586.95H1223.1V598.25H1221.22V592.55H1216.37V591ZM1205.15 596.8C1208.4 595.7 1210.65 592.95 1210.65 589.725V587.625H1212.47V589.725C1212.47 592.6 1214.77 595.275 1217.87 596.325L1216.9 597.775C1214.5 596.9 1212.57 595.15 1211.6 592.95C1210.7 595.425 1208.7 597.35 1206.15 598.275L1205.15 596.8ZM1209.07 600.9V599.4H1223.1V604.575H1210.95V607.025H1223.92V608.525H1209.1V603.15H1221.25V600.9H1209.07ZM1238.62 592.675H1243.08V586.95H1244.95V599.975H1243.08V594.225H1238.62V592.675ZM1227.1 598.275C1230.3 597.1 1232.63 594.15 1232.63 590.975V590.125H1227.68V588.575H1239.35V590.125H1234.5V590.975C1234.5 593.825 1236.7 596.55 1239.85 597.65L1238.88 599.15C1236.43 598.25 1234.53 596.4 1233.6 594.125C1232.68 596.725 1230.63 598.775 1228.05 599.775L1227.1 598.275ZM1230.5 604.75C1230.5 602.2 1233.25 600.675 1237.78 600.675C1242.28 600.675 1245.03 602.2 1245.03 604.75C1245.03 607.325 1242.28 608.8 1237.78 608.8C1233.25 608.8 1230.5 607.325 1230.5 604.75ZM1232.38 604.75C1232.38 606.35 1234.43 607.325 1237.78 607.325C1241.1 607.325 1243.18 606.35 1243.18 604.75C1243.18 603.125 1241.1 602.15 1237.78 602.15C1234.43 602.15 1232.38 603.125 1232.38 604.75Z" fill="black"/>
<g filter="url(#filter25_d_1365_85)">
<rect x="1" y="166" width="160" height="60" rx="20" fill="#EBDFFF"/>
</g>
<path d="M48.5685 196.675C50.1685 197.65 51.0435 199.4 51.0435 200.9C51.0435 203.975 48.6435 206.15 45.2185 206.15C41.8185 206.15 39.4185 203.975 39.4185 200.9H41.2185C41.2185 203.05 42.8685 204.55 45.2185 204.55C47.5935 204.55 49.2435 203.05 49.2435 200.925C49.2435 198.9 47.5935 197.475 45.2685 197.475H43.9435V195.825H45.2685C47.4435 195.825 48.9935 194.525 48.9935 192.675C48.9935 190.75 47.4935 189.4 45.3685 189.4C43.2185 189.4 41.7185 190.775 41.7185 192.725H39.9185C39.9185 189.825 42.1685 187.8 45.3685 187.8C48.5435 187.8 50.7935 189.825 50.7935 192.725C50.7935 194.075 50.0185 195.7 48.5685 196.675ZM65.1101 204.4C69.3601 204.4 72.3601 201.325 72.3601 196.975C72.3601 192.625 69.3601 189.55 65.1101 189.55H62.2101V204.4H65.1101ZM60.4101 206V187.95H65.1101C70.3851 187.95 74.1101 191.675 74.1101 196.975C74.1101 202.275 70.3851 206 65.1101 206H60.4101ZM82.054 206.125C78.829 206.125 76.554 203.7 76.554 200.3C76.554 196.9 78.829 194.475 82.054 194.475C85.604 194.475 86.679 197.325 86.779 197.625C87.479 199.475 87.229 201.125 87.229 201.125H78.429C78.729 203.1 80.229 204.5 82.054 204.5C84.529 204.5 85.404 202.9 85.554 202.675L86.954 203.475C86.379 204.75 84.754 206.125 82.054 206.125ZM78.429 199.525L85.454 199.5C85.254 197.575 84.354 196.1 82.054 196.1C80.204 196.1 78.729 197.475 78.429 199.525ZM95.8388 204.55C98.0388 204.55 99.5638 202.8 99.5638 200.3C99.5638 197.85 98.0388 196.075 95.8388 196.075C93.8388 196.075 92.1388 198.025 92.1388 200.3C92.1388 202.625 93.8388 204.55 95.8388 204.55ZM90.3138 211.35V194.475H92.1138V196.55C92.9388 195.175 94.5638 194.475 95.8638 194.475C99.0888 194.475 101.364 196.9 101.364 200.3C101.364 203.75 99.0888 206.175 95.8638 206.175C94.5388 206.175 92.9388 205.35 92.1138 204.075V211.35H90.3138ZM105.113 206V196.075H103.038V194.475H105.113V190.5H106.913V194.475H109.638V196.075H106.913V206H105.113ZM120.086 199.55C120.086 197.525 118.961 196.1 117.336 196.1C115.586 196.1 114.086 197.9 114.086 200V206H112.286V188.45H114.086V196.325C114.736 195.275 115.936 194.475 117.336 194.475C119.986 194.475 121.886 196.575 121.886 199.45V206H120.086V199.55Z" fill="black"/>
<g filter="url(#filter26_d_1365_85)">
<rect x="366" y="483" width="160" height="60" rx="20" fill="#EBDFFF"/>
</g>
<path d="M389.493 514.275H398.443V511.6H392.143V503.475H393.993V506H404.793V503.475H406.668V511.6H400.293V514.275H409.243V515.825H389.493V514.275ZM391.693 519.575V518.05H406.793V524.825H404.943V519.575H391.693ZM393.993 510.1H404.793V507.475H393.993V510.1ZM411.343 513.825H416.268V510.7C414.518 510 413.543 508.9 413.543 507.425C413.543 504.85 416.493 503.375 421.218 503.375C425.943 503.375 428.893 504.85 428.893 507.425C428.893 508.9 427.918 510 426.193 510.675V513.825H431.093V515.325H411.343V513.825ZM413.743 520.9C413.743 518.45 416.543 517.05 421.218 517.05C425.893 517.05 428.693 518.45 428.693 520.9C428.693 523.4 425.893 524.8 421.218 524.8C416.543 524.8 413.743 523.4 413.743 520.9ZM415.468 507.425C415.468 509.025 417.693 510 421.218 510C424.743 510 426.968 509.025 426.968 507.425C426.968 505.8 424.743 504.825 421.218 504.825C417.693 504.825 415.468 505.8 415.468 507.425ZM415.618 520.9C415.618 522.45 417.718 523.325 421.218 523.325C424.693 523.325 426.793 522.45 426.793 520.9C426.793 519.4 424.693 518.5 421.218 518.5C417.718 518.5 415.618 519.4 415.618 520.9ZM418.118 513.825H424.343V511.2C423.418 511.35 422.368 511.45 421.218 511.45C420.068 511.45 419.043 511.375 418.118 511.2V513.825ZM433.194 513.225H452.944V514.75H443.994V517.175C448.119 517.35 450.544 518.675 450.544 520.975C450.544 523.4 447.744 524.775 443.069 524.775C438.394 524.775 435.594 523.4 435.594 520.975C435.594 518.675 438.019 517.35 442.119 517.175V514.75H433.194V513.225ZM434.319 510.35C438.094 509.95 441.769 508.025 441.869 505.5H435.019V504H451.169V505.5H444.294C444.394 508.025 448.044 509.95 451.844 510.35L451.144 511.85C447.619 511.4 444.269 509.825 443.094 507.375C441.894 509.825 438.544 511.4 435.019 511.85L434.319 510.35ZM437.469 520.975C437.469 522.475 439.569 523.325 443.069 523.325C446.544 523.325 448.644 522.475 448.644 520.975C448.644 519.45 446.544 518.6 443.069 518.6C439.569 518.6 437.469 519.45 437.469 520.975ZM471.044 502.975H472.944V518.95H471.044V502.975ZM455.544 509.875C455.544 506.7 457.994 504.5 461.219 504.5C464.469 504.5 466.894 506.7 466.894 509.875C466.894 513 464.469 515.225 461.219 515.225C457.994 515.225 455.544 513 455.544 509.875ZM457.369 509.875C457.369 512.025 459.044 513.575 461.219 513.575C463.419 513.575 465.094 512.025 465.094 509.875C465.094 507.675 463.419 506.125 461.219 506.125C459.044 506.125 457.369 507.675 457.369 509.875ZM458.969 524.325V517.325H460.819V522.775H473.619V524.325H458.969ZM497.732 502.95H499.607V506.35H502.832V507.925H499.607V511H502.832V512.575H499.607V515.95H497.732V502.95ZM483.107 509.425C483.107 506.375 485.482 504.275 488.782 504.275C492.057 504.275 494.457 506.375 494.457 509.425C494.457 512.475 492.057 514.575 488.782 514.575C485.482 514.575 483.107 512.475 483.107 509.425ZM484.932 509.425C484.932 511.55 486.557 513 488.782 513C491.007 513 492.657 511.55 492.657 509.425C492.657 507.325 491.007 505.875 488.782 505.875C486.557 505.875 484.932 507.325 484.932 509.425ZM485.457 518.525V517H499.607V524.825H497.732V518.525H485.457Z" fill="black"/>
<g filter="url(#filter27_d_1365_85)">
<rect x="366" y="568" width="160" height="60" rx="20" fill="#EBDFFF"/>
</g>
<path d="M401.493 589.3H403.368V592.85H409.493V589.3H411.343V591.55H416.493V587.95H418.368V601.2H416.493V597.6H411.343V599.55H401.493V589.3ZM403.368 598.05H409.493V594.35H403.368V598.05ZM403.918 605.725C403.918 603.175 406.693 601.65 411.193 601.65C415.693 601.65 418.468 603.175 418.468 605.725C418.468 608.3 415.693 609.775 411.193 609.775C406.693 609.775 403.918 608.3 403.918 605.725ZM405.793 605.725C405.793 607.325 407.843 608.3 411.193 608.3C414.543 608.3 416.593 607.325 416.593 605.725C416.593 604.1 414.543 603.125 411.193 603.125C407.843 603.125 405.793 604.1 405.793 605.725ZM411.343 596.05H416.493V593.075H411.343V596.05ZM438.219 587.95H440.094V604.6H438.219V602.275H433.744V600.9H438.219V587.95ZM422.119 598.1C426.169 598.1 431.594 598.05 436.269 597.475L436.394 598.825C434.444 599.15 432.394 599.35 430.394 599.45V603.8H428.519V599.55C426.319 599.65 424.219 599.675 422.394 599.675L422.119 598.1ZM423.869 592.65C423.869 590.35 426.044 588.85 429.244 588.85C432.444 588.85 434.619 590.35 434.619 592.65C434.619 594.975 432.444 596.45 429.244 596.45C426.044 596.45 423.869 594.975 423.869 592.65ZM425.269 609.325V602.975H427.144V607.775H440.644V609.325H425.269ZM425.644 592.65C425.644 594.1 427.144 595.025 429.244 595.025C431.369 595.025 432.819 594.1 432.819 592.65C432.819 591.2 431.369 590.25 429.244 590.25C427.144 590.25 425.644 591.2 425.644 592.65ZM449.881 605.375H458.781V600.025H460.631V605.375H469.706V606.95H449.881V605.375ZM450.706 598.675C454.431 598 458.731 594.8 458.731 591.125V589.4H460.681V591.125C460.681 594.8 465.031 598 468.731 598.675L467.906 600.25C464.631 599.525 461.131 597.275 459.706 594.125C458.281 597.25 454.781 599.525 451.506 600.25L450.706 598.675ZM477.456 589H479.331V591.125C479.331 594.325 481.681 597.175 484.856 598.325L483.931 599.8C481.431 598.85 479.406 596.95 478.456 594.5C477.506 597.125 475.481 599.2 472.906 600.2L471.931 598.7C475.181 597.5 477.456 594.45 477.456 591.125V589ZM475.031 603.8V602.25H489.606V609.825H487.731V603.8H475.031ZM487.731 601.125V587.95H489.606V601.125H487.731Z" fill="black"/>
<g filter="url(#filter28_d_1365_85)">
<rect x="366" y="653" width="160" height="60" rx="20" fill="#EBDFFF"/>
</g>
<path d="M406.543 673.775C409.793 673.775 412.193 675.75 412.193 678.6C412.193 681.45 409.793 683.4 406.543 683.4C403.293 683.4 400.918 681.45 400.918 678.6C400.918 675.75 403.293 673.775 406.543 673.775ZM402.743 678.6C402.743 680.525 404.368 681.875 406.543 681.875C408.743 681.875 410.368 680.525 410.368 678.6C410.368 676.675 408.743 675.3 406.543 675.3C404.368 675.3 402.743 676.675 402.743 678.6ZM404.218 686.775V685.275H418.318V690.5H406.093V693.025H419.068V694.525H404.293V689.1H416.443V686.775H404.218ZM416.418 684.175V672.95H418.318V684.175H416.418ZM433.894 678.675H438.344V672.95H440.219V685.975H438.344V680.225H433.894V678.675ZM422.369 684.275C425.569 683.1 427.894 680.15 427.894 676.975V676.125H422.944V674.575H434.619V676.125H429.769V676.975C429.769 679.825 431.969 682.55 435.119 683.65L434.144 685.15C431.694 684.25 429.794 682.4 428.869 680.125C427.944 682.725 425.894 684.775 423.319 685.775L422.369 684.275ZM425.769 690.75C425.769 688.2 428.519 686.675 433.044 686.675C437.544 686.675 440.294 688.2 440.294 690.75C440.294 693.325 437.544 694.8 433.044 694.8C428.519 694.8 425.769 693.325 425.769 690.75ZM427.644 690.75C427.644 692.35 429.694 693.325 433.044 693.325C436.369 693.325 438.444 692.35 438.444 690.75C438.444 689.125 436.369 688.15 433.044 688.15C429.694 688.15 427.644 689.125 427.644 690.75ZM451.106 674.65H461.906V675.8C461.906 677.2 461.906 679.375 461.331 682.275L459.481 682.075C460.031 679.45 460.081 677.575 460.081 676.2H451.106V674.65ZM449.756 684.325C451.156 684.325 452.781 684.325 454.456 684.275V679.5H456.306V684.225C458.731 684.125 461.231 683.95 463.481 683.625L463.606 685C459.081 685.775 453.831 685.875 449.981 685.875L449.756 684.325ZM453.131 694.325V687.925H454.981V692.775H467.556V694.325H453.131ZM464.981 689.425V672.95H466.856V680.125H470.056V681.675H466.856V689.425H464.981ZM487.756 672.925H489.631V694.85H487.756V672.925ZM472.956 676.55V675.025H483.031V682.75H474.881V687.975C478.506 687.975 481.731 687.825 485.631 687.2L485.831 688.725C481.831 689.4 478.531 689.525 474.806 689.525H473.006V681.2H481.156V676.55H472.956Z" fill="black"/>
<g filter="url(#filter29_d_1365_85)">
<rect x="561" y="483" width="160" height="60" rx="20" fill="#EBDFFF"/>
</g>
<path d="M570.17 504.233H581.187V505.659H576.564V506.855C576.564 509.615 578.749 512.053 581.693 513.042L580.796 514.399C578.473 513.594 576.61 511.915 575.736 509.753C574.862 512.076 572.999 513.916 570.584 514.79L569.687 513.433C572.677 512.352 574.816 509.753 574.816 506.855V505.659H570.17V504.233ZM572.999 522.219V515.917H574.701V520.793H586.5V522.219H572.999ZM584.131 517.32V502.577H585.879V517.32H584.131ZM604.785 502.554H606.441V515.296H604.785V509.5H602.094V514.56H600.461V502.968H602.094V508.074H604.785V502.554ZM589.375 506.395V504.992H593.699V502.715H595.378V504.992H599.633V506.395H589.375ZM590.272 510.88C590.272 508.81 591.997 507.453 594.527 507.453C597.057 507.453 598.805 508.81 598.805 510.88C598.805 512.996 597.057 514.33 594.527 514.33C591.997 514.33 590.272 512.996 590.272 510.88ZM591.79 510.88C591.79 512.191 592.917 513.042 594.527 513.042C596.137 513.042 597.287 512.191 597.287 510.88C597.287 509.592 596.137 508.764 594.527 508.764C592.917 508.764 591.79 509.592 591.79 510.88ZM593.17 519.16C593.17 516.929 595.654 515.664 599.84 515.664C604.049 515.664 606.556 516.929 606.556 519.16C606.556 521.368 604.049 522.633 599.84 522.633C595.654 522.633 593.17 521.368 593.17 519.16ZM594.849 519.16C594.849 520.517 596.735 521.299 599.84 521.299C602.968 521.299 604.831 520.517 604.831 519.16C604.831 517.757 602.968 516.998 599.84 516.998C596.735 516.998 594.849 517.757 594.849 519.16ZM609.616 512.007H627.786V513.41H619.552V515.641C623.347 515.802 625.578 517.021 625.578 519.137C625.578 521.368 623.002 522.633 618.701 522.633C614.4 522.633 611.824 521.368 611.824 519.137C611.824 517.021 614.055 515.802 617.827 515.641V513.41H609.616V512.007ZM610.651 509.362C614.124 508.994 617.505 507.223 617.597 504.9H611.295V503.52H626.153V504.9H619.828C619.92 507.223 623.278 508.994 626.774 509.362L626.13 510.742C622.887 510.328 619.805 508.879 618.724 506.625C617.62 508.879 614.538 510.328 611.295 510.742L610.651 509.362ZM613.549 519.137C613.549 520.517 615.481 521.299 618.701 521.299C621.898 521.299 623.83 520.517 623.83 519.137C623.83 517.734 621.898 516.952 618.701 516.952C615.481 516.952 613.549 517.734 613.549 519.137ZM644.438 502.577H646.186V517.274H644.438V502.577ZM630.178 508.925C630.178 506.004 632.432 503.98 635.399 503.98C638.389 503.98 640.62 506.004 640.62 508.925C640.62 511.8 638.389 513.847 635.399 513.847C632.432 513.847 630.178 511.8 630.178 508.925ZM631.857 508.925C631.857 510.903 633.398 512.329 635.399 512.329C637.423 512.329 638.964 510.903 638.964 508.925C638.964 506.901 637.423 505.475 635.399 505.475C633.398 505.475 631.857 506.901 631.857 508.925ZM633.329 522.219V515.779H635.031V520.793H646.807V522.219H633.329ZM669.819 502.531H671.544V522.702H669.819V502.531ZM655.858 511.11C655.858 506.832 657.974 504.118 660.964 504.118C663.931 504.118 666.047 506.832 666.047 511.11C666.047 515.388 663.931 518.125 660.964 518.125C657.974 518.125 655.858 515.388 655.858 511.11ZM657.537 511.11C657.537 514.399 658.94 516.584 660.964 516.584C662.965 516.584 664.391 514.399 664.391 511.11C664.391 507.821 662.965 505.659 660.964 505.659C658.94 505.659 657.537 507.821 657.537 511.11ZM690.519 502.554H692.175V517.826H690.519V502.554ZM676.167 513.985V504.164H677.777V507.591H682.285V504.164H683.918V508.419H686.701V502.945H688.357V517.251H686.701V509.822H683.918V513.985H676.167ZM677.777 512.582H682.285V508.971H677.777V512.582ZM679.088 522.219V515.756H680.813V520.793H692.773V522.219H679.088ZM697.696 504.302H711.266V505.705H699.444V508.787H710.829V510.19H699.444V513.433H711.473V514.859H697.696V504.302ZM695.327 520.034V518.608H713.566V520.034H695.327Z" fill="black"/>
<g filter="url(#filter30_d_1365_85)">
<rect x="561" y="568" width="160" height="60" rx="20" fill="#EBDFFF"/>
</g>
<path d="M582.992 595.75H584.867V598.9H593.817V600.425H574.067V598.9H582.992V595.75ZM575.192 595.3C578.967 594.925 582.642 593 582.742 590.5H575.892V589H592.042V590.5H585.167C585.267 593 588.942 594.925 592.717 595.3L592.042 596.8C588.517 596.35 585.167 594.775 583.967 592.375C582.767 594.8 579.417 596.35 575.867 596.8L575.192 595.3ZM576.467 606.025C576.467 603.625 579.242 602.275 583.942 602.275C588.617 602.275 591.417 603.625 591.417 606.025C591.417 608.45 588.617 609.775 583.942 609.775C579.242 609.775 576.467 608.45 576.467 606.025ZM578.342 606.025C578.342 607.5 580.442 608.325 583.942 608.325C587.442 608.325 589.517 607.5 589.517 606.025C589.517 604.575 587.442 603.75 583.942 603.75C580.442 603.75 578.342 604.575 578.342 606.025ZM595.918 605.525H601.518V601.3H598.418V594.6H611.418V591.1H598.368V589.575H613.268V596.1H600.268V599.75H613.768V601.3H610.343V605.525H615.743V607.075H595.918V605.525ZM603.368 605.525H608.518V601.3H603.368V605.525ZM619.844 589.375H630.194V590.925H621.694V595.15H630.344V596.675H625.969V599.775C628.019 599.675 630.044 599.55 631.944 599.325L632.069 600.7C627.419 601.375 622.219 601.5 618.144 601.5L617.844 599.95C619.769 599.95 621.894 599.925 624.094 599.85V596.675H619.844V589.375ZM621.544 609.325V603.225H623.419V607.775H636.344V609.325H621.544ZM633.744 604.3V587.975H635.619V604.3H633.744ZM661.356 587.925H663.231V609.85H661.356V587.925ZM646.181 597.25C646.181 592.6 648.481 589.65 651.731 589.65C654.956 589.65 657.256 592.6 657.256 597.25C657.256 601.9 654.956 604.875 651.731 604.875C648.481 604.875 646.181 601.9 646.181 597.25ZM648.006 597.25C648.006 600.825 649.531 603.2 651.731 603.2C653.906 603.2 655.456 600.825 655.456 597.25C655.456 593.675 653.906 591.325 651.731 591.325C649.531 591.325 648.006 593.675 648.006 597.25ZM683.856 587.95H685.656V604.55H683.856V587.95ZM668.256 600.375V589.7H670.006V593.425H674.906V589.7H676.681V594.325H679.706V588.375H681.506V603.925H679.706V595.85H676.681V600.375H668.256ZM670.006 598.85H674.906V594.925H670.006V598.85ZM671.431 609.325V602.3H673.306V607.775H686.306V609.325H671.431ZM691.657 589.85H706.407V591.375H693.557V594.725H705.932V596.25H693.557V599.775H706.632V601.325H691.657V589.85ZM689.082 606.95V605.4H708.907V606.95H689.082Z" fill="black"/>
<line x1="836" y1="146" x2="836" y2="227" stroke="#767676" stroke-width="2"/>
<line x1="916" y1="116" x2="1015" y2="116" stroke="#767676" stroke-width="2"/>
<line x1="447" y1="288" x2="447" y2="313" stroke="#767676" stroke-width="2"/>
<line x1="642" y1="288" x2="642" y2="313" stroke="#767676" stroke-width="2"/>
<line x1="1032" y1="288" x2="1032" y2="313" stroke="#767676" stroke-width="2"/>
<line x1="1227" y1="288" x2="1227" y2="313" stroke="#767676" stroke-width="2"/>
<line x1="1227" y1="372" x2="1227" y2="397" stroke="#767676" stroke-width="2"/>
<line x1="1227" y1="456" x2="1227" y2="481" stroke="#767676" stroke-width="2"/>
<line x1="1227" y1="540" x2="1227" y2="565" stroke="#767676" stroke-width="2"/>
<line x1="1032" y1="372" x2="1032" y2="397" stroke="#767676" stroke-width="2"/>
<line x1="1032" y1="456" x2="1032" y2="481" stroke="#767676" stroke-width="2"/>
<line x1="642" y1="373" x2="642" y2="398" stroke="#767676" stroke-width="2"/>
<line x1="642" y1="458" x2="642" y2="483" stroke="#767676" stroke-width="2"/>
<line x1="642" y1="543" x2="642" y2="568" stroke="#767676" stroke-width="2"/>
<line x1="447" y1="373" x2="447" y2="398" stroke="#767676" stroke-width="2"/>
<line x1="447" y1="458" x2="447" y2="483" stroke="#767676" stroke-width="2"/>
<line x1="447" y1="543" x2="447" y2="568" stroke="#767676" stroke-width="2"/>
<line x1="447" y1="628" x2="447" y2="653" stroke="#767676" stroke-width="2"/>
<line x1="721" y1="257" x2="756" y2="257" stroke="#767676" stroke-width="2"/>
<line x1="916" y1="257" x2="951" y2="257" stroke="#767676" stroke-width="2"/>
<line x1="980" y1="30" x2="1015" y2="30" stroke="#767676" stroke-width="2"/>
<line x1="979" y1="29" x2="979" y2="116" stroke="#767676" stroke-width="2"/>
<line x1="1111" y1="257" x2="1146" y2="257" stroke="#767676" stroke-width="2"/>
<line x1="526" y1="257" x2="561" y2="257" stroke="#767676" stroke-width="2"/>
<defs>
<filter id="filter0_d_1365_85" x="755" y="85" width="164" height="64" filterUnits="userSpaceOnUse" color-interpolation-filters="sRGB">
<feFlood flood-opacity="0" result="BackgroundImageFix"/>
<feColorMatrix in="SourceAlpha" type="matrix" values="0 0 0 0 0 0 0 0 0 0 0 0 0 0 0 0 0 0 127 0" result="hardAlpha"/>
<feMorphology radius="1" operator="dilate" in="SourceAlpha" result="effect1_dropShadow_1365_85"/>
<feOffset dx="1" dy="1"/>
<feGaussianBlur stdDeviation="0.5"/>
<feComposite in2="hardAlpha" operator="out"/>
<feColorMatrix type="matrix" values="0 0 0 0 0 0 0 0 0 0 0 0 0 0 0 0 0 0 0.25 0"/>
<feBlend mode="normal" in2="BackgroundImageFix" result="effect1_dropShadow_1365_85"/>
<feBlend mode="normal" in="SourceGraphic" in2="effect1_dropShadow_1365_85" result="shape"/>
</filter>
<filter id="filter1_d_1365_85" x="0" y="5" width="164" height="64" filterUnits="userSpaceOnUse" color-interpolation-filters="sRGB">
<feFlood flood-opacity="0" result="BackgroundImageFix"/>
<feColorMatrix in="SourceAlpha" type="matrix" values="0 0 0 0 0 0 0 0 0 0 0 0 0 0 0 0 0 0 127 0" result="hardAlpha"/>
<feMorphology radius="1" operator="dilate" in="SourceAlpha" result="effect1_dropShadow_1365_85"/>
<feOffset dx="1" dy="1"/>
<feGaussianBlur stdDeviation="0.5"/>
<feComposite in2="hardAlpha" operator="out"/>
<feColorMatrix type="matrix" values="0 0 0 0 0 0 0 0 0 0 0 0 0 0 0 0 0 0 0.25 0"/>
<feBlend mode="normal" in2="BackgroundImageFix" result="effect1_dropShadow_1365_85"/>
<feBlend mode="normal" in="SourceGraphic" in2="effect1_dropShadow_1365_85" result="shape"/>
</filter>
<filter id="filter2_d_1365_85" x="1513" y="5" width="164" height="64" filterUnits="userSpaceOnUse" color-interpolation-filters="sRGB">
<feFlood flood-opacity="0" result="BackgroundImageFix"/>
<feColorMatrix in="SourceAlpha" type="matrix" values="0 0 0 0 0 0 0 0 0 0 0 0 0 0 0 0 0 0 127 0" result="hardAlpha"/>
<feMorphology radius="1" operator="dilate" in="SourceAlpha" result="effect1_dropShadow_1365_85"/>
<feOffset dx="1" dy="1"/>
<feGaussianBlur stdDeviation="0.5"/>
<feComposite in2="hardAlpha" operator="out"/>
<feColorMatrix type="matrix" values="0 0 0 0 0 0 0 0 0 0 0 0 0 0 0 0 0 0 0.25 0"/>
<feBlend mode="normal" in2="BackgroundImageFix" result="effect1_dropShadow_1365_85"/>
<feBlend mode="normal" in="SourceGraphic" in2="effect1_dropShadow_1365_85" result="shape"/>
</filter>
<filter id="filter3_d_1365_85" x="1015" y="0" width="164" height="64" filterUnits="userSpaceOnUse" color-interpolation-filters="sRGB">
<feFlood flood-opacity="0" result="BackgroundImageFix"/>
<feColorMatrix in="SourceAlpha" type="matrix" values="0 0 0 0 0 0 0 0 0 0 0 0 0 0 0 0 0 0 127 0" result="hardAlpha"/>
<feMorphology radius="1" operator="dilate" in="SourceAlpha" result="effect1_dropShadow_1365_85"/>
<feOffset dx="1" dy="1"/>
<feGaussianBlur stdDeviation="0.5"/>
<feComposite in2="hardAlpha" operator="out"/>
<feColorMatrix type="matrix" values="0 0 0 0 0 0 0 0 0 0 0 0 0 0 0 0 0 0 0.25 0"/>
<feBlend mode="normal" in2="BackgroundImageFix" result="effect1_dropShadow_1365_85"/>
<feBlend mode="normal" in="SourceGraphic" in2="effect1_dropShadow_1365_85" result="shape"/>
</filter>
<filter id="filter4_d_1365_85" x="1513" y="90" width="164" height="64" filterUnits="userSpaceOnUse" color-interpolation-filters="sRGB">
<feFlood flood-opacity="0" result="BackgroundImageFix"/>
<feColorMatrix in="SourceAlpha" type="matrix" values="0 0 0 0 0 0 0 0 0 0 0 0 0 0 0 0 0 0 127 0" result="hardAlpha"/>
<feMorphology radius="1" operator="dilate" in="SourceAlpha" result="effect1_dropShadow_1365_85"/>
<feOffset dx="1" dy="1"/>
<feGaussianBlur stdDeviation="0.5"/>
<feComposite in2="hardAlpha" operator="out"/>
<feColorMatrix type="matrix" values="0 0 0 0 0 0 0 0 0 0 0 0 0 0 0 0 0 0 0.25 0"/>
<feBlend mode="normal" in2="BackgroundImageFix" result="effect1_dropShadow_1365_85"/>
<feBlend mode="normal" in="SourceGraphic" in2="effect1_dropShadow_1365_85" result="shape"/>
</filter>
<filter id="filter5_d_1365_85" x="1513" y="175" width="164" height="64" filterUnits="userSpaceOnUse" color-interpolation-filters="sRGB">
<feFlood flood-opacity="0" result="BackgroundImageFix"/>
<feColorMatrix in="SourceAlpha" type="matrix" values="0 0 0 0 0 0 0 0 0 0 0 0 0 0 0 0 0 0 127 0" result="hardAlpha"/>
<feMorphology radius="1" operator="dilate" in="SourceAlpha" result="effect1_dropShadow_1365_85"/>
<feOffset dx="1" dy="1"/>
<feGaussianBlur stdDeviation="0.5"/>
<feComposite in2="hardAlpha" operator="out"/>
<feColorMatrix type="matrix" values="0 0 0 0 0 0 0 0 0 0 0 0 0 0 0 0 0 0 0.25 0"/>
<feBlend mode="normal" in2="BackgroundImageFix" result="effect1_dropShadow_1365_85"/>
<feBlend mode="normal" in="SourceGraphic" in2="effect1_dropShadow_1365_85" result="shape"/>
</filter>
<filter id="filter6_d_1365_85" x="1333" y="5" width="164" height="64" filterUnits="userSpaceOnUse" color-interpolation-filters="sRGB">
<feFlood flood-opacity="0" result="BackgroundImageFix"/>
<feColorMatrix in="SourceAlpha" type="matrix" values="0 0 0 0 0 0 0 0 0 0 0 0 0 0 0 0 0 0 127 0" result="hardAlpha"/>
<feMorphology radius="1" operator="dilate" in="SourceAlpha" result="effect1_dropShadow_1365_85"/>
<feOffset dx="1" dy="1"/>
<feGaussianBlur stdDeviation="0.5"/>
<feComposite in2="hardAlpha" operator="out"/>
<feColorMatrix type="matrix" values="0 0 0 0 0 0 0 0 0 0 0 0 0 0 0 0 0 0 0.25 0"/>
<feBlend mode="normal" in2="BackgroundImageFix" result="effect1_dropShadow_1365_85"/>
<feBlend mode="normal" in="SourceGraphic" in2="effect1_dropShadow_1365_85" result="shape"/>
</filter>
<filter id="filter7_d_1365_85" x="1015" y="85" width="164" height="64" filterUnits="userSpaceOnUse" color-interpolation-filters="sRGB">
<feFlood flood-opacity="0" result="BackgroundImageFix"/>
<feColorMatrix in="SourceAlpha" type="matrix" values="0 0 0 0 0 0 0 0 0 0 0 0 0 0 0 0 0 0 127 0" result="hardAlpha"/>
<feMorphology radius="1" operator="dilate" in="SourceAlpha" result="effect1_dropShadow_1365_85"/>
<feOffset dx="1" dy="1"/>
<feGaussianBlur stdDeviation="0.5"/>
<feComposite in2="hardAlpha" operator="out"/>
<feColorMatrix type="matrix" values="0 0 0 0 0 0 0 0 0 0 0 0 0 0 0 0 0 0 0.25 0"/>
<feBlend mode="normal" in2="BackgroundImageFix" result="effect1_dropShadow_1365_85"/>
<feBlend mode="normal" in="SourceGraphic" in2="effect1_dropShadow_1365_85" result="shape"/>
</filter>
<filter id="filter8_d_1365_85" x="755" y="226" width="164" height="64" filterUnits="userSpaceOnUse" color-interpolation-filters="sRGB">
<feFlood flood-opacity="0" result="BackgroundImageFix"/>
<feColorMatrix in="SourceAlpha" type="matrix" values="0 0 0 0 0 0 0 0 0 0 0 0 0 0 0 0 0 0 127 0" result="hardAlpha"/>
<feMorphology radius="1" operator="dilate" in="SourceAlpha" result="effect1_dropShadow_1365_85"/>
<feOffset dx="1" dy="1"/>
<feGaussianBlur stdDeviation="0.5"/>
<feComposite in2="hardAlpha" operator="out"/>
<feColorMatrix type="matrix" values="0 0 0 0 0 0 0 0 0 0 0 0 0 0 0 0 0 0 0.25 0"/>
<feBlend mode="normal" in2="BackgroundImageFix" result="effect1_dropShadow_1365_85"/>
<feBlend mode="normal" in="SourceGraphic" in2="effect1_dropShadow_1365_85" result="shape"/>
</filter>
<filter id="filter9_d_1365_85" x="950" y="226" width="164" height="64" filterUnits="userSpaceOnUse" color-interpolation-filters="sRGB">
<feFlood flood-opacity="0" result="BackgroundImageFix"/>
<feColorMatrix in="SourceAlpha" type="matrix" values="0 0 0 0 0 0 0 0 0 0 0 0 0 0 0 0 0 0 127 0" result="hardAlpha"/>
<feMorphology radius="1" operator="dilate" in="SourceAlpha" result="effect1_dropShadow_1365_85"/>
<feOffset dx="1" dy="1"/>
<feGaussianBlur stdDeviation="0.5"/>
<feComposite in2="hardAlpha" operator="out"/>
<feColorMatrix type="matrix" values="0 0 0 0 0 0 0 0 0 0 0 0 0 0 0 0 0 0 0.25 0"/>
<feBlend mode="normal" in2="BackgroundImageFix" result="effect1_dropShadow_1365_85"/>
<feBlend mode="normal" in="SourceGraphic" in2="effect1_dropShadow_1365_85" result="shape"/>
</filter>
<filter id="filter10_d_1365_85" x="560" y="227" width="164" height="64" filterUnits="userSpaceOnUse" color-interpolation-filters="sRGB">
<feFlood flood-opacity="0" result="BackgroundImageFix"/>
<feColorMatrix in="SourceAlpha" type="matrix" values="0 0 0 0 0 0 0 0 0 0 0 0 0 0 0 0 0 0 127 0" result="hardAlpha"/>
<feMorphology radius="1" operator="dilate" in="SourceAlpha" result="effect1_dropShadow_1365_85"/>
<feOffset dx="1" dy="1"/>
<feGaussianBlur stdDeviation="0.5"/>
<feComposite in2="hardAlpha" operator="out"/>
<feColorMatrix type="matrix" values="0 0 0 0 0 0 0 0 0 0 0 0 0 0 0 0 0 0 0.25 0"/>
<feBlend mode="normal" in2="BackgroundImageFix" result="effect1_dropShadow_1365_85"/>
<feBlend mode="normal" in="SourceGraphic" in2="effect1_dropShadow_1365_85" result="shape"/>
</filter>
<filter id="filter11_d_1365_85" x="1145" y="226" width="164" height="64" filterUnits="userSpaceOnUse" color-interpolation-filters="sRGB">
<feFlood flood-opacity="0" result="BackgroundImageFix"/>
<feColorMatrix in="SourceAlpha" type="matrix" values="0 0 0 0 0 0 0 0 0 0 0 0 0 0 0 0 0 0 127 0" result="hardAlpha"/>
<feMorphology radius="1" operator="dilate" in="SourceAlpha" result="effect1_dropShadow_1365_85"/>
<feOffset dx="1" dy="1"/>
<feGaussianBlur stdDeviation="0.5"/>
<feComposite in2="hardAlpha" operator="out"/>
<feColorMatrix type="matrix" values="0 0 0 0 0 0 0 0 0 0 0 0 0 0 0 0 0 0 0.25 0"/>
<feBlend mode="normal" in2="BackgroundImageFix" result="effect1_dropShadow_1365_85"/>
<feBlend mode="normal" in="SourceGraphic" in2="effect1_dropShadow_1365_85" result="shape"/>
</filter>
<filter id="filter12_d_1365_85" x="365" y="227" width="164" height="64" filterUnits="userSpaceOnUse" color-interpolation-filters="sRGB">
<feFlood flood-opacity="0" result="BackgroundImageFix"/>
<feColorMatrix in="SourceAlpha" type="matrix" values="0 0 0 0 0 0 0 0 0 0 0 0 0 0 0 0 0 0 127 0" result="hardAlpha"/>
<feMorphology radius="1" operator="dilate" in="SourceAlpha" result="effect1_dropShadow_1365_85"/>
<feOffset dx="1" dy="1"/>
<feGaussianBlur stdDeviation="0.5"/>
<feComposite in2="hardAlpha" operator="out"/>
<feColorMatrix type="matrix" values="0 0 0 0 0 0 0 0 0 0 0 0 0 0 0 0 0 0 0.25 0"/>
<feBlend mode="normal" in2="BackgroundImageFix" result="effect1_dropShadow_1365_85"/>
<feBlend mode="normal" in="SourceGraphic" in2="effect1_dropShadow_1365_85" result="shape"/>
</filter>
<filter id="filter13_d_1365_85" x="0" y="85" width="164" height="64" filterUnits="userSpaceOnUse" color-interpolation-filters="sRGB">
<feFlood flood-opacity="0" result="BackgroundImageFix"/>
<feColorMatrix in="SourceAlpha" type="matrix" values="0 0 0 0 0 0 0 0 0 0 0 0 0 0 0 0 0 0 127 0" result="hardAlpha"/>
<feMorphology radius="1" operator="dilate" in="SourceAlpha" result="effect1_dropShadow_1365_85"/>
<feOffset dx="1" dy="1"/>
<feGaussianBlur stdDeviation="0.5"/>
<feComposite in2="hardAlpha" operator="out"/>
<feColorMatrix type="matrix" values="0 0 0 0 0 0 0 0 0 0 0 0 0 0 0 0 0 0 0.25 0"/>
<feBlend mode="normal" in2="BackgroundImageFix" result="effect1_dropShadow_1365_85"/>
<feBlend mode="normal" in="SourceGraphic" in2="effect1_dropShadow_1365_85" result="shape"/>
</filter>
<filter id="filter14_d_1365_85" x="365" y="312" width="164" height="64" filterUnits="userSpaceOnUse" color-interpolation-filters="sRGB">
<feFlood flood-opacity="0" result="BackgroundImageFix"/>
<feColorMatrix in="SourceAlpha" type="matrix" values="0 0 0 0 0 0 0 0 0 0 0 0 0 0 0 0 0 0 127 0" result="hardAlpha"/>
<feMorphology radius="1" operator="dilate" in="SourceAlpha" result="effect1_dropShadow_1365_85"/>
<feOffset dx="1" dy="1"/>
<feGaussianBlur stdDeviation="0.5"/>
<feComposite in2="hardAlpha" operator="out"/>
<feColorMatrix type="matrix" values="0 0 0 0 0 0 0 0 0 0 0 0 0 0 0 0 0 0 0.25 0"/>
<feBlend mode="normal" in2="BackgroundImageFix" result="effect1_dropShadow_1365_85"/>
<feBlend mode="normal" in="SourceGraphic" in2="effect1_dropShadow_1365_85" result="shape"/>
</filter>
<filter id="filter15_d_1365_85" x="365" y="397" width="164" height="64" filterUnits="userSpaceOnUse" color-interpolation-filters="sRGB">
<feFlood flood-opacity="0" result="BackgroundImageFix"/>
<feColorMatrix in="SourceAlpha" type="matrix" values="0 0 0 0 0 0 0 0 0 0 0 0 0 0 0 0 0 0 127 0" result="hardAlpha"/>
<feMorphology radius="1" operator="dilate" in="SourceAlpha" result="effect1_dropShadow_1365_85"/>
<feOffset dx="1" dy="1"/>
<feGaussianBlur stdDeviation="0.5"/>
<feComposite in2="hardAlpha" operator="out"/>
<feColorMatrix type="matrix" values="0 0 0 0 0 0 0 0 0 0 0 0 0 0 0 0 0 0 0.25 0"/>
<feBlend mode="normal" in2="BackgroundImageFix" result="effect1_dropShadow_1365_85"/>
<feBlend mode="normal" in="SourceGraphic" in2="effect1_dropShadow_1365_85" result="shape"/>
</filter>
<filter id="filter16_d_1365_85" x="560" y="312" width="164" height="64" filterUnits="userSpaceOnUse" color-interpolation-filters="sRGB">
<feFlood flood-opacity="0" result="BackgroundImageFix"/>
<feColorMatrix in="SourceAlpha" type="matrix" values="0 0 0 0 0 0 0 0 0 0 0 0 0 0 0 0 0 0 127 0" result="hardAlpha"/>
<feMorphology radius="1" operator="dilate" in="SourceAlpha" result="effect1_dropShadow_1365_85"/>
<feOffset dx="1" dy="1"/>
<feGaussianBlur stdDeviation="0.5"/>
<feComposite in2="hardAlpha" operator="out"/>
<feColorMatrix type="matrix" values="0 0 0 0 0 0 0 0 0 0 0 0 0 0 0 0 0 0 0.25 0"/>
<feBlend mode="normal" in2="BackgroundImageFix" result="effect1_dropShadow_1365_85"/>
<feBlend mode="normal" in="SourceGraphic" in2="effect1_dropShadow_1365_85" result="shape"/>
</filter>
<filter id="filter17_d_1365_85" x="560" y="397" width="164" height="64" filterUnits="userSpaceOnUse" color-interpolation-filters="sRGB">
<feFlood flood-opacity="0" result="BackgroundImageFix"/>
<feColorMatrix in="SourceAlpha" type="matrix" values="0 0 0 0 0 0 0 0 0 0 0 0 0 0 0 0 0 0 127 0" result="hardAlpha"/>
<feMorphology radius="1" operator="dilate" in="SourceAlpha" result="effect1_dropShadow_1365_85"/>
<feOffset dx="1" dy="1"/>
<feGaussianBlur stdDeviation="0.5"/>
<feComposite in2="hardAlpha" operator="out"/>
<feColorMatrix type="matrix" values="0 0 0 0 0 0 0 0 0 0 0 0 0 0 0 0 0 0 0.25 0"/>
<feBlend mode="normal" in2="BackgroundImageFix" result="effect1_dropShadow_1365_85"/>
<feBlend mode="normal" in="SourceGraphic" in2="effect1_dropShadow_1365_85" result="shape"/>
</filter>
<filter id="filter18_d_1365_85" x="950" y="311" width="164" height="64" filterUnits="userSpaceOnUse" color-interpolation-filters="sRGB">
<feFlood flood-opacity="0" result="BackgroundImageFix"/>
<feColorMatrix in="SourceAlpha" type="matrix" values="0 0 0 0 0 0 0 0 0 0 0 0 0 0 0 0 0 0 127 0" result="hardAlpha"/>
<feMorphology radius="1" operator="dilate" in="SourceAlpha" result="effect1_dropShadow_1365_85"/>
<feOffset dx="1" dy="1"/>
<feGaussianBlur stdDeviation="0.5"/>
<feComposite in2="hardAlpha" operator="out"/>
<feColorMatrix type="matrix" values="0 0 0 0 0 0 0 0 0 0 0 0 0 0 0 0 0 0 0.25 0"/>
<feBlend mode="normal" in2="BackgroundImageFix" result="effect1_dropShadow_1365_85"/>
<feBlend mode="normal" in="SourceGraphic" in2="effect1_dropShadow_1365_85" result="shape"/>
</filter>
<filter id="filter19_d_1365_85" x="950" y="396" width="164" height="64" filterUnits="userSpaceOnUse" color-interpolation-filters="sRGB">
<feFlood flood-opacity="0" result="BackgroundImageFix"/>
<feColorMatrix in="SourceAlpha" type="matrix" values="0 0 0 0 0 0 0 0 0 0 0 0 0 0 0 0 0 0 127 0" result="hardAlpha"/>
<feMorphology radius="1" operator="dilate" in="SourceAlpha" result="effect1_dropShadow_1365_85"/>
<feOffset dx="1" dy="1"/>
<feGaussianBlur stdDeviation="0.5"/>
<feComposite in2="hardAlpha" operator="out"/>
<feColorMatrix type="matrix" values="0 0 0 0 0 0 0 0 0 0 0 0 0 0 0 0 0 0 0.25 0"/>
<feBlend mode="normal" in2="BackgroundImageFix" result="effect1_dropShadow_1365_85"/>
<feBlend mode="normal" in="SourceGraphic" in2="effect1_dropShadow_1365_85" result="shape"/>
</filter>
<filter id="filter20_d_1365_85" x="950" y="481" width="164" height="64" filterUnits="userSpaceOnUse" color-interpolation-filters="sRGB">
<feFlood flood-opacity="0" result="BackgroundImageFix"/>
<feColorMatrix in="SourceAlpha" type="matrix" values="0 0 0 0 0 0 0 0 0 0 0 0 0 0 0 0 0 0 127 0" result="hardAlpha"/>
<feMorphology radius="1" operator="dilate" in="SourceAlpha" result="effect1_dropShadow_1365_85"/>
<feOffset dx="1" dy="1"/>
<feGaussianBlur stdDeviation="0.5"/>
<feComposite in2="hardAlpha" operator="out"/>
<feColorMatrix type="matrix" values="0 0 0 0 0 0 0 0 0 0 0 0 0 0 0 0 0 0 0.25 0"/>
<feBlend mode="normal" in2="BackgroundImageFix" result="effect1_dropShadow_1365_85"/>
<feBlend mode="normal" in="SourceGraphic" in2="effect1_dropShadow_1365_85" result="shape"/>
</filter>
<filter id="filter21_d_1365_85" x="1145" y="311" width="164" height="64" filterUnits="userSpaceOnUse" color-interpolation-filters="sRGB">
<feFlood flood-opacity="0" result="BackgroundImageFix"/>
<feColorMatrix in="SourceAlpha" type="matrix" values="0 0 0 0 0 0 0 0 0 0 0 0 0 0 0 0 0 0 127 0" result="hardAlpha"/>
<feMorphology radius="1" operator="dilate" in="SourceAlpha" result="effect1_dropShadow_1365_85"/>
<feOffset dx="1" dy="1"/>
<feGaussianBlur stdDeviation="0.5"/>
<feComposite in2="hardAlpha" operator="out"/>
<feColorMatrix type="matrix" values="0 0 0 0 0 0 0 0 0 0 0 0 0 0 0 0 0 0 0.25 0"/>
<feBlend mode="normal" in2="BackgroundImageFix" result="effect1_dropShadow_1365_85"/>
<feBlend mode="normal" in="SourceGraphic" in2="effect1_dropShadow_1365_85" result="shape"/>
</filter>
<filter id="filter22_d_1365_85" x="1145" y="396" width="164" height="64" filterUnits="userSpaceOnUse" color-interpolation-filters="sRGB">
<feFlood flood-opacity="0" result="BackgroundImageFix"/>
<feColorMatrix in="SourceAlpha" type="matrix" values="0 0 0 0 0 0 0 0 0 0 0 0 0 0 0 0 0 0 127 0" result="hardAlpha"/>
<feMorphology radius="1" operator="dilate" in="SourceAlpha" result="effect1_dropShadow_1365_85"/>
<feOffset dx="1" dy="1"/>
<feGaussianBlur stdDeviation="0.5"/>
<feComposite in2="hardAlpha" operator="out"/>
<feColorMatrix type="matrix" values="0 0 0 0 0 0 0 0 0 0 0 0 0 0 0 0 0 0 0.25 0"/>
<feBlend mode="normal" in2="BackgroundImageFix" result="effect1_dropShadow_1365_85"/>
<feBlend mode="normal" in="SourceGraphic" in2="effect1_dropShadow_1365_85" result="shape"/>
</filter>
<filter id="filter23_d_1365_85" x="1145" y="481" width="164" height="64" filterUnits="userSpaceOnUse" color-interpolation-filters="sRGB">
<feFlood flood-opacity="0" result="BackgroundImageFix"/>
<feColorMatrix in="SourceAlpha" type="matrix" values="0 0 0 0 0 0 0 0 0 0 0 0 0 0 0 0 0 0 127 0" result="hardAlpha"/>
<feMorphology radius="1" operator="dilate" in="SourceAlpha" result="effect1_dropShadow_1365_85"/>
<feOffset dx="1" dy="1"/>
<feGaussianBlur stdDeviation="0.5"/>
<feComposite in2="hardAlpha" operator="out"/>
<feColorMatrix type="matrix" values="0 0 0 0 0 0 0 0 0 0 0 0 0 0 0 0 0 0 0.25 0"/>
<feBlend mode="normal" in2="BackgroundImageFix" result="effect1_dropShadow_1365_85"/>
<feBlend mode="normal" in="SourceGraphic" in2="effect1_dropShadow_1365_85" result="shape"/>
</filter>
<filter id="filter24_d_1365_85" x="1145" y="566" width="164" height="64" filterUnits="userSpaceOnUse" color-interpolation-filters="sRGB">
<feFlood flood-opacity="0" result="BackgroundImageFix"/>
<feColorMatrix in="SourceAlpha" type="matrix" values="0 0 0 0 0 0 0 0 0 0 0 0 0 0 0 0 0 0 127 0" result="hardAlpha"/>
<feMorphology radius="1" operator="dilate" in="SourceAlpha" result="effect1_dropShadow_1365_85"/>
<feOffset dx="1" dy="1"/>
<feGaussianBlur stdDeviation="0.5"/>
<feComposite in2="hardAlpha" operator="out"/>
<feColorMatrix type="matrix" values="0 0 0 0 0 0 0 0 0 0 0 0 0 0 0 0 0 0 0.25 0"/>
<feBlend mode="normal" in2="BackgroundImageFix" result="effect1_dropShadow_1365_85"/>
<feBlend mode="normal" in="SourceGraphic" in2="effect1_dropShadow_1365_85" result="shape"/>
</filter>
<filter id="filter25_d_1365_85" x="0" y="165" width="164" height="64" filterUnits="userSpaceOnUse" color-interpolation-filters="sRGB">
<feFlood flood-opacity="0" result="BackgroundImageFix"/>
<feColorMatrix in="SourceAlpha" type="matrix" values="0 0 0 0 0 0 0 0 0 0 0 0 0 0 0 0 0 0 127 0" result="hardAlpha"/>
<feMorphology radius="1" operator="dilate" in="SourceAlpha" result="effect1_dropShadow_1365_85"/>
<feOffset dx="1" dy="1"/>
<feGaussianBlur stdDeviation="0.5"/>
<feComposite in2="hardAlpha" operator="out"/>
<feColorMatrix type="matrix" values="0 0 0 0 0 0 0 0 0 0 0 0 0 0 0 0 0 0 0.25 0"/>
<feBlend mode="normal" in2="BackgroundImageFix" result="effect1_dropShadow_1365_85"/>
<feBlend mode="normal" in="SourceGraphic" in2="effect1_dropShadow_1365_85" result="shape"/>
</filter>
<filter id="filter26_d_1365_85" x="365" y="482" width="164" height="64" filterUnits="userSpaceOnUse" color-interpolation-filters="sRGB">
<feFlood flood-opacity="0" result="BackgroundImageFix"/>
<feColorMatrix in="SourceAlpha" type="matrix" values="0 0 0 0 0 0 0 0 0 0 0 0 0 0 0 0 0 0 127 0" result="hardAlpha"/>
<feMorphology radius="1" operator="dilate" in="SourceAlpha" result="effect1_dropShadow_1365_85"/>
<feOffset dx="1" dy="1"/>
<feGaussianBlur stdDeviation="0.5"/>
<feComposite in2="hardAlpha" operator="out"/>
<feColorMatrix type="matrix" values="0 0 0 0 0 0 0 0 0 0 0 0 0 0 0 0 0 0 0.25 0"/>
<feBlend mode="normal" in2="BackgroundImageFix" result="effect1_dropShadow_1365_85"/>
<feBlend mode="normal" in="SourceGraphic" in2="effect1_dropShadow_1365_85" result="shape"/>
</filter>
<filter id="filter27_d_1365_85" x="365" y="567" width="164" height="64" filterUnits="userSpaceOnUse" color-interpolation-filters="sRGB">
<feFlood flood-opacity="0" result="BackgroundImageFix"/>
<feColorMatrix in="SourceAlpha" type="matrix" values="0 0 0 0 0 0 0 0 0 0 0 0 0 0 0 0 0 0 127 0" result="hardAlpha"/>
<feMorphology radius="1" operator="dilate" in="SourceAlpha" result="effect1_dropShadow_1365_85"/>
<feOffset dx="1" dy="1"/>
<feGaussianBlur stdDeviation="0.5"/>
<feComposite in2="hardAlpha" operator="out"/>
<feColorMatrix type="matrix" values="0 0 0 0 0 0 0 0 0 0 0 0 0 0 0 0 0 0 0.25 0"/>
<feBlend mode="normal" in2="BackgroundImageFix" result="effect1_dropShadow_1365_85"/>
<feBlend mode="normal" in="SourceGraphic" in2="effect1_dropShadow_1365_85" result="shape"/>
</filter>
<filter id="filter28_d_1365_85" x="365" y="652" width="164" height="64" filterUnits="userSpaceOnUse" color-interpolation-filters="sRGB">
<feFlood flood-opacity="0" result="BackgroundImageFix"/>
<feColorMatrix in="SourceAlpha" type="matrix" values="0 0 0 0 0 0 0 0 0 0 0 0 0 0 0 0 0 0 127 0" result="hardAlpha"/>
<feMorphology radius="1" operator="dilate" in="SourceAlpha" result="effect1_dropShadow_1365_85"/>
<feOffset dx="1" dy="1"/>
<feGaussianBlur stdDeviation="0.5"/>
<feComposite in2="hardAlpha" operator="out"/>
<feColorMatrix type="matrix" values="0 0 0 0 0 0 0 0 0 0 0 0 0 0 0 0 0 0 0.25 0"/>
<feBlend mode="normal" in2="BackgroundImageFix" result="effect1_dropShadow_1365_85"/>
<feBlend mode="normal" in="SourceGraphic" in2="effect1_dropShadow_1365_85" result="shape"/>
</filter>
<filter id="filter29_d_1365_85" x="560" y="482" width="164" height="64" filterUnits="userSpaceOnUse" color-interpolation-filters="sRGB">
<feFlood flood-opacity="0" result="BackgroundImageFix"/>
<feColorMatrix in="SourceAlpha" type="matrix" values="0 0 0 0 0 0 0 0 0 0 0 0 0 0 0 0 0 0 127 0" result="hardAlpha"/>
<feMorphology radius="1" operator="dilate" in="SourceAlpha" result="effect1_dropShadow_1365_85"/>
<feOffset dx="1" dy="1"/>
<feGaussianBlur stdDeviation="0.5"/>
<feComposite in2="hardAlpha" operator="out"/>
<feColorMatrix type="matrix" values="0 0 0 0 0 0 0 0 0 0 0 0 0 0 0 0 0 0 0.25 0"/>
<feBlend mode="normal" in2="BackgroundImageFix" result="effect1_dropShadow_1365_85"/>
<feBlend mode="normal" in="SourceGraphic" in2="effect1_dropShadow_1365_85" result="shape"/>
</filter>
<filter id="filter30_d_1365_85" x="560" y="567" width="164" height="64" filterUnits="userSpaceOnUse" color-interpolation-filters="sRGB">
<feFlood flood-opacity="0" result="BackgroundImageFix"/>
<feColorMatrix in="SourceAlpha" type="matrix" values="0 0 0 0 0 0 0 0 0 0 0 0 0 0 0 0 0 0 127 0" result="hardAlpha"/>
<feMorphology radius="1" operator="dilate" in="SourceAlpha" result="effect1_dropShadow_1365_85"/>
<feOffset dx="1" dy="1"/>
<feGaussianBlur stdDeviation="0.5"/>
<feComposite in2="hardAlpha" operator="out"/>
<feColorMatrix type="matrix" values="0 0 0 0 0 0 0 0 0 0 0 0 0 0 0 0 0 0 0.25 0"/>
<feBlend mode="normal" in2="BackgroundImageFix" result="effect1_dropShadow_1365_85"/>
<feBlend mode="normal" in="SourceGraphic" in2="effect1_dropShadow_1365_85" result="shape"/>
</filter>
</defs>
</svg>
