<svg width="659" height="205" viewBox="0 0 659 205" fill="none" xmlns="http://www.w3.org/2000/svg">
<path d="M18.2211 187.234C20.3231 187.234 21.8221 188.532 21.8221 190.403C21.8221 192.29 20.3231 193.572 18.2211 193.572C16.1041 193.572 14.6051 192.29 14.6051 190.403C14.6051 188.532 16.1041 187.234 18.2211 187.234ZM13.9102 195.814C16.3822 195.814 19.8131 195.814 22.7651 195.351L22.8582 196.201C19.8132 196.789 16.4901 196.804 14.0641 196.804L13.9102 195.814ZM15.7332 190.403C15.7332 191.671 16.7841 192.568 18.2211 192.568C19.6431 192.568 20.6942 191.671 20.6942 190.403C20.6942 189.119 19.6431 188.238 18.2211 188.238C16.7841 188.238 15.7332 189.119 15.7332 190.403ZM23.6611 199.788V186.228H24.8211V199.788H23.6611ZM27.3551 197.113H30.8171V194.501H28.9012V190.357H36.9371V188.192H28.8701V187.249H38.0811V191.284H30.0451V193.541H38.3901V194.501H36.2731V197.113H39.6111V198.072H27.3551V197.113ZM31.9612 197.113H35.1451V194.501H31.9612V197.113Z" fill="white"/>
<mask id="mask0_1367_453" style="mask-type:luminance" maskUnits="userSpaceOnUse" x="0" y="121" width="53" height="53">
<path d="M52.1353 121.104H0V173.189H52.1353V121.104Z" fill="white"/>
</mask>
<g mask="url(#mask0_1367_453)">
<path d="M41.274 131.954H34.757V129.784C34.757 128.057 34.07 126.402 32.848 125.18C31.626 123.96 29.968 123.273 28.24 123.273H23.895C22.167 123.273 20.509 123.96 19.287 125.18C18.065 126.402 17.378 128.057 17.378 129.784V131.954H10.862C7.982 131.958 5.221 133.103 3.185 135.137C1.149 137.17 0.003 139.928 0 142.806V160.168C0.003 163.044 1.149 165.802 3.185 167.836C5.221 169.871 7.982 171.016 10.862 171.019H41.274C44.153 171.016 46.914 169.871 48.95 167.836C50.986 165.802 52.132 163.044 52.135 160.168V142.806C52.132 139.928 50.986 137.17 48.95 135.137C46.914 133.103 44.153 131.958 41.274 131.954ZM21.723 129.784C21.723 129.209 21.952 128.657 22.359 128.25C22.767 127.842 23.319 127.614 23.895 127.614H28.24C28.816 127.614 29.369 127.842 29.776 128.25C30.183 128.657 30.412 129.209 30.412 129.784V131.954H21.723V129.784ZM32.585 153.657H28.24V157.997C28.24 158.573 28.011 159.125 27.604 159.532C27.196 159.939 26.644 160.168 26.068 160.168C25.492 160.168 24.939 159.939 24.532 159.532C24.124 159.125 23.895 158.573 23.895 157.997V153.657H19.551C18.975 153.657 18.422 153.428 18.015 153.021C17.607 152.614 17.378 152.063 17.378 151.486C17.378 150.911 17.607 150.359 18.015 149.952C18.422 149.545 18.975 149.316 19.551 149.316H23.895V144.976C23.895 144.4 24.124 143.848 24.532 143.441C24.939 143.034 25.492 142.806 26.068 142.806C26.644 142.806 27.196 143.034 27.604 143.441C28.011 143.848 28.24 144.4 28.24 144.976V149.316H32.585C33.161 149.316 33.713 149.545 34.121 149.952C34.528 150.359 34.757 150.911 34.757 151.486C34.757 152.063 34.528 152.614 34.121 153.021C33.713 153.428 33.161 153.657 32.585 153.657Z" fill="white"/>
</g>
<path d="M150.189 189.037C150.189 192.918 148.798 196.506 144.053 198.902L143.404 197.989C145.877 196.753 147.407 195.176 148.242 193.336L143.636 193.768L143.435 192.764L148.597 192.424C148.86 191.65 148.999 190.831 149.045 189.981H144.115V189.037H150.189ZM150.142 194.031V193.057H153.311V187.615H154.454V201.143H153.311V194.031H150.142ZM156.897 195.469H169.152V196.428H166.015V201.252H164.84V196.428H161.193V201.252H160.034V196.428H156.897V195.469ZM158.473 193.629V188.373H167.545V193.629H158.473ZM159.601 192.687H166.417V189.315H159.601V192.687ZM180.295 187.615H181.439V201.143H180.295V187.615ZM171.27 197.634V188.944H172.429V196.629C174.469 196.629 176.586 196.475 178.858 195.995L179.013 196.985C176.648 197.464 174.515 197.634 172.382 197.634H171.27ZM184.793 188.852H191.284V189.826H185.921V192.656H190.805V193.583H185.921V196.892C188.425 196.892 190.171 196.83 192.227 196.474L192.35 197.418C190.233 197.789 188.44 197.866 185.844 197.866H184.793V188.852ZM193.819 201.143V187.615H194.978V201.143H193.819Z" fill="white"/>
<mask id="mask1_1367_453" style="mask-type:luminance" maskUnits="userSpaceOnUse" x="144" y="121" width="53" height="53">
<path d="M196.297 121.104H144.162V173.189H196.297V121.104Z" fill="white"/>
</mask>
<g mask="url(#mask1_1367_453)">
<path d="M176.591 142.007H176.748C180.341 142.007 183.265 139.085 183.265 135.496V128.985C183.265 125.396 180.341 122.474 176.748 122.474H163.714C160.121 122.474 157.197 125.396 157.197 128.985V135.496C157.197 139.085 160.121 142.007 163.714 142.007H164.153L168.137 145.515C168.767 146.071 169.555 146.349 170.344 146.349C171.122 146.349 171.899 146.075 172.512 145.533L176.591 142.009V142.007ZM156.111 161.539C160.303 161.539 163.714 158.132 163.714 153.943C163.714 149.754 160.303 146.346 156.111 146.346C151.918 146.346 148.508 149.754 148.508 153.943C148.508 158.132 151.918 161.539 156.111 161.539ZM176.748 153.943C176.748 158.132 180.158 161.539 184.351 161.539C188.543 161.539 191.954 158.132 191.954 153.943C191.954 149.754 188.543 146.346 184.351 146.346C180.158 146.346 176.748 149.754 176.748 153.943ZM156.111 163.709C150.824 163.709 146.079 166.89 144.3 171.628C144.05 172.295 144.144 173.041 144.548 173.627C144.956 174.212 145.621 174.56 146.333 174.56H165.884C166.597 174.56 167.264 174.21 167.67 173.627C168.076 173.041 168.167 172.295 167.917 171.628C166.14 166.89 161.394 163.709 156.107 163.709H156.111ZM196.162 171.628C194.385 166.89 189.638 163.709 184.351 163.709C179.063 163.709 174.319 166.89 172.54 171.628C172.29 172.295 172.384 173.041 172.788 173.627C173.196 174.212 173.861 174.56 174.573 174.56H194.124C194.837 174.56 195.503 174.21 195.91 173.627C196.316 173.041 196.407 172.295 196.157 171.628H196.162Z" fill="white"/>
</g>
<path d="M308.02 201.15H317.216V205H308.02V201.15ZM306.506 200.084V199.156H312.039V198.074C309.612 197.996 308.268 197.332 308.268 196.172C308.268 194.92 309.829 194.255 312.611 194.255C315.392 194.255 316.953 194.92 316.953 196.172C316.953 197.332 315.609 197.996 313.198 198.074V199.156H318.715V200.084H306.506ZM307.155 193.698V192.786H312.039V191.441H313.198V192.786H318.004V193.698H307.155ZM309.149 204.104H316.088V202.032H309.149V204.104ZM309.489 196.172C309.489 196.868 310.617 197.27 312.611 197.27C314.604 197.27 315.732 196.868 315.732 196.172C315.732 195.476 314.604 195.074 312.611 195.074C310.617 195.074 309.489 195.476 309.489 196.172Z" fill="white"/>
<mask id="mask2_1367_453" style="mask-type:luminance" maskUnits="userSpaceOnUse" x="286" y="123" width="53" height="53">
<path d="M338.879 123.125H286.744V175.21H338.879V123.125Z" fill="white"/>
</mask>
<g mask="url(#mask2_1367_453)">
<path d="M312.812 155.662C309.213 155.662 306.295 158.576 306.295 162.173V175.193H319.329V162.173C319.329 158.576 316.411 155.662 312.812 155.662Z" fill="white"/>
<path d="M323.671 162.173V175.194H332.361C335.96 175.194 338.877 172.279 338.877 168.684V148.888C338.878 147.761 338.439 146.677 337.654 145.868L319.194 125.93C315.937 122.409 310.44 122.192 306.915 125.446C306.748 125.601 306.587 125.763 306.432 125.93L288.004 145.861C287.196 146.674 286.742 147.775 286.742 148.921V168.684C286.742 172.279 289.66 175.194 293.259 175.194H301.948V162.173C301.989 156.254 306.771 151.422 312.546 151.283C318.513 151.139 323.626 156.054 323.671 162.173Z" fill="white"/>
<path d="M312.812 155.662C309.213 155.662 306.295 158.576 306.295 162.173V175.193H319.329V162.173C319.329 158.576 316.411 155.662 312.812 155.662Z" fill="white"/>
</g>
<path d="M429.633 197.361H435.165V195.706H431.271V190.682H432.414V192.244H439.091V190.682H440.25V195.706H436.309V197.361H441.842V198.319H429.633V197.361ZM430.993 200.638V199.696H440.327V203.886H439.184V200.638H430.993ZM432.414 194.779H439.091V193.155H432.414V194.779ZM443.558 191.748H451.115V192.723H447.9V194.547C447.9 196.851 449.6 199.169 451.548 200.02L450.883 200.948C449.338 200.221 447.962 198.644 447.329 196.773C446.71 198.767 445.35 200.499 443.805 201.272L443.14 200.36C445.041 199.433 446.741 196.882 446.741 194.547V192.723H443.558V191.748ZM453 203.886V190.357H454.16V203.886H453ZM461.084 190.944L457.854 203.499H456.741L459.986 190.944H461.084ZM472.591 190.342H473.75V203.901H472.591V190.342ZM463.21 196.108C463.21 193.233 464.632 191.408 466.641 191.408C468.634 191.408 470.056 193.233 470.056 196.108C470.056 198.984 468.634 200.824 466.641 200.824C464.632 200.824 463.21 198.984 463.21 196.108ZM464.338 196.108C464.338 198.319 465.281 199.788 466.641 199.788C467.985 199.788 468.944 198.319 468.944 196.108C468.944 193.897 467.985 192.444 466.641 192.444C465.281 192.444 464.338 193.897 464.338 196.108ZM486.5 190.357H487.613V200.623H486.5V190.357ZM476.857 198.041V191.439H477.939V193.743H480.968V191.439H482.065V194.299H483.935V190.62H485.048V200.237H483.935V195.243H482.065V198.041H476.857ZM477.939 197.098H480.968V194.671H477.939V197.098ZM478.819 203.576V199.232H479.979V202.618H488.015V203.576H478.819ZM491.323 191.532H500.441V192.475H492.497V194.547H500.147V195.49H492.497V197.67H500.58V198.628H491.323V191.532ZM489.731 202.108V201.148H501.986V202.108H489.731Z" fill="white"/>
<mask id="mask3_1367_453" style="mask-type:luminance" maskUnits="userSpaceOnUse" x="443" y="122" width="53" height="54">
<path d="M495.428 122.474H443.293V175.507H495.428V122.474Z" fill="white"/>
</mask>
<g mask="url(#mask3_1367_453)">
<path d="M452.773 135.432C452.773 131.884 456.149 128.027 459.471 126.431C459.08 126.042 458.705 125.615 458.383 125.157C457.589 124.032 458.487 122.474 459.865 122.474H464.872C466.329 122.474 467.124 124.128 466.26 125.299C465.962 125.705 465.625 126.084 465.275 126.431C468.596 128.029 471.968 131.884 471.968 135.43C471.968 138.86 469.338 141.649 466.102 141.649H458.637C455.401 141.649 452.771 138.858 452.771 135.43L452.773 135.432ZM493.617 140.972C492.519 139.973 491.087 139.454 489.611 139.527C488.125 139.595 486.755 140.239 485.785 141.306L478.231 149.269C478.299 149.717 478.37 150.164 478.37 150.628C478.37 155.067 475.053 158.888 470.654 159.514L461.584 160.783C460.418 160.949 459.338 160.14 459.172 158.977C459.006 157.811 459.816 156.733 460.981 156.567L469.859 155.325C471.855 155.039 473.587 153.607 473.997 151.635C474.628 148.598 472.312 145.913 469.381 145.913H452.771C448.061 145.913 444.24 149.73 444.24 154.436V165.09C444.24 169.797 448.061 173.613 452.773 173.613H461.864C467.847 173.613 473.553 171.103 477.593 166.697L494.023 148.779C496.045 146.516 495.861 143.011 493.619 140.97L493.617 140.972Z" fill="white"/>
</g>
<path d="M594.443 188.714H600.609V197.435H594.443V188.714ZM595.571 196.491H599.481V189.658H595.571V196.491ZM603.098 200.882V187.354H604.257V192.796H606.498V193.77H604.257V200.882H603.098ZM617.259 187.339H618.409V200.897H617.259V187.339ZM607.874 193.105C607.874 190.23 609.295 188.405 611.309 188.405C613.299 188.405 614.719 190.23 614.719 193.105C614.719 195.981 613.299 197.821 611.309 197.821C609.295 197.821 607.874 195.981 607.874 193.105ZM609.002 193.105C609.002 195.316 609.944 196.786 611.309 196.786C612.649 196.786 613.609 195.316 613.609 193.105C613.609 190.894 612.649 189.442 611.309 189.442C609.944 189.442 609.002 190.894 609.002 193.105ZM631.289 187.354H632.399V200.882H631.289V187.354ZM620.729 196.538C621.149 196.538 621.629 196.538 622.159 196.523V190.044H621.009V189.085H627.189V190.044H626.029V196.367C626.539 196.321 627.039 196.274 627.489 196.213L627.579 197.079C625.449 197.466 622.629 197.527 620.869 197.527L620.729 196.538ZM623.219 196.507C623.789 196.492 624.379 196.46 624.969 196.429V190.044H623.219V196.507ZM626.779 193.553V192.533H628.679V187.694H629.769V200.156H628.679V193.553H626.779ZM644.269 187.339H645.429V200.897H644.269V187.339ZM634.889 193.105C634.889 190.23 636.309 188.405 638.319 188.405C640.309 188.405 641.739 190.23 641.739 193.105C641.739 195.981 640.309 197.821 638.319 197.821C636.309 197.821 634.889 195.981 634.889 193.105ZM636.019 193.105C636.019 195.316 636.959 196.786 638.319 196.786C639.669 196.786 640.619 195.316 640.619 193.105C640.619 190.894 639.669 189.442 638.319 189.442C636.959 189.442 636.019 190.894 636.019 193.105ZM648.319 188.745H655.879V189.72H652.659V191.543C652.659 193.847 654.359 196.166 656.309 197.017L655.649 197.945C654.099 197.218 652.729 195.641 652.089 193.77C651.469 195.764 650.109 197.496 648.569 198.269L647.899 197.357C649.799 196.429 651.499 193.878 651.499 191.543V189.72H648.319V188.745ZM657.759 200.882V187.354H658.919V200.882H657.759Z" fill="white"/>
<mask id="mask4_1367_453" style="mask-type:luminance" maskUnits="userSpaceOnUse" x="599" y="120" width="54" height="53">
<path d="M652.047 120.841H599.912V172.927H652.047V120.841Z" fill="white"/>
</mask>
<g mask="url(#mask4_1367_453)">
<path d="M625.979 146.884C633.179 146.884 639.009 141.054 639.009 133.863C639.009 126.671 633.179 120.841 625.979 120.841C618.779 120.841 612.949 126.671 612.949 133.863C612.949 141.054 618.779 146.884 625.979 146.884Z" fill="white"/>
<path d="M625.98 151.225C615.19 151.237 606.442 159.975 606.43 170.757C606.43 171.955 607.402 172.928 608.602 172.928H643.36C644.56 172.928 645.53 171.955 645.53 170.757C645.52 159.975 636.77 151.236 625.98 151.225Z" fill="white"/>
</g>
<path d="M18.2211 68.0079C20.3231 68.0079 21.8221 69.3065 21.8221 71.1772C21.8221 73.063 20.3231 74.3466 18.2211 74.3466C16.1041 74.3466 14.6051 73.063 14.6051 71.1772C14.6051 69.3065 16.1041 68.0079 18.2211 68.0079ZM13.9102 76.5885C16.3822 76.5885 19.8131 76.5886 22.7651 76.1244L22.8582 76.9747C19.8132 77.5629 16.4901 77.578 14.0641 77.578L13.9102 76.5885ZM15.7332 71.1772C15.7332 72.4448 16.7841 73.3411 18.2211 73.3411C19.6431 73.3411 20.6942 72.4448 20.6942 71.1772C20.6942 69.8937 19.6431 69.0123 18.2211 69.0123C16.7841 69.0123 15.7332 69.8937 15.7332 71.1772ZM23.6611 80.5622V67.0024H24.8211V80.5622H23.6611ZM27.3551 77.8871H30.8171V75.274H28.9012V71.1302H36.9371V68.9663H28.8701V68.0229H38.0811V72.0586H30.0451V74.3155H38.3901V75.274H36.2731V77.8871H39.6111V78.8455H27.3551V77.8871ZM31.9612 77.8871H35.1451V75.274H31.9612V77.8871Z" fill="white"/>
<mask id="mask5_1367_453" style="mask-type:luminance" maskUnits="userSpaceOnUse" x="0" y="0" width="53" height="53">
<path d="M52.1353 0.505127H0V52.5909H52.1353V0.505127Z" fill="white"/>
</mask>
<g mask="url(#mask5_1367_453)">
<path d="M41.274 11.3557H34.757V9.18581C34.757 7.45908 34.07 5.80338 32.848 4.58186C31.626 3.36135 29.968 2.67505 28.24 2.67505H23.895C22.167 2.67505 20.509 3.36135 19.287 4.58186C18.065 5.80338 17.378 7.45908 17.378 9.18581V11.3557H10.862C7.982 11.3597 5.221 12.5043 3.185 14.5381C1.149 16.573 0.003 19.3301 0 22.2073V39.5697C0.003 42.446 1.149 45.2041 3.185 47.2389C5.221 49.2728 7.982 50.4173 10.862 50.4204H41.274C44.153 50.4173 46.914 49.2728 48.95 47.2389C50.986 45.2041 52.132 42.446 52.135 39.5697V22.2073C52.132 19.3301 50.986 16.573 48.95 14.5381C46.914 12.5043 44.153 11.3597 41.274 11.3557ZM21.723 9.18581C21.723 8.61056 21.952 8.05833 22.359 7.65116C22.767 7.24399 23.319 7.01588 23.895 7.01588H28.24C28.816 7.01588 29.369 7.24399 29.776 7.65116C30.183 8.05833 30.412 8.61056 30.412 9.18581V11.3557H21.723V9.18581ZM47.791 39.5697C47.791 41.2965 47.104 42.9521 45.882 44.1726C44.66 45.3942 43.002 46.0805 41.274 46.0805H10.862C9.133 46.0805 7.47599 45.3942 6.25299 44.1726C5.03099 42.9521 4.345 41.2965 4.345 39.5697V22.2073C4.345 20.4806 5.03099 18.8249 6.25299 17.6034C7.47599 16.3829 9.133 15.6966 10.862 15.6966H41.274C43.002 15.6966 44.66 16.3829 45.882 17.6034C47.104 18.8249 47.791 20.4806 47.791 22.2073V39.5697ZM34.757 30.888C34.757 31.4643 34.528 32.0155 34.121 32.4227C33.713 32.8298 33.161 33.059 32.585 33.059H28.24V37.3988C28.24 37.975 28.011 38.5262 27.604 38.9334C27.196 39.3406 26.644 39.5697 26.068 39.5697C25.492 39.5697 24.939 39.3406 24.532 38.9334C24.124 38.5262 23.895 37.975 23.895 37.3988V33.059H19.551C18.975 33.059 18.422 32.8298 18.015 32.4227C17.607 32.0155 17.378 31.4643 17.378 30.888C17.378 30.3128 17.607 29.7605 18.015 29.3534C18.422 28.9472 18.975 28.7181 19.551 28.7181H23.895V24.3773C23.895 23.802 24.124 23.2498 24.532 22.8426C24.939 22.4364 25.492 22.2073 26.068 22.2073C26.644 22.2073 27.196 22.4364 27.604 22.8426C28.011 23.2498 28.24 23.802 28.24 24.3773V28.7181H32.585C33.161 28.7181 33.713 28.9472 34.121 29.3534C34.528 29.7605 34.757 30.3128 34.757 30.888Z" fill="white"/>
</g>
<path d="M150.189 68.4412C150.189 72.3219 148.798 75.9084 144.053 78.3054L143.404 77.393C145.877 76.1565 147.407 74.5788 148.242 72.739L143.636 73.1722L143.435 72.1668L148.597 71.8266C148.86 71.0543 148.999 70.235 149.045 69.3846H144.115V68.4412H150.189ZM150.142 73.4353V72.4609H153.311V67.0186H154.454V80.5473H153.311V73.4353H150.142ZM156.897 74.8729H169.152V75.8313H166.015V80.6554H164.84V75.8313H161.193V80.6554H160.034V75.8313H156.897V74.8729ZM158.473 73.0331V67.7759H167.545V73.0331H158.473ZM159.601 72.0897H166.417V68.7193H159.601V72.0897ZM180.295 67.0186H181.439V80.5473H180.295V67.0186ZM171.27 77.0378V68.3482H172.429V76.0324C174.469 76.0324 176.586 75.8774 178.858 75.3981L179.013 76.3886C176.648 76.8678 174.515 77.0378 172.382 77.0378H171.27ZM184.793 68.2551H191.284V69.2295H185.921V72.0587H190.805V72.9861H185.921V76.2955C188.425 76.2955 190.171 76.2335 192.227 75.8774L192.35 76.8207C190.233 77.1919 188.44 77.2689 185.844 77.2689H184.793V68.2551ZM193.819 80.5473V67.0186H194.978V80.5473H193.819Z" fill="white"/>
<mask id="mask6_1367_453" style="mask-type:luminance" maskUnits="userSpaceOnUse" x="144" y="0" width="53" height="53">
<path d="M196.297 0.506104H144.162V52.5919H196.297V0.506104Z" fill="white"/>
</mask>
<g mask="url(#mask6_1367_453)">
<path d="M176.589 20.0384H176.746C180.339 20.0384 183.263 17.1171 183.263 13.5276V7.01686C183.263 3.42734 180.339 0.506104 176.746 0.506104H163.712C160.119 0.506104 157.195 3.42734 157.195 7.01686V13.5276C157.195 17.1171 160.119 20.0384 163.712 20.0384H164.151L168.135 23.5469C168.765 24.1031 169.553 24.3802 170.342 24.3802C171.119 24.3802 171.897 24.1071 172.51 23.5648L176.589 20.0404V20.0384ZM170.34 19.6992L166.408 16.2398C166.01 15.8906 165.5 15.6975 164.972 15.6975H163.712C162.513 15.6975 161.54 14.7231 161.54 13.5276V7.01686C161.54 5.82035 162.513 4.8459 163.712 4.8459H176.746C177.945 4.8459 178.918 5.82035 178.918 7.01686V13.5276C178.918 14.7231 177.945 15.6975 176.746 15.6975H175.781C175.26 15.6975 174.754 15.8846 174.361 16.2268L170.34 19.7012V19.6992ZM156.109 39.5697C160.301 39.5697 163.712 36.1632 163.712 31.9744C163.712 27.7856 160.301 24.3782 156.109 24.3782C151.916 24.3782 148.506 27.7856 148.506 31.9744C148.506 36.1632 151.916 39.5697 156.109 39.5697ZM156.109 28.7191C157.905 28.7191 159.367 30.1797 159.367 31.9744C159.367 33.7692 157.905 35.2298 156.109 35.2298C154.312 35.2298 152.85 33.7692 152.85 31.9744C152.85 30.1797 154.312 28.7191 156.109 28.7191ZM176.746 31.9744C176.746 36.1632 180.156 39.5697 184.349 39.5697C188.541 39.5697 191.952 36.1632 191.952 31.9744C191.952 27.7856 188.541 24.3782 184.349 24.3782C180.156 24.3782 176.746 27.7856 176.746 31.9744ZM184.349 28.7191C186.145 28.7191 187.607 30.1797 187.607 31.9744C187.607 33.7692 186.145 35.2298 184.349 35.2298C182.552 35.2298 181.09 33.7692 181.09 31.9744C181.09 30.1797 182.552 28.7191 184.349 28.7191ZM167.92 49.66C168.339 50.7814 167.772 52.034 166.649 52.4552C166.397 52.5482 166.141 52.5942 165.884 52.5942C165.007 52.5942 164.177 52.0559 163.849 51.1856C162.704 48.1343 159.593 46.0834 156.109 46.0834C152.624 46.0834 149.514 48.1343 148.369 51.1856C147.948 52.309 146.694 52.8693 145.571 52.4552C144.448 52.034 143.881 50.7814 144.3 49.66C146.077 44.922 150.824 41.7406 156.111 41.7406C161.398 41.7406 166.141 44.922 167.92 49.66ZM194.889 52.4552C194.637 52.5482 194.381 52.5942 194.124 52.5942C193.247 52.5942 192.417 52.0559 192.089 51.1856C190.944 48.1343 187.833 46.0834 184.349 46.0834C180.864 46.0834 177.754 48.1343 176.609 51.1856C176.187 52.309 174.934 52.8693 173.811 52.4552C172.688 52.034 172.121 50.7814 172.54 49.66C174.317 44.922 179.064 41.7406 184.351 41.7406C189.638 41.7406 194.383 44.922 196.162 49.66C196.581 50.7814 196.014 52.034 194.891 52.4552H194.889Z" fill="white"/>
</g>
<path d="M308.02 78.5331H317.216V82.3828H308.02V78.5331ZM306.506 77.4657V76.5383H312.039V75.4558C309.612 75.3788 308.268 74.7135 308.268 73.554C308.268 72.3015 309.829 71.6372 312.611 71.6372C315.392 71.6372 316.953 72.3015 316.953 73.554C316.953 74.7135 315.609 75.3788 313.198 75.4558V76.5383H318.715V77.4657H306.506ZM307.155 71.08V70.1686H312.039V68.823H313.198V70.1686H318.004V71.08H307.155ZM309.149 81.4854H316.088V79.4145H309.149V81.4854ZM309.489 73.554C309.489 74.2503 310.617 74.6525 312.611 74.6525C314.604 74.6525 315.732 74.2503 315.732 73.554C315.732 72.8587 314.604 72.4566 312.611 72.4566C310.617 72.4566 309.489 72.8587 309.489 73.554Z" fill="white"/>
<mask id="mask7_1367_453" style="mask-type:luminance" maskUnits="userSpaceOnUse" x="286" y="0" width="53" height="53">
<path d="M338.879 0.506104H286.744V52.5919H338.879V0.506104Z" fill="white"/>
</mask>
<g mask="url(#mask7_1367_453)">
<path d="M336.97 20.1864L320.493 3.72235C318.454 1.69149 315.692 0.551025 312.812 0.551025C309.932 0.551025 307.17 1.69149 305.131 3.72235L288.654 20.1864C288.046 20.7886 287.565 21.5059 287.237 22.2963C286.909 23.0866 286.742 23.9339 286.744 24.7893V46.0943C286.744 47.8211 287.431 49.4778 288.653 50.6983C289.875 51.9198 291.533 52.6051 293.261 52.6051H332.363C334.091 52.6051 335.749 51.9198 336.971 50.6983C338.193 49.4778 338.879 47.8211 338.879 46.0943V24.7893C338.882 23.9339 338.714 23.0866 338.387 22.2963C338.059 21.5059 337.577 20.7886 336.97 20.1864ZM319.329 48.2652H306.295V39.7266C306.295 37.9999 306.981 36.3442 308.204 35.1237C309.426 33.9022 311.083 33.2159 312.812 33.2159C314.54 33.2159 316.198 33.9022 317.42 35.1237C318.642 36.3442 319.329 37.9999 319.329 39.7266V48.2652ZM334.535 46.0943C334.535 46.6706 334.306 47.2218 333.899 47.629C333.491 48.0362 332.939 48.2652 332.363 48.2652H323.673V39.7266C323.673 36.8494 322.529 34.0893 320.492 32.0544C318.455 30.0195 315.692 28.876 312.812 28.876C309.931 28.876 307.168 30.0195 305.132 32.0544C303.095 34.0893 301.95 36.8494 301.95 39.7266V48.2652H293.261C292.685 48.2652 292.132 48.0362 291.725 47.629C291.318 47.2218 291.089 46.6706 291.089 46.0943V24.7893C291.091 24.214 291.319 23.6628 291.725 23.2546L308.202 6.7977C309.427 5.58018 311.084 4.89686 312.812 4.89686C314.54 4.89686 316.197 5.58018 317.421 6.7977L333.898 23.2617C334.303 23.6678 334.531 24.216 334.535 24.7893V46.0943Z" fill="white"/>
</g>
<path d="M429.633 75.393H435.165V73.7383H431.271V68.7141H432.414V70.2758H439.091V68.7141H440.25V73.7383H436.309V75.393H441.842V76.3514H429.633V75.393ZM430.993 78.6704V77.728H440.327V81.9177H439.184V78.6704H430.993ZM432.414 72.8109H439.091V71.1872H432.414V72.8109ZM443.558 69.7806H451.115V70.755H447.9V72.5788C447.9 74.8828 449.6 77.2018 451.548 78.0521L450.883 78.9805C449.338 78.2532 447.962 76.6766 447.329 74.8058C446.71 76.7996 445.35 78.5313 443.805 79.3046L443.14 78.3923C445.041 77.4649 446.741 74.9138 446.741 72.5788V70.755H443.558V69.7806ZM453 81.9177V68.389H454.16V81.9177H453ZM461.084 68.9763L457.854 81.5316H456.741L459.986 68.9763H461.084ZM472.591 68.374H473.75V81.9328H472.591V68.374ZM463.21 74.1404C463.21 71.2652 464.632 69.4405 466.641 69.4405C468.634 69.4405 470.056 71.2652 470.056 74.1404C470.056 77.0167 468.634 78.8564 466.641 78.8564C464.632 78.8564 463.21 77.0167 463.21 74.1404ZM464.338 74.1404C464.338 76.3514 465.281 77.82 466.641 77.82C467.985 77.82 468.944 76.3514 468.944 74.1404C468.944 71.9295 467.985 70.4759 466.641 70.4759C465.281 70.4759 464.338 71.9295 464.338 74.1404ZM486.5 68.389H487.613V78.6554H486.5V68.389ZM476.857 76.0733V69.4715H477.939V71.7754H480.968V69.4715H482.065V72.3317H483.935V68.6522H485.048V78.2692H483.935V73.2751H482.065V76.0733H476.857ZM477.939 75.1299H480.968V72.7028H477.939V75.1299ZM478.819 81.6086V77.2638H479.979V80.6502H488.015V81.6086H478.819ZM491.323 69.5645H500.441V70.5069H492.497V72.5788H500.147V73.5222H492.497V75.7021H500.58V76.6605H491.323V69.5645ZM489.731 80.14V79.1806H501.986V80.14H489.731Z" fill="white"/>
<mask id="mask8_1367_453" style="mask-type:luminance" maskUnits="userSpaceOnUse" x="443" y="0" width="53" height="54">
<path d="M495.428 0.506104H443.293V53.5389H495.428V0.506104Z" fill="white"/>
</mask>
<g mask="url(#mask8_1367_453)">
<path d="M493.295 19.9184C492.003 18.7209 490.35 18.1046 488.584 18.1907C486.837 18.2717 485.228 19.043 484.055 20.3586L477.066 28.1669C476.139 26.6112 474.625 25.4627 472.841 25.0185C473.375 23.9641 473.706 22.7886 473.706 21.5231C473.706 15.9607 469.876 9.43094 464.767 7.00691C465.499 6.22958 466.213 5.36518 466.787 4.43679C467.847 2.73106 466.683 0.50415 464.697 0.50415H456.642C454.657 0.50415 453.495 2.73106 454.552 4.43679C455.128 5.36518 455.841 6.22658 456.573 7.00691C451.463 9.42894 447.634 15.9607 447.634 21.5231C447.634 22.9677 448.053 24.3073 448.737 25.4627C445.548 26.7733 443.289 29.9416 443.289 33.6492V44.6979C443.289 49.573 447.186 53.5367 451.978 53.5367H462.764C468.955 53.5367 474.863 50.8405 478.984 46.1385L493.765 29.2634C496.141 26.5562 495.928 22.3624 493.291 19.9164L493.295 19.9184ZM460.672 10.4494C464.628 10.5584 469.361 16.4999 469.361 21.525C469.361 23.3388 467.899 24.8124 466.103 24.8124H455.241C453.445 24.8124 451.983 23.3388 451.983 21.525C451.983 16.4999 456.716 10.5584 460.672 10.4494ZM490.524 26.3241L475.741 43.2023C472.446 46.9629 467.719 49.1198 462.766 49.1198H451.98C449.584 49.1198 447.636 47.1379 447.636 44.6999V33.6512C447.636 31.2142 449.584 29.2323 451.98 29.2323H471.221C472.589 29.2323 473.703 30.3638 473.703 31.7554C473.703 33.0019 472.787 34.0784 471.575 34.2544L460.363 35.8832C459.175 36.0563 458.35 37.1737 458.519 38.3822C458.689 39.5887 459.788 40.4201 460.978 40.256L472.189 38.6283C474.742 38.2561 476.812 36.4444 477.651 34.0804L487.267 23.3298C487.661 22.8886 488.201 22.6315 488.786 22.6035C489.374 22.5875 489.933 22.7846 490.367 23.1817C491.251 24.0041 491.323 25.4117 490.524 26.3221V26.3241Z" fill="white"/>
</g>
<path d="M594.443 68.1168H600.609V76.8375H594.443V68.1168ZM595.571 75.8941H599.481V69.0602H595.571V75.8941ZM603.098 80.285V66.7562H604.257V72.1985H606.498V73.173H604.257V80.285H603.098ZM617.259 66.7412H618.409V80.301H617.259V66.7412ZM607.874 72.5076C607.874 69.6324 609.295 67.8076 611.309 67.8076C613.299 67.8076 614.719 69.6324 614.719 72.5076C614.719 75.3839 613.299 77.2237 611.309 77.2237C609.295 77.2237 607.874 75.3839 607.874 72.5076ZM609.002 72.5076C609.002 74.7186 609.944 76.1882 611.309 76.1882C612.649 76.1882 613.609 74.7186 613.609 72.5076C613.609 70.2967 612.649 68.8441 611.309 68.8441C609.944 68.8441 609.002 70.2967 609.002 72.5076ZM631.289 66.7562H632.399V80.285H631.289V66.7562ZM620.729 75.9401C621.149 75.9401 621.629 75.9401 622.159 75.9251V69.4463H621.009V68.488H627.189V69.4463H626.029V75.7701C626.539 75.724 627.039 75.678 627.489 75.616L627.579 76.4814C625.449 76.8685 622.629 76.9296 620.869 76.9296L620.729 75.9401ZM623.219 75.9091C623.789 75.8941 624.379 75.8631 624.969 75.8321V69.4463H623.219V75.9091ZM626.779 72.9569V71.9364H628.679V67.0963H629.769V79.5587H628.679V72.9569H626.779ZM644.269 66.7412H645.429V80.301H644.269V66.7412ZM634.889 72.5076C634.889 69.6324 636.309 67.8076 638.319 67.8076C640.309 67.8076 641.739 69.6324 641.739 72.5076C641.739 75.3839 640.309 77.2237 638.319 77.2237C636.309 77.2237 634.889 75.3839 634.889 72.5076ZM636.019 72.5076C636.019 74.7186 636.959 76.1882 638.319 76.1882C639.669 76.1882 640.619 74.7186 640.619 72.5076C640.619 70.2967 639.669 68.8441 638.319 68.8441C636.959 68.8441 636.019 70.2967 636.019 72.5076ZM648.319 68.1478H655.879V69.1222H652.659V70.946C652.659 73.25 654.359 75.569 656.309 76.4193L655.649 77.3477C654.099 76.6204 652.729 75.0438 652.089 73.173C651.469 75.1678 650.109 76.8995 648.569 77.6719L647.899 76.7594C649.799 75.832 651.499 73.281 651.499 70.946V69.1222H648.319V68.1478ZM657.759 80.285V66.7562H658.919V80.285H657.759Z" fill="white"/>
<mask id="mask9_1367_453" style="mask-type:luminance" maskUnits="userSpaceOnUse" x="599" y="0" width="54" height="54">
<path d="M652.047 0.244141H599.912V53.228H652.047V0.244141Z" fill="white"/>
</mask>
<g mask="url(#mask9_1367_453)">
<path d="M625.979 26.7362C628.559 26.7362 631.079 25.9589 633.219 24.5033C635.359 23.0477 637.029 20.9798 638.019 18.5588C639.009 16.1387 639.269 13.4756 638.759 10.9055C638.259 8.33639 637.019 5.9764 635.199 4.12361C633.369 2.27082 631.049 1.00933 628.519 0.49811C625.989 -0.0121066 623.369 0.249972 620.989 1.2524C618.609 2.25482 616.569 3.95252 615.139 6.13044C613.709 8.30937 612.949 10.8705 612.949 13.4896C612.949 17.0021 614.319 20.3695 616.769 22.8526C619.209 25.3356 622.519 26.7322 625.979 26.7362ZM625.979 4.65887C627.699 4.65887 629.379 5.17707 630.809 6.14748C632.239 7.11789 633.349 8.49748 634.009 10.1102C634.659 11.7238 634.839 13.4996 634.499 15.2123C634.169 16.926 633.339 18.4987 632.119 19.7342C630.909 20.9688 629.359 21.8101 627.669 22.1513C625.989 22.4914 624.239 22.3164 622.649 21.6481C621.069 20.9798 619.709 19.8483 618.749 18.3957C617.799 16.944 617.289 15.2363 617.289 13.4896C617.289 11.1476 618.209 8.90167 619.829 7.24597C621.459 5.58927 623.669 4.65887 625.979 4.65887Z" fill="white"/>
<path d="M625.98 31.1509C620.8 31.1559 615.83 33.2518 612.16 36.9763C608.495 40.7009 606.433 45.7521 606.428 51.0194C606.428 51.6046 606.657 52.1668 607.064 52.58C607.471 52.9942 608.024 53.2273 608.6 53.2273C609.176 53.2273 609.729 52.9942 610.136 52.58C610.543 52.1668 610.772 51.6046 610.772 51.0194C610.772 46.9206 612.37 42.9899 615.23 40.0917C618.08 37.1935 621.95 35.5658 625.98 35.5658C630.01 35.5658 633.88 37.1935 636.73 40.0917C639.58 42.9899 641.18 46.9206 641.18 51.0194C641.18 51.6046 641.41 52.1668 641.82 52.58C642.23 52.9942 642.78 53.2273 643.36 53.2273C643.93 53.2273 644.49 52.9942 644.89 52.58C645.3 52.1668 645.53 51.6046 645.53 51.0194C645.52 45.7521 643.46 40.7009 639.8 36.9763C636.13 33.2518 631.16 31.1559 625.98 31.1509Z" fill="white"/>
</g>
</svg>
