<svg width="144" height="144" viewBox="0 0 144 144" fill="none" xmlns="http://www.w3.org/2000/svg">
<path d="M40.0464 131.77C39.1536 131.425 38.2032 131.468 37.2816 131.295C31.4496 130.172 26.4096 127.479 21.9312 123.634C16.9344 119.343 13.0896 114.116 9.79195 108.457C8.79835 106.758 7.71835 105.087 7.24315 103.129C6.55195 100.191 6.89755 97.3113 7.60315 94.4313C8.52475 90.6297 9.97915 87.0009 11.0448 83.2569C11.8224 80.5065 12.6288 77.7705 13.9968 75.2361C15.0624 73.2489 16.3872 71.4777 18.4176 70.3977C21.7296 68.6121 24.8688 69.1881 27.8208 71.2617C30.3408 73.0185 32.2272 75.3945 34.0128 77.8569C36.9936 81.9321 39.6144 86.2665 42.4944 90.4137C44.6544 93.5241 46.8576 96.6057 49.6944 99.1833C50.5872 100.004 51.6672 100.393 52.8192 100.652C53.3232 100.767 53.64 100.58 53.8704 100.134C54.3168 99.2985 54.504 98.3913 54.5904 97.4697C54.792 95.2809 54.5616 93.1353 53.7696 91.0761C53.5248 90.4569 53.1504 90.0105 52.56 89.6505C49.6944 87.8793 46.8864 86.0361 44.6112 83.5161C43.2144 81.9609 42.1632 80.2185 42.0336 78.0729C41.7456 73.1625 45.7344 70.0521 50.4576 71.4777C53.1648 72.2985 55.3824 73.9545 57.4128 75.8409C61.8048 79.8873 65.2608 84.5961 67.104 90.3561C68.4288 94.4889 68.616 98.6361 66.6288 102.61C64.296 107.262 60.5808 110.242 55.3392 110.991C52.2 111.438 49.2768 110.53 46.6416 108.846C44.1936 107.29 41.7744 105.678 39.5424 103.791C37.7424 102.279 35.7984 100.998 33.48 100.422C31.2768 99.8889 29.7216 100.594 28.8576 102.697C27.432 106.153 27.9936 109.494 29.808 112.633C31.8672 116.161 35.1216 117.99 39.024 118.782C43.5888 119.703 48.0816 119.113 52.5456 118.004C54.576 117.5 56.5776 116.852 58.536 116.132C61.7472 114.951 64.8576 116.866 65.16 120.279C65.304 121.921 64.6272 123.303 63.3168 124.34C59.4144 127.422 55.0368 129.553 50.2272 130.806C48.4992 131.266 46.7424 131.598 44.9424 131.684C44.8416 131.684 44.7552 131.713 44.7408 131.828H44.0208C42.9696 131.598 41.9184 131.598 40.8672 131.828H40.0032L40.0464 131.77Z" fill="#924FFF"/>
<path d="M141.213 84.8592C140.925 85.0752 141.083 85.3776 141.083 85.6368C140.982 93.3984 140.262 101.102 138.65 108.691C138.117 111.182 136.029 112.694 133.451 112.493C131.133 112.32 129.347 110.333 129.174 107.899C128.656 100.44 128.123 92.9808 127.216 85.5504C126.352 78.48 125.214 71.4528 123.17 64.6128C121.744 59.8608 119.915 55.2672 116.992 51.192C113.939 46.944 109.979 44.0496 104.738 43.0992C103.586 42.8976 102.434 42.768 101.253 42.7536C97.5088 42.7248 93.7648 42.8688 90.0208 42.6096C87.7168 42.4512 85.4272 42.1632 83.2672 41.2128C79.048 39.3552 77.1904 35.7264 78.1984 31.2192C78.7312 28.8432 79.768 26.6688 81.2944 24.768C83.6128 21.9024 86.7664 21.0816 90.3088 21.3264C92.8576 21.4992 95.3488 22.104 97.8688 22.464C101.094 22.9248 104.262 22.8096 107.445 22.104C111.29 21.24 115.106 21.2256 118.778 22.968C121.773 24.3792 123.933 26.6976 125.704 29.4048C127.936 32.8176 129.52 36.576 131.277 40.248C134.042 46.0368 136.461 51.9408 138.016 58.176C139.701 64.944 140.666 71.8272 140.968 78.7968C141.04 80.3664 141.083 81.936 141.083 83.52C141.083 83.6784 140.954 83.9088 141.213 84.0096V84.8736V84.8592Z" fill="#924FFF"/>
<path d="M40.9102 131.818C41.9614 131.587 43.0125 131.587 44.0637 131.818H40.9102Z" fill="#924FFF"/>
<path d="M83.5334 59.4865C80.5526 59.5441 77.8598 59.7313 75.1814 59.3713C72.9638 59.0689 70.9046 58.4065 69.2774 56.7793C65.9222 53.4241 66.7718 48.6 71.0774 46.584C72.9926 45.6912 75.0374 45.3457 77.111 45.2305C86.111 44.7409 94.895 45.8929 103.362 49.0753C106.444 50.2273 109.309 51.7825 111.527 54.3025C114.45 57.6144 115.113 61.3585 113.385 65.4481C112.521 67.5217 112.002 69.6961 111.225 71.7985C109.482 76.5505 105.969 78.8977 101.058 79.4305C97.775 79.7761 94.535 79.3584 91.2806 79.0848C89.9126 78.9696 88.559 78.9841 87.2198 79.2577C85.391 79.6321 84.7574 80.208 84.6278 82.0513C84.455 84.4561 84.743 86.7024 86.615 88.5744C90.143 92.0736 92.0582 96.4368 93.0086 101.261C93.1526 101.981 93.383 102.686 93.6998 103.349C93.9014 103.781 94.1462 103.939 94.6502 103.795C95.7878 103.464 96.7958 102.888 97.7462 102.211C101.015 99.9073 103.665 96.984 106.17 93.9024C109.079 90.3312 111.628 86.5009 114.061 82.5984C115.415 80.4097 117.474 79.488 119.98 79.8913C122.399 80.28 123.997 81.7345 124.703 84.1105C125.092 85.4208 124.933 86.7025 124.444 87.9553C122.889 91.9441 120.729 95.6161 118.338 99.1585C114.551 104.789 110.274 110.045 105.292 114.682C102.455 117.317 99.4454 119.722 95.8742 121.334C93.1238 122.587 90.2582 123.206 87.263 122.357C83.6486 121.334 81.4886 118.771 80.2646 115.387C79.199 112.435 78.5798 109.339 77.6582 106.344C76.463 102.384 75.3542 98.3808 73.3958 94.7088C71.9558 92.0016 70.2422 89.4384 68.8454 86.7024C67.2902 83.6353 65.591 80.6113 64.5686 77.2993C63.8774 75.0673 63.7334 72.792 64.7558 70.6032C66.1094 67.7232 68.5718 66.4848 71.5958 66.1248C74.8646 65.736 78.0614 66.3409 81.2438 66.9169C85.2038 67.6225 89.135 68.5585 93.1526 68.9185C94.5494 69.0481 95.9606 69.0912 97.3574 68.8321C98.3078 68.6593 98.4374 68.5009 98.423 67.5505C98.3798 65.5489 97.8182 63.6624 97.0262 61.8336C96.6518 60.984 95.8598 60.5953 95.0534 60.2928C93.1238 59.5728 91.1078 59.4433 89.0774 59.4001C87.119 59.3569 85.1606 59.4001 83.5046 59.5153L83.5334 59.4865Z" fill="#924FFF"/>
<path d="M57.2701 46.8299C51.8989 46.4987 46.5997 45.8219 41.6605 43.4891C37.0669 41.3292 33.9709 37.9308 32.8765 32.8332C31.7101 27.4044 33.3517 22.854 37.2253 19.0668C41.9053 14.502 47.6509 12.2844 54.1309 12.198C58.4509 12.1404 62.1373 13.7532 64.6285 17.5116C65.6365 19.0236 66.198 20.7084 66.3996 22.5084C66.4428 22.8684 66.6012 23.1276 66.7884 23.4012C69.6396 27.7356 70.878 32.4444 69.9564 37.5996C69.1212 42.2652 65.5788 45.6059 60.7549 46.4987C59.6029 46.7147 58.4365 46.8155 57.2701 46.8299ZM54.3613 34.8924C55.2397 34.8636 55.9021 34.806 56.5501 34.6188C57.5581 34.3164 57.8317 33.9708 57.8173 32.934C57.7885 31.6668 57.3277 30.4716 57.1261 29.2188C57.0973 29.0316 56.9389 28.9596 56.8093 28.8444C55.9597 28.0812 55.1101 27.3036 54.2461 26.5548C53.0221 25.4892 51.8125 24.4092 50.3149 23.7324C49.1773 23.214 48.4861 23.3148 47.5933 24.1644C46.6573 25.0428 45.9661 26.0796 45.3901 27.2172C44.6845 28.6284 44.8573 29.9388 45.9085 31.1196C48.2269 33.6828 51.2509 34.6188 54.3613 34.9068V34.8924Z" fill="#924FFF"/>
<path d="M50.787 69.3649C44.811 69.5953 39.0942 68.4865 33.7518 65.8369C29.0286 63.5041 24.3054 63.7489 19.4382 65.1313C16.011 66.1105 12.5118 66.4561 8.98384 65.6497C7.35664 65.2753 5.87344 64.5841 4.69264 63.3745C2.70544 61.3585 2.27344 58.4353 3.54064 55.7713C4.03024 54.7489 4.69264 53.8417 5.47024 53.0497C7.08304 51.3937 8.91184 50.0257 10.9278 48.9313C13.6782 47.4481 16.5006 47.5057 19.2942 48.8449C19.827 49.1041 20.3598 49.3633 20.8926 49.6369C23.787 51.1777 26.6382 51.1921 29.5326 49.5937C31.8366 48.3265 34.1406 47.0161 36.6318 46.0945C38.331 45.4753 40.0734 45.1297 41.8878 45.5185C44.7822 46.1521 46.7982 48.5713 47.043 51.6241C47.1726 53.1649 46.9854 54.6625 46.7118 56.1601C46.6974 56.2609 46.6686 56.3473 46.6542 56.4337C46.3806 58.1905 46.827 58.8817 48.555 59.3281C50.427 59.8177 52.3278 59.7457 54.2286 59.5585C55.3086 59.4433 56.3886 59.1841 57.4974 59.4577C59.7294 59.9905 61.2558 61.9201 61.2126 64.2385C61.1694 66.4561 59.5854 68.3569 57.3966 68.7889C55.2078 69.2353 52.9902 69.2209 50.787 69.3217V69.3649Z" fill="#924FFF"/>
</svg>
