<svg width="797" height="522" viewBox="0 0 797 522" fill="none" xmlns="http://www.w3.org/2000/svg">
<path d="M19.5812 87.4023C25.2985 97.9831 31.1227 100.035 35.6535 100.035C45.4698 100.035 49.245 95.7158 49.245 89.7776C49.245 75.5259 9.98079 81.896 9.98079 53.2847C9.98079 39.1409 21.0915 30.2876 37.3797 30.2876C46.5483 30.2876 58.7375 35.9019 64.2389 50.2616L49.8927 55.5519C46.1165 46.0508 40.939 44.2153 37.3797 44.2153C29.9362 44.2153 26.269 48.3182 26.269 53.2847C26.269 67.4284 65.5332 63.2176 65.5332 89.7776C65.5332 104.029 54.3146 113.962 35.6535 113.962C23.4643 113.962 13.3241 106.62 6.3125 94.9601L19.5812 87.4023ZM110.648 113.746C90.1524 113.746 77.9633 99.8186 77.9633 79.9526V31.1513H94.3595V79.7366C94.3595 91.1811 99.3211 98.415 110.648 98.415C121.974 98.415 126.936 91.1811 126.936 79.7366V31.1513H143.332V79.9526C143.332 99.8186 131.143 113.746 110.648 113.746ZM158.126 31.1513H174.522V112.991H158.126V31.1513ZM246.902 31.1513V45.187H225.544V112.991H209.148V45.187H187.358V31.1513H246.902Z" fill="#924FFF"/>
<path d="M17.9334 219.777H22.5642V246.643H17.9334V219.777ZM0 238.288C4.63079 236.251 6.22304 231.704 6.22304 227.955V227.631H1.00251V224.029H6.22304V220.457H10.8538V224.029H15.9864V227.631H10.8538V227.955C10.8538 231.498 12.506 235.897 17.1368 237.875L14.7179 241.387C11.7684 240.207 9.79232 237.875 8.61289 235.07C7.46244 238.052 5.45638 240.561 2.41883 241.831L0 238.288ZM44.7156 219.777H49.0815V246.643H44.7156V233.505H43.1524V245.521H38.8754V220.131H43.1524V229.845H44.7156V219.777ZM26.5463 240.237V222.346H37.3421V240.237H26.5463ZM30.8233 236.634H33.0652V225.948H30.8233V236.634ZM68.6372 219.777H73.239V228.251H76.3355V231.999H73.239V240.768H68.6372V219.777ZM51.2645 234.923C53.0636 234.923 55.0987 234.923 57.2527 234.864V233.564C54.539 233.092 52.8278 231.645 52.8278 229.608C52.8278 227.01 55.5125 225.446 59.5236 225.446C63.5646 225.446 66.2193 227.01 66.2193 229.608C66.2193 231.645 64.5671 233.063 61.8534 233.564V234.657C63.8295 234.509 65.8356 234.332 67.6937 234.066L68.0475 237.196C62.5021 238.229 56.3081 238.347 51.7953 238.406L51.2645 234.923ZM51.9432 224.943V221.696H57.2527V219.659H61.8534V221.696H67.1039V224.943H51.9432ZM54.8338 246.259V239.44H59.4936V242.598H74.1236V246.259H54.8338ZM57.2227 229.608C57.2227 230.406 58.0483 230.701 59.5236 230.701C61.0278 230.701 61.8534 230.406 61.8534 229.608C61.8534 228.782 61.0278 228.487 59.5236 228.487C58.0483 228.487 57.2227 228.782 57.2227 229.608ZM77.8708 222.257H92.7657V226.066H87.781V226.538C87.781 230.494 89.3733 235.247 94.0641 237.373L91.5562 241.004C88.6366 239.705 86.6896 237.285 85.5391 234.391C84.4187 237.609 82.4126 240.296 79.3751 241.684L76.7793 238.052C81.528 235.838 83.1503 230.848 83.1503 226.538V226.066H77.8708V222.257ZM94.0641 246.673V219.807H98.6948V229.726H102.322V233.505H98.6948V246.673H94.0641ZM111.113 221.283C115.272 221.283 118.516 224.147 118.516 228.015C118.516 231.173 116.422 233.623 113.443 234.479V237.698C115.301 237.609 117.159 237.462 118.899 237.226L119.254 240.532C113.738 241.625 107.897 241.594 103.503 241.565L102.972 237.875C104.742 237.875 106.747 237.875 108.871 237.845V234.509C105.833 233.682 103.679 231.203 103.679 228.015C103.679 224.147 106.925 221.283 111.113 221.283ZM108.192 228.015C108.192 229.904 109.432 230.878 111.113 230.878C112.764 230.878 114.004 229.904 114.004 228.015C114.004 226.125 112.764 225.181 111.113 225.181C109.432 225.181 108.192 226.125 108.192 228.015ZM120.139 246.643V219.777H124.739V229.993H127.896V233.8H124.739V246.643H120.139ZM135.845 239.971H145.637V235.484H138.234V221.372H142.806V225.151H153.07V221.372H157.642V235.484H150.268V239.971H160.119V243.69H135.845V239.971ZM142.806 231.852H153.07V228.723H142.806V231.852ZM162.568 222.789H171.388V219.954H176.019V222.789H184.868V226.42H162.568V222.789ZM161.625 244.163V240.473H171.388V237.757C167.022 237.285 164.397 235.424 164.397 232.532C164.397 229.195 167.967 227.217 173.659 227.217C179.351 227.217 182.921 229.195 182.921 232.532C182.921 235.395 180.325 237.255 176.019 237.757V240.473H185.899V244.163H161.625ZM169.116 232.532C169.116 233.83 170.591 234.302 173.659 234.302C176.727 234.302 178.201 233.83 178.201 232.532C178.201 231.262 176.727 230.76 173.659 230.76C170.591 230.76 169.116 231.262 169.116 232.532ZM187.788 222.257H202.683V226.066H197.699V226.538C197.699 230.494 199.292 235.247 203.981 237.373L201.474 241.004C198.554 239.705 196.607 237.285 195.457 234.391C194.336 237.609 192.33 240.296 189.293 241.684L186.697 238.052C191.446 235.838 193.068 230.848 193.068 226.538V226.066H187.788V222.257ZM203.981 246.673V219.807H208.612V229.726H212.24V233.505H208.612V246.673H203.981ZM213.184 231.616H237.46V234.893H213.184V231.616ZM215.81 238.878V235.808H234.658V242.539H220.411V243.454H235.336V246.525H215.839V239.705H230.115V238.878H215.81ZM216.105 223.143V220.072H234.599V226.833H220.677V227.719H235.1V230.789H216.134V223.999H230.056V223.143H216.105ZM254.375 220.752C258.504 220.752 261.513 223.173 261.513 226.627C261.513 229.993 258.504 232.473 254.375 232.473C250.275 232.473 247.237 229.993 247.237 226.627C247.237 223.173 250.275 220.752 254.375 220.752ZM245.88 233.682C250.393 233.682 256.941 233.653 262.516 232.768L262.81 236.133C260.834 236.546 258.799 236.811 256.793 236.99V245.845H252.163V237.285C250.069 237.373 248.122 237.403 246.381 237.403L245.88 233.682ZM251.662 226.627C251.662 228.044 252.812 228.723 254.375 228.723C255.968 228.723 257.118 228.044 257.118 226.627C257.118 225.151 255.968 224.471 254.375 224.471C252.812 224.471 251.662 225.151 251.662 226.627ZM263.843 246.643V219.777H268.445V246.643H263.843ZM288.178 219.807H292.809V227.66H296.141V231.439H292.809V239.853H288.178V219.807ZM271.483 225.918V222.346H277.058V219.748H281.659V222.346H287.234V225.918H271.483ZM272.693 231.881C272.693 228.782 275.494 226.627 279.389 226.627C283.282 226.627 286.083 228.782 286.083 231.881C286.083 235.011 283.282 237.167 279.389 237.167C275.494 237.167 272.693 235.011 272.693 231.881ZM275.17 246.259V238.376H279.801V242.598H293.635V246.259H275.17ZM277.117 231.881C277.117 233.122 278.061 233.682 279.389 233.682C280.686 233.682 281.629 233.122 281.629 231.881C281.629 230.642 280.686 230.081 279.389 230.081C278.061 230.081 277.117 230.642 277.117 231.881ZM317.658 227.808H322.23V219.748H326.832V246.732H322.23V231.498H317.658V227.808ZM303.501 237.698C308.397 235.513 309.931 230.288 309.931 225.122V221.696H314.562V225.122C314.562 230.317 315.889 235.247 320.638 237.314L317.894 240.974C315.092 239.646 313.293 237.344 312.232 234.45C311.11 237.521 309.252 240.001 306.362 241.387L303.501 237.698ZM347.686 219.748H352.317V246.732H347.686V219.748ZM331.08 240.561V221.814H335.652V228.044H340.017V221.814H344.589V240.561H331.08ZM335.652 236.901H340.017V231.616H335.652V236.901ZM365.205 221.165H370.163V223.025C370.163 226.597 372.492 230.848 379.339 231.94L377.39 235.779C372.522 234.893 369.363 232.473 367.654 229.342C365.945 232.443 362.787 234.893 357.949 235.779L356.004 231.94C362.787 230.848 365.205 226.479 365.205 223.025V221.165ZM355.68 243.543V239.794H379.958V243.543H355.68ZM400.379 220.013C406.606 220.013 410.264 221.578 410.264 224.53C410.264 227.099 407.455 228.664 402.618 228.988V230.258H412.503V233.859H388.225V230.258H397.99V228.988C393.242 228.605 390.503 227.069 390.503 224.53C390.503 221.578 394.162 220.013 400.379 220.013ZM390.913 238.258V234.864H409.644V242.244H395.481V243.13H410.324V246.555H390.943V239.085H405.096V238.258H390.913ZM395.311 224.53C395.311 225.476 396.78 225.741 400.379 225.741C403.977 225.741 405.456 225.476 405.456 224.53C405.456 223.645 403.977 223.32 400.379 223.32C396.78 223.32 395.311 223.645 395.311 224.53ZM431.914 219.748H436.541V246.732H431.914V219.748ZM415.362 225.594V221.932H428.195V232.768H420.079V236.841C423.917 236.782 427.046 236.575 430.404 235.985L430.884 239.676C426.806 240.443 422.888 240.591 417.84 240.591H415.391V229.136H423.478V225.594H415.362Z" fill="#F9F4FF"/>
<path d="M473.454 236.866C474.564 238.933 475.703 239.333 476.593 239.333C478.502 239.333 479.241 238.49 479.241 237.331C479.241 234.547 471.575 235.791 471.575 230.203C471.575 227.44 473.744 225.712 476.923 225.712C478.712 225.712 481.101 226.808 482.17 229.612L479.371 230.646C478.632 228.79 477.622 228.432 476.923 228.432C475.473 228.432 474.754 229.233 474.754 230.203C474.754 232.966 482.42 232.143 482.42 237.331C482.42 240.114 480.231 242.054 476.593 242.054C474.204 242.054 472.225 240.62 470.855 238.343L473.454 236.866ZM491.236 242.012C487.238 242.012 484.849 239.291 484.849 235.412V225.88H488.057V235.37C488.057 237.605 489.027 239.017 491.236 239.017C493.445 239.017 494.414 237.605 494.414 235.37V225.88H497.623V235.412C497.623 239.291 495.244 242.012 491.236 242.012ZM500.511 225.88H503.71V241.865H500.511V225.88ZM517.853 225.88V228.621H513.675V241.865H510.477V228.621H506.219V225.88H517.853ZM538.073 225.88V241.865H534.865V235.032H528.418V241.865H525.22V225.88H528.418V232.29H534.865V225.88H538.073ZM545.68 241.907C542.681 241.907 540.582 239.756 540.582 236.676C540.582 233.577 542.681 231.405 545.68 231.405C549.008 231.405 550.078 234.146 550.118 234.23C550.757 235.475 550.587 237.373 550.587 237.752H543.571C543.841 238.701 544.81 239.27 545.7 239.27C546.809 239.27 547.379 238.806 547.589 238.385L550.228 239.375C549.738 240.578 548.269 241.907 545.68 241.907ZM543.591 235.875H547.659C547.409 234.736 546.749 234.02 545.68 234.02C544.62 234.02 543.841 234.673 543.591 235.875ZM563.022 231.426L558.474 241.907H555.845L551.417 231.426H554.895L557.144 237.626L559.503 231.426H563.022ZM568.379 241.928C565.48 241.928 563.621 239.756 563.621 236.676C563.621 233.598 565.48 231.426 568.379 231.426C569.249 231.426 570.408 231.742 571.118 232.713V231.405H574.326V241.907H571.118V240.662C570.408 241.611 569.249 241.928 568.379 241.928ZM566.82 236.676C566.82 238.364 567.579 239.333 568.889 239.333C570.128 239.333 571.098 238.216 571.118 236.676C571.098 235.138 570.128 234.02 568.889 234.02C567.579 234.02 566.82 234.99 566.82 236.676ZM581.233 246.081H577.734L580.153 240.536L575.965 231.426H579.504L581.822 237.056L584.091 231.426H587.59L583.692 240.43L581.233 246.081ZM602.992 233.598C604.432 234.399 605.441 235.918 605.441 237.247C605.441 239.882 603.142 241.737 599.854 241.737C596.565 241.737 594.277 239.756 594.277 236.929H597.475C597.475 238.09 598.465 238.912 599.854 238.912C601.333 238.912 602.383 238.09 602.383 236.929C602.383 235.728 601.353 234.885 599.894 234.885H598.844V232.353H599.944C601.243 232.353 602.153 231.595 602.153 230.52C602.153 229.528 601.273 228.832 600.004 228.832C598.824 228.832 597.985 229.528 597.985 230.52H594.776C594.776 227.863 596.925 226.007 600.004 226.007C603.042 226.007 605.191 227.736 605.191 230.203C605.191 231.426 604.282 232.839 602.992 233.598ZM610.799 235.201L607.62 234.864L608.19 226.133H617.206V228.917H611.258L611.068 231.447C611.638 231.278 612.228 231.173 612.778 231.173C616.166 231.173 618.555 233.366 618.555 236.508C618.555 239.629 616.166 241.823 612.778 241.823C610.099 241.823 607.78 240.051 607.17 237.542L610.289 236.782C610.569 237.984 611.598 238.827 612.778 238.827C614.297 238.827 615.346 237.879 615.346 236.508C615.346 235.138 614.297 234.167 612.778 234.167C612.208 234.167 611.388 234.589 610.799 235.201ZM626.471 239.27C627.761 239.27 628.52 238.3 628.52 236.613C628.52 234.927 627.761 233.956 626.471 233.956C625.172 233.956 624.182 235.074 624.182 236.613C624.182 238.153 625.172 239.27 626.471 239.27ZM620.974 246.271V231.384H624.182V232.755C625.142 231.51 626.661 231.363 626.941 231.363C629.85 231.363 631.719 233.535 631.719 236.613C631.719 239.714 629.85 241.886 626.941 241.886C626.661 241.886 625.142 241.844 624.182 240.494V246.271H620.974ZM644.463 231.426L640.624 236.698L644.333 241.907H640.434L638.605 239.101L636.836 241.907H632.918L636.536 236.698L632.728 231.426H636.706L638.605 234.399L640.484 231.426H644.463Z" fill="#F9F4FF"/>
<path d="M18.9959 290.191H21.9154V316.318H18.9959V290.191ZM0.767578 309.144C4.77866 307.285 7.34543 302.886 7.34543 298.517V296.922H1.56419V294.619H7.31541V290.694H10.236V294.619H15.9583V296.922H10.236V298.517C10.236 302.68 12.8608 306.93 16.9018 308.672L15.3086 310.916C12.33 309.617 10.0292 306.9 8.84971 303.653C7.66928 307.107 5.36834 309.971 2.35977 311.358L0.767578 309.144ZM45.7201 290.191H48.4627V316.318H45.7201V302.768H42.6815V315.049H39.9389V290.723H42.6815V300.406H45.7201V290.191ZM27.108 309.498V293.084H37.1661V309.498H27.108ZM29.7917 307.226H34.4525V295.357H29.7917V307.226ZM69.4937 290.191H72.3844V299.077H76.0416V301.469H72.3844V310.621H69.4937V290.191ZM51.7962 305.514C53.7722 305.514 56.0731 305.484 58.4919 305.425V303.594C55.5723 303.27 53.7432 301.852 53.7432 299.668C53.7432 297.158 56.1911 295.653 59.9073 295.653C63.6245 295.653 66.1023 297.158 66.1023 299.668C66.1023 301.823 64.2732 303.24 61.3826 303.594V305.277C63.6835 305.13 65.9844 304.923 68.1073 304.598L68.3433 306.635C62.8279 307.639 56.6339 307.757 52.15 307.787L51.7962 305.514ZM52.4459 294.708V292.582H58.4919V290.073H61.3826V292.582H67.3697V294.708H52.4459ZM55.5724 315.787V309.292H58.4919V313.425H73.2989V315.787H55.5724ZM56.4859 299.668C56.4859 300.937 57.7843 301.675 59.9073 301.675C62.0313 301.675 63.3586 300.937 63.3586 299.668C63.3586 298.399 62.0313 297.66 59.9073 297.66C57.7843 297.66 56.4859 298.399 56.4859 299.668ZM78.2545 292.789H92.4428V295.21H86.8674V297.838C86.8674 301.882 89.4932 306.546 93.4453 308.406L91.8231 310.709C88.9025 309.292 86.6315 306.399 85.4811 303.034C84.2716 306.694 81.9418 309.853 78.9632 311.329L77.311 309.056C81.2341 307.137 84.0068 302.206 84.0068 297.838V295.21H78.2545V292.789ZM95.0675 316.318V290.191H97.9871V300.524H102.058V302.945H97.9871V316.318H95.0675ZM111.32 291.815C115.332 291.815 118.281 294.413 118.281 298.074C118.281 301.292 116.039 303.653 112.795 304.214V308.288C115.037 308.17 117.278 308.023 119.373 307.728L119.609 309.853C114.151 310.798 108.164 310.857 103.68 310.827L103.268 308.465C105.244 308.465 107.545 308.465 109.904 308.406V304.214C106.601 303.683 104.33 301.321 104.33 298.074C104.33 294.413 107.28 291.815 111.32 291.815ZM107.162 298.074C107.162 300.347 108.902 301.852 111.32 301.852C113.71 301.852 115.45 300.347 115.45 298.074C115.45 295.771 113.71 294.295 111.32 294.295C108.902 294.295 107.162 295.771 107.162 298.074ZM120.906 316.318V290.191H123.797V300.76H127.69V303.181H123.797V316.318H120.906ZM136.141 310.709H146.494V305.395H138.825V291.962H141.686V296.361H154.192V291.962H157.053V305.395H149.355V310.709H159.797V313.101H136.141V310.709ZM141.686 303.063H154.192V298.694H141.686V303.063ZM163.041 293.764H172.244V290.545H175.164V293.764H184.337V296.125H163.041V293.764ZM161.921 313.396V311.034H172.244V307.61C167.761 307.315 165.018 305.514 165.018 302.621C165.018 299.491 168.35 297.63 173.689 297.63C179.028 297.63 182.332 299.491 182.332 302.621C182.332 305.514 179.618 307.315 175.164 307.61V311.034H185.576V313.396H161.921ZM167.968 302.621C167.968 304.421 170.062 305.395 173.689 305.395C177.288 305.395 179.382 304.421 179.382 302.621C179.382 300.878 177.288 299.874 173.689 299.874C170.062 299.874 167.968 300.878 167.968 302.621ZM188.172 292.789H202.36V295.21H196.785V297.838C196.785 301.882 199.411 306.546 203.363 308.406L201.741 310.709C198.82 309.292 196.549 306.399 195.399 303.034C194.189 306.694 191.859 309.853 188.881 311.329L187.228 309.056C191.152 307.137 193.924 302.206 193.924 297.838V295.21H188.172V292.789ZM204.985 316.318V290.191H207.905V300.524H211.976V302.945H207.905V316.318H204.985ZM213.481 302.206H237.136V304.332H213.481V302.206ZM216.224 308.17V306.133H234.216V311.95H219.143V313.986H235.013V316.053H216.283V310.031H231.384V308.17H216.224ZM216.429 292.877V290.841H234.127V296.568H219.32V298.458H234.629V300.524H216.489V294.649H231.266V292.877H216.429ZM254.523 291.343C258.446 291.343 261.248 293.557 261.248 296.804C261.248 299.992 258.446 302.236 254.523 302.236C250.63 302.236 247.799 299.992 247.799 296.804C247.799 293.557 250.63 291.343 254.523 291.343ZM246.028 304.185C250.748 304.185 257.326 304.155 262.988 303.27L263.166 305.425C260.835 305.868 258.446 306.133 256.087 306.31V315.521H253.196V306.458C250.748 306.576 248.418 306.605 246.382 306.605L246.028 304.185ZM250.6 296.804C250.6 298.664 252.252 299.845 254.523 299.845C256.824 299.845 258.475 298.664 258.475 296.804C258.475 294.914 256.824 293.734 254.523 293.734C252.252 293.734 250.6 294.914 250.6 296.804ZM264.699 316.348V290.191H267.59V316.348H264.699ZM289.3 290.22H292.19V298.546H295.906V300.967H292.19V309.765H289.3V290.22ZM271.897 295.506V293.203H278.121V290.191H281.041V293.203H287.265V295.506H271.897ZM273.283 301.705C273.283 298.723 275.849 296.775 279.566 296.775C283.311 296.775 285.907 298.723 285.907 301.705C285.907 304.657 283.311 306.635 279.566 306.635C275.849 306.635 273.283 304.657 273.283 301.705ZM275.731 315.787V308.229H278.622V313.425H293.311V315.787H275.731ZM276.056 301.705C276.056 303.358 277.472 304.391 279.566 304.391C281.689 304.391 283.106 303.358 283.106 301.705C283.106 300.022 281.689 298.989 279.566 298.989C277.472 298.989 276.056 300.022 276.056 301.705ZM317.482 298.812H323.145V290.161H326.007V316.348H323.145V301.144H317.482V298.812ZM304.239 308.584C308.28 306.605 310.875 301.587 310.875 296.686V292.346H313.796V296.686C313.796 301.498 316.303 306.281 320.314 308.111L318.604 310.444C315.654 308.997 313.5 306.104 312.351 302.591C311.2 306.281 308.987 309.38 306.038 310.886L304.239 308.584ZM348.748 290.161H351.639V316.348H348.748V290.161ZM331.582 310.119V292.346H334.473V299.018H341.227V292.346H344.088V310.119H331.582ZM334.473 307.787H341.227V301.321H334.473V307.787ZM366.156 291.844H369.214V293.823C369.214 298.045 373.492 302.059 378.6 302.975L377.301 305.366C373.083 304.45 369.364 301.764 367.685 298.133C365.976 301.734 362.258 304.45 358.07 305.366L356.801 302.975C361.848 302.029 366.156 298.015 366.156 293.823V291.844ZM355.976 312.894V310.532H379.629V312.894H355.976ZM400.35 290.486C406.167 290.486 409.645 292.081 409.645 294.973C409.645 297.63 406.727 299.195 401.769 299.461V301.233H412.124V303.565H388.555V301.233H398.85V299.461C393.923 299.195 391.064 297.601 391.064 294.973C391.064 292.081 394.512 290.486 400.35 290.486ZM391.324 307.639V305.425H409.175V311.654H394.243V313.868H409.905V316.082H391.414V309.588H406.307V307.639H391.324ZM394.043 294.973C394.043 296.509 396.282 297.306 400.35 297.306C404.398 297.306 406.637 296.509 406.637 294.973C406.637 293.468 404.398 292.641 400.35 292.641C396.282 292.641 394.043 293.468 394.043 294.973ZM432.944 290.161H435.833V316.348H432.944V290.161ZM415.752 294.885V292.553H427.906V302.177H418.731V307.728C422.889 307.698 426.517 307.551 430.735 306.841L431.025 309.174C426.487 309.971 422.589 310.119 418.021 310.119H415.812V299.815H424.978V294.885H415.752Z" fill="#F9F4FF"/>
<path d="M472.815 307.34C473.685 309.047 474.984 310.039 476.464 310.06C478.483 310.081 479.682 309.068 479.682 307.487C479.682 303.754 471.826 305.357 471.826 299.958C471.826 297.449 473.935 295.974 476.734 296.016C478.803 296.037 480.592 297.154 481.411 299.474L479.602 300.127C479.122 298.567 477.983 297.766 476.714 297.744C475.004 297.744 473.825 298.588 473.825 299.979C473.825 303.649 481.671 302.194 481.671 307.508C481.671 310.081 479.642 311.852 476.444 311.788C474.185 311.767 472.416 310.481 471.156 308.267L472.815 307.34ZM490.407 311.767C486.719 311.767 484.57 309.195 484.57 305.547V296.184H486.549V305.547C486.549 308.162 487.878 309.955 490.407 309.955C492.936 309.955 494.245 308.162 494.245 305.547V296.184H496.244V305.547C496.244 309.195 494.095 311.767 490.407 311.767ZM499.553 296.184H501.532V311.62H499.553V296.184ZM515.515 296.184V297.935H511.067V311.62H509.068V297.935H504.62V296.184H515.515ZM524.97 307.34C525.84 309.047 527.149 310.039 528.619 310.06C530.638 310.081 531.847 309.068 531.847 307.487C531.847 303.754 523.981 305.357 523.981 299.958C523.981 297.449 526.09 295.974 528.889 296.016C530.958 296.037 532.747 297.154 533.566 299.474L531.757 300.127C531.278 298.567 530.138 297.766 528.869 297.744C527.169 297.744 525.99 298.588 525.99 299.979C525.99 303.649 533.826 302.194 533.826 307.508C533.826 310.081 531.797 311.852 528.599 311.788C526.34 311.767 524.571 310.481 523.311 308.267L524.97 307.34ZM541.023 311.704C538.224 311.704 536.245 309.638 536.245 306.706C536.245 303.776 538.224 301.688 541.023 301.688C544.101 301.688 545.071 304.197 545.131 304.387C545.741 305.863 545.531 307.403 545.531 307.508H538.244C538.494 308.963 539.674 309.976 541.023 309.976C542.832 309.976 543.532 308.879 543.682 308.626L545.261 309.384C544.771 310.503 543.382 311.704 541.023 311.704ZM538.244 305.884H543.632C543.442 304.513 542.712 303.417 541.023 303.417C539.614 303.417 538.494 304.429 538.244 305.884ZM560.624 305.842C560.624 304.429 559.794 303.459 558.614 303.459C557.265 303.459 556.346 304.429 556.346 305.716V311.641H554.336V305.842C554.336 304.429 553.537 303.459 552.377 303.459C551.038 303.459 550.088 304.598 550.088 306.011V311.641H548.079V301.688H550.088V303.08C550.678 302.278 551.598 301.709 552.527 301.709C553.727 301.709 554.926 302.469 555.496 303.523C556.176 302.469 557.505 301.709 558.724 301.709C561.023 301.709 562.623 303.396 562.623 305.737V311.641H560.624V305.842ZM565.651 301.688H567.66V311.62H565.651V301.688ZM565.481 297.893C565.481 297.217 565.971 296.732 566.641 296.732C567.32 296.732 567.8 297.217 567.8 297.893C567.8 298.567 567.32 299.052 566.641 299.052C565.971 299.052 565.481 298.567 565.481 297.893ZM570.969 311.62V296.184H575.956C578.425 296.184 580.174 297.914 580.174 300.381C580.174 301.351 579.664 302.468 578.885 303.249C579.075 303.354 579.265 303.459 579.434 303.565C580.594 304.345 581.434 305.863 581.434 307.255C581.434 309.828 579.684 311.62 577.176 311.62H570.969ZM572.948 309.87H577.036C578.485 309.87 579.474 308.815 579.474 307.298C579.474 305.653 578.485 304.534 577.036 304.534H572.948V309.87ZM572.948 302.785H576.106C577.365 302.722 578.235 301.772 578.235 300.444C578.235 298.947 577.266 297.935 575.826 297.935H572.948V302.785ZM588.45 310.018C590.089 310.018 591.229 308.689 591.229 306.706C591.229 304.745 590.089 303.417 588.45 303.417C586.781 303.417 585.662 304.724 585.662 306.706C585.662 308.689 586.781 310.018 588.45 310.018ZM583.663 306.706C583.663 303.776 585.642 301.688 588.45 301.688C591.249 301.688 593.208 303.776 593.208 306.706C593.208 309.638 591.249 311.746 588.45 311.746C585.642 311.746 583.663 309.638 583.663 306.706ZM595.377 296.648H597.376V311.62H595.377V296.648ZM604.253 311.746C601.484 311.746 599.505 309.659 599.505 306.706C599.505 303.754 601.484 301.667 604.253 301.667C605.172 301.667 606.422 302.088 607.261 303.291V296.648H609.26V311.641H607.261V310.123C606.402 311.282 605.172 311.746 604.253 311.746ZM601.504 306.728C601.504 308.71 602.663 310.039 604.373 310.039C605.932 310.039 607.261 308.583 607.261 306.728C607.261 304.894 605.932 303.417 604.373 303.417C602.663 303.417 601.504 304.745 601.504 306.728ZM624.793 303.649C626.162 304.45 626.982 305.948 626.982 307.234C626.982 309.828 624.883 311.683 621.864 311.683C618.896 311.683 616.787 309.807 616.787 307.149H618.786C618.786 308.773 620.055 309.912 621.864 309.912C623.723 309.912 625.023 308.773 625.023 307.149C625.023 305.589 623.743 304.492 621.904 304.492H620.815V302.785H621.924C623.613 302.785 624.793 301.772 624.793 300.36C624.793 298.904 623.653 297.893 622.014 297.893C620.365 297.893 619.236 298.926 619.236 300.381H617.226C617.226 297.872 619.216 296.121 622.014 296.121C624.793 296.121 626.752 297.851 626.752 300.297C626.752 301.456 626.032 302.848 624.793 303.649ZM631.789 304.577L629.79 304.303L630.29 296.248H638.296V297.998H632.209L631.959 302.067C632.669 301.709 633.499 301.498 634.228 301.498C637.347 301.498 639.536 303.607 639.536 306.601C639.536 309.638 637.347 311.767 634.228 311.767C631.79 311.767 629.7 310.123 629.151 307.804L631.09 307.361C631.43 308.836 632.719 309.891 634.228 309.891C636.167 309.891 637.537 308.52 637.537 306.601C637.537 304.724 636.167 303.375 634.228 303.375C633.409 303.375 632.399 303.881 631.789 304.577ZM647.222 310.018C648.911 310.018 650.051 308.668 650.051 306.685C650.051 304.724 648.911 303.375 647.222 303.375C645.643 303.375 644.333 304.873 644.333 306.685C644.333 308.52 645.643 310.018 647.222 310.018ZM642.314 316.111V301.688H644.313V303.27C645.053 302.173 646.422 301.688 647.312 301.688C650.091 301.688 652.05 303.754 652.05 306.685C652.05 309.659 650.091 311.725 647.312 311.725C646.402 311.725 645.053 311.198 644.313 310.144V316.111H642.314ZM663.085 301.688L659.356 306.685L663.035 311.641H660.556L658.197 308.352L655.858 311.641H653.369L657.017 306.685L653.309 301.688H655.808L658.197 305.062L660.576 301.688H663.085Z" fill="#F9F4FF"/>
<path d="M19.2033 360.28H21.7691V386.26H19.2033V360.28ZM0.916016 379.322C4.80916 377.521 7.55188 373.122 7.55188 368.634V366.804H1.65266V364.767H7.55188V360.782H10.1186V364.767H15.9289V366.804H10.0886V368.634C10.0886 372.915 12.9503 377.137 16.8724 378.85L15.4271 380.827C12.4775 379.499 10.0597 376.724 8.87925 373.328C7.7288 376.901 5.33992 379.853 2.33135 381.27L0.916016 379.322ZM45.8976 360.28H48.3454V386.26H45.8976V372.62H42.5641V384.96H40.1753V360.841H42.5641V370.524H45.8976V360.28ZM27.1965 379.351V363.232H37.1078V379.351H27.1965ZM29.5863 377.344H34.7479V365.269H29.5863V377.344ZM69.6712 360.28H72.2379V369.284H75.9832V371.409H72.2379V380.591H69.6712V360.28ZM51.8857 375.631C53.9207 375.631 56.2806 375.602 58.7584 375.513V373.653C55.7789 373.358 53.9207 371.882 53.9207 369.698C53.9207 367.218 56.3096 365.712 59.9678 365.712C63.6541 365.712 66.0729 367.218 66.0729 369.698C66.0729 371.882 64.2148 373.328 61.2652 373.653V375.424C63.6251 375.277 66.014 375.07 68.1969 374.746L68.4028 376.547C62.9164 377.55 56.7224 377.668 52.2395 377.668L51.8857 375.631ZM52.5644 364.679V362.76H58.7584V360.162H61.2652V362.76H67.4293V364.679H52.5644ZM55.7198 385.698V379.263H58.2856V383.632H73.1515V385.698H55.7198ZM56.3395 369.698C56.3395 371.085 57.7549 371.912 59.9678 371.912C62.2387 371.912 63.654 371.085 63.654 369.698C63.654 368.339 62.2387 367.513 59.9678 367.513C57.7549 367.513 56.3395 368.339 56.3395 369.698ZM78.314 362.937H92.3544V365.063H86.6911V368.103C86.6911 372.207 89.4937 376.812 93.3279 378.613L91.8826 380.65C88.9919 379.233 86.6321 376.251 85.4526 372.827C84.2722 376.547 81.8244 379.823 78.9047 381.3L77.4005 379.263C81.1757 377.403 84.1843 372.502 84.1843 368.103V365.063H78.314V362.937ZM95.2739 386.289V360.309H97.8407V370.73H102.029V372.856H97.8407V386.289H95.2739ZM111.379 361.962C115.361 361.962 118.252 364.471 118.252 368.103C118.252 371.35 115.952 373.682 112.648 374.156V378.435C114.979 378.317 117.308 378.14 119.491 377.845L119.697 379.735C114.241 380.679 108.194 380.709 103.711 380.709L103.327 378.583C105.362 378.583 107.693 378.583 110.112 378.524V374.156C106.778 373.682 104.478 371.35 104.478 368.103C104.478 364.471 107.368 361.962 111.379 361.962ZM106.955 368.103C106.955 370.465 108.814 372.089 111.379 372.089C113.916 372.089 115.745 370.465 115.745 368.103C115.745 365.741 113.916 364.117 111.379 364.117C108.814 364.117 106.955 365.741 106.955 368.103ZM121.084 386.26V360.28H123.591V370.937H127.631V373.063H123.591V386.26H121.084ZM136.2 380.856H146.641V375.395H138.943V362.08H141.48V366.627H154.399V362.08H156.936V375.395H149.178V380.856H159.708V382.982H136.2V380.856ZM141.48 373.328H154.399V368.693H141.48V373.328ZM163.131 363.999H172.421V360.664H174.988V363.999H184.249V366.066H163.131V363.999ZM161.98 383.248V381.152H172.421V377.639C167.908 377.344 165.166 375.572 165.166 372.679C165.166 369.55 168.41 367.719 173.689 367.719C178.94 367.719 182.214 369.55 182.214 372.679C182.214 375.572 179.471 377.344 174.988 377.639V381.152H185.488V383.248H161.98ZM167.731 372.679C167.731 374.539 169.973 375.631 173.689 375.631C177.377 375.631 179.619 374.539 179.619 372.679C179.619 370.819 177.377 369.727 173.689 369.727C169.973 369.727 167.731 370.819 167.731 372.679ZM188.232 362.937H202.272V365.063H196.609V368.103C196.609 372.207 199.411 376.812 203.245 378.613L201.8 380.65C198.909 379.233 196.55 376.251 195.37 372.827C194.19 376.547 191.742 379.823 188.822 381.3L187.318 379.263C191.093 377.403 194.102 372.502 194.102 368.103V365.063H188.232V362.937ZM205.192 386.289V360.309H207.758V370.73H211.946V372.856H207.758V386.289H205.192ZM213.54 372.325H237.048V374.244H213.54V372.325ZM216.312 378.052V376.221H234.128V381.861H218.908V384.134H234.924V385.964H216.371V380.119H231.621V378.052H216.312ZM216.519 362.848V361.018H234.04V366.538H219.056V368.634H234.511V370.494H216.578V364.826H231.533V362.848H216.519ZM254.554 361.49C258.417 361.49 261.22 363.675 261.22 366.863C261.22 370.022 258.417 372.236 254.554 372.236C250.719 372.236 247.917 370.022 247.917 366.863C247.917 363.675 250.719 361.49 254.554 361.49ZM246.059 374.333C250.837 374.333 257.385 374.274 263.078 373.387L263.255 375.306C260.866 375.749 258.388 376.015 255.969 376.192V385.462H253.403V376.339C250.867 376.458 248.478 376.488 246.383 376.488L246.059 374.333ZM250.365 366.863C250.365 368.811 252.135 370.111 254.554 370.111C257.002 370.111 258.772 368.811 258.772 366.863C258.772 364.915 257.002 363.586 254.554 363.586C252.135 363.586 250.365 364.915 250.365 366.863ZM264.877 386.289V360.28H267.414V386.289H264.877ZM289.507 360.309H292.073V368.752H295.878V370.878H292.073V379.794H289.507V360.309ZM271.957 365.446V363.379H278.357V360.309H280.894V363.379H287.294V365.446H271.957ZM273.402 371.676C273.402 368.752 275.939 366.804 279.626 366.804C283.312 366.804 285.849 368.752 285.849 371.676C285.849 374.628 283.312 376.547 279.626 376.547C275.939 376.547 273.402 374.628 273.402 371.676ZM275.821 371.676C275.821 373.446 277.354 374.539 279.626 374.539C281.867 374.539 283.401 373.446 283.401 371.676C283.401 369.904 281.867 368.811 279.626 368.811C277.354 368.811 275.821 369.904 275.821 371.676ZM275.85 385.698V378.229H278.386V383.632H293.223V385.698H275.85ZM317.424 369.018H323.323V360.25H325.86V386.319H323.323V371.114H317.424V369.018ZM304.387 378.761C308.251 376.871 311.083 371.853 311.083 367.041V362.494H313.62V367.041C313.62 371.764 316.391 376.517 320.226 378.317L318.722 380.384C315.802 378.879 313.531 375.867 312.38 372.266C311.23 376.074 308.9 379.263 305.979 380.827L304.387 378.761ZM348.956 360.25H351.521V386.319H348.956V360.25ZM331.701 380.06V362.494H334.238V369.254H341.463V362.494H343.971V380.06H331.701ZM334.238 377.963H341.463V371.262H334.238V377.963ZM366.356 362.021H369.015V363.999C369.015 368.339 373.703 372.325 378.451 373.181L377.301 375.306C373.263 374.421 369.365 371.676 367.686 367.985C365.977 371.676 362.078 374.421 358.07 375.306L356.979 373.181C361.639 372.295 366.356 368.339 366.356 363.999V362.021ZM356.035 382.805V380.679H379.54V382.805H356.035ZM400.32 360.605C406.077 360.605 409.496 362.198 409.496 365.063C409.496 367.749 406.577 369.343 401.59 369.55V371.468H412.065V373.505H388.616V371.468H399.021V369.55C394.073 369.314 391.155 367.749 391.155 365.063C391.155 362.198 394.603 360.605 400.32 360.605ZM391.414 377.521V375.543H409.056V381.566H393.983V384.016H409.846V385.994H391.504V379.705H406.577V377.521H391.414ZM393.803 365.063C393.803 366.745 396.162 367.66 400.32 367.66C404.478 367.66 406.867 366.745 406.867 365.063C406.867 363.438 404.478 362.524 400.32 362.524C396.162 362.524 393.803 363.438 393.803 365.063ZM433.154 360.25H435.723V386.319H433.154V360.25ZM415.813 364.767V362.701H427.847V372.059H418.432V377.934C422.679 377.934 426.368 377.727 430.796 377.019L431.055 379.115C426.428 379.882 422.53 380.03 418.052 380.03H415.873V369.993H425.278V364.767H415.813Z" fill="#F9F4FF"/>
<path d="M472.316 377.79C473.096 379.33 474.465 380.574 476.164 380.595C478.293 380.616 479.773 379.457 479.773 377.622C479.773 373.446 471.896 375.197 471.896 369.883C471.896 367.542 473.896 366.129 476.464 366.15C478.463 366.171 480.112 367.31 480.762 369.313L479.603 369.714C479.183 368.28 477.914 367.289 476.444 367.268C474.565 367.268 473.156 368.259 473.156 369.904C473.156 374.206 481.032 372.413 481.032 377.643C481.032 380.089 479.073 381.755 476.144 381.713C474.065 381.692 472.396 380.447 471.217 378.381L472.316 377.79ZM489.668 381.692C486.13 381.692 484.061 379.204 484.061 375.639V366.319H485.32V375.66C485.32 378.549 486.859 380.574 489.668 380.574C492.467 380.574 494.006 378.549 494.006 375.66V366.319H495.265V375.639C495.265 379.204 493.206 381.692 489.668 381.692ZM498.754 366.319H500.013V381.544H498.754V366.319ZM513.866 366.319V367.437H509.209V381.544H507.939V367.437H503.331V366.319H513.866ZM523.242 366.319V380.426H530.638V381.544H521.982V366.319H523.242ZM533.767 371.823H535.026V381.544H533.767V371.823ZM533.557 368.111C533.557 367.605 533.887 367.268 534.397 367.268C534.906 367.268 535.236 367.605 535.236 368.111C535.236 368.617 534.906 368.955 534.397 368.955C533.887 368.955 533.557 368.617 533.557 368.111ZM542.313 380.51C544.172 380.51 545.641 378.824 545.641 376.758C545.641 374.733 544.172 372.982 542.313 372.982C540.394 372.982 539.054 374.564 539.054 376.758C539.054 378.972 540.394 380.51 542.313 380.51ZM537.785 376.758C537.785 373.91 539.664 371.844 542.313 371.844C543.702 371.844 545.011 372.687 545.641 373.868V371.823H546.911V380.953C546.911 383.843 545.091 385.994 542.293 385.994C540.754 385.994 539.454 385.382 538.435 383.906L539.474 383.252C540.204 384.37 541.133 384.855 542.293 384.855C544.362 384.855 545.641 383.167 545.641 380.911V379.583C545.011 380.806 543.662 381.671 542.313 381.671C539.664 381.671 537.785 379.625 537.785 376.758ZM556.676 376.019C556.676 374.248 555.666 373.004 554.227 373.004C552.668 373.004 551.368 374.522 551.368 376.462V381.544H550.099V366.74H551.368V373.552C551.888 372.645 552.908 371.844 554.227 371.844C556.396 371.844 557.935 373.594 557.935 375.998V381.544H556.676V376.019ZM561.813 381.544V372.94H560.024V371.823H561.813V368.533H563.073V371.823H565.432V372.94H563.073V381.544H561.813ZM579.885 373.678C581.314 374.354 582.244 375.829 582.244 377.242C582.244 379.836 580.245 381.671 577.396 381.671C574.557 381.671 572.578 379.836 572.578 377.242H573.838C573.838 379.183 575.317 380.553 577.396 380.553C579.505 380.553 580.984 379.225 580.984 377.327C580.984 375.513 579.505 374.248 577.446 374.248H576.576V373.088H577.446C579.385 373.088 580.774 371.907 580.774 370.22C580.774 368.512 579.425 367.289 577.526 367.289C575.587 367.289 574.238 368.554 574.238 370.326H572.978C572.978 367.88 574.847 366.171 577.526 366.171C580.165 366.171 582.034 367.88 582.034 370.326C582.034 371.548 581.234 372.919 579.885 373.678ZM586.592 374.333L585.332 374.122L585.792 366.298H593.338V367.437H587.011L586.702 372.645C587.521 372.139 588.511 371.823 589.4 371.823C592.319 371.823 594.408 373.847 594.408 376.715C594.408 379.667 592.319 381.734 589.4 381.734C587.081 381.734 585.102 380.173 584.573 377.98L585.812 377.685C586.192 379.372 587.651 380.532 589.4 380.532C591.589 380.532 593.149 378.951 593.149 376.715C593.149 374.543 591.589 373.004 589.4 373.004C588.431 373.004 587.271 373.552 586.592 374.333ZM601.914 380.553C603.873 380.553 605.223 378.972 605.223 376.736C605.223 374.543 603.873 372.961 601.914 372.961C600.145 372.961 598.606 374.691 598.606 376.736C598.606 378.824 600.145 380.553 601.914 380.553ZM597.316 386.015V371.823H598.586V373.847C599.256 372.624 600.645 371.844 601.934 371.844C604.613 371.844 606.482 373.868 606.482 376.736C606.482 379.646 604.613 381.692 601.934 381.692C600.545 381.692 599.196 380.763 598.586 379.667V386.015H597.316ZM616.497 371.823L612.869 376.715L616.497 381.544H614.918L612.199 377.833L609.481 381.544H607.881L611.5 376.715L607.881 371.823H609.481L612.199 375.618L614.918 371.823H616.497Z" fill="#F9F4FF"/>
<path d="M19.6754 430.487H21.4746V456.142H19.6754V430.487ZM1.24023 449.735C4.8685 448.023 8.054 443.653 8.054 438.9V436.509H1.88891V435.063H8.02398V430.9H9.85312V435.063H15.9292V436.509H9.82311V438.9C9.82311 443.447 13.0975 447.61 16.7548 449.204L15.6933 450.65C12.8027 449.263 10.148 446.369 8.96854 442.768C7.84707 446.577 5.22234 449.617 2.30174 451.093L1.24023 449.735ZM46.3397 430.487H48.0799V456.142H46.3397V442.296H42.3575V454.784H40.6474V431.107H42.3575V440.79H46.3397V430.487ZM27.4337 449.057V433.587H37.0491V449.057H27.4337ZM29.1149 447.61H35.3679V435.033H29.1149V447.61ZM70.0553 430.487H71.8545V439.669H75.8366V441.174H71.8545V450.562H70.0553V430.487ZM52.1219 445.927C54.2159 445.927 56.6937 445.897 59.2895 445.809V443.653C56.2509 443.417 54.3048 442.001 54.3048 439.728C54.3048 437.307 56.6347 435.801 60.1451 435.801C63.6844 435.801 66.0143 437.307 66.0143 439.728C66.0143 442.001 64.0672 443.417 61.0586 443.653V445.72C63.5365 445.573 66.0733 445.366 68.3742 444.982L68.5211 446.31C63.0647 447.315 56.8707 447.433 52.3868 447.433L52.1219 445.927ZM52.7706 434.59V433.173H59.2895V430.369H61.0586V433.173H67.5485V434.59H52.7706ZM56.015 439.728C56.015 441.321 57.6373 442.355 60.1451 442.355C62.6809 442.355 64.3331 441.321 64.3331 439.728C64.3331 438.163 62.6809 437.159 60.1451 437.159C57.6373 437.159 56.015 438.163 56.015 439.728ZM56.045 455.521V449.204H57.8142V454.016H72.769V455.521H56.045ZM78.4913 433.173H92.2068V434.708H86.2786V438.694C86.2786 442.857 89.553 447.403 93.0623 449.086L92.0009 450.532C89.1692 449.086 86.5734 445.897 85.453 442.355C84.3025 446.192 81.5299 449.647 78.7272 451.152L77.6367 449.735C81.0581 447.993 84.5674 443.122 84.5674 438.694V434.708H78.4913V433.173ZM95.7171 456.142V430.487H97.5163V441.085H101.911V442.621H97.5163V456.142H95.7171ZM111.469 432.199C115.362 432.199 118.134 434.619 118.134 438.133C118.134 441.41 115.775 443.683 112.353 444.037V448.702C114.861 448.584 117.368 448.406 119.698 448.082L119.846 449.44C114.418 450.326 108.312 450.414 103.77 450.414L103.475 448.879C105.599 448.879 108.047 448.85 110.584 448.761V444.037C107.104 443.683 104.744 441.41 104.744 438.133C104.744 434.619 107.516 432.199 111.469 432.199ZM106.484 438.133C106.484 440.701 108.578 442.532 111.469 442.532C114.329 442.532 116.394 440.701 116.394 438.133C116.394 435.594 114.329 433.734 111.469 433.734C108.578 433.734 106.484 435.594 106.484 438.133ZM121.438 456.142V430.487H123.178V441.292H127.544V442.798H123.178V456.142H121.438ZM136.348 451.211H147.026V445.366H139.209V432.346H140.978V437.189H154.901V432.346H156.671V445.366H148.795V451.211H159.562V452.746H136.348V451.211ZM140.978 443.889H154.901V438.694H140.978V443.889ZM163.337 434.442H172.805V430.93H174.604V434.442H184.014V435.948H163.337V434.442ZM162.128 452.923V451.418H172.805V447.551C168.233 447.374 165.432 445.632 165.432 442.739C165.432 439.698 168.587 437.926 173.69 437.926C178.793 437.926 181.949 439.698 181.949 442.739C181.949 445.632 179.176 447.344 174.604 447.551V451.418H185.341V452.923H162.128ZM167.201 442.739C167.201 444.835 169.738 446.133 173.69 446.133C177.643 446.133 180.15 444.835 180.15 442.739C180.15 440.642 177.643 439.343 173.69 439.343C169.738 439.343 167.201 440.642 167.201 442.739ZM188.409 433.173H202.125V434.708H196.196V438.694C196.196 442.857 199.471 447.403 202.98 449.086L201.918 450.532C199.087 449.086 196.491 445.897 195.37 442.355C194.22 446.192 191.447 449.647 188.646 451.152L187.554 449.735C190.976 447.993 194.486 443.122 194.486 438.694V434.708H188.409V433.173ZM205.635 456.142V430.487H207.434V441.085H211.829V442.621H207.434V456.142H205.635ZM213.659 442.591H236.901V444.007H213.659V442.591ZM216.49 447.757V446.399H233.922V451.625H218.319V454.37H234.778V455.787H216.578V450.296H232.182V447.757H216.49ZM216.667 432.731V431.372H233.833V436.42H218.466V438.989H234.305V440.377H216.726V435.122H232.064V432.731H216.667ZM254.613 431.785C258.417 431.785 261.102 433.852 261.102 436.952C261.102 440.052 258.417 442.148 254.613 442.148C250.867 442.148 248.183 440.052 248.183 436.952C248.183 433.852 250.867 431.785 254.613 431.785ZM246.118 444.569C250.985 444.569 257.563 444.51 263.285 443.624L263.403 445.012C260.866 445.454 258.211 445.72 255.646 445.897V455.344H253.875V445.986C251.162 446.104 248.596 446.133 246.383 446.133L246.118 444.569ZM249.893 436.952C249.893 439.107 251.869 440.613 254.613 440.613C257.386 440.613 259.362 439.107 259.362 436.952C259.362 434.827 257.386 433.262 254.613 433.262C251.869 433.262 249.893 434.827 249.893 436.952ZM265.261 456.172V430.487H267.03V456.172H265.261ZM290.008 430.516H291.807V439.166H295.761V440.701H291.807V449.765H290.008V430.516ZM272.134 435.27V433.793H278.83V430.516H280.629V433.793H287.295V435.27H272.134ZM273.668 441.616C273.668 438.723 276.087 436.893 279.714 436.893C283.312 436.893 285.761 438.723 285.761 441.616C285.761 444.481 283.312 446.31 279.714 446.31C276.087 446.31 273.668 444.481 273.668 441.616ZM275.349 441.616C275.349 443.565 277.089 444.894 279.714 444.894C282.31 444.894 284.05 443.565 284.05 441.616C284.05 439.669 282.31 438.34 279.714 438.34C277.089 438.34 275.349 439.669 275.349 441.616ZM276.116 455.521V448.2H277.856V454.016H293.076V455.521H276.116ZM317.336 439.491H323.736V430.457H325.476V456.172H323.736V440.967H317.336V439.491ZM304.712 449.175C308.193 447.374 311.496 442.443 311.496 437.749V432.79H313.265V437.749C313.265 442.325 316.599 446.99 320.079 448.702L319.046 450.149C316.156 448.643 313.531 445.366 312.411 441.616C311.319 445.573 308.693 449.027 305.833 450.621L304.712 449.175ZM349.428 430.457H351.198V456.172H349.428V430.457ZM331.907 449.883V432.731H333.706V439.698H341.995V432.731H343.765V449.883H331.907ZM333.706 448.377H341.995V441.144H333.706V448.377ZM366.777 432.346H368.606V434.354C368.606 439.018 374.173 442.886 378.131 443.653L377.242 445.13C373.733 444.245 369.305 441.439 367.716 437.513C366.097 441.439 361.699 444.245 358.131 445.13L357.331 443.653C361.229 442.857 366.777 439.018 366.777 434.354V432.346ZM356.184 452.51V451.034H379.401V452.51H356.184ZM400.321 430.841C405.868 430.841 409.226 432.436 409.226 435.27C409.226 438.015 406.218 439.61 401.21 439.787V441.912H411.885V443.388H388.756V441.912H399.411V439.757C394.393 439.61 391.415 438.015 391.415 435.27C391.415 432.436 394.753 430.841 400.321 430.841ZM391.625 447.256V445.809H408.846V451.33H393.454V454.37H409.676V455.816H391.715V449.942H407.107V447.256H391.625ZM393.244 435.27C393.244 437.218 395.963 438.369 400.321 438.369C404.688 438.369 407.407 437.218 407.407 435.27C407.407 433.38 404.688 432.228 400.321 432.228C395.963 432.228 393.244 433.38 393.244 435.27ZM433.625 430.457H435.394V456.172H433.625V430.457ZM415.983 434.472V432.996H427.727V441.823H417.842V448.347H418.112C422.33 448.347 426.188 448.17 430.936 447.433L431.116 448.909C426.278 449.706 422.42 449.853 418.112 449.853H416.043V440.318H425.928V434.472H415.983Z" fill="#F9F4FF"/>
<path d="M471.786 448.284C472.646 449.845 474.015 451.068 475.705 451.068C477.934 451.068 479.603 449.761 479.603 447.736C479.603 443.413 471.806 445.248 471.806 439.913C471.806 437.678 473.686 436.18 476.064 436.18C477.774 436.18 479.523 437.34 480.112 439.09L479.393 439.344C478.903 437.888 477.514 436.855 476.064 436.855C474.085 436.855 472.566 438.12 472.566 439.913C472.566 444.721 480.362 442.781 480.362 447.736C480.362 450.119 478.403 451.743 475.705 451.743C473.875 451.743 472.166 450.477 471.137 448.664L471.786 448.284ZM488.878 451.722C485.36 451.722 483.321 449.255 483.321 445.733V436.349H484.081V445.733C484.081 448.854 485.81 451.047 488.878 451.047C491.957 451.047 493.686 448.854 493.686 445.733V436.349H494.446V445.733C494.446 449.255 492.397 451.722 488.878 451.722ZM497.944 436.349H498.704V451.574H497.944V436.349ZM512.377 436.349V437.024H507.529V451.574H506.77V437.024H501.992V436.349H512.377ZM530.478 436.349V437.024H525.641V451.574H524.881V437.024H520.093V436.349H530.478ZM539.804 445.88C539.804 443.962 538.684 442.633 537.145 442.633C535.376 442.633 534.007 444.194 534.007 446.45V451.574H533.247V436.77H534.007V443.962C534.426 442.97 535.466 441.937 537.145 441.937C539.154 441.937 540.564 443.603 540.564 445.986V451.574H539.804V445.88ZM543.742 441.853H544.502V451.574H543.742V441.853ZM543.512 438.415C543.512 438.036 543.762 437.783 544.142 437.783C544.522 437.783 544.772 438.036 544.772 438.415C544.772 438.795 544.522 439.048 544.142 439.048C543.762 439.048 543.512 438.795 543.512 438.415ZM554.327 445.501C554.327 443.771 553.208 442.549 551.608 442.549C549.759 442.549 548.47 443.835 548.47 445.248V451.574H547.69V441.853H548.47V443.329C548.89 442.464 550.159 441.853 551.608 441.853C553.657 441.853 555.107 443.223 555.107 445.163V451.574H554.327V445.501ZM569.05 443.687C570.649 444.11 571.949 445.564 571.949 447.251C571.949 449.866 570.019 451.722 567.231 451.722C564.452 451.722 562.513 449.866 562.513 447.251H563.273C563.273 449.487 564.912 451.047 567.231 451.047C569.55 451.047 571.199 449.592 571.199 447.504C571.199 445.48 569.57 444.046 567.271 444.046H566.921V443.35H567.251C569.45 443.35 570.979 442.001 570.979 440.103C570.979 438.184 569.49 436.833 567.341 436.833C565.192 436.833 563.673 438.289 563.673 440.335H562.913C562.913 437.888 564.752 436.159 567.341 436.159C569.93 436.159 571.739 437.888 571.739 440.335C571.739 441.706 570.629 443.097 569.05 443.687ZM575.827 444.32L575.067 444.173L575.487 436.349H582.923V437.024H576.247L575.887 443.265C576.746 442.591 577.906 442.169 578.915 442.169C581.724 442.169 583.683 444.11 583.683 446.872C583.683 449.718 581.724 451.722 578.915 451.722C576.666 451.722 574.727 450.224 574.217 448.073L574.977 447.905C575.377 449.718 577.006 451.004 578.915 451.004C581.274 451.004 582.923 449.297 582.923 446.872C582.923 444.531 581.274 442.886 578.915 442.886C577.866 442.886 576.576 443.476 575.827 444.32ZM591.029 451.026C593.198 451.026 594.688 449.276 594.688 446.788C594.688 444.32 593.198 442.591 591.029 442.591C589.11 442.591 587.381 444.489 587.381 446.788C587.381 449.128 589.11 451.026 591.029 451.026ZM586.582 455.961V441.853H587.361V444.363C587.991 443.055 589.42 441.916 591.049 441.916C593.638 441.916 595.467 443.919 595.467 446.788C595.467 449.676 593.638 451.701 591.049 451.701C589.15 451.701 587.861 450.309 587.361 449.234V455.961H586.582ZM604.793 441.853L601.294 446.788L604.793 451.574H603.843L600.855 447.399L597.816 451.574H596.867L600.415 446.788L596.867 441.853H597.816L600.855 446.175L603.843 441.853H604.793Z" fill="#F9F4FF"/>
</svg>
